<svg xmlns="http://www.w3.org/2000/svg" width="16" height="16" viewBox="0 0 16 16"><path fill="#FFF" fill-rule="evenodd" d="M4.822 11.824c.57-.532 1.09-1.029 1.561-1.491a18.49 18.49 0 0 0 1.218-1.302 7.11 7.11 0 0 0 .798-1.134c.191-.35.287-.684.287-1.001 0-.439-.112-.772-.336-1.001-.224-.229-.532-.343-.924-.343-.327 0-.616.091-.868.273-.252.182-.49.394-.714.637l-1.12-1.106c.439-.467.887-.819 1.344-1.057.457-.238 1.003-.357 1.638-.357.439 0 .838.068 1.197.203.36.135.67.327.931.574.261.247.462.544.602.889a3.068 3.068 0 0 1-.028 2.303 6.231 6.231 0 0 1-.637 1.162c-.266.387-.57.775-.91 1.162-.34.387-.693.768-1.057 1.141.224-.028.474-.054.749-.077s.52-.035.735-.035h1.792V13H4.822v-1.176z"/></svg>