<svg xmlns="http://www.w3.org/2000/svg" width="16" height="16" viewBox="0 0 16 16"><path fill="#FFF" fill-rule="evenodd" d="M5.564 10.606c.27.261.567.476.889.644a2.25 2.25 0 0 0 1.057.252c.439 0 .789-.091 1.05-.273.261-.182.392-.441.392-.777 0-.196-.035-.373-.105-.532a.89.89 0 0 0-.371-.399c-.177-.107-.42-.191-.728-.252a6.354 6.354 0 0 0-1.19-.091V7.722c.401 0 .735-.028 1.001-.084.266-.056.48-.138.644-.245a.958.958 0 0 0 .35-.378c.07-.145.105-.306.105-.483 0-.308-.093-.548-.28-.721-.187-.173-.457-.259-.812-.259-.317 0-.604.07-.861.21-.257.14-.525.331-.805.574l-1.036-1.26c.41-.355.842-.632 1.295-.833.453-.2.954-.301 1.505-.301.457 0 .875.054 1.253.161.378.107.7.266.966.476.266.21.474.464.623.763.15.299.224.644.224 1.036 0 .467-.128.861-.385 1.183-.257.322-.623.586-1.099.791v.056c.513.15.936.404 1.267.763.331.36.497.828.497 1.407 0 .41-.089.777-.266 1.099a2.482 2.482 0 0 1-.714.812c-.299.22-.649.387-1.05.504a4.542 4.542 0 0 1-1.274.175c-.728 0-1.344-.114-1.848-.343a3.523 3.523 0 0 1-1.246-.917l.952-1.302z"/></svg>