<svg xmlns="http://www.w3.org/2000/svg" width="16" height="16" viewBox="0 0 16 16"><path fill="#FFF" fill-rule="evenodd" d="M5.55 10.62c.27.243.562.45.875.623.313.173.66.259 1.043.259.457 0 .821-.117 1.092-.35.27-.233.406-.579.406-1.036 0-.448-.128-.789-.385-1.022-.257-.233-.595-.35-1.015-.35-.13 0-.247.007-.35.021-.103.014-.203.04-.301.077-.098.037-.2.084-.308.14a4.632 4.632 0 0 0-.357.21l-.924-.588.252-4.494h5.04v1.736H7.356l-.154 1.666c.168-.075.329-.128.483-.161.154-.033.324-.049.511-.049.383 0 .744.056 1.085.168.34.112.642.28.903.504.261.224.467.509.616.854.15.345.224.756.224 1.232 0 .495-.089.933-.266 1.316a2.94 2.94 0 0 1-.714.973 3.102 3.102 0 0 1-1.043.609c-.397.14-.81.21-1.239.21-.728 0-1.344-.119-1.848-.357a4.545 4.545 0 0 1-1.288-.889l.924-1.302z"/></svg>