<svg xmlns="http://www.w3.org/2000/svg" width="16" height="16" viewBox="0 0 16 16"><path fill="#FFF" fill-rule="nonzero" d="M8.196 11.628c.308 0 .572-.114.791-.343.22-.229.329-.595.329-1.099 0-.476-.11-.81-.329-1.001-.22-.191-.497-.287-.833-.287-.224 0-.453.065-.686.196-.233.13-.453.36-.658.686.047.355.117.649.21.882.093.233.2.422.322.567a1.061 1.061 0 0 0 .854.399zm1.792-5.39a2.173 2.173 0 0 0-.616-.441 1.705 1.705 0 0 0-1.456-.049c-.215.093-.404.25-.567.469-.163.22-.296.506-.399.861-.103.355-.163.789-.182 1.302.112-.15.243-.282.392-.399.15-.117.303-.215.462-.294.159-.08.317-.14.476-.182.159-.042.308-.063.448-.063.383 0 .735.056 1.057.168.322.112.602.28.84.504.238.224.422.509.553.854.13.345.196.751.196 1.218 0 .467-.08.882-.238 1.246a2.952 2.952 0 0 1-.637.938c-.266.261-.579.46-.938.595a3.21 3.21 0 0 1-1.141.203c-.43 0-.847-.084-1.253-.252a2.914 2.914 0 0 1-1.078-.784c-.313-.355-.562-.81-.749-1.365-.187-.555-.28-1.225-.28-2.009 0-.83.1-1.55.301-2.156.2-.607.467-1.106.798-1.498a3.171 3.171 0 0 1 1.148-.875 3.315 3.315 0 0 1 1.351-.287c.588 0 1.097.105 1.526.315.43.21.784.46 1.064.749L9.988 6.238z"/></svg>