<svg xmlns="http://www.w3.org/2000/svg" width="16" height="16" viewBox="0 0 16 16"><path fill="#FFF" fill-rule="nonzero" d="M6.656 10.494c0 .392.135.698.406.917.27.22.593.329.966.329.345 0 .63-.091.854-.273.224-.182.336-.46.336-.833a.922.922 0 0 0-.133-.504 1.37 1.37 0 0 0-.385-.385 3.702 3.702 0 0 0-.595-.329 64.117 64.117 0 0 0-.763-.336c-.196.187-.36.401-.49.644a1.6 1.6 0 0 0-.196.77zm1.89-2.674c.364-.42.546-.854.546-1.302 0-.345-.096-.623-.287-.833-.191-.21-.455-.315-.791-.315-.27 0-.504.084-.7.252-.196.168-.294.425-.294.77 0 .364.14.649.42.854.28.205.649.397 1.106.574zm-3.654 2.912c0-.541.147-.985.441-1.33.294-.345.651-.63 1.071-.854v-.056a3.749 3.749 0 0 1-.854-.889c-.224-.331-.336-.735-.336-1.211 0-.373.07-.712.21-1.015.14-.303.336-.562.588-.777.252-.215.553-.378.903-.49.35-.112.73-.168 1.141-.168.401 0 .77.058 1.106.175.336.117.62.28.854.49.233.21.415.467.546.77.13.303.196.637.196 1.001 0 .43-.117.81-.35 1.141-.233.331-.504.6-.812.805v.056c.43.233.793.532 1.092.896.299.364.448.84.448 1.428 0 .355-.075.681-.224.98-.15.299-.362.558-.637.777-.275.22-.607.392-.994.518a4.172 4.172 0 0 1-1.295.189c-.448 0-.861-.058-1.239-.175a3.03 3.03 0 0 1-.98-.497 2.313 2.313 0 0 1-.644-.77 2.136 2.136 0 0 1-.231-.994z"/></svg>