<svg xmlns="http://www.w3.org/2000/svg" width="16" height="16" viewBox="0 0 16 16"><path fill="#FFF" fill-rule="nonzero" d="M5.136 8.212c.224 0 .453-.065.686-.196.233-.13.448-.36.644-.686-.093-.7-.268-1.183-.525-1.449s-.544-.399-.861-.399c-.299 0-.56.114-.784.343-.224.229-.336.595-.336 1.099 0 .476.112.81.336 1.001.224.191.504.287.84.287zm-1.834 2.66c.15.168.35.315.602.441s.509.189.77.189c.252 0 .485-.047.7-.14.215-.093.404-.25.567-.469.163-.22.294-.504.392-.854.098-.35.156-.786.175-1.309-.112.15-.243.282-.392.399-.15.117-.303.215-.462.294-.159.08-.317.14-.476.182a1.754 1.754 0 0 1-.448.063c-.383 0-.735-.056-1.057-.168-.322-.112-.6-.28-.833-.504a2.353 2.353 0 0 1-.553-.854c-.135-.345-.203-.751-.203-1.218 0-.457.08-.87.238-1.239.159-.369.371-.684.637-.945.266-.261.579-.46.938-.595a3.21 3.21 0 0 1 1.141-.203c.43 0 .847.084 1.253.252.406.168.765.43 1.078.784.313.355.565.81.756 1.365.191.555.287 1.225.287 2.009 0 .83-.1 1.55-.301 2.156-.2.607-.467 1.106-.798 1.498a3.171 3.171 0 0 1-1.148.875 3.315 3.315 0 0 1-1.351.287c-.588 0-1.099-.107-1.533-.322a4.018 4.018 0 0 1-1.071-.742l1.092-1.232zm7.994-2.211H9V7.339h2.296V5h1.408v2.339H15v1.322h-2.296V11h-1.408V8.661z"/></svg>