<svg xmlns="http://www.w3.org/2000/svg" width="100" height="28" fill="none" viewBox="0 0 100 28"><g clip-path="url(#clip0)"><path fill="#4285F4" d="M24.885 14.282c0-.754-.061-1.511-.192-2.253H14.236v4.27h5.99a5.132 5.132 0 0 1-2.217 3.369v2.77h3.573c2.098-1.93 3.304-4.783 3.304-8.156z"/><path fill="#34A853" d="M14.236 25.115c2.99 0 5.512-.982 7.349-2.677l-3.573-2.77c-.994.676-2.277 1.06-3.773 1.06-2.892 0-5.345-1.952-6.225-4.576H4.327v2.856a11.09 11.09 0 0 0 9.909 6.107z"/><path fill="#FBBC04" d="M8.01 16.152a6.641 6.641 0 0 1 0-4.245V9.05H4.327a11.097 11.097 0 0 0 0 9.957l3.683-2.856z"/><path fill="#EA4335" d="M14.236 7.328a6.025 6.025 0 0 1 4.253 1.662l3.165-3.166a10.656 10.656 0 0 0-7.418-2.884 11.085 11.085 0 0 0-9.909 6.111l3.683 2.856c.876-2.628 3.333-4.58 6.226-4.58z"/></g><g clip-path="url(#clip1)"><path fill="#FFF" d="M59.255 20.395a12.471 12.471 0 0 1-1.233 2.218c-.648.924-1.18 1.564-1.589 1.92-.634.583-1.313.881-2.041.898-.523 0-1.153-.148-1.886-.45-.736-.3-1.412-.449-2.03-.449-.649 0-1.344.15-2.088.45-.745.3-1.345.458-1.804.474-.698.03-1.393-.278-2.088-.924-.443-.386-.997-1.049-1.661-1.987-.713-1.003-1.298-2.165-1.757-3.49-.492-1.432-.738-2.818-.738-4.16 0-1.537.332-2.862.997-3.973a5.85 5.85 0 0 1 2.09-2.114 5.62 5.62 0 0 1 2.824-.797c.554 0 1.28.172 2.184.509.9.338 1.48.51 1.733.51.19 0 .832-.201 1.921-.6 1.03-.371 1.9-.525 2.611-.464 1.93.155 3.38.916 4.344 2.287-1.726 1.045-2.58 2.51-2.562 4.389.015 1.463.546 2.681 1.59 3.648a5.225 5.225 0 0 0 1.588 1.042c-.127.37-.262.724-.405 1.063zM54.83 2.98c0 1.147-.419 2.218-1.254 3.21-1.008 1.178-2.227 1.859-3.55 1.751A3.56 3.56 0 0 1 50 7.507c0-1.102.48-2.28 1.33-3.244.425-.488.966-.893 1.622-1.217.654-.319 1.272-.495 1.854-.525.017.153.024.307.024.459z"/></g><g clip-path="url(#clip2)"><path fill="#1877F2" d="M97.55 14c0-6.379-5.171-11.55-11.55-11.55-6.379 0-11.55 5.171-11.55 11.55 0 5.765 4.224 10.543 9.745 11.41v-8.071h-2.932V14h2.932v-2.545c0-2.894 1.725-4.493 4.363-4.493 1.264 0 2.585.225 2.585.225v2.843h-1.456c-1.435 0-1.882.89-1.882 1.803V14h3.203l-.512 3.339h-2.691v8.07c5.521-.866 9.745-5.644 9.745-11.409z"/><path fill="#fff" d="M90.496 17.339L91.008 14h-3.203v-2.167c0-.913.447-1.803 1.882-1.803h1.456V7.187s-1.321-.225-2.585-.225c-2.638 0-4.363 1.599-4.363 4.493V14h-2.932v3.339h2.932v8.07a11.632 11.632 0 0 0 3.61 0v-8.07h2.69z"/></g><defs><clipPath id="clip0"><path fill="#fff" d="M0 0h21.735v22.175H0z" transform="translate(3.15 2.94)"/></clipPath><clipPath id="clip1"><path fill="#fff" d="M0 0h19.32v22.937H0z" transform="translate(40.34 2.52)"/></clipPath><clipPath id="clip2"><path fill="#fff" d="M0 0h23.1v23.1H0z" transform="translate(74.45 2.45)"/></clipPath></defs></svg>