<svg xmlns="http://www.w3.org/2000/svg" width="28" height="28" fill="none" viewBox="0 0 28 28"><g clip-path="url(#clip0)"><path fill="#FFF" d="M23.255 20.395a12.471 12.471 0 0 1-1.233 2.217c-.648.925-1.18 1.565-1.589 1.92-.634.583-1.313.882-2.041.899-.523 0-1.153-.149-1.886-.45-.736-.3-1.412-.449-2.03-.449-.649 0-1.344.149-2.088.449-.745.301-1.345.458-1.804.474-.698.03-1.393-.277-2.088-.923-.443-.387-.997-1.05-1.661-1.988-.713-1.002-1.298-2.165-1.757-3.49-.492-1.431-.738-2.817-.738-4.16 0-1.536.332-2.862.997-3.973a5.852 5.852 0 0 1 2.09-2.113 5.62 5.62 0 0 1 2.824-.797c.554 0 1.28.171 2.184.508.9.339 1.48.51 1.733.51.19 0 .832-.2 1.921-.6 1.03-.37 1.9-.524 2.612-.464 1.93.156 3.379.917 4.343 2.287-1.726 1.046-2.58 2.51-2.562 4.39.015 1.463.546 2.68 1.59 3.648a5.225 5.225 0 0 0 1.588 1.042c-.127.37-.262.723-.405 1.063zM18.83 2.979c0 1.147-.419 2.218-1.254 3.21-1.008 1.178-2.227 1.86-3.55 1.752A3.56 3.56 0 0 1 14 7.506c0-1.101.48-2.28 1.33-3.243.425-.488.966-.894 1.622-1.217.654-.32 1.272-.495 1.854-.526.017.154.024.307.024.46z"/></g><defs><clipPath id="clip0"><path fill="#fff" d="M0 0h19.32v22.937H0z" transform="translate(4.34 2.52)"/></clipPath></defs></svg>