<svg height="77" viewBox="0 0 70 77" width="70" xmlns="http://www.w3.org/2000/svg"><path d="m67.8 60.6q.4 0 .7.3.3.2.3.7 0 .4-.2.7-.3.3-.7.3c-37.5 2.1-56.3-13.7-55.8-47.2-2.1 2.1-4.5 5.5-7 10.4q-.1.3-.5.5-.4.1-.8-.1-.4-.2-.5-.6-.1-.4.1-.7c2.5-5.1 5-8.6 7.3-10.9 1.5-1.5 2.6-2.2 3.3-2.4q.2 0 .4 0 .2 0 .4.1.2.1.3.2.1.2.2.4 0 .2.1.6l.2.5q.5 1.4 1.3 3.1.6 1.2 1.2 2.4.7 1.2 1.4 2.3.8 1.2 1.6 2.3.8 1.1 1.7 2.1.3.3.3.7-.1.4-.4.7-.3.2-.7.2-.4 0-.6-.3-1-1.1-1.9-2.2-.8-1.2-1.6-2.4-.8-1.2-1.5-2.4-.7-1.3-1.3-2.6l-.3-.5q-.3-.8-.7-1.6c-.5 32.4 17.2 47.4 53.7 45.4z" fill="#fff" fill-rule="evenodd"/></svg>