<svg width="100" height="100" viewBox="0 0 100 100" fill="none" xmlns="http://www.w3.org/2000/svg">
<g clip-path="url(#clip0_2544_587)">
<path d="M22 75V67C22 61.4772 34.536 57 50 57C65.464 57 78 61.4772 78 67V75C78 80.5229 65.464 85 50 85C34.536 85 22 80.5229 22 75Z" fill="url(#paint0_linear_2544_587)"/>
<path d="M22 65V57C22 51.4772 34.536 47 50 47C65.464 47 78 51.4772 78 57V65C78 70.5229 65.464 75 50 75C34.536 75 22 70.5229 22 65Z" fill="white"/>
<path d="M22 61V53C22 47.4772 34.536 43 50 43C65.464 43 78 47.4772 78 53V61C78 66.5229 65.464 71 50 71C34.536 71 22 66.5229 22 61Z" fill="url(#paint1_linear_2544_587)"/>
<path d="M22 51V43C22 37.4772 34.536 33 50 33C65.464 33 78 37.4772 78 43V51C78 56.5229 65.464 61 50 61C34.536 61 22 56.5229 22 51Z" fill="white"/>
<path d="M22 47V39C22 33.4772 34.536 29 50 29C65.464 29 78 33.4772 78 39V47C78 52.5229 65.464 57 50 57C34.536 57 22 52.5229 22 47Z" fill="url(#paint2_linear_2544_587)"/>
<path d="M22 37V29C22 23.4772 34.536 19 50 19C65.464 19 78 23.4772 78 29V37C78 42.5228 65.464 47 50 47C34.536 47 22 42.5228 22 37Z" fill="white"/>
<path d="M22 33V25C22 19.4772 34.536 15 50 15C65.464 15 78 19.4772 78 25V33C78 38.5228 65.464 43 50 43C34.536 43 22 38.5228 22 33Z" fill="url(#paint3_linear_2544_587)"/>
<rect x="38" y="34" width="66" height="66" rx="17" fill="white"/>
<g clip-path="url(#clip1_2544_587)">
<g filter="url(#filter0_ii_2544_587)">
<path fill-rule="evenodd" clip-rule="evenodd" d="M100 56.0636C100 55.375 100 54.6864 99.9961 53.9978C99.9926 53.4177 99.9859 52.8378 99.9702 52.258C99.9361 50.9943 99.8615 49.7198 99.6368 48.4702C99.4089 47.2026 99.0367 46.0228 98.4501 44.8711C97.8735 43.739 97.1203 42.7031 96.2216 41.805C95.3231 40.907 94.2869 40.1542 93.1544 39.578C92.0015 38.9913 90.8204 38.6192 89.5514 38.3914C88.3017 38.167 87.0268 38.0926 85.7631 38.0584C85.1829 38.0427 84.6027 38.0361 84.0224 38.0325C83.3334 38.0283 82.6445 38.0286 81.9555 38.0286L73.9561 38H67.9731L60.1152 38.0286C59.4249 38.0286 58.7346 38.0283 58.0443 38.0325C57.4628 38.0361 56.8815 38.0427 56.3002 38.0584C55.0336 38.0926 53.7558 38.167 52.5031 38.3917C51.2324 38.6195 50.0496 38.9914 48.8951 39.5777C47.7603 40.154 46.7218 40.9068 45.8214 41.805C44.9212 42.7031 44.1665 43.7387 43.5889 44.8706C43.0007 46.0229 42.6278 47.2034 42.3993 48.4717C42.1744 49.7208 42.0998 50.9949 42.0655 52.258C42.0499 52.8379 42.0431 53.4178 42.0396 53.9978C42.0354 54.6865 42 55.5419 42 56.2305L42.0002 63.9795L42 70.0266L42.0358 77.9403C42.0358 78.6298 42.0355 79.3193 42.0396 80.0088C42.0431 80.5897 42.0499 81.1704 42.0656 81.751C42.0998 83.0163 42.1745 84.2926 42.3997 85.5439C42.6281 86.8132 43.0009 87.9947 43.5886 89.1479C44.1663 90.2816 44.9211 91.3188 45.8214 92.2182C46.7218 93.1175 47.7599 93.8713 48.8946 94.4484C50.0498 95.0358 51.2331 95.4084 52.5046 95.6365C53.7567 95.8613 55.0341 95.9358 56.3002 95.9699C56.8815 95.9856 57.4629 95.9923 58.0444 95.9958C58.7347 96.0001 59.4249 95.9998 60.1152 95.9998L68.0441 96H74.042L81.9555 95.9997C82.6445 95.9997 83.3334 96.0001 84.0224 95.9958C84.6027 95.9923 85.1829 95.9856 85.7631 95.9699C87.0273 95.9357 88.3026 95.8611 89.5529 95.6362C90.8211 95.4081 92.0016 95.0357 93.1539 94.4486C94.2866 93.8715 95.323 93.1177 96.2216 92.2182C97.1202 91.319 97.8733 90.2819 98.4499 89.1484C99.0368 87.9946 99.409 86.8126 99.6371 85.5424C99.8616 84.2916 99.9361 83.0158 99.9702 81.751C99.9859 81.1703 99.9926 80.5896 99.9961 80.0088C100 79.3193 100 78.6298 100 77.9403C100 77.9403 99.9996 70.1663 99.9996 70.0266V63.9732C99.9996 63.87 100 56.0636 100 56.0636Z" fill="url(#paint4_linear_2544_587)"/>
<path fill-rule="evenodd" clip-rule="evenodd" d="M100 56.0636C100 55.375 100 54.6864 99.9961 53.9978C99.9926 53.4177 99.9859 52.8378 99.9702 52.258C99.9361 50.9943 99.8615 49.7198 99.6368 48.4702C99.4089 47.2026 99.0367 46.0228 98.4501 44.8711C97.8735 43.739 97.1203 42.7031 96.2216 41.805C95.3231 40.907 94.2869 40.1542 93.1544 39.578C92.0015 38.9913 90.8204 38.6192 89.5514 38.3914C88.3017 38.167 87.0268 38.0926 85.7631 38.0584C85.1829 38.0427 84.6027 38.0361 84.0224 38.0325C83.3334 38.0283 82.6445 38.0286 81.9555 38.0286L73.9561 38H67.9731L60.1152 38.0286C59.4249 38.0286 58.7346 38.0283 58.0443 38.0325C57.4628 38.0361 56.8815 38.0427 56.3002 38.0584C55.0336 38.0926 53.7558 38.167 52.5031 38.3917C51.2324 38.6195 50.0496 38.9914 48.8951 39.5777C47.7603 40.154 46.7218 40.9068 45.8214 41.805C44.9212 42.7031 44.1665 43.7387 43.5889 44.8706C43.0007 46.0229 42.6278 47.2034 42.3993 48.4717C42.1744 49.7208 42.0998 50.9949 42.0655 52.258C42.0499 52.8379 42.0431 53.4178 42.0396 53.9978C42.0354 54.6865 42 55.5419 42 56.2305L42.0002 63.9795L42 70.0266L42.0358 77.9403C42.0358 78.6298 42.0355 79.3193 42.0396 80.0088C42.0431 80.5897 42.0499 81.1704 42.0656 81.751C42.0998 83.0163 42.1745 84.2926 42.3997 85.5439C42.6281 86.8132 43.0009 87.9947 43.5886 89.1479C44.1663 90.2816 44.9211 91.3188 45.8214 92.2182C46.7218 93.1175 47.7599 93.8713 48.8946 94.4484C50.0498 95.0358 51.2331 95.4084 52.5046 95.6365C53.7567 95.8613 55.0341 95.9358 56.3002 95.9699C56.8815 95.9856 57.4629 95.9923 58.0444 95.9958C58.7347 96.0001 59.4249 95.9998 60.1152 95.9998L68.0441 96H74.042L81.9555 95.9997C82.6445 95.9997 83.3334 96.0001 84.0224 95.9958C84.6027 95.9923 85.1829 95.9856 85.7631 95.9699C87.0273 95.9357 88.3026 95.8611 89.5529 95.6362C90.8211 95.4081 92.0016 95.0357 93.1539 94.4486C94.2866 93.8715 95.323 93.1177 96.2216 92.2182C97.1202 91.319 97.8733 90.2819 98.4499 89.1484C99.0368 87.9946 99.409 86.8126 99.6371 85.5424C99.8616 84.2916 99.9361 83.0158 99.9702 81.751C99.9859 81.1703 99.9926 80.5896 99.9961 80.0088C100 79.3193 100 78.6298 100 77.9403C100 77.9403 99.9996 70.1663 99.9996 70.0266V63.9732C99.9996 63.87 100 56.0636 100 56.0636Z" fill="url(#paint5_angular_2544_587)"/>
</g>
<g filter="url(#filter1_ddii_2544_587)">
<rect x="45.8711" y="41.801" width="50.3981" height="50.3981" rx="9.15049" fill="url(#paint6_linear_2544_587)"/>
</g>
<g style="mix-blend-mode:multiply">
<mask id="mask0_2544_587" style="mask-type:alpha" maskUnits="userSpaceOnUse" x="45" y="41" width="52" height="52">
<rect x="45.8711" y="41.801" width="50.3981" height="50.3981" rx="9.15049" fill="url(#paint7_linear_2544_587)"/>
</mask>
<g mask="url(#mask0_2544_587)">
<rect x="42" y="44.335" width="58" height="0.703884" rx="0.351942" fill="#F8F9FC"/>
<rect x="42" y="50.2476" width="58" height="0.703884" rx="0.351942" fill="#F8F9FC"/>
<rect x="42" y="57.1457" width="13.4442" height="0.703884" rx="0.351942" fill="#F8F9FC"/>
<rect x="87.4707" y="57.1457" width="12.5291" height="0.703884" rx="0.351942" fill="#F8F9FC"/>
<rect x="42" y="63.4806" width="15.9078" height="0.703884" rx="0.351942" fill="#F8F9FC"/>
<rect x="67.1289" y="63.4806" width="4.64563" height="0.703884" rx="0.351942" fill="#F8F9FC"/>
<rect x="80.9951" y="63.4806" width="19.0049" height="0.703884" rx="0.351942" fill="#F8F9FC"/>
<rect x="42" y="69.8156" width="15.9078" height="0.703884" rx="0.351942" fill="#F8F9FC"/>
<rect x="80.9951" y="69.8156" width="19.0049" height="0.703884" rx="0.351942" fill="#F8F9FC"/>
<rect x="91.835" y="76.1505" width="8.16505" height="0.703884" rx="0.351942" fill="#F8F9FC"/>
<rect x="42" y="76.1505" width="8.79854" height="0.703884" rx="0.351942" fill="#F8F9FC"/>
<rect x="42" y="83.0486" width="58" height="0.703884" rx="0.351942" fill="#F8F9FC"/>
<rect x="42" y="88.9612" width="58" height="0.703884" rx="0.351942" fill="#F8F9FC"/>
</g>
</g>
<path fill-rule="evenodd" clip-rule="evenodd" d="M58.3125 54.6491H61.7563C63.1863 54.6491 64.3455 55.8084 64.3455 57.2384V67.2848H71.0777V70.9098H63.3098C61.8798 70.9098 60.7205 69.7506 60.7205 68.3205V58.2741H58.3125V54.6491ZM84.6455 57.2384V59.9313H81.0205V58.2741H78.1723V70.9098H74.5473V58.2741H71.6991V59.9313H68.0741V57.2384C68.0741 55.8084 69.2334 54.6491 70.6634 54.6491H82.0563C83.4863 54.6491 84.6455 55.8084 84.6455 57.2384Z" fill="black"/>
<path d="M56.6319 80.6326L53.2607 78.2246C54.2511 76.8381 55.2728 75.7653 56.3477 75.0128C57.5425 74.1765 58.8121 73.7321 60.1249 73.7321C61.3439 73.7321 62.3997 74.0278 63.343 74.5937C63.7235 74.8221 64.0731 75.0855 64.4266 75.3973C64.6702 75.6123 64.8443 75.7811 65.2146 76.1514C65.7759 76.7127 66.0092 76.9184 66.2883 77.0859C66.5911 77.2676 66.9108 77.3571 67.3749 77.3571C67.8395 77.3571 68.1605 77.2673 68.4649 77.0851C68.7454 76.9171 68.9805 76.7101 69.5417 76.15L69.5468 76.1448C69.9153 75.777 70.0911 75.607 70.3349 75.3924C70.6878 75.0815 71.0368 74.819 71.4165 74.5914C72.3579 74.0271 73.4106 73.7321 74.6249 73.7321C75.8392 73.7321 76.892 74.0271 77.8333 74.5914C78.213 74.819 78.562 75.0815 78.9149 75.3924C79.1587 75.607 79.3345 75.777 79.703 76.1448L79.7081 76.15C80.2693 76.7101 80.5044 76.9171 80.7849 77.0851C81.0893 77.2673 81.4103 77.3571 81.8749 77.3571C82.2883 77.3571 82.7449 77.1973 83.2763 76.8253C83.9276 76.3695 84.6321 75.6297 85.3679 74.5996L88.7391 77.0076C87.7487 78.3941 86.727 79.4668 85.6521 80.2193C84.4573 81.0556 83.1877 81.5 81.8749 81.5C80.6564 81.5 79.6004 81.2046 78.6564 80.6393C78.2755 80.4112 77.9254 80.148 77.5714 79.8364C77.327 79.6212 77.1507 79.4508 76.7814 79.0822L76.7763 79.077C76.2165 78.5183 75.9821 78.3119 75.7032 78.1447C75.4016 77.9639 75.0843 77.875 74.6249 77.875C74.1655 77.875 73.8482 77.9639 73.5466 78.1447C73.2677 78.3119 73.0333 78.5183 72.4735 79.077L72.4684 79.0822C72.0991 79.4508 71.9228 79.6212 71.6784 79.8364C71.3245 80.148 70.9744 80.4112 70.5934 80.6393C69.6495 81.2046 68.5934 81.5 67.3749 81.5C66.1559 81.5 65.1001 81.2044 64.1568 80.6384C63.7763 80.4101 63.4267 80.1467 63.0733 79.8348C62.8296 79.6198 62.6555 79.4511 62.2852 79.0808C61.7239 78.5195 61.4907 78.3137 61.2115 78.1462C60.9087 77.9645 60.589 77.875 60.1249 77.875C59.7115 77.875 59.2549 78.0348 58.7235 78.4068C58.0723 78.8627 57.3678 79.6024 56.6319 80.6326Z" fill="#5EB5FF"/>
</g>
</g>
<defs>
<filter id="filter0_ii_2544_587" x="42" y="37.7888" width="58" height="58.4927" filterUnits="userSpaceOnUse" color-interpolation-filters="sRGB">
<feFlood flood-opacity="0" result="BackgroundImageFix"/>
<feBlend mode="normal" in="SourceGraphic" in2="BackgroundImageFix" result="shape"/>
<feColorMatrix in="SourceAlpha" type="matrix" values="0 0 0 0 0 0 0 0 0 0 0 0 0 0 0 0 0 0 127 0" result="hardAlpha"/>
<feOffset dy="0.281553"/>
<feGaussianBlur stdDeviation="0.140777"/>
<feComposite in2="hardAlpha" operator="arithmetic" k2="-1" k3="1"/>
<feColorMatrix type="matrix" values="0 0 0 0 1 0 0 0 0 1 0 0 0 0 1 0 0 0 0.2 0"/>
<feBlend mode="normal" in2="shape" result="effect1_innerShadow_2544_587"/>
<feColorMatrix in="SourceAlpha" type="matrix" values="0 0 0 0 0 0 0 0 0 0 0 0 0 0 0 0 0 0 127 0" result="hardAlpha"/>
<feOffset dy="-0.211165"/>
<feGaussianBlur stdDeviation="0.211165"/>
<feComposite in2="hardAlpha" operator="arithmetic" k2="-1" k3="1"/>
<feColorMatrix type="matrix" values="0 0 0 0 0 0 0 0 0 0 0 0 0 0 0 0 0 0 0.3 0"/>
<feBlend mode="normal" in2="effect1_innerShadow_2544_587" result="effect2_innerShadow_2544_587"/>
</filter>
<filter id="filter1_ddii_2544_587" x="45.5895" y="41.3786" width="50.9615" height="51.3835" filterUnits="userSpaceOnUse" color-interpolation-filters="sRGB">
<feFlood flood-opacity="0" result="BackgroundImageFix"/>
<feColorMatrix in="SourceAlpha" type="matrix" values="0 0 0 0 0 0 0 0 0 0 0 0 0 0 0 0 0 0 127 0" result="hardAlpha"/>
<feOffset dy="0.281553"/>
<feGaussianBlur stdDeviation="0.140777"/>
<feColorMatrix type="matrix" values="0 0 0 0 1 0 0 0 0 1 0 0 0 0 1 0 0 0 0.3 0"/>
<feBlend mode="normal" in2="BackgroundImageFix" result="effect1_dropShadow_2544_587"/>
<feColorMatrix in="SourceAlpha" type="matrix" values="0 0 0 0 0 0 0 0 0 0 0 0 0 0 0 0 0 0 127 0" result="hardAlpha"/>
<feOffset dy="-0.140777"/>
<feGaussianBlur stdDeviation="0.140777"/>
<feColorMatrix type="matrix" values="0 0 0 0 0 0 0 0 0 0 0 0 0 0 0 0 0 0 0.16 0"/>
<feBlend mode="normal" in2="effect1_dropShadow_2544_587" result="effect2_dropShadow_2544_587"/>
<feBlend mode="normal" in="SourceGraphic" in2="effect2_dropShadow_2544_587" result="shape"/>
<feColorMatrix in="SourceAlpha" type="matrix" values="0 0 0 0 0 0 0 0 0 0 0 0 0 0 0 0 0 0 127 0" result="hardAlpha"/>
<feOffset dy="0.351942"/>
<feGaussianBlur stdDeviation="0.739078"/>
<feComposite in2="hardAlpha" operator="arithmetic" k2="-1" k3="1"/>
<feColorMatrix type="matrix" values="0 0 0 0 0 0 0 0 0 0 0 0 0 0 0 0 0 0 0.23 0"/>
<feBlend mode="normal" in2="shape" result="effect3_innerShadow_2544_587"/>
<feColorMatrix in="SourceAlpha" type="matrix" values="0 0 0 0 0 0 0 0 0 0 0 0 0 0 0 0 0 0 127 0" result="hardAlpha"/>
<feOffset dy="0.351942"/>
<feGaussianBlur stdDeviation="0.140777"/>
<feComposite in2="hardAlpha" operator="arithmetic" k2="-1" k3="1"/>
<feColorMatrix type="matrix" values="0 0 0 0 0 0 0 0 0 0 0 0 0 0 0 0 0 0 0.07 0"/>
<feBlend mode="normal" in2="effect3_innerShadow_2544_587" result="effect4_innerShadow_2544_587"/>
</filter>
<linearGradient id="paint0_linear_2544_587" x1="39.815" y1="8.21875" x2="70.2131" y2="11.2212" gradientUnits="userSpaceOnUse">
<stop stop-color="#F5A523"/>
<stop offset="1" stop-color="#E96200"/>
</linearGradient>
<linearGradient id="paint1_linear_2544_587" x1="39.815" y1="8.21875" x2="70.2131" y2="11.2212" gradientUnits="userSpaceOnUse">
<stop stop-color="#F5A523"/>
<stop offset="1" stop-color="#E96200"/>
</linearGradient>
<linearGradient id="paint2_linear_2544_587" x1="39.815" y1="8.21875" x2="70.2131" y2="11.2212" gradientUnits="userSpaceOnUse">
<stop stop-color="#F5A523"/>
<stop offset="1" stop-color="#E96200"/>
</linearGradient>
<linearGradient id="paint3_linear_2544_587" x1="39.815" y1="8.21875" x2="70.2131" y2="11.2212" gradientUnits="userSpaceOnUse">
<stop stop-color="#F5A523"/>
<stop offset="1" stop-color="#E96200"/>
</linearGradient>
<linearGradient id="paint4_linear_2544_587" x1="71" y1="38" x2="71" y2="96" gradientUnits="userSpaceOnUse">
<stop stop-color="#3A3D47"/>
<stop offset="1" stop-color="#23242B"/>
</linearGradient>
<radialGradient id="paint5_angular_2544_587" cx="0" cy="0" r="1" gradientUnits="userSpaceOnUse" gradientTransform="translate(70.6939 67.6122) rotate(39.1529) scale(28.0685 27.7182)">
<stop offset="0.0833333" stop-color="#2D8CF0"/>
<stop offset="0.255208" stop-color="#1976F0"/>
<stop offset="0.427083" stop-color="#2D8CF0"/>
<stop offset="0.75" stop-color="#45A0FC"/>
</radialGradient>
<linearGradient id="paint6_linear_2544_587" x1="71.0701" y1="41.801" x2="71.0701" y2="92.199" gradientUnits="userSpaceOnUse">
<stop stop-color="white"/>
<stop offset="1" stop-color="#F9FAFC"/>
</linearGradient>
<linearGradient id="paint7_linear_2544_587" x1="71.0701" y1="41.801" x2="71.0701" y2="92.199" gradientUnits="userSpaceOnUse">
<stop stop-color="white"/>
<stop offset="1" stop-color="#F9FAFC"/>
</linearGradient>
<clipPath id="clip0_2544_587">
<rect width="100" height="100" fill="white"/>
</clipPath>
<clipPath id="clip1_2544_587">
<rect width="58" height="58" fill="white" transform="translate(42 38)"/>
</clipPath>
</defs>
</svg>
