<svg xmlns="http://www.w3.org/2000/svg" width="40" height="40" fill="none" viewBox="0 0 40 40"><path fill="#C2C9D6" fill-rule="evenodd" d="M32 18.414V14h-9a1 1 0 0 1-1-1V4H9a1 1 0 0 0-1 1v30a1 1 0 0 0 1 1h11.514a11.064 11.064 0 0 0 2.16 2H9a3 3 0 0 1-3-3V5a3 3 0 0 1 3-3h13.757a3 3 0 0 1 2.122.879l8.242 8.242A3 3 0 0 1 34 13.243v5.956a10.924 10.924 0 0 0-2-.785zM24 4.828L31.172 12H24V4.828z" clip-rule="evenodd"/><path fill="#EEF1F6" fill-rule="evenodd" d="M11 9a1 1 0 0 1 1-1h6a1 1 0 1 1 0 2h-6a1 1 0 0 1-1-1zm0 4a1 1 0 0 1 1-1h6a1 1 0 1 1 0 2h-6a1 1 0 0 1-1-1zm0 4a1 1 0 0 1 1-1h16a1 1 0 1 1 0 2H12a1 1 0 0 1-1-1zm0 4a1 1 0 0 1 1-1h10.674a11.064 11.064 0 0 0-2.16 2H12a1 1 0 0 1-1-1zm8.2 3H12a1 1 0 1 0 0 2h6.414c.197-.697.461-1.366.785-2zm-1.155 4H12a1 1 0 1 0 0 2h6.045a11.17 11.17 0 0 1 0-2z" clip-rule="evenodd"/><circle cx="29" cy="29" r="8" stroke="#C2C9D6" stroke-dasharray="4 2" stroke-width="2"/><path stroke="#DEE3ED" stroke-linecap="round" stroke-width="2" d="M26 26l6 6m0-6l-6 6"/></svg>