<svg xmlns="http://www.w3.org/2000/svg" width="460" height="200" fill="none" viewBox="0 0 460 200"><path fill="#2F3237" d="M35.4 165.8C46.904 107.236 98.243 65 157.926 65H219l29.29-19.527C333.513-11.342 444.042 66.383 419.4 165.8h-384Z"/><path fill="#DEE3ED" fill-rule="evenodd" d="M26.5 166a1.5 1.5 0 0 1 1.5-1.5h310a1.5 1.5 0 0 1 0 3H28a1.5 1.5 0 0 1-1.5-1.5Zm330 0a1.5 1.5 0 0 1 1.5-1.5h36a1.5 1.5 0 0 1 0 3h-36a1.5 1.5 0 0 1-1.5-1.5Zm56 0a1.5 1.5 0 0 1 1.5-1.5h18a1.5 1.5 0 0 1 0 3h-18a1.5 1.5 0 0 1-1.5-1.5Z" clip-rule="evenodd"/></svg>