<svg xmlns="http://www.w3.org/2000/svg" width="28" height="28" fill="none" viewBox="0 0 28 28"><g clip-path="url(#clip0)"><path fill="#1877F2" d="M25.55 14c0-6.379-5.171-11.55-11.55-11.55C7.621 2.45 2.45 7.62 2.45 14c0 5.765 4.224 10.543 9.745 11.41v-8.071H9.263V14h2.932v-2.545c0-2.894 1.725-4.493 4.363-4.493 1.264 0 2.585.225 2.585.225v2.843h-1.456c-1.435 0-1.882.89-1.882 1.803V14h3.203l-.512 3.339h-2.691v8.07c5.521-.866 9.745-5.644 9.745-11.409z"/><path fill="#fff" d="M18.496 17.339L19.008 14h-3.203v-2.167c0-.913.447-1.803 1.882-1.803h1.456V7.187s-1.322-.225-2.585-.225c-2.639 0-4.363 1.599-4.363 4.493V14H9.263v3.339h2.932v8.07a11.633 11.633 0 0 0 3.61 0v-8.07h2.69z"/></g><defs><clipPath id="clip0"><path fill="#fff" d="M0 0h23.1v23.1H0z" transform="translate(2.45 2.45)"/></clipPath></defs></svg>