<svg xmlns="http://www.w3.org/2000/svg" width="29" height="28" fill="none" viewBox="0 0 29 28"><g clip-path="url(#clip0)"><path fill="#4285F4" d="M25.385 14.282c0-.754-.061-1.511-.192-2.253H14.736v4.27h5.99a5.132 5.132 0 0 1-2.217 3.369v2.77h3.573c2.098-1.93 3.304-4.783 3.304-8.156z"/><path fill="#34A853" d="M14.736 25.115c2.99 0 5.512-.982 7.349-2.677l-3.573-2.77c-.994.676-2.277 1.06-3.773 1.06-2.892 0-5.345-1.952-6.225-4.576H4.827v2.856a11.09 11.09 0 0 0 9.909 6.107z"/><path fill="#FBBC04" d="M8.51 16.152a6.641 6.641 0 0 1 0-4.245V9.05H4.827a11.097 11.097 0 0 0 0 9.957l3.683-2.856z"/><path fill="#EA4335" d="M14.736 7.328a6.025 6.025 0 0 1 4.253 1.662l3.165-3.166a10.656 10.656 0 0 0-7.418-2.884 11.085 11.085 0 0 0-9.909 6.111l3.683 2.856c.876-2.628 3.333-4.58 6.226-4.58z"/></g><defs><clipPath id="clip0"><path fill="#fff" d="M0 0h21.735v22.175H0z" transform="translate(3.65 2.94)"/></clipPath></defs></svg>