<svg xmlns="http://www.w3.org/2000/svg" width="20" height="20" fill="none" viewBox="0 0 20 20"><g fill="#239AFF"><path d="M9.947 2.9a7.093 7.093 0 1 0 4.727 12.382 5.117 5.117 0 0 1-2.842.869c-1.69 0-3.202-.838-4.22-2.16-.784-.925-1.292-2.294-1.327-3.83v-.335c.035-1.536.543-2.904 1.327-3.83 2.435-3.161 5.073-2.61 7.063-1.29a7.066 7.066 0 0 0-4.7-1.805L9.946 2.9z"/><path d="M7.612 5.996c.651-.768 1.492-1.231 2.41-1.231 2.065 0 3.739 2.34 3.739 5.229 0 2.888-1.674 5.228-3.74 5.228-.917 0-1.758-.463-2.409-1.23 1.018 1.32 2.53 2.159 4.22 2.159a5.117 5.117 0 0 0 2.842-.869 7.076 7.076 0 0 0 2.367-5.288c0-2.102-.915-3.99-2.366-5.288-1.99-1.32-4.628-1.871-7.063 1.29z"/></g></svg>