<svg width="20" height="20" viewBox="0 0 20 20" fill="none" xmlns="http://www.w3.org/2000/svg">
<path fill-rule="evenodd" clip-rule="evenodd" d="M6 4H14C14.5523 4 15 4.44772 15 5V7.17393C15.3448 7.25537 15.6789 7.36426 16 7.49816V5C16 3.89543 15.1046 3 14 3H6C4.89543 3 4 3.89543 4 5V15C4 16.1046 4.89543 17 6 17H8.02182C7.81967 16.6842 7.64406 16.3499 7.49816 16H6C5.44772 16 5 15.5523 5 15V5C5 4.44772 5.44772 4 6 4ZM8.80957 9C8.51576 9.30617 8.25163 9.64104 8.02182 10H7.375C7.16789 10 7 9.77614 7 9.5C7 9.22386 7.16789 9 7.375 9H8.80957ZM7.375 6C7.16789 6 7 6.22386 7 6.5C7 6.77614 7.16789 7 7.375 7H12.625C12.8321 7 13 6.77614 13 6.5C13 6.22386 12.8321 6 12.625 6H7.375ZM13.5 17C15.433 17 17 15.433 17 13.5C17 11.567 15.433 10 13.5 10C11.567 10 10 11.567 10 13.5C10 15.433 11.567 17 13.5 17ZM17.016 16.3088C17.6318 15.539 18 14.5625 18 13.5C18 11.0147 15.9853 9 13.5 9C11.0147 9 9 11.0147 9 13.5C9 15.9853 11.0147 18 13.5 18C14.5625 18 15.539 17.6318 16.3088 17.016L18.1464 18.8536C18.3417 19.0488 18.6583 19.0488 18.8536 18.8536C19.0488 18.6583 19.0488 18.3417 18.8536 18.1464L17.016 16.3088Z" fill="#1976F0"/>
</svg>
