<svg xmlns="http://www.w3.org/2000/svg" width="20" height="20" fill="none" viewBox="0 0 20 20"><path fill="#239AFF" fill-rule="evenodd" d="M15.664 5.176c.538.278 1.226 1.159 1.565 1.974a8.02 8.02 0 0 1 .506 3.92l-.009.076-.026.225a7.802 7.802 0 0 1-8.352 6.448 7.804 7.804 0 0 1-7.141-7.767v-.04c.016-.361.058-.72.126-1.076V8.93l.002-.01c.009-.076.062-.42.077-.488l.01-.052c.19-.849.545-1.652 1.047-2.363.218-.312.462-.604.73-.875.234-.24.49-.459.762-.654.082-.055.17-.101.26-.138-.017.27-.039 1.562.27 1.954h.004a5.779 5.779 0 0 1 1.878-1.451 3.616 3.616 0 0 0 .022 1.907c.07.047.137.098.202.153a3.903 3.903 0 0 1 2.147-.828c.061-1.062.726-3.187 2.686-4.334l-.003.005.003-.001.003-.002h.001l.002-.002a.028.028 0 0 1 .015 0 .02.02 0 0 1 .018.02c.027.107.066.211.116.31a2.5 2.5 0 0 0 .086.16c.06.103.122.201.184.299.492.778 1.03 1.386 1.552 1.98.776.878 1.521 1.723 2.048 3.037l-.001-.013a8.105 8.105 0 0 0-.79-2.368zm-7.386 8.103l-.042-.022c.037.02.075.039.113.057l-.005-.003a4.331 4.331 0 0 0 .36.157 3.47 3.47 0 0 0 1.016.195c3.889.182 4.642-4.65 1.836-6.052a2.694 2.694 0 0 1 1.881.456 3.938 3.938 0 0 0-3.419-1.996c-.078 0-.155.006-.231.011l-.043.003a3.904 3.904 0 0 0-2.147.828c.106.09.224.206.45.429l.086.085c.356.35 1.087.71 1.528.927.215.105.361.177.362.198-.013.194-.698.863-.938.863-2.219 0-2.58 1.342-2.58 1.342.1 1.13.887 2.061 1.839 2.553l-.066-.031zm8.178-5.728v.008h.001z" clip-rule="evenodd"/></svg>