<svg fill="none" height="20" viewBox="0 0 20 20" width="20" xmlns="http://www.w3.org/2000/svg"><path d="m8.33957 3.95675c-.30003-.46368-.91914-.59635-1.38282-.29632s-.59635.91914-.29632 1.38282zm4.66043 9.04325.7593.6508c.2882-.3363.3209-.8222.0803-1.1941zm-3 3.5-.75926.6508c.18999.2216.46734.3492.75926.3492.2919 0 .5693-.1276.7593-.3492zm-3-3.5-.83957-.5433c-.24063.3719-.20795.8578.08031 1.1941zm6.3396-7.95675c.3-.46368.1673-1.08279-.2963-1.38282-.4637-.30003-1.0828-.16736-1.3829.29632zm-6.67917 0 5.49997 8.50005 1.6792-1.0866-5.50003-8.49995zm5.58027 7.30595-2.99996 3.5 1.51856 1.3016 3-3.5zm-1.4814 3.5-3.00004-3.5-1.51852 1.3016 3 3.5zm-2.91973-2.3059 5.50003-8.50005-1.6792-1.0865-5.49997 8.49995z" fill="#1976f0"/></svg>