<svg fill="none" height="20" viewBox="0 0 20 20" width="20" xmlns="http://www.w3.org/2000/svg"><path d="m5.70711 6.29289c-.39053-.39052-1.02369-.39052-1.41422 0-.39052.39053-.39052 1.02369 0 1.41422zm-1.41422 6.00001c-.39052.3905-.39052 1.0237 0 1.4142.39053.3905 1.02369.3905 1.41422 0zm11.41421-4.58579c.3905-.39053.3905-1.02369 0-1.41422-.3905-.39052-1.0237-.39052-1.4142 0zm-1.4142 5.99999c.3905.3905 1.0237.3905 1.4142 0s.3905-1.0237 0-1.4142zm-6.2929-2.7071h4v-2h-4zm-3.70711-3.29289 3 2.99999 1.41422-1.41421-3-3zm1.41422 5.99999 3-3-1.41422-1.41421-3 3.00001zm8.58579-7.41421-3 3 1.4142 1.41421 3-2.99999zm-3 4.41421 3 3 1.4142-1.4142-3-3.00001z" fill="#1976f0"/></svg>