<svg width="32" height="32" viewBox="0 0 32 32" fill="none" xmlns="http://www.w3.org/2000/svg">
<path fill-rule="evenodd" clip-rule="evenodd" d="M7 26H12.5155C13.0211 26.7553 13.638 27.4298 14.3427 28H7C5.89543 28 5 27.1046 5 26V6C5 4.89543 5.89543 4 7 4H18.9708C19.6167 4 20.2228 4.31193 20.5982 4.83752L24.6275 10.4785C24.8698 10.8177 25 11.2241 25 11.6409V13.5155C24.383 13.1025 23.7121 12.7638 23 12.5121V11.6409L18.9708 6L7 6V26ZM11.5121 24C11.287 23.3632 11.1316 22.6935 11.0549 22H10C9.44772 22 9 22.4477 9 23C9 23.5523 9.44771 24 10 24H11.5121ZM11.0549 20C11.1316 19.3065 11.287 18.6368 11.5121 18H10C9.44772 18 9 18.4477 9 19C9 19.5523 9.44771 20 10 20H11.0549ZM12.5155 16C13.0211 15.2447 13.638 14.5702 14.3427 14H10C9.44772 14 9 14.4477 9 15C9 15.5523 9.44771 16 10 16H12.5155ZM10 10C9.44772 10 9 10.4477 9 11C9 11.5523 9.44772 12 10 12H16C16.5523 12 17 11.5523 17 11C17 10.4477 16.5523 10 16 10H10ZM20 26C22.7614 26 25 23.7614 25 21C25 18.2386 22.7614 16 20 16C17.2386 16 15 18.2386 15 21C15 23.7614 17.2386 26 20 26ZM20 28C21.5759 28 23.0302 27.4792 24.2001 26.6004C24.2281 26.6376 24.259 26.6733 24.2929 26.7071L27.2929 29.7071C27.6834 30.0976 28.3166 30.0976 28.7071 29.7071C29.0976 29.3166 29.0976 28.6834 28.7071 28.2929L25.7071 25.2929C25.6733 25.259 25.6376 25.2281 25.6004 25.2001C26.4792 24.0302 27 22.5759 27 21C27 17.134 23.866 14 20 14C16.134 14 13 17.134 13 21C13 24.866 16.134 28 20 28ZM20 18C19.4477 18 19 18.4477 19 19V20H18C17.4477 20 17 20.4477 17 21C17 21.5523 17.4477 22 18 22H19V23C19 23.5523 19.4477 24 20 24C20.5523 24 21 23.5523 21 23V22H22C22.5523 22 23 21.5523 23 21C23 20.4477 22.5523 20 22 20H21V19C21 18.4477 20.5523 18 20 18Z" fill="#2F3237"/>
</svg>
