<svg xmlns="http://www.w3.org/2000/svg" width="32" height="32" fill="none" viewBox="0 0 32 32"><g fill="#18181a"><path d="M22 18h5a4 4 0 0 0 0-8h-.07a7.001 7.001 0 0 0-9.133-5.646 6.003 6.003 0 0 0-9.594 3.094 15.398 15.398 0 0 1 2.294-.38 4.001 4.001 0 0 1 6.033-1.166l.852.696 1.044-.346a5.002 5.002 0 0 1 6.524 4.03l.245 1.718H27a2 2 0 1 1 0 4h-5z"/><g fill-rule="evenodd" clip-rule="evenodd"><path d="M6 21v-2.722c-.443.243-.84.526-1.162.852C4.36 19.615 4 20.248 4 21v4c0 .752.36 1.385.838 1.87.474.48 1.11.867 1.818 1.17 1.419.608 3.309.96 5.344.96s3.925-.352 5.344-.96c.707-.303 1.344-.69 1.818-1.17.478-.485.838-1.118.838-1.87v-4c0-.752-.36-1.385-.838-1.87A5.014 5.014 0 0 0 18 18.278V21c0 .076-.032.232-.262.465-.234.238-.623.497-1.182.737C15.44 22.68 13.83 23 12 23s-3.44-.32-4.556-.798c-.56-.24-.948-.5-1.182-.737C6.032 21.232 6 21.076 6 21zm12 2.722c-.21.115-.43.221-.656.318-1.419.608-3.309.96-5.344.96s-3.925-.352-5.344-.96A7.566 7.566 0 0 1 6 23.723V25c0 .076.032.232.262.465.234.238.623.497 1.182.737C8.56 26.68 10.17 27 12 27s3.44-.32 4.556-.798c.56-.24.948-.5 1.182-.737.23-.233.262-.389.262-.465z"/><path d="M6 17v-2.722c-.443.243-.84.526-1.162.852C4.36 15.614 4 16.248 4 17v4c0 .752.36 1.385.838 1.87.474.48 1.11.867 1.818 1.17 1.419.608 3.309.96 5.344.96s3.925-.352 5.344-.96c.707-.303 1.344-.69 1.818-1.17.478-.485.838-1.118.838-1.87v-4c0-.752-.36-1.385-.838-1.87A5.014 5.014 0 0 0 18 14.278V17c0 .076-.032.232-.262.465-.234.238-.623.497-1.182.737C15.44 18.68 13.83 19 12 19s-3.44-.32-4.556-.798c-.56-.24-.948-.5-1.182-.737C6.032 17.232 6 17.076 6 17zm12 2.722c-.21.115-.43.221-.656.318-1.419.608-3.309.96-5.344.96s-3.925-.352-5.344-.96A7.566 7.566 0 0 1 6 19.723V21c0 .076.032.232.262.465.234.238.623.497 1.182.737C8.56 22.68 10.17 23 12 23s3.44-.32 4.556-.798c.56-.24.948-.5 1.182-.737.23-.233.262-.389.262-.465z"/><path d="M4 13c0-.752.36-1.385.838-1.87.474-.48 1.11-.867 1.818-1.17C8.075 9.352 9.965 9 12 9s3.925.352 5.344.96c.707.303 1.344.69 1.818 1.17.478.485.838 1.118.838 1.87v4c0 .752-.36 1.385-.838 1.87-.474.48-1.11.867-1.818 1.17-1.419.608-3.309.96-5.344.96s-3.925-.352-5.344-.96c-.707-.303-1.344-.69-1.818-1.17C4.36 18.385 4 17.752 4 17zm2 0c0-.076.032-.232.262-.465.234-.238.623-.497 1.182-.737C8.56 11.32 10.17 11 12 11s3.44.32 4.556.798c.56.24.948.5 1.182.737.23.233.262.389.262.465s-.032.232-.262.465c-.234.238-.623.497-1.182.737C15.44 14.68 13.83 15 12 15s-3.44-.32-4.556-.798c-.56-.24-.948-.5-1.182-.737C6.032 13.232 6 13.076 6 13zm12 2.722V17c0 .076-.032.232-.262.465-.234.238-.623.497-1.182.737C15.44 18.68 13.83 19 12 19s-3.44-.32-4.556-.798c-.56-.24-.948-.5-1.182-.737C6.032 17.232 6 17.076 6 17v-1.278c.21.115.43.221.656.319C8.075 16.648 9.965 17 12 17s3.925-.352 5.344-.96a7.56 7.56 0 0 0 .656-.318z"/></g></g></svg>