<svg xmlns="http://www.w3.org/2000/svg" width="20" height="20" fill="none" viewBox="0 0 20 20"><path fill="#2F3237" d="M12.5 9a.5.5 0 0 0 0 1h3a.5.5 0 0 0 0-1h-3zM6 16.5a.5.5 0 0 1 .5-.5h7a.5.5 0 0 1 0 1h-7a.5.5 0 0 1-.5-.5zm.5-2.5a.5.5 0 0 0 0 1h7a.5.5 0 0 0 0-1h-7z"/><path fill="#2F3237" fill-rule="evenodd" d="M4 3v4H3a2 2 0 0 0-2 2v5a2 2 0 0 0 2 2h1v2a1 1 0 0 0 1 1h10a1 1 0 0 0 1-1v-2h1a2 2 0 0 0 2-2V9a2 2 0 0 0-2-2h-1V3a1 1 0 0 0-1-1H5a1 1 0 0 0-1 1zm11 0H5v4h10V3zm2 12a1 1 0 0 0 1-1V9a1 1 0 0 0-1-1H3a1 1 0 0 0-1 1v5a1 1 0 0 0 1 1h1v-3h-.5a.5.5 0 0 1 0-1h13a.5.5 0 0 1 0 1H16v3h1zM5 18h10v-6H5v6z" clip-rule="evenodd"/></svg>