<svg xmlns="http://www.w3.org/2000/svg" width="20" height="20" fill="none" viewBox="0 0 20 20"><clipPath id="a"><path d="M0 0h20v20H0z"/></clipPath><g clip-path="url(#a)"><path fill="#45a1fc" d="M0 0h20v20H0z"/><path fill="#45a1fc" fill-rule="evenodd" d="M10 20c5.523 0 10-4.477 10-10S15.523 0 10 0 0 4.477 0 10s4.477 10 10 10z" clip-rule="evenodd"/><path fill="#fff" d="M35 11v2c-1.655 0-2.416-.57-3.332-1.945C31.084 10.179 30.845 10 30 10s-1.084.18-1.668 1.055C27.416 12.429 26.655 13 25 13s-2.416-.57-3.332-1.945C21.084 10.179 20.845 10 20 10s-1.084.18-1.668 1.055C17.416 12.429 16.655 13 15 13s-2.416-.57-3.332-1.945C11.084 10.179 10.845 10 10 10s-1.084.18-1.668 1.055C7.416 12.429 6.655 13 5 13s-2.416-.57-3.332-1.945C1.084 10.179.845 10 0 10s-1.084.18-1.668 1.055C-2.584 12.429-3.345 13-5 13v-2c.845 0 1.084-.18 1.668-1.055C-2.416 8.571-1.655 8 0 8s2.416.57 3.332 1.945C3.916 10.821 4.155 11 5 11s1.084-.18 1.668-1.055C7.584 8.571 8.345 8 10 8c1.655 0 2.416.57 3.332 1.945.584.876.823 1.055 1.668 1.055s1.084-.18 1.668-1.055C17.584 8.571 18.345 8 20 8s2.416.57 3.332 1.945C23.916 10.821 24.155 11 25 11s1.084-.18 1.668-1.055C27.584 8.571 28.345 8 30 8s2.416.57 3.332 1.945C33.916 10.821 34.155 11 35 11z"/></g></svg>