<svg xmlns="http://www.w3.org/2000/svg" width="32" height="32" fill="none" viewBox="0 0 32 32"><path fill="#2F3237" d="M6.808 25.192a1 1 0 0 0 1.414-1.414l-1.414 1.414zm16.97-1.414a1 1 0 1 0 1.414 1.414l-1.414-1.414zM15 22a1 1 0 1 0 2 0h-2zm4-6a1 1 0 1 0-2 0h2zm-4 0a1 1 0 1 0-2 0h2zm5 4.472l-.667-.745a1 1 0 0 0-.333.745h1zm-8 0h1a1 1 0 0 0-.333-.745l-.667.745zM12 21a1 1 0 1 0 0 2v-2zm8 2a1 1 0 1 0 0-2v2zm-11.778.778c-4.296-4.296-4.296-11.26 0-15.556L6.808 6.808c-5.077 5.076-5.077 13.308 0 18.384l1.414-1.414zm0-15.556c4.296-4.296 11.26-4.296 15.556 0l1.414-1.414c-5.076-5.077-13.308-5.077-18.384 0l1.414 1.414zm15.556 0c4.296 4.296 4.296 11.26 0 15.556l1.414 1.414c5.077-5.076 5.077-13.308 0-18.384l-1.414 1.414zM15 18v4h2v-4h-2zm2-2a1 1 0 0 1-1 1v2a3 3 0 0 0 3-3h-2zm-1 1a1 1 0 0 1-1-1h-2a3 3 0 0 0 3 3v-2zm4.667 4.217A6.985 6.985 0 0 0 23 16h-2c0 1.48-.642 2.81-1.667 3.727l1.334 1.49zM23 16a7 7 0 0 0-7-7v2a5 5 0 0 1 5 5h2zm-7-7a7 7 0 0 0-7 7h2a5 5 0 0 1 5-5V9zm-7 7c0 2.073.903 3.937 2.333 5.217l1.334-1.49A4.985 4.985 0 0 1 11 16H9zm4 7v-2.528h-2V23h2zm-2 0a5 5 0 0 0 5 5v-2a3 3 0 0 1-3-3h-2zm5 5a5 5 0 0 0 5-5h-2a3 3 0 0 1-3 3v2zm3-7.528V23h2v-2.528h-2zM12 23h8v-2h-8v2z"/></svg>