<svg xmlns="http://www.w3.org/2000/svg" width="32" height="32" fill="none" viewBox="0 0 32 32"><path fill="#2F3237" fill-rule="evenodd" d="M16 27c6.075 0 11-4.925 11-11S22.075 5 16 5 5 9.925 5 16s4.925 11 11 11zm0 2c7.18 0 13-5.82 13-13S23.18 3 16 3 3 8.82 3 16s5.82 13 13 13zm2-13a2 2 0 1 1-1.632-1.966l-1.127 1.315a1 1 0 0 0 1.518 1.302l1.128-1.316A2 2 0 0 1 18 16zm2 0c0-.852-.266-1.641-.72-2.29l1.988-2.32A6.973 6.973 0 0 1 23 16a6.978 6.978 0 0 1-2.05 4.95l1.414 1.414A8.972 8.972 0 0 0 25 16a8.968 8.968 0 0 0-2.42-6.14l.18-.21a1 1 0 0 0-1.52-1.3l-.178.208A9 9 0 0 0 9.636 22.364l1.414-1.414a7 7 0 0 1 8.7-10.861l-1.988 2.319A4 4 0 1 0 20 16z" clip-rule="evenodd"/></svg>