<svg xmlns="http://www.w3.org/2000/svg" width="32" height="32" fill="none" viewBox="0 0 32 32"><path fill="#18181a" fill-rule="evenodd" d="M22.826 6.03c.71 1.836.264 3.191.13 3.528.833.932 1.336 2.122 1.336 3.577 0 3.828-1.699 5.424-3.767 6.124-.698.236-1.438.37-2.169.453.392.346.748.975.852 1.904.02.178.03.366.03.565 0 1.191-.006 2.229-.01 2.916l-.005.74C19.223 26.194 18 27 16 27s-3.222-.233-3.222-1.163l-.001-.232-.005-.52c-.003-.383-.008-.874-.011-1.44v-.075c-.799.178-1.458.19-2 .101-1.916-.313-2.38-1.888-2.38-1.888a5.432 5.432 0 0 0-.398-.83 4.382 4.382 0 0 0-.185-.285c-.331-.47-.642-.7-.782-.789a1.164 1.164 0 0 0-.05-.03l-.028-.015c-1.18-.827.089-.81.089-.81a2.067 2.067 0 0 1 .698.174c.264.116.49.276.674.441.233.208.4.425.503.573.077.112.116.185.116.185.213.373.45.658.7.873.035.03.07.06.107.088.86.661 1.848.54 2.515.326a4.104 4.104 0 0 0 .462-.18c.118-.86.453-1.448.825-1.781-.727-.085-1.464-.221-2.16-.459a6.192 6.192 0 0 1-1.188-.544 4.817 4.817 0 0 1-1.289-1.116c-.785-.978-1.285-2.398-1.285-4.469 0-1.455.507-2.645 1.339-3.577-.134-.337-.58-1.692.127-3.527 0 0 1.091-.359 3.575 1.366A12.163 12.163 0 0 1 16 6.95c1.104.005 2.217.153 3.255.448 2.482-1.725 3.571-1.366 3.571-1.366zm-3.937-.78c1.052-.64 1.932-.98 2.66-1.137.451-.098.839-.124 1.162-.109a3.165 3.165 0 0 1 .6.086 2.363 2.363 0 0 1 .108.03l.016.006.008.002.004.002c.002 0 .004.001-.62 1.9l.624-1.899a2 2 0 0 1 1.24 1.179c.6 1.55.591 2.88.44 3.809.737 1.133 1.161 2.484 1.161 4.016 0 2.981-.904 5.165-2.58 6.603-.785.674-1.667 1.118-2.548 1.416.05.33.075.672.075 1.027 0 .896-.004 1.706-.008 2.345l-.004.598-.004.713c0 .592-.24 1.032-.39 1.26-.168.25-.362.445-.526.587-.333.287-.73.517-1.135.697-.827.366-1.91.619-3.172.619-1.008 0-2.086-.05-2.96-.325-.453-.142-1.02-.394-1.486-.883a2.795 2.795 0 0 1-.776-1.955v-.147c-1.18-.123-2.133-.57-2.86-1.189a4.925 4.925 0 0 1-1.352-1.86 3.733 3.733 0 0 1-.066-.178l-.001-.002c-.194-.49-.4-.737-.495-.835a.896.896 0 0 0-.045-.043l-.035-.017-.134-.094c-.317-.222-.903-.66-1.188-1.357a2.18 2.18 0 0 1 .005-1.683c.244-.575.666-.89.923-1.04.32-.187.644-.272.864-.312-.453-1.113-.689-2.425-.689-3.945 0-1.534.427-2.884 1.163-4.015-.151-.929-.16-2.258.436-3.808A2 2 0 0 1 8.547 4.13l.624 1.9c-.624-1.9-.622-1.901-.62-1.902h.004l.008-.003.016-.006a2.048 2.048 0 0 1 .279-.068c.124-.023.267-.04.428-.048.324-.015.711.01 1.163.108.728.158 1.61.497 2.662 1.137.946-.198 1.92-.296 2.88-.3H16.01c.96.004 1.933.102 2.88.3zM7.036 18.312l-.009.71.01-.71z" clip-rule="evenodd"/></svg>