<svg width="20" height="20" viewBox="0 0 20 20" fill="none" xmlns="http://www.w3.org/2000/svg">
<path d="M4.55556 10H4.05556H4.55556ZM4.55556 8.42857L4.9109 8.07682C4.81699 7.98195 4.68904 7.92857 4.55556 7.92857C4.42207 7.92857 4.29412 7.98195 4.20021 8.07682L4.55556 8.42857ZM5.75577 10.3518C5.95004 10.548 6.26661 10.5496 6.46287 10.3553C6.65912 10.1611 6.66072 9.8445 6.46645 9.64825L5.75577 10.3518ZM2.64466 9.64825C2.45039 9.8445 2.452 10.1611 2.64825 10.3553C2.8445 10.5496 3.16107 10.548 3.35534 10.3518L2.64466 9.64825ZM14.2051 14.2408C14.3994 14.0446 14.3978 13.728 14.2015 13.5337C14.0053 13.3395 13.6887 13.3411 13.4944 13.5373L14.2051 14.2408ZM15.4444 11.5714L15.0891 11.9232C15.183 12.0181 15.311 12.0714 15.4444 12.0714C15.5779 12.0714 15.7059 12.0181 15.7998 11.9232L15.4444 11.5714ZM14.2442 9.64825C14.05 9.45199 13.7334 9.45039 13.5371 9.64466C13.3409 9.83892 13.3393 10.1555 13.5335 10.3518L14.2442 9.64825ZM17.3553 10.3518C17.5496 10.1555 17.548 9.83892 17.3518 9.64466C17.1555 9.45039 16.8389 9.45199 16.6447 9.64825L17.3553 10.3518ZM5.79488 5.75916C5.60062 5.95541 5.60222 6.27199 5.79847 6.46626C5.99472 6.66052 6.3113 6.65892 6.50557 6.46267L5.79488 5.75916ZM8.44444 8.32143C8.1683 8.32143 7.94444 8.54529 7.94444 8.82143C7.94444 9.09757 8.1683 9.32143 8.44444 9.32143V8.32143ZM11.5556 9.32143C11.8317 9.32143 12.0556 9.09757 12.0556 8.82143C12.0556 8.54529 11.8317 8.32143 11.5556 8.32143V9.32143ZM8.44444 10.6786C8.1683 10.6786 7.94444 10.9024 7.94444 11.1786C7.94444 11.4547 8.1683 11.6786 8.44444 11.6786V10.6786ZM11.5556 11.6786C11.8317 11.6786 12.0556 11.4547 12.0556 11.1786C12.0556 10.9024 11.8317 10.6786 11.5556 10.6786V11.6786ZM5.05556 10L5.05556 8.42857H4.05556L4.05556 10H5.05556ZM4.20021 8.78033L5.75577 10.3518L6.46645 9.64825L4.9109 8.07682L4.20021 8.78033ZM4.20021 8.07682L2.64466 9.64825L3.35534 10.3518L4.9109 8.78033L4.20021 8.07682ZM9.99997 15C7.274 15 5.05556 12.7662 5.05556 10H4.05556C4.05556 13.3089 6.71217 16 9.99997 16V15ZM13.4944 13.5373C12.5987 14.4422 11.3638 15 9.99997 15V16C11.643 16 13.1304 15.3266 14.2051 14.2408L13.4944 13.5373ZM14.9444 10V11.5714H15.9444V10H14.9444ZM15.7998 11.2197L14.2442 9.64825L13.5335 10.3518L15.0891 11.9232L15.7998 11.2197ZM15.7998 11.9232L17.3553 10.3518L16.6447 9.64825L15.0891 11.2197L15.7998 11.9232ZM10 5C12.726 5 14.9444 7.23377 14.9444 10H15.9444C15.9444 6.69109 13.2878 4 10 4V5ZM6.50557 6.46267C7.40131 5.55779 8.6362 5 10 5V4C8.35698 4 6.86965 4.67343 5.79488 5.75916L6.50557 6.46267ZM8.44444 9.32143H11.5556V8.32143H8.44444V9.32143ZM8.44444 11.6786H11.5556V10.6786H8.44444V11.6786Z" fill="#1976F0"/>
</svg>
