<svg width="20" height="20" viewBox="0 0 20 20" fill="none" xmlns="http://www.w3.org/2000/svg">
<path fill-rule="evenodd" clip-rule="evenodd" d="M9.55795 2.90332C9.74575 2.54858 10.2539 2.54858 10.4417 2.90333L17.7808 16.7661C17.9571 17.0991 17.7157 17.5 17.3389 17.5H2.66075C2.28396 17.5 2.04256 17.0991 2.21885 16.7661L9.55795 2.90332ZM11.3255 2.43544C10.7621 1.37121 9.23758 1.37121 8.67416 2.43544L1.33507 16.2982C0.806183 17.2972 1.53039 18.5 2.66075 18.5H17.3389C18.4693 18.5 19.1935 17.2972 18.6646 16.2982L11.3255 2.43544ZM10.4998 7C10.4998 6.72386 10.276 6.5 9.99984 6.5C9.7237 6.5 9.49984 6.72386 9.49984 7V13C9.49984 13.2761 9.7237 13.5 9.99984 13.5C10.276 13.5 10.4998 13.2761 10.4998 13V7ZM9.99995 16C10.4142 16 10.75 15.6642 10.75 15.25C10.75 14.8358 10.4142 14.5 9.99995 14.5C9.58574 14.5 9.24995 14.8358 9.24995 15.25C9.24995 15.6642 9.58574 16 9.99995 16Z" fill="white"/>
</svg>
