<svg xmlns="http://www.w3.org/2000/svg" width="400" height="400" fill="none" viewBox="0 0 400 400"><path fill="#FDB137" fill-rule="evenodd" stroke="#E14C0C" stroke-width="14" d="M341.258 208.756a35.002 35.002 0 0 0 10.121-21.725l7.37-84.977c2.7-31.141-22.486-57.61-53.723-56.458l-91.279 3.367a35.001 35.001 0 0 0-23.459 10.227L48.357 201.123c-13.669 13.669-13.669 35.829 0 49.498l100.77 100.77c13.668 13.668 35.829 13.668 49.497 0l142.634-142.634ZM285.597 77.564c-10.825 10.824-10.825 28.375 0 39.2 10.825 10.825 28.376 10.825 39.2 0 10.825-10.825 10.825-28.376 0-39.2-10.824-10.825-28.375-10.825-39.2 0Z" clip-rule="evenodd"/><path stroke="#E14C0C" stroke-linecap="round" stroke-width="12" d="M179.711 153.16v133.102m-33.276-79.029c6.892 6.891 6.892 18.065 0 24.956-6.892 6.892-18.065 6.892-24.957 0-6.891-6.891-6.891-18.065 0-24.956 6.892-6.892 18.065-6.892 24.957 0Zm91.508 0c6.892 6.891 6.892 18.065 0 24.956-6.892 6.892-18.065 6.892-24.957 0-6.891-6.891-6.891-18.065 0-24.956 6.892-6.892 18.065-6.892 24.957 0Z"/></svg>