<svg xmlns="http://www.w3.org/2000/svg" width="32" height="32" fill="none" viewBox="0 0 32 32"><path fill="#2F3237" d="M6 5h12a1 1 0 0 1 1 1v3h2V6a3 3 0 0 0-3-3H6a3 3 0 0 0-3 3v12a3 3 0 0 0 3 3h3v-2H6a1 1 0 0 1-1-1V6a1 1 0 0 1 1-1z"/><path fill="#2F3237" d="M15 7.838V9h-1c-1.135 0-2.18.378-3.02 1.015.018-.14.04-.282.063-.426H9.745V7.838h1.676c.1-.372.212-.754.337-1.144l1.667.536c-.066.206-.128.409-.186.608H15zm-6.914 7.398c-.77-1.542.057-2.937 1.6-3.765A4.977 4.977 0 0 0 9 14v2.386a3.321 3.321 0 0 1-.914-1.15z"/><path fill="#2F3237" fill-rule="evenodd" d="M20 15a1 1 0 0 1 .894.553l4 8a1 1 0 1 1-1.788.894L22.381 23h-4.764l-.724 1.447a1 1 0 1 1-1.788-.894l4-8A1 1 0 0 1 20 15zm-1.382 6h2.764L20 18.236 18.618 21z" clip-rule="evenodd"/><path fill="#2F3237" fill-rule="evenodd" d="M11 14a3 3 0 0 1 3-3h12a3 3 0 0 1 3 3v12a3 3 0 0 1-3 3H14a3 3 0 0 1-3-3V14zm3-1h12a1 1 0 0 1 1 1v12a1 1 0 0 1-1 1H14a1 1 0 0 1-1-1V14a1 1 0 0 1 1-1z" clip-rule="evenodd"/></svg>