<svg xmlns="http://www.w3.org/2000/svg" width="32" height="32" fill="none" viewBox="0 0 32 32"><path fill="#2F3237" d="M2.072 25.629a1 1 0 0 0 1.856.742l-1.856-.742zM11 6l.928-.371a1 1 0 0 0-1.857 0L11 6zm7.072 20.371a1 1 0 0 0 1.857-.742l-1.857.742zM23 5a1 1 0 1 0 0 2V5zm6 2a1 1 0 1 0 0-2v2zm-6 18a1 1 0 1 0 0 2v-2zm6 2a1 1 0 1 0 0-2v2zM7 17H6v2h1v-2zm8 2h1v-2h-1v2zM3.928 26.371l8-20-1.857-.742-8 20 1.857.742zm6.144-20l8 20 1.857-.742-8-20-1.857.742zM23 7h3V5h-3v2zm3 0h3V5h-3v2zm-3 20h3v-2h-3v2zm3 0h3v-2h-3v2zM25 6v20h2V6h-2zM7 19h8v-2H7v2z"/></svg>