<svg width="20" height="20" viewBox="0 0 20 20" fill="none" xmlns="http://www.w3.org/2000/svg">
<path d="M1.5 6C1.5 6.27614 1.72386 6.5 2 6.5C2.27614 6.5 2.5 6.27614 2.5 6H1.5ZM6 2.5C6.27614 2.5 6.5 2.27614 6.5 2C6.5 1.72386 6.27614 1.5 6 1.5V2.5ZM6 18.5C6.27614 18.5 6.5 18.2761 6.5 18C6.5 17.7239 6.27614 17.5 6 17.5V18.5ZM3 18L3 17.5H3L3 18ZM2 17L1.5 17L2 17ZM2.5 14C2.5 13.7239 2.27614 13.5 2 13.5C1.72386 13.5 1.5 13.7239 1.5 14L2.5 14ZM18.5 14C18.5 13.7239 18.2761 13.5 18 13.5C17.7239 13.5 17.5 13.7239 17.5 14H18.5ZM18 17L17.5 17V17L18 17ZM17 18L17 18.5L17 18.5L17 18ZM14 17.5C13.7239 17.5 13.5 17.7239 13.5 18C13.5 18.2761 13.7239 18.5 14 18.5V17.5ZM14 1.5C13.7239 1.5 13.5 1.72386 13.5 2C13.5 2.27614 13.7239 2.5 14 2.5L14 1.5ZM17 2L17 2.5L17 2ZM18 3L17.5 3V3H18ZM17.5 6C17.5 6.27614 17.7239 6.5 18 6.5C18.2761 6.5 18.5 6.27614 18.5 6H17.5ZM5 6C4.72386 6 4.5 6.22386 4.5 6.5C4.5 6.77614 4.72386 7 5 7V6ZM15 7C15.2761 7 15.5 6.77614 15.5 6.5C15.5 6.22386 15.2761 6 15 6V7ZM5 9.5C4.72386 9.5 4.5 9.72386 4.5 10C4.5 10.2761 4.72386 10.5 5 10.5V9.5ZM15 10.5C15.2761 10.5 15.5 10.2761 15.5 10C15.5 9.72386 15.2761 9.5 15 9.5V10.5ZM5 13C4.72386 13 4.5 13.2239 4.5 13.5C4.5 13.7761 4.72386 14 5 14V13ZM15 14C15.2761 14 15.5 13.7761 15.5 13.5C15.5 13.2239 15.2761 13 15 13V14ZM2.5 6V3H1.5V6H2.5ZM3 2.5H6V1.5H3V2.5ZM2.5 3C2.5 2.72386 2.72386 2.5 3 2.5V1.5C2.17157 1.5 1.5 2.17157 1.5 3H2.5ZM6 17.5H3V18.5H6V17.5ZM2.5 17L2.5 14L1.5 14L1.5 17L2.5 17ZM3 17.5C2.72386 17.5 2.5 17.2761 2.5 17L1.5 17C1.5 17.8284 2.17157 18.5 3 18.5L3 17.5ZM17.5 14V17H18.5V14H17.5ZM17 17.5H14V18.5H17V17.5ZM17.5 17C17.5 17.2761 17.2761 17.5 17 17.5L17 18.5C17.8284 18.5 18.5 17.8284 18.5 17L17.5 17ZM14 2.5L17 2.5L17 1.5L14 1.5L14 2.5ZM17.5 3V6H18.5V3H17.5ZM17 2.5C17.2761 2.5 17.5 2.72386 17.5 3L18.5 3C18.5 2.17157 17.8284 1.5 17 1.5L17 2.5ZM5 7H15V6H5V7ZM5 10.5H15V9.5H5V10.5ZM5 14H15V13H5V14Z" fill="#2F3237"/>
</svg>
