<svg xmlns="http://www.w3.org/2000/svg" width="32" height="32" fill="none" viewBox="0 0 32 32"><path fill="#2F3237" fill-rule="evenodd" d="M20.059 16.704a7 7 0 1 0-8.118 0C7.311 18.368 4 22.797 4 28a1 1 0 1 0 2 0c0-5.523 4.477-10 10-10s10 4.477 10 10a1 1 0 1 0 2 0c0-5.203-3.311-9.632-7.941-11.296zM21 11a5 5 0 1 1-10 0 5 5 0 0 1 10 0z" clip-rule="evenodd"/><path fill="#2F3237" d="M8.595 16.117a8.977 8.977 0 01-1.097-2.158 3 3 0 110-5.918 8.963 8.963 0 01.89-1.846 5 5 0 00-4.64 8.604A7 7 0 00.001 21a1 1 0 102 0 5 5 0 016.445-4.788l.15-.095zM25 16a5 5 0 00-1.445.212l-.15-.095a8.976 8.976 0 001.097-2.158 3 3 0 100-5.918 8.962 8.962 0 00-.89-1.846 5 5 0 014.64 8.604A7 7 0 0131.999 21a1 1 0 11-2 0 5 5 0 00-5-5z"/></svg>