<svg xmlns="http://www.w3.org/2000/svg" width="20" height="20" fill="none" viewBox="0 0 20 20"><path fill="#fff" fill-rule="evenodd" d="M10.221 3.811a.5.5 0 0 0-.67.227L8.098 6.985l-.116.236-.26.038-3.252.472a.5.5 0 0 0-.277.853l2.353 2.294.188.183-.044.26-.556 3.239a.5.5 0 0 0 .726.527l2.908-1.53.233-.122.233.122 2.908 1.53a.5.5 0 0 0 .726-.527l-.556-3.24-.044-.259.188-.183 2.353-2.294a.5.5 0 0 0-.277-.853L12.28 7.26l-.26-.038-.116-.236-1.455-2.947a.5.5 0 0 0-.227-.227zm-1.566-.215a1.5 1.5 0 0 1 2.69 0l1.338 2.71 2.992.436a1.5 1.5 0 0 1 .831 2.558l-2.165 2.11.512 2.98a1.5 1.5 0 0 1-2.177 1.582L10 14.565l-2.676 1.407a1.5 1.5 0 0 1-2.177-1.581l.512-2.98L3.494 9.3a1.5 1.5 0 0 1 .83-2.56l2.993-.434z" clip-rule="evenodd"/></svg>