<svg width="20" height="20" viewBox="0 0 20 20" fill="none" xmlns="http://www.w3.org/2000/svg">
<path d="M2 11V15.382C2 15.7607 2.214 16.107 2.55279 16.2764L5.55279 17.7764C5.83431 17.9172 6.16569 17.9172 6.44721 17.7764L10 16M2 11L6 9M2 11L5.55279 12.7764C5.83431 12.9172 6.16569 12.9172 6.44721 12.7764L10 11M10 16V11M10 16L13.5528 17.7764C13.8343 17.9172 14.1657 17.9172 14.4472 17.7764L17.4472 16.2764C17.786 16.107 18 15.7607 18 15.382V11M10 11L6 9M10 11L14 9M10 11L13.5528 12.7764C13.8343 12.9172 14.1657 12.9172 14.4472 12.7764L18 11M6 9V4M18 11L14 9M14 9V4M6 4L9.55279 2.22361C9.83431 2.08284 10.1657 2.08284 10.4472 2.22361L14 4M6 4L9.55279 5.77639C9.83431 5.91716 10.1657 5.91716 10.4472 5.77639L14 4" stroke="#fff" stroke-linejoin="round"/>
</svg>
