<svg fill="none" height="20" viewBox="0 0 20 20" width="20" xmlns="http://www.w3.org/2000/svg"><path clip-rule="evenodd" d="m4 8c1.10457 0 2 .89543 2 2 0 1.1046-.89543 2-2 2s-2-.8954-2-2c0-1.10457.89543-2 2-2zm0 3c.55228 0 1-.4477 1-1 0-.55228-.44772-1-1-1s-1 .44772-1 1c0 .5523.44772 1 1 1zm6-3c1.1046 0 2 .89543 2 2 0 1.1046-.8954 2-2 2-1.10457 0-2-.8954-2-2 0-1.10457.89543-2 2-2zm0 3c.5523 0 1-.4477 1-1 0-.55229-.4477-1-1-1-.55228 0-1 .44771-1 1 0 .5523.44772 1 1 1zm8-1c0-1.10457-.8954-2-2-2s-2 .89543-2 2c0 1.1046.8954 2 2 2s2-.8954 2-2zm-1 0c0 .5523-.4477 1-1 1s-1-.4477-1-1c0-.55229.4477-1 1-1s1 .44771 1 1z" fill="#239aff" fill-rule="evenodd"/></svg>