<svg xmlns="http://www.w3.org/2000/svg" width="400" height="400" fill="none" viewBox="0 0 400 400"><path fill="#2f3237" d="M200.074 50.304c-62.507 0-80.788.064-84.341.359-12.828 1.066-20.81 3.086-29.506 7.416-6.701 3.328-11.987 7.185-17.203 12.593-9.5 9.861-15.257 21.994-17.341 36.415-1.013 7.001-1.308 8.429-1.368 44.191-.023 11.92 0 27.609 0 48.651 0 62.459.069 80.722.368 84.268 1.037 12.483 2.994 20.336 7.14 28.926 7.922 16.444 23.052 28.788 40.877 33.394 6.172 1.589 12.989 2.464 21.74 2.879 3.708.161 41.499.276 79.314.276s75.629-.046 79.245-.23c10.133-.477 16.017-1.267 22.523-2.948 17.94-4.629 32.794-16.789 40.877-33.463 4.065-8.383 6.126-16.536 7.059-28.366.203-2.58.288-43.705.288-84.775 0-41.077-.092-82.126-.295-84.705-.944-12.022-3.005-20.106-7.201-28.65-3.443-6.994-7.266-12.218-12.816-17.558-9.905-9.461-22.019-15.219-36.454-17.3-6.994-1.012-8.387-1.311-44.175-1.373z"/><path fill="#2f3237" d="M200.074 50.304c-62.507 0-80.788.064-84.341.359-12.828 1.066-20.81 3.086-29.506 7.416-6.701 3.328-11.987 7.185-17.203 12.593-9.5 9.861-15.257 21.994-17.341 36.415-1.013 7.001-1.308 8.429-1.368 44.191-.023 11.92 0 27.609 0 48.651 0 62.459.069 80.722.368 84.268 1.037 12.483 2.994 20.336 7.14 28.926 7.922 16.444 23.052 28.788 40.877 33.394 6.172 1.589 12.989 2.464 21.74 2.879 3.708.161 41.499.276 79.314.276s75.629-.046 79.245-.23c10.133-.477 16.017-1.267 22.523-2.948 17.94-4.629 32.794-16.789 40.877-33.463 4.065-8.383 6.126-16.536 7.059-28.366.203-2.58.288-43.705.288-84.775 0-41.077-.092-82.126-.295-84.705-.944-12.022-3.005-20.106-7.201-28.65-3.443-6.994-7.266-12.218-12.816-17.558-9.905-9.461-22.019-15.219-36.454-17.3-6.994-1.012-8.387-1.311-44.175-1.373z"/><path fill="#fff" d="M200.004 89.455c-30.021 0-33.789.131-45.58.668-11.768.539-19.801 2.402-26.829 5.136-7.271 2.823-13.438 6.6-19.582 12.747-6.149 6.144-9.926 12.312-12.759 19.58-2.74 7.032-4.606 15.067-5.135 26.831-.528 11.791-.666 15.561-.666 45.584 0 30.022.134 33.778.668 45.57.541 11.768 2.404 19.801 5.136 26.83 2.825 7.271 6.602 13.438 12.749 19.583 6.142 6.149 12.309 9.935 19.575 12.758 7.033 2.734 15.068 4.597 26.834 5.136 11.791.537 15.557.668 45.576.668 30.023 0 33.779-.131 45.571-.668 11.768-.539 19.81-2.402 26.843-5.136 7.268-2.823 13.426-6.609 19.568-12.758 6.149-6.145 9.926-12.312 12.759-19.581 2.717-7.031 4.582-15.066 5.135-26.83.53-11.792.668-15.55.668-45.572 0-30.023-.138-33.791-.668-45.582-.553-11.769-2.418-19.801-5.135-26.83-2.833-7.271-6.61-13.439-12.759-19.583-6.149-6.149-12.298-9.926-19.575-12.747-7.047-2.734-15.084-4.597-26.853-5.136-11.791-.537-15.544-.668-45.575-.668zm-9.916 19.921c2.943-.004 6.227 0 9.916 0 29.515 0 33.013.106 44.669.636 10.778.493 16.627 2.294 20.524 3.807 5.158 2.003 8.836 4.399 12.703 8.268 3.869 3.869 6.264 7.554 8.272 12.712 1.513 3.893 3.316 9.742 3.807 20.52.529 11.654.645 15.154.645 44.656s-.116 33.003-.645 44.656c-.493 10.778-2.294 16.628-3.807 20.52-2.004 5.159-4.403 8.832-8.272 12.699-3.869 3.869-7.542 6.264-12.703 8.268-3.892 1.52-9.746 3.316-20.524 3.809-11.653.53-15.154.645-44.669.645-29.517 0-33.015-.115-44.668-.645-10.778-.497-16.627-2.298-20.526-3.812-5.159-2.003-8.843-4.398-12.712-8.267-3.869-3.87-6.264-7.545-8.273-12.706-1.513-3.892-3.316-9.742-3.806-20.52-.53-11.654-.636-15.154-.636-44.674 0-29.521.106-33.003.636-44.656.492-10.778 2.293-16.628 3.806-20.525 2.004-5.159 4.404-8.843 8.273-12.713 3.869-3.869 7.553-6.264 12.712-8.272 3.897-1.52 9.748-3.316 20.526-3.812 10.198-.46 14.15-.598 34.752-.621zm68.923 18.355c-7.324 0-13.265 5.935-13.265 13.261 0 7.324 5.941 13.266 13.265 13.266 7.323 0 13.265-5.942 13.265-13.266 0-7.323-5.942-13.265-13.265-13.265zm-59.007 15.5c-31.35 0-56.768 25.418-56.768 56.77 0 31.351 25.418 56.758 56.768 56.758 31.351 0 56.759-25.407 56.759-56.758 0-31.352-25.411-56.77-56.761-56.77zm0 19.921c20.349 0 36.848 16.497 36.848 36.849 0 20.349-16.499 36.848-36.848 36.848-20.351 0-36.847-16.499-36.847-36.848 0-20.352 16.496-36.849 36.847-36.849z"/></svg>