<svg xmlns="http://www.w3.org/2000/svg" width="20" height="20" fill="none" viewBox="0 0 20 20"><path fill="#239AFF" fill-rule="evenodd" d="M10 18c1.779 0 3.422-.58 4.75-1.563l.039-.028a8.019 8.019 0 0 0 .775-.66A8 8 0 1 0 10 18zm-4.33-2.501A4.998 4.998 0 0 1 10 13a4.995 4.995 0 0 1 4.33 2.5A6.97 6.97 0 0 1 10 17a6.963 6.963 0 0 1-4.33-1.501zM10 3a7 7 0 0 0-5.084 11.812 6.018 6.018 0 0 1 2.958-2.424 4 4 0 1 1 4.252.001 6.015 6.015 0 0 1 2.957 2.422A7 7 0 0 0 10 3zM7 9a3 3 0 1 1 6 0 3 3 0 0 1-6 0z" clip-rule="evenodd"/></svg>