<svg width="20" height="20" viewBox="0 0 20 20" fill="none" xmlns="http://www.w3.org/2000/svg">
<path fill-rule="evenodd" clip-rule="evenodd" d="M7.87879 14.9496L17.7783 5.05015C18.1688 4.65963 18.1688 4.02646 17.7783 3.63594L16.3641 2.22173C15.9736 1.8312 15.3404 1.8312 14.9499 2.22173L5.05037 12.1212L3.91385 14.7731C3.55825 15.6028 4.39719 16.4418 5.22691 16.0862L7.87879 14.9496ZM5.89365 12.6922L4.83299 15.167L7.30786 14.1064L15.3536 6.06065L13.9394 4.64643L5.89365 12.6922ZM14.6465 3.93933L16.0607 5.35354L17.0712 4.34305L15.657 2.92883L14.6465 3.93933Z" fill="white"/>
<path d="M3.5 4.99996C2.67157 4.99996 2 5.67153 2 6.49996V16.5C2 17.3284 2.67157 18 3.5 18H13.5C14.3284 18 15 17.3284 15 16.5V11C15 10.7238 15.2239 10.5 15.5 10.5C15.7761 10.5 16 10.7238 16 11V16.5C16 17.8807 14.8807 19 13.5 19H3.5C2.11929 19 1 17.8807 1 16.5V6.49996C1 5.11924 2.11929 3.99996 3.5 3.99996H9C9.27614 3.99996 9.5 4.22381 9.5 4.49996C9.5 4.7761 9.27614 4.99996 9 4.99996H3.5Z" fill="white"/>
</svg>
