<svg fill="none" height="20" viewBox="0 0 21 20" width="21" xmlns="http://www.w3.org/2000/svg"><path d="m.5 10c0-5.52285 4.47715-10 10-10 5.5228 0 10 4.47715 10 10 0 5.5228-4.4772 10-10 10-5.52285 0-10-4.4772-10-10z" fill="#0faf73"/><path clip-rule="evenodd" d="m8 7c0-1.38071 1.11929-2.5 2.5-2.5 1.3807 0 2.5 1.11929 2.5 2.5v1h.5c.5523 0 1 .44772 1 1v5c0 .5523-.4477 1-1 1h-6c-.55228 0-1-.4477-1-1v-5c0-.55228.44772-1 1-1h.5zm4 0v1h-3v-1c0-.82843.67157-1.5 1.5-1.5.8284 0 1.5.67157 1.5 1.5zm-.5 4c0 .3701-.2011.6933-.5.8662v.6338c0 .2761-.2239.5-.5.5s-.5-.2239-.5-.5v-.6338c-.2989-.1729-.5-.4961-.5-.8662 0-.5523.44772-1 1-1 .5523 0 1 .4477 1 1z" fill="#fff" fill-rule="evenodd"/></svg>