<svg width="20" height="20" viewBox="0 0 20 20" fill="none" xmlns="http://www.w3.org/2000/svg">
<path fill-rule="evenodd" clip-rule="evenodd" d="M8.6926 3.34371C9.26605 2.32423 10.7339 2.32423 11.3073 3.34371L16.8876 13.2643C17.4501 14.2642 16.7275 15.4996 15.5803 15.4996H4.41966C3.27242 15.4996 2.54984 14.2642 3.11229 13.2643L8.6926 3.34371ZM12.1789 2.85345C11.2231 1.15432 8.77678 1.15432 7.82102 2.85345L2.24072 12.774C1.3033 14.4405 2.50759 16.4996 4.41966 16.4996H15.5803C17.4923 16.4996 18.6966 14.4405 17.7592 12.774L12.1789 2.85345ZM9.99996 11.4996C11 11.4996 11 7.55193 11 6.99964C11 6.44736 10.5522 5.99964 9.99996 5.99964C9.44768 5.99964 8.99996 6.44736 8.99996 6.99964C8.99996 7.55193 8.99996 11.4996 9.99996 11.4996ZM9.99996 13.9996C10.5522 13.9996 11 13.5519 11 12.9996C11 12.4474 10.5522 11.9996 9.99996 11.9996C9.44768 11.9996 8.99996 12.4474 8.99996 12.9996C8.99996 13.5519 9.44768 13.9996 9.99996 13.9996Z" fill="#D01941"/>
</svg>
