<svg xmlns="http://www.w3.org/2000/svg" width="32" height="32" fill="none" viewBox="0 0 32 32"><path fill="#2F3237" fill-rule="evenodd" d="M7 26h5.515a9.05 9.05 0 0 0 1.828 2H7a2 2 0 0 1-2-2V6a2 2 0 0 1 2-2h11.97a2 2 0 0 1 1.628.838l4.03 5.64A2 2 0 0 1 25 11.642v1.874a8.968 8.968 0 0 0-2-1.003v-.871L18.97 6H7v20zm4.512-2a8.948 8.948 0 0 1-.457-2H10a1 1 0 1 0 0 2h1.512zm-.457-4a8.948 8.948 0 0 1 .457-2H10a1 1 0 1 0 0 2h1.055zm1.46-4a9.05 9.05 0 0 1 1.828-2H10a1 1 0 1 0 0 2h2.515zM10 10a1 1 0 1 0 0 2h6a1 1 0 1 0 0-2h-6zm10 16a5 5 0 1 0 0-10 5 5 0 0 0 0 10zm0 2c1.576 0 3.03-.52 4.2-1.4a.999.999 0 0 0 .093.107l3 3a1 1 0 0 0 1.414-1.414l-3-3a.999.999 0 0 0-.107-.093A7 7 0 1 0 20 28zm0-10a1 1 0 0 0-1 1v1h-1a1 1 0 1 0 0 2h1v1a1 1 0 1 0 2 0v-1h1a1 1 0 1 0 0-2h-1v-1a1 1 0 0 0-1-1z" clip-rule="evenodd"/></svg>