<svg xmlns="http://www.w3.org/2000/svg" width="20" height="20" fill="none" viewBox="0 0 20 20"><g fill="#2f3237"><rect width="2" height="14" x="2" y="4" rx="1"/><rect width="2" height="14" x="10" y="4" rx="1"/><path d="M3 10h9v2H3zM13.36 18v-.98c.373-.347.72-.673 1.04-.98.327-.307.61-.593.85-.86.24-.273.427-.53.56-.77.14-.247.21-.477.21-.69 0-.287-.073-.497-.22-.63-.14-.14-.327-.21-.56-.21a.917.917 0 00-.57.19 4.4 4.4 0 00-.47.41l-.92-.92a4.95 4.95 0 01.49-.45 2.413 2.413 0 011.06-.51c.2-.04.417-.06.65-.06.32 0 .613.05.88.15s.497.24.69.42.343.4.45.66c.107.253.16.537.16.85 0 .253-.057.513-.17.78-.107.26-.247.52-.42.78s-.37.513-.59.76c-.213.247-.427.48-.64.7.16-.02.34-.037.54-.05.207-.02.38-.03.52-.03h1.06V18z"/></g></svg>