<svg xmlns="http://www.w3.org/2000/svg" width="40" height="40" fill="none" viewBox="0 0 40 40"><path stroke="#5E636E" stroke-linecap="round" stroke-width="2" d="M3 9a2 2 0 0 1 2-2h30a2 2 0 0 1 2 2v22a2 2 0 0 1-2 2H5a2 2 0 0 1-2-2V9z"/><path fill="#DEE3ED" d="M11 13a1 1 0 1 0 0 2v-2zm18 2a1 1 0 1 0 0-2v2zm-18 2a1 1 0 1 0 0 2v-2zm18 2a1 1 0 1 0 0-2v2zm-18 2a1 1 0 1 0 0 2v-2zm18 2a1 1 0 1 0 0-2v2zm-18 2a1 1 0 1 0 0 2v-2zm6 2a1 1 0 1 0 0-2v2zm-6-12h18v-2H11v2zm0 4h18v-2H11v2zm0 4h18v-2H11v2zm0 4h6v-2h-6v2z"/><circle cx="29" cy="29" r="9" fill="#239AFF" transform="rotate(-180 29 29)"/><path stroke="#fff" stroke-linecap="round" stroke-linejoin="round" stroke-width="2" d="M24 26h2m2 0h-2m0 0v6m4 0h4"/></svg>