<svg xmlns="http://www.w3.org/2000/svg" width="400" height="400" fill="none" viewBox="0 0 400 400"><path fill="#2F3237" fill-rule="evenodd" d="M140.263 331c121.509 0 187.97-100.807 187.97-188.227 0-2.863 0-5.713-.193-8.551A134.52 134.52 0 0 0 361 99.979a131.743 131.743 0 0 1-37.944 10.409 66.372 66.372 0 0 0 29.044-36.59 132.286 132.286 0 0 1-41.95 16.057c-20.478-21.805-53.018-27.142-79.373-13.018-26.354 14.124-39.97 44.195-33.211 73.353-53.119-2.667-102.61-27.79-136.155-69.118-17.534 30.227-8.578 68.896 20.454 88.309a65.506 65.506 0 0 1-29.985-8.28v.838c.009 31.491 22.176 58.613 53.001 64.849a65.878 65.878 0 0 1-29.83 1.135c8.655 26.948 33.457 45.409 61.721 45.941a132.448 132.448 0 0 1-82.045 28.375A134.413 134.413 0 0 1 39 301.284a186.848 186.848 0 0 0 101.263 29.664" clip-rule="evenodd"/></svg>