<svg width="20" height="20" viewBox="0 0 20 20" fill="none" xmlns="http://www.w3.org/2000/svg">
<path fill-rule="evenodd" clip-rule="evenodd" d="M10 3C13.866 3 17 6.13401 17 10C17 13.866 13.866 17 10 17C6.13401 17 3 13.866 3 10C3 6.13401 6.13401 3 10 3ZM10 9C10.5523 9 11 9.44772 11 10V14C11 14.5523 10.5523 15 10 15C9.44772 15 9 14.5523 9 14V10C9 9.44772 9.44772 9 10 9ZM10 8C10.6904 8 11.25 7.44036 11.25 6.75C11.25 6.05964 10.6904 5.5 10 5.5C9.30964 5.5 8.75 6.05964 8.75 6.75C8.75 7.44036 9.30964 8 10 8Z" fill="#1976F0"/>
</svg>
