<svg xmlns="http://www.w3.org/2000/svg" width="20" height="20" fill="none" viewBox="0 0 20 20"><g fill="#fff"><path d="M3.66 10V8.62h1.36V5.34h-1.2V4.28c.36-.073.667-.157.92-.25s.5-.217.74-.37h1.26v4.96h1.14V10zm-.3 8v-.98c.373-.347.72-.673 1.04-.98a14.5 14.5 0 0 0 .85-.86c.24-.273.427-.53.56-.77.14-.247.21-.477.21-.69 0-.287-.073-.497-.22-.63-.14-.14-.327-.21-.56-.21a.917.917 0 0 0-.57.19c-.16.12-.317.257-.47.41l-.92-.92c.167-.173.33-.323.49-.45a2.412 2.412 0 0 1 1.06-.51c.2-.04.417-.06.65-.06.32 0 .613.05.88.15s.497.24.69.42.343.4.45.66c.107.253.16.537.16.85 0 .253-.057.513-.17.78-.107.26-.247.52-.42.78s-.37.513-.59.76c-.213.247-.427.48-.64.7.16-.02.34-.037.54-.05.207-.02.38-.03.52-.03h1.06V18z"/><rect width="7" height="2" x="10" y="6" rx="1"/><rect width="7" height="2" x="10" y="14" rx="1"/></g></svg>