<svg xmlns="http://www.w3.org/2000/svg" width="32" height="32" fill="none" viewBox="0 0 32 32"><clipPath id="a"><path d="M0 0h32v32H0z"/></clipPath><g clip-path="url(#a)"><path fill="#18181a" fill-rule="evenodd" d="M3.644 7.294a1 1 0 0 1 .927.269l3.766 3.766L11.166 8.5 7.399 4.734a1 1 0 0 1 .372-1.649 8 8 0 0 1 10.416 9.608l8.535 8.536a4 4 0 1 1-5.657 5.656L12.53 18.35A8 8 0 0 1 2.922 7.934a1 1 0 0 1 .722-.64zm6.48-2.663l3.163 3.162a1 1 0 0 1 0 1.415L9.044 13.45a1 1 0 0 1-1.414 0l-3.162-3.162a6 6 0 0 0 8.008 5.987 1 1 0 0 1 1.042.234l8.961 8.962a2 2 0 0 0 2.829-2.828l-8.962-8.962a1 1 0 0 1-.235-1.042 6 6 0 0 0-5.987-8.008z" clip-rule="evenodd"/></g></svg>