<svg fill="none" height="20" viewBox="0 0 21 20" width="21" xmlns="http://www.w3.org/2000/svg"><rect fill="#002b9a" height="20" rx="10" width="20" x=".5"/><g fill="#f8e71c"><path d="m10.782 1.61167-.2821-.61167-.2822.61167-.66887.07931.49457.45735-.1313.66069.5878-.32902.5878.32902-.1313-.66069.4945-.45735z"/><path d="m6.78202 2.61167-.28214-.61167-.28213.61167-.66892.07931.49455.45735-.13128.66069.58778-.32902.58779.32902-.13128-.66069.49455-.45735z"/><path d="m3.49988 5 .28214.61167.66892.07931-.49455.45735.13128.66069-.58779-.32902-.58778.32902.13128-.66069-.49455-.45735.66892-.07931z"/><path d="m10.782 17.6117-.2821-.6117-.2822.6117-.66887.0793.49457.4573-.1313.6607.5878-.329.5878.329-.1313-.6607.4945-.4573z"/><path d="m3.49988 13 .28214.6117.66892.0793-.49455.4573.13128.6607-.58779-.329-.58778.329.13128-.6607-.49455-.4573.66892-.0793z"/><path d="m6.78202 16.6117-.28214-.6117-.28213.6117-.66892.0793.49455.4573-.13128.6607.58778-.329.58779.329-.13128-.6607.49455-.4573z"/><path d="m14.4999 16 .2821.6117.6689.0793-.4945.4573.1313.6607-.5878-.329-.5878.329.1313-.6607-.4946-.4573.6689-.0793z"/><path d="m17.782 13.6117-.2821-.6117-.2822.6117-.6689.0793.4946.4573-.1313.6607.5878-.329.5878.329-.1313-.6607.4945-.4573z"/><path d="m2.49988 9 .28214.61167.66892.07931-.49455.45732.13128.6607-.58779-.329-.58778.329.13128-.6607-.49455-.45732.66892-.07931z"/><path d="m18.782 9.61167-.2821-.61167-.2822.61167-.6689.07931.4946.45732-.1313.6607.5878-.329.5878.329-.1313-.6607.4945-.45732z"/><path d="m14.4999 2 .2821.61167.6689.07931-.4945.45735.1313.66069-.5878-.32902-.5878.32902.1313-.66069-.4946-.45735.6689-.07931z"/><path d="m17.782 5.61167-.2821-.61167-.2822.61167-.6689.07931.4946.45735-.1313.66069.5878-.32902.5878.32902-.1313-.66069.4945-.45735z"/></g><path d="m7 10 2.5 2.5 4.5-4.5" stroke="#fff" stroke-linecap="round" stroke-linejoin="round"/></svg>