<svg width="20" height="20" viewBox="0 0 20 20" fill="none" xmlns="http://www.w3.org/2000/svg">
<path d="M6.98997 3.96179L7.0383 3.46413L6.98997 3.96179ZM7.85878 3.60192L8.24485 3.91964L8.24485 3.91964L7.85878 3.60192ZM3.75353 4.8455L3.25587 4.89384L3.25587 4.89384L3.75353 4.8455ZM4.84551 3.75353L4.79717 4.25118L4.84551 3.75353ZM3.60192 7.85878L3.2842 7.47271L3.2842 7.47271L3.60192 7.85878ZM3.96179 6.98997L4.45945 6.94164L4.45945 6.94164L3.96179 6.98997ZM1.93829 10.7722L2.25601 10.3861L2.25601 10.3861L1.93829 10.7722ZM1.93829 9.22788L2.25601 9.61396L2.25601 9.61396L1.93829 9.22788ZM3.96179 13.0101L3.46413 12.9618L3.96179 13.0101ZM3.60192 12.1413L3.2842 12.5273L3.2842 12.5273L3.60192 12.1413ZM4.8455 16.2465L4.79717 15.7489L4.79717 15.7489L4.8455 16.2465ZM3.75353 15.1546L4.25118 15.2029L3.75353 15.1546ZM7.85878 16.3981L8.24485 16.0804L8.24485 16.0804L7.85878 16.3981ZM6.98997 16.0383L7.0383 16.5359L7.0383 16.5359L6.98997 16.0383ZM10.7722 18.0618L10.3861 17.744L10.3861 17.744L10.7722 18.0618ZM9.22788 18.0618L8.84181 18.3795L8.84181 18.3795L9.22788 18.0618ZM13.0101 16.0383L13.0584 15.5406L13.0101 16.0383ZM12.1413 16.3981L12.5273 16.7159L12.5273 16.7159L12.1413 16.3981ZM16.2465 15.1546L15.7489 15.2029L15.7489 15.2029L16.2465 15.1546ZM15.1546 16.2465L15.1062 16.7442L15.1546 16.2465ZM16.3981 12.1413L16.0804 11.7552L16.0804 11.7552L16.3981 12.1413ZM16.0383 13.0101L16.5359 12.9618L16.5359 12.9618L16.0383 13.0101ZM18.0618 9.22788L17.744 9.61396L17.744 9.61396L18.0618 9.22788ZM18.0618 10.7722L18.3795 11.1582L18.3795 11.1582L18.0618 10.7722ZM16.0383 6.98997L15.5406 6.94164L16.0383 6.98997ZM16.3981 7.85878L16.7159 7.47271L16.7159 7.47271L16.3981 7.85878ZM15.1546 3.75353L15.1062 3.25587L15.1062 3.25587L15.1546 3.75353ZM16.2465 4.84551L16.7442 4.89384L16.2465 4.84551ZM12.1413 3.60192L12.5273 3.2842L12.5273 3.2842L12.1413 3.60192ZM13.0101 3.96179L13.0584 4.45945L13.0584 4.45945L13.0101 3.96179ZM10.7722 1.93829L10.3861 2.25601L10.3861 2.25601L10.7722 1.93829ZM9.22788 1.93829L8.84181 1.62056L8.84181 1.62056L9.22788 1.93829ZM6.04195 13.2996C5.93127 13.5526 6.04663 13.8474 6.29962 13.9581C6.55261 14.0688 6.84742 13.9534 6.95811 13.7004L6.04195 13.2996ZM10 5.50003L10.4581 5.29962C10.3785 5.11763 10.1987 5.00003 10 5.00003C9.80138 5.00003 9.62157 5.11763 9.54195 5.29962L10 5.50003ZM13.0419 13.7004C13.1526 13.9534 13.4474 14.0688 13.7004 13.9581C13.9534 13.8474 14.0688 13.5526 13.9581 13.2996L13.0419 13.7004ZM8.00003 10C7.72389 10 7.50003 10.2239 7.50003 10.5C7.50003 10.7762 7.72389 11 8.00003 11V10ZM12 11C12.2762 11 12.5 10.7762 12.5 10.5C12.5 10.2239 12.2762 10 12 10V11ZM10.3861 2.25601L11.7552 3.91964L12.5273 3.2842L11.1582 1.62056L10.3861 2.25601ZM13.0584 4.45945L15.2029 4.25118L15.1062 3.25587L12.9618 3.46413L13.0584 4.45945ZM15.7489 4.79717L15.5406 6.94164L16.5359 7.0383L16.7442 4.89384L15.7489 4.79717ZM16.0804 8.24485L17.744 9.61396L18.3795 8.84181L16.7159 7.47271L16.0804 8.24485ZM17.7441 10.3861L16.0804 11.7552L16.7159 12.5273L18.3795 11.1582L17.7441 10.3861ZM15.5406 13.0584L15.7489 15.2029L16.7442 15.1062L16.5359 12.9618L15.5406 13.0584ZM15.2029 15.7489L13.0584 15.5406L12.9618 16.5359L15.1062 16.7442L15.2029 15.7489ZM11.7552 16.0804L10.3861 17.744L11.1582 18.3795L12.5273 16.7159L11.7552 16.0804ZM9.61396 17.7441L8.24485 16.0804L7.47271 16.7159L8.84181 18.3795L9.61396 17.7441ZM6.94164 15.5406L4.79717 15.7489L4.89384 16.7442L7.0383 16.5359L6.94164 15.5406ZM4.25118 15.2029L4.45945 13.0584L3.46413 12.9618L3.25587 15.1062L4.25118 15.2029ZM3.91964 11.7552L2.25601 10.3861L1.62056 11.1582L3.2842 12.5273L3.91964 11.7552ZM2.25601 9.61396L3.91964 8.24485L3.2842 7.47271L1.62056 8.84181L2.25601 9.61396ZM4.45945 6.94164L4.25118 4.79717L3.25587 4.89384L3.46413 7.0383L4.45945 6.94164ZM4.79717 4.25118L6.94164 4.45945L7.0383 3.46413L4.89384 3.25587L4.79717 4.25118ZM8.24485 3.91964L9.61395 2.25601L8.84181 1.62056L7.47271 3.2842L8.24485 3.91964ZM6.94164 4.45945C7.43883 4.50774 7.92743 4.30535 8.24485 3.91964L7.47271 3.2842C7.3669 3.41277 7.20403 3.48023 7.0383 3.46413L6.94164 4.45945ZM4.25118 4.79717C4.22076 4.48389 4.48389 4.22076 4.79717 4.25118L4.89384 3.25587C3.95399 3.16459 3.16459 3.95399 3.25587 4.89384L4.25118 4.79717ZM3.91964 8.24485C4.30535 7.92743 4.50774 7.43883 4.45945 6.94164L3.46413 7.0383C3.48023 7.20403 3.41277 7.3669 3.2842 7.47271L3.91964 8.24485ZM2.25601 10.3861C2.01297 10.1861 2.01297 9.81396 2.25601 9.61396L1.62056 8.84181C0.891452 9.44184 0.891454 10.5582 1.62056 11.1582L2.25601 10.3861ZM4.45945 13.0584C4.50774 12.5612 4.30535 12.0726 3.91964 11.7552L3.2842 12.5273C3.41277 12.6332 3.48023 12.796 3.46413 12.9618L4.45945 13.0584ZM4.79717 15.7489C4.48389 15.7793 4.22076 15.5162 4.25118 15.2029L3.25587 15.1062C3.16459 16.0461 3.95399 16.8355 4.89384 16.7442L4.79717 15.7489ZM8.24485 16.0804C7.92743 15.6947 7.43883 15.4923 6.94164 15.5406L7.0383 16.5359C7.20403 16.5198 7.3669 16.5873 7.47271 16.7159L8.24485 16.0804ZM10.3861 17.744C10.1861 17.9871 9.81396 17.9871 9.61396 17.7441L8.84181 18.3795C9.44184 19.1086 10.5582 19.1086 11.1582 18.3795L10.3861 17.744ZM13.0584 15.5406C12.5612 15.4923 12.0726 15.6947 11.7552 16.0804L12.5273 16.7159C12.6332 16.5873 12.796 16.5198 12.9618 16.5359L13.0584 15.5406ZM15.7489 15.2029C15.7793 15.5162 15.5162 15.7793 15.2029 15.7489L15.1062 16.7442C16.0461 16.8355 16.8355 16.0461 16.7442 15.1062L15.7489 15.2029ZM16.0804 11.7552C15.6947 12.0726 15.4923 12.5612 15.5406 13.0584L16.5359 12.9618C16.5198 12.796 16.5873 12.6332 16.7159 12.5273L16.0804 11.7552ZM17.744 9.61396C17.9871 9.81397 17.9871 10.1861 17.7441 10.3861L18.3795 11.1582C19.1086 10.5582 19.1086 9.44184 18.3795 8.84181L17.744 9.61396ZM15.5406 6.94164C15.4923 7.43883 15.6947 7.92743 16.0804 8.24485L16.7159 7.47271C16.5873 7.3669 16.5198 7.20403 16.5359 7.0383L15.5406 6.94164ZM15.2029 4.25118C15.5162 4.22076 15.7793 4.48389 15.7489 4.79717L16.7442 4.89384C16.8355 3.95399 16.0461 3.16459 15.1062 3.25587L15.2029 4.25118ZM11.7552 3.91964C12.0726 4.30535 12.5612 4.50774 13.0584 4.45945L12.9618 3.46413C12.796 3.48023 12.6332 3.41277 12.5273 3.2842L11.7552 3.91964ZM11.1582 1.62056C10.5582 0.891452 9.44184 0.891454 8.84181 1.62056L9.61395 2.25601C9.81396 2.01297 10.1861 2.01297 10.3861 2.25601L11.1582 1.62056ZM6.95811 13.7004L10.4581 5.70044L9.54195 5.29962L6.04195 13.2996L6.95811 13.7004ZM9.54195 5.70044L13.0419 13.7004L13.9581 13.2996L10.4581 5.29962L9.54195 5.70044ZM8.00003 11H12V10H8.00003V11Z" fill="#2F3237"/>
</svg>
