<svg width="20" height="20" viewBox="0 0 20 20" fill="none" xmlns="http://www.w3.org/2000/svg">
<path fill-rule="evenodd" clip-rule="evenodd" d="M5.83384 2.23957C5.74202 1.89854 5.25816 1.89854 5.16634 2.23957C4.78202 3.66696 3.66705 4.78193 2.23966 5.16625C1.89863 5.25807 1.89863 5.74193 2.23966 5.83375C3.66705 6.21807 4.78202 7.33304 5.16634 8.76043C5.25816 9.10147 5.74202 9.10147 5.83384 8.76043C6.21817 7.33304 7.33313 6.21807 8.76052 5.83375C9.10156 5.74193 9.10156 5.25807 8.76052 5.16625C7.33313 4.78193 6.21817 3.66696 5.83384 2.23957ZM12.4829 5.79316C12.3501 5.29982 11.6501 5.29982 11.5173 5.79317L11.2011 6.96732C10.6452 9.03219 9.03227 10.6451 6.96741 11.2011L5.79326 11.5172C5.29991 11.65 5.29992 12.35 5.79326 12.4828L6.96741 12.7989C9.03228 13.3549 10.6452 14.9678 11.2011 17.0327L11.5173 18.2068C11.6501 18.7002 12.3501 18.7002 12.4829 18.2068L12.799 17.0327C13.355 14.9678 14.9679 13.3549 17.0328 12.7989L18.2069 12.4828C18.7003 12.35 18.7003 11.65 18.2069 11.5172L17.0328 11.2011C14.9679 10.6451 13.355 9.03218 12.799 6.96732L12.4829 5.79316Z" fill="#1976F0"/>
</svg>
