<svg width="20" height="20" viewBox="0 0 20 20" fill="none" xmlns="http://www.w3.org/2000/svg">
<path fill-rule="evenodd" clip-rule="evenodd" d="M5.5 1C3.01472 1 1 3.01472 1 5.5V14.5C1 16.9853 3.01472 19 5.5 19H14.5C16.9853 19 19 16.9853 19 14.5V5.5C19 3.01472 16.9853 1 14.5 1H5.5ZM2 5.5C2 3.567 3.567 2 5.5 2H14.5C16.433 2 18 3.567 18 5.5V14.5C18 16.433 16.433 18 14.5 18H5.5C3.567 18 2 16.433 2 14.5V5.5ZM3.5708 13H4.72656V8.3374H3.5708V13ZM3.42139 6.96191C3.42139 7.14941 3.48877 7.30322 3.62354 7.42334C3.7583 7.54053 3.93262 7.59912 4.14648 7.59912C4.36328 7.59912 4.53906 7.54053 4.67383 7.42334C4.80859 7.30322 4.87598 7.14941 4.87598 6.96191C4.87598 6.76855 4.80859 6.61328 4.67383 6.49609C4.53906 6.37598 4.36328 6.31592 4.14648 6.31592C3.93262 6.31592 3.7583 6.37598 3.62354 6.49609C3.48877 6.61328 3.42139 6.76855 3.42139 6.96191ZM9.94727 9.61182V10.394C9.94727 10.7778 9.88867 11.0986 9.77148 11.3564C9.6543 11.6143 9.49316 11.8076 9.28809 11.9365C9.08301 12.0625 8.84863 12.1255 8.58496 12.1255C8.31836 12.1255 8.08252 12.0625 7.87744 11.9365C7.67529 11.8076 7.51562 11.6143 7.39844 11.3564C7.28125 11.0986 7.22266 10.7778 7.22266 10.394V9.61182C7.22266 9.2251 7.28125 8.9043 7.39844 8.64941C7.51562 8.3916 7.67529 8.19824 7.87744 8.06934C8.08252 7.94043 8.31836 7.87598 8.58496 7.87598C8.84863 7.87598 9.08301 7.94043 9.28809 8.06934C9.49316 8.19824 9.6543 8.3916 9.77148 8.64941C9.88867 8.9043 9.94727 9.2251 9.94727 9.61182ZM11.1514 10.3896V9.62061C11.1514 9.05518 11.0488 8.56885 10.8438 8.16162C10.6387 7.75146 10.3442 7.43652 9.96045 7.2168C9.57959 6.99707 9.12109 6.88721 8.58496 6.88721C8.05176 6.88721 7.5918 6.99707 7.20508 7.2168C6.82129 7.43359 6.52686 7.74707 6.32178 8.15723C6.1167 8.56445 6.01416 9.05225 6.01416 9.62061V10.3896C6.01416 10.9521 6.1167 11.4385 6.32178 11.8486C6.52686 12.2559 6.82129 12.5693 7.20508 12.7891C7.5918 13.0059 8.05176 13.1143 8.58496 13.1143C9.12109 13.1143 9.57959 13.0059 9.96045 12.7891C10.3442 12.5693 10.6387 12.2559 10.8438 11.8486C11.0488 11.4385 11.1514 10.9521 11.1514 10.3896ZM12.2148 12.0376C12.1152 11.8267 12.0596 11.6025 12.0479 11.3652H13.1948C13.2153 11.4795 13.2578 11.5864 13.3223 11.686C13.3867 11.7827 13.4717 11.8677 13.5771 11.9409C13.6826 12.0142 13.8071 12.0713 13.9507 12.1123C14.0942 12.1533 14.2539 12.1738 14.4297 12.1738C14.6758 12.1738 14.8823 12.1387 15.0493 12.0684C15.2192 11.998 15.3467 11.9014 15.4316 11.7783C15.5166 11.6523 15.5591 11.5073 15.5591 11.3433C15.5591 11.1353 15.4829 10.9727 15.3306 10.8555C15.1782 10.7354 14.9468 10.6387 14.6362 10.5654L13.709 10.3501C13.3984 10.2798 13.1289 10.1729 12.9004 10.0293C12.6719 9.88574 12.4961 9.70264 12.373 9.47998C12.25 9.25732 12.1885 8.99512 12.1885 8.69336C12.1885 8.32715 12.2837 8.00781 12.4741 7.73535C12.6646 7.46289 12.9282 7.25195 13.2651 7.10254C13.6021 6.95312 13.9902 6.87842 14.4297 6.87842C14.8867 6.87842 15.2764 6.95459 15.5986 7.10693C15.9238 7.25928 16.1743 7.46436 16.3501 7.72217C16.5288 7.97705 16.6284 8.25977 16.6489 8.57031H15.5239C15.4976 8.42676 15.4375 8.29785 15.3438 8.18359C15.2529 8.06934 15.1299 7.97852 14.9746 7.91113C14.8193 7.84375 14.6348 7.81006 14.4209 7.81006C14.0957 7.81006 13.8394 7.88623 13.6519 8.03857C13.4673 8.18799 13.375 8.37988 13.375 8.61426C13.375 8.7959 13.4468 8.94531 13.5903 9.0625C13.7339 9.17969 13.936 9.26758 14.1968 9.32617L15.1284 9.5415C15.4536 9.61475 15.7363 9.72021 15.9766 9.85791C16.2168 9.99268 16.4043 10.1714 16.5391 10.394C16.6738 10.6167 16.7412 10.8965 16.7412 11.2334C16.7412 11.6055 16.6475 11.9336 16.46 12.2178C16.2754 12.499 16.0059 12.7188 15.6514 12.877C15.2998 13.0352 14.8706 13.1143 14.3638 13.1143C13.9829 13.1143 13.6504 13.0688 13.3662 12.978C13.082 12.8872 12.8433 12.7612 12.6499 12.6001C12.4595 12.436 12.3145 12.2485 12.2148 12.0376Z" fill="white"/>
</svg>
