<svg xmlns="http://www.w3.org/2000/svg" width="20" height="20" fill="none" viewBox="0 0 20 20"><path fill="#fff" fill-rule="evenodd" d="M5 8a5 5 0 0 1 2.726-4.454 3 3 0 0 0-3.568 4.822C2.308 9.131 1 10.965 1 12.8c0 1.058.803 1.997 2.04 2.58A4.164 4.164 0 0 1 3 14.8c0-1.916.924-3.72 2.34-4.986A4.986 4.986 0 0 1 5 8Zm10 0a5 5 0 0 0-2.726-4.454 3 3 0 0 1 3.568 4.822 5.293 5.293 0 0 1 2.544 2.237 5.02 5.02 0 0 0-3.417-.498c-.1-.1-.203-.198-.309-.293C14.88 9.252 15 8.64 15 8Zm-5 10c.65 0 1.271-.08 1.84-.224A4.976 4.976 0 0 1 11 15c0-1.626.776-3.07 1.977-3.983a5.174 5.174 0 0 0-1.135-.649 3 3 0 1 0-3.684 0C6.308 11.131 5 12.965 5 14.8c0 1.767 2.239 3.2 5 3.2Zm6-6a1 1 0 0 1 1 1v1h1a1 1 0 1 1 0 2h-1v1a1 1 0 1 1-2 0v-1h-1a1 1 0 1 1 0-2h1v-1a1 1 0 0 1 1-1Z" clip-rule="evenodd"/></svg>