<svg xmlns="http://www.w3.org/2000/svg" width="20" height="20" fill="none" viewBox="0 0 20 20"><path fill="#fff" fill-rule="evenodd" d="M16 6a2 2 0 0 1 2 2v8a2 2 0 0 1-2 2H4a2 2 0 0 1-2-2V8a2 2 0 0 1 2-2h.764a3 3 0 1 1 10.472 0H16zM5 4a2 2 0 0 0 2 2h1.619l-1.94-1.616a.5.5 0 1 1 .641-.768L9 5.016V4a2 2 0 1 0-4 0zM4 7h3v2H3V8a1 1 0 0 1 1-1zm3 10v-7H3v6a1 1 0 0 0 1 1h3zm1-7v7h4v-7H8zm5 0v7h3a1 1 0 0 0 1-1v-6h-4zm3-3h-3v2h4V8a1 1 0 0 0-1-1zm-1-3a2 2 0 0 1-2 2h-1.619l1.94-1.616a.5.5 0 0 0-.641-.768L11 5.016V4a2 2 0 1 1 4 0zM8 7v2h4V7H8z" clip-rule="evenodd"/></svg>