<svg width="20" height="20" viewBox="0 0 20 20" fill="none" xmlns="http://www.w3.org/2000/svg">
<path fill-rule="evenodd" clip-rule="evenodd" d="M2 4C0.895431 4 0 4.87304 0 5.95V15.05C0 16.127 0.895431 17 2 17H18C19.1046 17 20 16.127 20 15.05V5.95C20 4.87304 19.1046 4 18 4H2ZM6 13.75C5.63181 13.75 5.33333 14.041 5.33333 14.4V15.05C5.33333 15.409 5.63181 15.7 6 15.7H14C14.3682 15.7 14.6667 15.409 14.6667 15.05V14.4C14.6667 14.041 14.3682 13.75 14 13.75H6ZM1.33333 14.4C1.33333 14.041 1.63181 13.75 2 13.75H3.33333C3.70152 13.75 4 14.041 4 14.4V15.05C4 15.409 3.70152 15.7 3.33333 15.7H2C1.63181 15.7 1.33333 15.409 1.33333 15.05V14.4ZM2 10.5C1.63181 10.5 1.33333 10.791 1.33333 11.15V11.8C1.33333 12.159 1.63181 12.45 2 12.45H2.66667C3.03486 12.45 3.33333 12.159 3.33333 11.8V11.15C3.33333 10.791 3.03486 10.5 2.66667 10.5H2ZM1.33333 7.9C1.33333 7.54101 1.63181 7.25 2 7.25H4.66667C5.03486 7.25 5.33333 7.54101 5.33333 7.9V8.55C5.33333 8.90898 5.03486 9.2 4.66667 9.2H2C1.63181 9.2 1.33333 8.90898 1.33333 8.55V7.9ZM5.33333 10.5C4.96514 10.5 4.66667 10.791 4.66667 11.15V11.8C4.66667 12.159 4.96514 12.45 5.33333 12.45H6C6.36819 12.45 6.66667 12.159 6.66667 11.8V11.15C6.66667 10.791 6.36819 10.5 6 10.5H5.33333ZM6.66667 7.9C6.66667 7.54101 6.96514 7.25 7.33333 7.25H8C8.36819 7.25 8.66667 7.54101 8.66667 7.9V8.55C8.66667 8.90898 8.36819 9.2 8 9.2H7.33333C6.96514 9.2 6.66667 8.90898 6.66667 8.55V7.9ZM10.6667 7.25C10.2985 7.25 10 7.54101 10 7.9V8.55C10 8.90898 10.2985 9.2 10.6667 9.2H11.3333C11.7015 9.2 12 8.90898 12 8.55V7.9C12 7.54101 11.7015 7.25 11.3333 7.25H10.6667ZM13.3333 7.9C13.3333 7.54101 13.6318 7.25 14 7.25H14.6667C15.0349 7.25 15.3333 7.54101 15.3333 7.9V8.55C15.3333 8.90898 15.0349 9.2 14.6667 9.2H14C13.6318 9.2 13.3333 8.90898 13.3333 8.55V7.9ZM17.3333 7.25C16.9651 7.25 16.6667 7.54101 16.6667 7.9V8.55C16.6667 8.90898 16.9651 9.2 17.3333 9.2H18C18.3682 9.2 18.6667 8.90898 18.6667 8.55V7.9C18.6667 7.54101 18.3682 7.25 18 7.25H17.3333ZM8 11.15C8 10.791 8.29848 10.5 8.66667 10.5H9.33333C9.70152 10.5 10 10.791 10 11.15V11.8C10 12.159 9.70152 12.45 9.33333 12.45H8.66667C8.29848 12.45 8 12.159 8 11.8V11.15ZM12 10.5C11.6318 10.5 11.3333 10.791 11.3333 11.15V11.8C11.3333 12.159 11.6318 12.45 12 12.45H12.6667C13.0349 12.45 13.3333 12.159 13.3333 11.8V11.15C13.3333 10.791 13.0349 10.5 12.6667 10.5H12ZM14.6667 11.15C14.6667 10.791 14.9651 10.5 15.3333 10.5H18C18.3682 10.5 18.6667 10.791 18.6667 11.15V11.8C18.6667 12.159 18.3682 12.45 18 12.45H15.3333C14.9651 12.45 14.6667 12.159 14.6667 11.8V11.15ZM16.6667 13.75C16.2985 13.75 16 14.041 16 14.4V15.05C16 15.409 16.2985 15.7 16.6667 15.7H18C18.3682 15.7 18.6667 15.409 18.6667 15.05V14.4C18.6667 14.041 18.3682 13.75 18 13.75H16.6667Z" fill="#FFF"/>
</svg>
