<svg xmlns="http://www.w3.org/2000/svg" width="32" height="32" fill="none" viewBox="0 0 32 32"><path fill="#18181a" fill-rule="evenodd" d="M9 23v-2H5a2 2 0 0 1-2-2V9a2 2 0 0 1 2-2h16a2 2 0 0 1 2 2v10a2 2 0 0 1-2 2H13.113l-.475.285L9 23.468zm-8-4a4 4 0 0 0 4 4h2v2.234a1 1 0 0 0 1.514.857L13.668 23H21a4 4 0 0 0 4-4V9a4 4 0 0 0-4-4H5a4 4 0 0 0-4 4zm10 8c-.037 0-.074 0-.11-.002L14.22 25h4.667L23 27.468V25h4a2 2 0 0 0 2-2V13a2 2 0 0 0-2-2V9a4 4 0 0 1 4 4v10a4 4 0 0 1-4 4h-2v2.234a1 1 0 0 1-1.514.857L18.333 27z" clip-rule="evenodd"/></svg>