<svg xmlns="http://www.w3.org/2000/svg" width="32" height="32" fill="none" viewBox="0 0 32 32"><path fill="#18181a" fill-rule="evenodd" d="M11.707 2.293a1 1 0 1 0-1.414 1.414L11.586 5l-1.293 1.293a1 1 0 1 0 1.414 1.414l2-2a1 1 0 0 0 0-1.414zM6.102 11h15.796l-.24 4.774a30 30 0 0 1-.858 5.778L19.438 27H8.562l-1.363-5.448a30 30 0 0 1-.858-5.778zm-1.997.1A2 2 0 0 1 6.102 9h15.796a2 2 0 0 1 1.997 2.1l-.045.9h1.555a4 4 0 0 1 3.936 4.715l-.76 4.18A5 5 0 0 1 23.661 25H22l-.621 2.485A2 2 0 0 1 19.439 29H8.561a2 2 0 0 1-1.94-1.515l-1.363-5.448a32 32 0 0 1-.915-6.163zM22.5 23h1.162a3 3 0 0 0 2.951-2.463l.76-4.18A2 2 0 0 0 25.405 14H23.75l-.094 1.874a32.005 32.005 0 0 1-.915 6.163zM15.293 2.293a1 1 0 0 1 1.414 0l2 2a1 1 0 0 1 0 1.414l-2 2a1 1 0 1 1-1.414-1.414L16.586 5l-1.293-1.293a1 1 0 0 1 0-1.414z" clip-rule="evenodd"/></svg>