<svg xmlns="http://www.w3.org/2000/svg" width="20" height="20" fill="none" viewBox="0 0 20 20"><path fill="#fff" d="M3.5 6.5V6a.5.5 0 0 0-.5.5h.5zm8 0h.5a.5.5 0 0 0-.5-.5v.5zm0 6v.5a.5.5 0 0 0 .5-.5h-.5zm-8 0H3a.5.5 0 0 0 .5.5v-.5zM2.5 5h15V4h-15v1zm15.5.5V15h1V5.5h-1zm.5 9h-17v1h17v-1zM2 15V5.5H1V15h1zM17.5 5a.5.5 0 0 1 .5.5h1A1.5 1.5 0 0 0 17.5 4v1zm-15-1A1.5 1.5 0 0 0 1 5.5h1a.5.5 0 0 1 .5-.5V4zm16 12.5h-17v1h17v-1zm-17 0A.5.5 0 0 1 1 16H0a1.5 1.5 0 0 0 1.5 1.5v-1zM19 16a.5.5 0 0 1-.5.5v1A1.5 1.5 0 0 0 20 16h-1zm-.5-.5a.5.5 0 0 1 .5.5h1a1.5 1.5 0 0 0-1.5-1.5v1zm-17-1A1.5 1.5 0 0 0 0 16h1a.5.5 0 0 1 .5-.5v-1zm2-7.5h8V6h-8v1zm7.5-.5v6h1v-6h-1zm.5 5.5h-8v1h8v-1zm-7.5.5v-6H3v6h1z"/></svg>