<svg xmlns="http://www.w3.org/2000/svg" width="32" height="32" fill="none" viewBox="0 0 32 32"><path fill="#18181a" fill-rule="evenodd" d="M25 8H7c-.157 0-.31.018-.456.052L16 16.65l9.456-8.597A2.007 2.007 0 0 0 25 8zM5 10a2 2 0 0 1 .083-.573l5.828 5.298-5.865 6.704A2.007 2.007 0 0 1 5 21zm1.407 12.91c.187.059.387.09.593.09h18a2 2 0 0 0 .593-.09l-5.985-6.839-2.935 2.669a1 1 0 0 1-1.346 0l-2.935-2.669zm14.681-8.185l5.866 6.704c.03-.138.046-.282.046-.429V10a2 2 0 0 0-.083-.573zM7 6a4 4 0 0 0-4 4v11a4 4 0 0 0 4 4h18a4 4 0 0 0 4-4V10a4 4 0 0 0-4-4z" clip-rule="evenodd"/></svg>