<svg width="20" height="20" viewBox="0 0 20 20" fill="none" xmlns="http://www.w3.org/2000/svg">
<path d="M14.9497 14.9498C17.192 12.7075 17.5951 9.32258 16.159 6.6695L16.8929 5.93563C18.7047 9.00344 18.2927 13.021 15.6569 15.6569C12.5327 18.7811 7.46734 18.7811 4.34315 15.6569C1.21895 12.5327 1.21895 7.46735 4.34315 4.34316C6.97902 1.70728 10.9967 1.29529 14.0645 3.10719L13.3306 3.84105C10.6775 2.40493 7.29252 2.808 5.05025 5.05026C2.31658 7.78393 2.31658 12.2161 5.05025 14.9498C7.78392 17.6834 12.2161 17.6834 14.9497 14.9498Z" fill="white"/>
<path d="M13.5356 13.5355C14.9854 12.0858 15.3587 9.96716 14.6556 8.1729L13.8643 8.96422C14.2206 10.2987 13.8754 11.7815 12.8285 12.8284C11.2664 14.3905 8.73371 14.3905 7.17161 12.8284C5.60951 11.2663 5.60951 8.73368 7.17161 7.17159C8.21853 6.12466 9.70141 5.77939 11.0359 6.13577L11.8272 5.34446C10.0329 4.64134 7.9143 5.01468 6.4645 6.46448C4.51188 8.4171 4.51188 11.5829 6.4645 13.5355C8.41712 15.4882 11.5829 15.4882 13.5356 13.5355Z" fill="white"/>
<path d="M9.29289 10.7071C8.90236 10.3166 8.90236 9.68343 9.29289 9.2929C9.48815 9.09764 9.48815 8.78106 9.29289 8.5858C9.09763 8.39054 8.78104 8.39054 8.58578 8.5858C7.80473 9.36685 7.80473 10.6332 8.58578 11.4142C9.36683 12.1953 10.6332 12.1953 11.4142 11.4142C11.6095 11.219 11.6095 10.9024 11.4142 10.7071C11.2189 10.5119 10.9024 10.5119 10.7071 10.7071C10.3166 11.0976 9.68341 11.0976 9.29289 10.7071Z" fill="white"/>
<path fill-rule="evenodd" clip-rule="evenodd" d="M17.5614 0.709569C17.5252 0.528752 17.3925 0.382517 17.216 0.329083C17.0395 0.275648 16.8479 0.323689 16.7175 0.454078L14.9498 2.22187C14.8315 2.34008 14.7802 2.50955 14.813 2.67348L15.1141 4.17885L9.64646 9.64649C9.4512 9.84175 9.4512 10.1583 9.64646 10.3536C9.84172 10.5489 10.1583 10.5489 10.3536 10.3536L15.8212 4.88595L17.3266 5.18703C17.4905 5.21981 17.66 5.1685 17.7782 5.05029L19.546 3.2825C19.6763 3.15211 19.7244 2.96054 19.6709 2.78405C19.6175 2.60757 19.4713 2.47482 19.2905 2.43866L17.8496 2.15049L17.5614 0.709569ZM18.1782 3.23602L17.2603 4.15397L16.0818 3.91827L15.8461 2.73975L16.764 1.82181L16.9344 2.67347C16.9739 2.8714 17.1287 3.02611 17.3266 3.0657L18.1782 3.23602Z" fill="white"/>
</svg>
