<svg xmlns="http://www.w3.org/2000/svg" width="32" height="32" fill="none" viewBox="0 0 32 32"><path fill="#18181A" fill-rule="evenodd" d="M7 8h21v16H14.95c-.15.13-.311.253-.486.365L11.921 26H28a2 2 0 0 0 2-2V8a2 2 0 0 0-2-2H7a2 2 0 0 0-2 2v3.784c.396.104.788.273 1.163.515l.837.538V8zm3.5 5a1.5 1.5 0 1 0 0-3 1.5 1.5 0 0 0 0 3zm5 0a1.5 1.5 0 1 0 0-3 1.5 1.5 0 0 0 0 3zm6.5-1.5a1.5 1.5 0 1 1-3 0 1.5 1.5 0 0 1 3 0zM4 15.663L12.302 21 4 26.337V15.663zm-2 0c0-1.582 1.75-2.538 3.082-1.682l8.301 5.337a2 2 0 0 1 0 3.364L5.082 28.02C3.75 28.875 2 27.92 2 26.337V15.663z" clip-rule="evenodd"/></svg>