<svg xmlns="http://www.w3.org/2000/svg" width="20" height="20" fill="none" viewBox="0 0 20 20"><path fill="#fff" fill-rule="evenodd" d="M9.612 17.49l3.333-5.772a3.405 3.405 0 0 0-.9-4.445h4.944A7.5 7.5 0 0 1 9.612 17.49zm-.744-.075A7.502 7.502 0 0 1 3.707 5.918l3.33 5.767a3.41 3.41 0 0 0 4.302 1.45zM4.145 5.313A7.486 7.486 0 0 1 10 2.5a7.5 7.5 0 0 1 6.682 4.09H10a3.412 3.412 0 0 0-3.385 3.002zM10 7.273A2.729 2.729 0 0 1 12.727 10 2.729 2.729 0 0 1 10 12.727 2.729 2.729 0 0 1 7.273 10 2.729 2.729 0 0 1 10 7.273z" clip-rule="evenodd"/></svg>