<svg width="20" height="20" viewBox="0 0 20 20" fill="none" xmlns="http://www.w3.org/2000/svg">
<rect x="2" y="6" width="2" height="12" rx="1" fill="black"/>
<rect x="9" y="6" width="2" height="12" rx="1" fill="black"/>
<rect x="3" y="11" width="8" height="2" fill="black"/>
<path d="M15.46 18.12C14.94 18.12 14.4933 18.04 14.12 17.88C13.7467 17.72 13.44 17.5 13.2 17.22L13.98 16.14C14.1733 16.32 14.38 16.4667 14.6 16.58C14.8267 16.6867 15.0533 16.74 15.28 16.74C15.56 16.74 15.7833 16.69 15.95 16.59C16.1167 16.49 16.2 16.34 16.2 16.14C16.2 16.02 16.18 15.9133 16.14 15.82C16.1 15.7267 16.0233 15.6467 15.91 15.58C15.7967 15.5133 15.6367 15.4633 15.43 15.43C15.2233 15.3967 14.9533 15.38 14.62 15.38V14.18C14.8867 14.18 15.1067 14.1633 15.28 14.13C15.46 14.0967 15.6033 14.05 15.71 13.99C15.8167 13.9233 15.89 13.8467 15.93 13.76C15.9767 13.6733 16 13.5733 16 13.46C16 13.0733 15.78 12.88 15.34 12.88C15.1267 12.88 14.9367 12.9233 14.77 13.01C14.6033 13.0967 14.42 13.2267 14.22 13.4L13.36 12.36C13.6733 12.1 13.9967 11.9 14.33 11.76C14.6633 11.6133 15.0267 11.54 15.42 11.54C16.12 11.54 16.6767 11.6967 17.09 12.01C17.51 12.3167 17.72 12.7567 17.72 13.33C17.72 13.9433 17.38 14.4 16.7 14.7V14.74C17.06 14.8533 17.3533 15.0367 17.58 15.29C17.8067 15.5367 17.92 15.86 17.92 16.26C17.92 16.56 17.8533 16.8267 17.72 17.06C17.5867 17.2867 17.4067 17.48 17.18 17.64C16.96 17.8 16.7 17.92 16.4 18C16.1 18.08 15.7867 18.12 15.46 18.12Z" fill="black"/>
</svg>
