<svg xmlns="http://www.w3.org/2000/svg" width="32" height="32" fill="none" viewBox="0 0 32 32"><path fill="#2F3237" fill-rule="evenodd" d="M22.894 1.43a1 1 0 0 0 .212 1.988l1.567-.167C18.809 9.741 10.079 13 3 13a1 1 0 1 0 0 2c7.618 0 16.958-3.49 23.239-10.498l.168 1.581a1 1 0 0 0 1.989-.212l-.402-3.765A1 1 0 0 0 26.991 1c-.04 0-.08.001-.12.006l-3.977.424ZM24 12h4v15h-4V12Zm-2 0a2 2 0 0 1 2-2h4a2 2 0 0 1 2 2v15a2 2 0 0 1-2 2h-4a2 2 0 0 1-2-2V12Zm-4 5h-4v10h4V17Zm-4-2a2 2 0 0 0-2 2v10a2 2 0 0 0 2 2h4a2 2 0 0 0 2-2V17a2 2 0 0 0-2-2h-4Zm-6 6H4v6h4v-6Zm-4-2a2 2 0 0 0-2 2v6a2 2 0 0 0 2 2h4a2 2 0 0 0 2-2v-6a2 2 0 0 0-2-2H4Z" clip-rule="evenodd"/></svg>