<svg width="20" height="20" viewBox="0 0 20 20" fill="none" xmlns="http://www.w3.org/2000/svg">
<path d="M3 10H2.5H3ZM3 8L3.35355 7.64645C3.15829 7.45118 2.84171 7.45118 2.64645 7.64645L3 8ZM4.64645 10.3536C4.84171 10.5488 5.15829 10.5488 5.35355 10.3536C5.54882 10.1583 5.54882 9.84171 5.35355 9.64645L4.64645 10.3536ZM0.646447 9.64645C0.451185 9.84171 0.451184 10.1583 0.646447 10.3536C0.841709 10.5488 1.15829 10.5488 1.35355 10.3536L0.646447 9.64645ZM15.3033 15.3033C15.4985 15.108 15.4985 14.7915 15.3033 14.5962C15.108 14.4009 14.7914 14.4009 14.5962 14.5962L15.3033 15.3033ZM17 12L16.6464 12.3536C16.8417 12.5488 17.1583 12.5488 17.3536 12.3536L17 12ZM15.3536 9.64645C15.1583 9.45118 14.8417 9.45118 14.6464 9.64645C14.4512 9.84171 14.4512 10.1583 14.6464 10.3536L15.3536 9.64645ZM19.3536 10.3536C19.5488 10.1583 19.5488 9.84171 19.3536 9.64645C19.1583 9.45118 18.8417 9.45118 18.6464 9.64645L19.3536 10.3536ZM4.69674 4.6967C4.50148 4.89196 4.50148 5.20854 4.69674 5.40381C4.892 5.59907 5.20858 5.59907 5.40385 5.40381L4.69674 4.6967ZM8 8C7.72386 8 7.5 8.22386 7.5 8.5C7.5 8.77614 7.72386 9 8 9V8ZM12 9C12.2761 9 12.5 8.77614 12.5 8.5C12.5 8.22386 12.2761 8 12 8V9ZM8 11C7.72386 11 7.5 11.2239 7.5 11.5C7.5 11.7761 7.72386 12 8 12V11ZM12 12C12.2761 12 12.5 11.7761 12.5 11.5C12.5 11.2239 12.2761 11 12 11V12ZM3.5 10L3.5 8H2.5L2.5 10H3.5ZM2.64645 8.35355L4.64645 10.3536L5.35355 9.64645L3.35355 7.64645L2.64645 8.35355ZM2.64645 7.64645L0.646447 9.64645L1.35355 10.3536L3.35355 8.35355L2.64645 7.64645ZM9.99996 16.5C6.41011 16.5 3.5 13.5899 3.5 10H2.5C2.5 14.1421 5.85782 17.5 9.99996 17.5V16.5ZM14.5962 14.5962C13.4193 15.773 11.795 16.5 9.99996 16.5V17.5C12.0709 17.5 13.9466 16.66 15.3033 15.3033L14.5962 14.5962ZM16.5 10V12H17.5V10H16.5ZM17.3536 11.6464L15.3536 9.64645L14.6464 10.3536L16.6464 12.3536L17.3536 11.6464ZM17.3536 12.3536L19.3536 10.3536L18.6464 9.64645L16.6464 11.6464L17.3536 12.3536ZM10 3.5C13.5899 3.5 16.5 6.41015 16.5 10H17.5C17.5 5.85787 14.1422 2.5 10 2.5V3.5ZM5.40385 5.40381C6.58066 4.22699 8.20498 3.5 10 3.5V2.5C7.92911 2.5 6.05343 3.34001 4.69674 4.6967L5.40385 5.40381ZM8 9H12V8H8V9ZM8 12H12V11H8V12Z" fill="#2F3237"/>
</svg>
