<svg fill="none" height="20" viewBox="0 0 21 20" width="21" xmlns="http://www.w3.org/2000/svg"><path d="m3.5 10h-1zm0-2 .70711-.70711c-.39053-.39052-1.02369-.39052-1.41422 0zm1.29289 2.7071c.39053.3905 1.02369.3905 1.41422 0 .39052-.3905.39052-1.02368 0-1.41421zm-3.999997-1.41421c-.390524.39053-.390524 1.02371 0 1.41421.390527.3905 1.023687.3905 1.414217 0zm15.363907 6.36401c.3905-.3906.3905-1.0237 0-1.4143-.3905-.3905-1.0237-.3905-1.4142 0zm1.3432-3.6569-.7071.7071c.3905.3905 1.0237.3905 1.4142 0zm-1.2929-2.70711c-.3905-.39052-1.0237-.39052-1.4142 0-.3905.39053-.3905 1.02371 0 1.41421zm4 1.41421c.3905-.3905.3905-1.02368 0-1.41421-.3905-.39052-1.0237-.39052-1.4142 0zm-15.36391-6.36395c-.39053.39052-.39053 1.02368 0 1.41421.39052.39052 1.02369.39052 1.41421 0zm3.65681 3.15685c-.55228 0-1 .44772-1 1s.44772 1 1 1zm4 2c.5523 0 1-.44772 1-1s-.4477-1-1-1zm-4 1c-.55228 0-1 .4477-1 1s.44772 1 1 1zm4 2c.5523 0 1-.4477 1-1s-.4477-1-1-1zm-8-2.5v-2h-2v2zm-1.70711-1.29289 2 1.99999 1.41422-1.41421-2-2zm0-1.41422-1.999997 2 1.414217 1.41421 2-1.99999zm7.70711 8.70711c-3.31374 0-6-2.6863-6-6h-2c0 4.4183 3.58168 8 8 8zm4.2426-1.7574c-1.0869 1.0869-2.5855 1.7574-4.2426 1.7574v2c2.2088 0 4.2102-.8965 5.6568-2.3431zm1.7574-4.2426v2h2v-2zm1.7071 1.2929-2-2.00001-1.4142 1.41421 2 2zm0 1.4142 2-2-1.4142-1.41421-2 2.00001zm-7.7071-8.7071c3.3137 0 6 2.68628 6 6h2c0-4.41827-3.5817-8-8-8zm-4.2426 1.75736c1.08688-1.08688 2.58551-1.75736 4.2426-1.75736v-2c-2.20882 0-4.21019.89653-5.65681 2.34315zm2.2426 3.74264h4v-2h-4zm0 3h4v-2h-4z" fill="#fff"/></svg>