<svg xmlns="http://www.w3.org/2000/svg" width="20" height="20" fill="none" viewBox="0 0 20 20"><path fill="#2f3237" fill-rule="evenodd" d="M6.354 7.146L9.5 4v10.293a.5.5 0 0 0 1 0V4l3.146 3.146a.5.5 0 0 0 .708-.707l-3.647-3.646a1 1 0 0 0-1.414 0L5.646 6.439a.5.5 0 1 0 .708.707zM4.5 9.5A1.5 1.5 0 0 0 3 11v6a1.5 1.5 0 0 0 1.5 1.5h11A1.5 1.5 0 0 0 17 17v-6a1.5 1.5 0 0 0-1.5-1.5h-1.667a.5.5 0 0 0 0 1H15.5a.5.5 0 0 1 .5.5v6a.5.5 0 0 1-.5.5h-11A.5.5 0 0 1 4 17v-6a.5.5 0 0 1 .5-.5h1.667a.5.5 0 0 0 0-1z" clip-rule="evenodd"/></svg>