<svg fill="none" height="16" viewBox="0 0 16 16" width="16" xmlns="http://www.w3.org/2000/svg"><path clip-rule="evenodd" d="m13.5999 8.00234c0-3.09279-2.5072-5.6-5.6-5.6-3.09279 0-5.6 2.50721-5.6 5.6 0 3.09276 2.50721 5.59996 5.6 5.59996 3.0928 0 5.6-2.5072 5.6-5.59996zm-10.4 0c0-2.65096 2.14904-4.8 4.8-4.8 2.651 0 4.8 2.14904 4.8 4.8s-2.149 4.79996-4.8 4.79996c-2.65096 0-4.8-2.149-4.8-4.79996zm4.00003-.79448c0-.00391.00317-.00708.00708-.00708h1.19292c.22091 0 .4.17909.4.4 0 .22092-.17909.4-.4.4v2.40002c.22091 0 .4.1791.4.4s-.17909.4-.4.4h-.8c-.22092 0-.4-.1791-.4-.4s.17908-.4.4-.4v-2.40002c-.22092 0-.4-.17908-.4-.4zm1.6-1.60708c0 .44183-.35817.8-.8.8s-.8-.35817-.8-.8.35817-.8.8-.8.8.35817.8.8z" fill="#2f3237" fill-rule="evenodd"/></svg>
