<svg width="400" height="400" viewBox="0 0 400 400" fill="none" xmlns="http://www.w3.org/2000/svg">
<path fill-rule="evenodd" clip-rule="evenodd" d="M261.5 44H262V48.9493C265.478 75.0403 283.991 119 336.5 119V172.5C323.126 172.5 279.917 165.728 262 148.49V255H261.98C261.993 255.665 262 256.332 262 257C262 311.676 217.676 356 163 356C108.324 356 64 311.676 64 257C64 202.324 108.324 158 163 158C167.406 158 171.746 158.288 176 158.846V213.906C171.884 212.666 167.52 212 163 212C138.147 212 118 232.147 118 257C118 281.853 138.147 302 163 302C187.853 302 208 281.853 208 257C208 256.33 207.985 255.663 207.956 255H208V168.795V44H261.5Z" fill="#2F3237"/>
</svg>
