<svg width="20" height="20" viewBox="0 0 20 20" fill="none" xmlns="http://www.w3.org/2000/svg">
<path fill-rule="evenodd" clip-rule="evenodd" d="M17 8C17 9.90731 16.2372 11.6364 15 12.899V14C15 16.7614 12.7614 19 10 19C7.23858 19 5 16.7614 5 14V12.899C3.76281 11.6364 3 9.9073 3 8C3 4.13401 6.13401 1 10 1C13.866 1 17 4.13401 17 8ZM14.4722 12C14.3237 12.166 14.166 12.3237 14 12.4722V12.5H10.5V10.9585C11.9189 10.7205 13 9.4865 13 8C13 7.72386 12.7761 7.5 12.5 7.5C12.2239 7.5 12 7.72386 12 8C12 9.10457 11.1046 10 10 10C8.89543 10 8 9.10457 8 8C8 7.72386 7.77614 7.5 7.5 7.5C7.22386 7.5 7 7.72386 7 8C7 9.4865 8.08114 10.7205 9.5 10.9585V12.5H6V12.4722C5.83401 12.3237 5.67635 12.166 5.52779 12C4.57771 10.9385 4 9.53671 4 8C4 4.68629 6.68629 2 10 2C13.3137 2 16 4.68629 16 8C16 9.53671 15.4223 10.9385 14.4722 12ZM6 13.5V14C6 14.3453 6.04375 14.6804 6.12602 15H13.874C13.9562 14.6804 14 14.3453 14 14V13.5H10H6ZM6.53513 16C7.22675 17.1956 8.51944 18 10 18C11.4806 18 12.7733 17.1956 13.4649 16H6.53513Z" fill="white"/>
</svg>
