<svg xmlns="http://www.w3.org/2000/svg" width="32" height="32" fill="none" viewBox="0 0 32 32"><path fill="#2F3237" d="M27 5a1 1 0 1 0 0-2v2zm0 5h1a1 1 0 0 0-1-1v1zM8.927 10V9a1 1 0 0 0-1 1h1zm0 18h-1a1 1 0 0 0 1 1v-1zM27 28v1a1 1 0 0 0 1-1h-1zm-9-18a1 1 0 1 0-2 0h2zm-1 9h-1a1 1 0 0 0 1.64.768L17 19zm3-2.5l.64-.768a1 1 0 0 0-1.28 0l.64.768zm3 2.5l-.64.768A1 1 0 0 0 24 19h-1zm1-9a1 1 0 1 0-2 0h2zm3-7H8v2h19V3zm0 6H8.927v2H27V9zM7.927 10v18h2V10h-2zm1 19H27v-2H8.927v2zM28 28V10h-2v18h2zM16 10v9h2v-9h-2zm1.64 9.768l3-2.5-1.28-1.536-3 2.5 1.28 1.536zm1.72-2.5l3 2.5 1.28-1.536-3-2.5-1.28 1.536zM24 19v-9h-2v9h2zM8 9a2 2 0 0 1-2-2H4a4 4 0 0 0 4 4V9zM6 7a2 2 0 0 1 2-2V3a4 4 0 0 0-4 4h2zm2 4h4V9H8v2zm0 16a2 2 0 0 1-2-2H4a4 4 0 0 0 4 4v-2zm0 2h4v-2H8v2zM4 7v18h2V7H4z"/></svg>