<svg xmlns="http://www.w3.org/2000/svg" width="20" height="20" fill="none" viewBox="0 0 20 20"><path fill="#fff" d="M7.5 11.5H7v.5h.5zm3 0h.5V11h-.5zM6 7.5a.5.5 0 0 0-1 0zm-1 1a.5.5 0 0 0 1 0zm9-1a.5.5 0 0 0-1 0zm-1 1a.5.5 0 0 0 1 0zm-7.146 4.646a.5.5 0 0 0-.708.708zm9 .708a.5.5 0 0 0-.708-.708zM5.5 2h9V1h-9zM18 5.5v9h1v-9zm-16 9v-9H1v9zM5.5 18A3.5 3.5 0 0 1 2 14.5H1A4.5 4.5 0 0 0 5.5 19zM18 14.5a3.5 3.5 0 0 1-3.5 3.5v1a4.5 4.5 0 0 0 4.5-4.5zM14.5 2A3.5 3.5 0 0 1 18 5.5h1A4.5 4.5 0 0 0 14.5 1zm-9-1A4.5 4.5 0 0 0 1 5.5h1A3.5 3.5 0 0 1 5.5 2zm6.11.188c-.484.604-.992 1.112-1.52 1.672-.522.553-1.048 1.143-1.512 1.872C7.64 6.206 7 8.18 7 11.5h1c0-3.18.61-4.956 1.422-6.232.411-.646.885-1.181 1.395-1.722.503-.533 1.057-1.088 1.573-1.734zM7.5 12h3v-1h-3zm2.5-.5v7h1v-7zm-5-4v1h1v-1zm8 0v1h1v-1zm-7.5 6l-.353.354.001.001.002.002a6.047 6.047 0 0 0 1.251.84c.812.406 2.013.803 3.599.803v-1c-1.414 0-2.463-.353-3.151-.697a5.042 5.042 0 0 1-.768-.469 3.193 3.193 0 0 1-.23-.19l.001.001.001.001-.353.354zm4.5 2c1.586 0 2.788-.397 3.599-.803a6.05 6.05 0 0 0 .92-.563 4.121 4.121 0 0 0 .305-.252l.02-.019.006-.006.002-.002.001-.001-.353-.354-.353-.354.001-.001a.506.506 0 0 1-.048.043 3.15 3.15 0 0 1-.181.146 5.04 5.04 0 0 1-.768.469c-.688.344-1.737.697-3.151.697zm4.5 2.5h-4v1h4zm-4 0h-5v1h5z"/></svg>