<svg xmlns="http://www.w3.org/2000/svg" width="32" height="32" fill="none" viewBox="0 0 32 32"><path fill="#1976F0" d="M15.195 2.687l.617.787-.617-.787zM3.782 7.818l.236.972-.236-.972zm-.78.984l-1 .006 1-.006zm12.913 21.19l.087-.995-.087.996zm.854-27.263l.653-.757-.653.757zm11.397 5.12l-.19.983.19-.982zm.831.998l-1-.006 1 .006zM16.085 29.993l-.087-.996.087.996zM17 18a1 1 0 1 0-2 0h2zm-2 2a1 1 0 1 0 2 0h-2zm-.42-18.1C13.164 3.005 9.61 5.374 3.545 6.845l.472 1.944c6.375-1.547 10.186-4.057 11.794-5.316L14.579 1.9zM2.001 8.807c.03 4.878.35 10.113 2.216 14.275.942 2.102 2.288 3.956 4.205 5.35 1.92 1.395 4.353 2.288 7.405 2.556l.174-1.992c-2.749-.241-4.822-1.032-6.403-2.181-1.581-1.15-2.727-2.702-3.556-4.551-1.676-3.74-2.011-8.593-2.04-13.47l-2 .013zm14.114-5.322c1.59 1.373 5.42 4.1 11.86 5.346l.38-1.964C22.321 5.7 18.8 3.161 17.422 1.972l-1.306 1.514zm11.881 5.355c-.03 4.869-.37 9.71-2.047 13.44-.83 1.846-1.976 3.393-3.557 4.54-1.58 1.146-3.65 1.935-6.395 2.175l.174 1.993c3.047-.267 5.478-1.158 7.396-2.55 1.916-1.39 3.263-3.24 4.206-5.337 1.867-4.153 2.192-9.377 2.223-14.249l-2-.012zm-.02-.01c.01.003.017.008.02.012l.001.001v-.002-.001l2 .012a2.016 2.016 0 0 0-1.642-1.985l-.38 1.964zM15.826 30.99c.114.01.232.01.345 0l-.174-1.992H16h.002l-.174 1.992zM3.548 6.846a2.012 2.012 0 0 0-1.545 1.962l2-.012a.018.018 0 0 1 0 .004c0 .001-.001 0 0 0a.028.028 0 0 1 .016-.01l-.472-1.944zm12.265-3.372a.234.234 0 0 1 .149-.04.252.252 0 0 1 .155.052l1.306-1.514c-.791-.683-2.008-.726-2.843-.073l1.233 1.575zM13 15h6v-2h-6v2zm8 2v4h2v-4h-2zm-2 6h-6v2h6v-2zm-8-2v-4H9v4h2zm2 2a2 2 0 0 1-2-2H9a4 4 0 0 0 4 4v-2zm8-2a2 2 0 0 1-2 2v2a4 4 0 0 0 4-4h-2zm-2-6a2 2 0 0 1 2 2h2a4 4 0 0 0-4-4v2zm-6-2a4 4 0 0 0-4 4h2a2 2 0 0 1 2-2v-2zm5-1v2h2v-2h-2zm-4 2v-2h-2v2h2zm2-4a2 2 0 0 1 2 2h2a4 4 0 0 0-4-4v2zm0-2a4 4 0 0 0-4 4h2a2 2 0 0 1 2-2V8zm-1 10v2h2v-2h-2z"/></svg>