<svg xmlns="http://www.w3.org/2000/svg" width="32" height="32" fill="none" viewBox="0 0 32 32"><path fill="#2F3237" fill-rule="evenodd" d="M13.39 3.573c1.15-2.027 4.07-2.027 5.22 0l2.59 4.566a1 1 0 0 0 .67.486l5.143 1.053c2.282.467 3.184 3.244 1.613 4.963l-3.543 3.876a1 1 0 0 0-.255.786l.588 5.217c.26 2.315-2.101 4.031-4.222 3.068l-4.78-2.172a1 1 0 0 0-.828 0l-4.78 2.172c-2.12.963-4.483-.753-4.222-3.068l.588-5.217a1 1 0 0 0-.255-.787l-3.543-3.875c-1.571-1.72-.67-4.496 1.613-4.963l5.144-1.053a1 1 0 0 0 .669-.486l2.59-4.566zm3.48.987a1 1 0 0 0-1.74 0l-2.59 4.566a3 3 0 0 1-2.008 1.459l-5.144 1.052a1 1 0 0 0-.537 1.655l3.542 3.875a3 3 0 0 1 .767 2.36l-.588 5.217a1 1 0 0 0 1.407 1.023l4.78-2.172a3 3 0 0 1 2.482 0l4.78 2.172a1 1 0 0 0 1.407-1.023l-.588-5.217a3 3 0 0 1 .767-2.36l3.542-3.875a1 1 0 0 0-.537-1.655l-5.144-1.052a3 3 0 0 1-2.007-1.459L16.87 4.56z" clip-rule="evenodd"/></svg>