<svg fill="none" height="20" viewBox="0 0 20 20" width="20" xmlns="http://www.w3.org/2000/svg"><path clip-rule="evenodd" d="m10 2.5c.2761 0 .5.22386.5.5v10.7929l3.1464-3.1465c.1953-.1952.5119-.1952.7072 0 .1952.1953.1952.5119 0 .7072l-4 4c-.0938.0937-.221.1464-.3536.1464-.13261 0-.25979-.0527-.35355-.1464l-4-4c-.19527-.1953-.19527-.5119 0-.7072.19526-.1952.51184-.1952.7071 0l3.14645 3.1465v-10.7929c0-.27614.22386-.5.5-.5zm-7.5 10.5c.27614 0 .5.2239.5.5v3c0 .2761.22386.5.5.5h13c.2761 0 .5-.2239.5-.5v-3c0-.2761.2239-.5.5-.5s.5.2239.5.5v3c0 .8284-.6716 1.5-1.5 1.5h-13c-.82843 0-1.5-.6716-1.5-1.5v-3c0-.2761.22386-.5.5-.5z" fill="#fff" fill-rule="evenodd"/></svg>