<svg width="20" height="20" viewBox="0 0 20 20" fill="none" xmlns="http://www.w3.org/2000/svg">
<mask id="path-1-inside-1_573_6701" fill="white">
<path fill-rule="evenodd" clip-rule="evenodd" d="M14.943 5.04349C14.5211 4.62279 14.0459 4.25559 13.5283 3.95294C13.5188 3.94824 13.5094 3.94321 13.5002 3.93784C13.4906 3.93232 13.4813 3.92654 13.4722 3.9205C12.9681 3.63193 12.4246 3.40427 11.8518 3.24755C11.8384 3.24511 11.8251 3.24211 11.8118 3.23854C11.7987 3.23503 11.7858 3.23102 11.7732 3.22655C11.2069 3.0787 10.6126 3 10 3C6.13401 3 3 6.13401 3 10C3 10.2761 2.77614 10.5 2.5 10.5C2.22386 10.5 2 10.2761 2 10C2 5.58172 5.58172 2 10 2C14.4183 2 18 5.58172 18 10C18 14.4183 14.4183 18 10 18C9.72386 18 9.5 17.7761 9.5 17.5C9.5 17.2239 9.72386 17 10 17C13.866 17 17 13.866 17 10C17 9.38785 16.9214 8.79405 16.7738 8.22814C16.7692 8.21516 16.765 8.20188 16.7614 8.18832C16.7577 8.17457 16.7546 8.16079 16.7521 8.14703C16.5955 7.57513 16.3682 7.03246 16.0802 6.529C16.0739 6.51962 16.0679 6.50996 16.0622 6.50003C16.0566 6.49036 16.0514 6.48058 16.0465 6.4707C15.7439 5.95349 15.3769 5.47857 14.9565 5.05698L14.9497 5.0503L14.943 5.04349ZM10.5 5.5C10.5 5.22386 10.2761 5 10 5C9.72386 5 9.5 5.22386 9.5 5.5V10C9.5 10.2761 9.72386 10.5 10 10.5H12.5C12.7761 10.5 13 10.2761 13 10C13 9.72386 12.7761 9.5 12.5 9.5H10.5V5.5ZM5.05016 14.9498C5.24542 15.1451 5.24542 15.4616 5.05016 15.6569C4.8549 15.8522 4.53832 15.8522 4.34306 15.6569C4.14779 15.4616 4.14779 15.1451 4.34306 14.9498C4.53832 14.7545 4.8549 14.7545 5.05016 14.9498ZM6.68316 16.7452C6.82124 16.5061 6.7393 16.2003 6.50015 16.0622C6.261 15.9241 5.95521 16.0061 5.81714 16.2452C5.67907 16.4844 5.76101 16.7902 6.00015 16.9282C6.2393 17.0663 6.54509 16.9844 6.68316 16.7452ZM8.18832 16.7615C8.45505 16.833 8.61334 17.1071 8.54187 17.3739C8.4704 17.6406 8.19623 17.7989 7.9295 17.7274C7.66276 17.656 7.50447 17.3818 7.57594 17.1151C7.64741 16.8483 7.92158 16.69 8.18832 16.7615ZM3.75479 14.183C3.99394 14.045 4.07587 13.7392 3.9378 13.5C3.79973 13.2609 3.49394 13.1789 3.25479 13.317C3.01564 13.4551 2.93371 13.7609 3.07178 14C3.20985 14.2392 3.51564 14.3211 3.75479 14.183ZM3.2384 11.8118C3.30987 12.0785 3.15158 12.3527 2.88485 12.4242C2.61812 12.4956 2.34395 12.3373 2.27248 12.0706C2.20101 11.8039 2.3593 11.5297 2.62603 11.4582C2.89276 11.3868 3.16693 11.5451 3.2384 11.8118Z"/>
</mask>
<path fill-rule="evenodd" clip-rule="evenodd" d="M14.943 5.04349C14.5211 4.62279 14.0459 4.25559 13.5283 3.95294C13.5188 3.94824 13.5094 3.94321 13.5002 3.93784C13.4906 3.93232 13.4813 3.92654 13.4722 3.9205C12.9681 3.63193 12.4246 3.40427 11.8518 3.24755C11.8384 3.24511 11.8251 3.24211 11.8118 3.23854C11.7987 3.23503 11.7858 3.23102 11.7732 3.22655C11.2069 3.0787 10.6126 3 10 3C6.13401 3 3 6.13401 3 10C3 10.2761 2.77614 10.5 2.5 10.5C2.22386 10.5 2 10.2761 2 10C2 5.58172 5.58172 2 10 2C14.4183 2 18 5.58172 18 10C18 14.4183 14.4183 18 10 18C9.72386 18 9.5 17.7761 9.5 17.5C9.5 17.2239 9.72386 17 10 17C13.866 17 17 13.866 17 10C17 9.38785 16.9214 8.79405 16.7738 8.22814C16.7692 8.21516 16.765 8.20188 16.7614 8.18832C16.7577 8.17457 16.7546 8.16079 16.7521 8.14703C16.5955 7.57513 16.3682 7.03246 16.0802 6.529C16.0739 6.51962 16.0679 6.50996 16.0622 6.50003C16.0566 6.49036 16.0514 6.48058 16.0465 6.4707C15.7439 5.95349 15.3769 5.47857 14.9565 5.05698L14.9497 5.0503L14.943 5.04349ZM10.5 5.5C10.5 5.22386 10.2761 5 10 5C9.72386 5 9.5 5.22386 9.5 5.5V10C9.5 10.2761 9.72386 10.5 10 10.5H12.5C12.7761 10.5 13 10.2761 13 10C13 9.72386 12.7761 9.5 12.5 9.5H10.5V5.5ZM5.05016 14.9498C5.24542 15.1451 5.24542 15.4616 5.05016 15.6569C4.8549 15.8522 4.53832 15.8522 4.34306 15.6569C4.14779 15.4616 4.14779 15.1451 4.34306 14.9498C4.53832 14.7545 4.8549 14.7545 5.05016 14.9498ZM6.68316 16.7452C6.82124 16.5061 6.7393 16.2003 6.50015 16.0622C6.261 15.9241 5.95521 16.0061 5.81714 16.2452C5.67907 16.4844 5.76101 16.7902 6.00015 16.9282C6.2393 17.0663 6.54509 16.9844 6.68316 16.7452ZM8.18832 16.7615C8.45505 16.833 8.61334 17.1071 8.54187 17.3739C8.4704 17.6406 8.19623 17.7989 7.9295 17.7274C7.66276 17.656 7.50447 17.3818 7.57594 17.1151C7.64741 16.8483 7.92158 16.69 8.18832 16.7615ZM3.75479 14.183C3.99394 14.045 4.07587 13.7392 3.9378 13.5C3.79973 13.2609 3.49394 13.1789 3.25479 13.317C3.01564 13.4551 2.93371 13.7609 3.07178 14C3.20985 14.2392 3.51564 14.3211 3.75479 14.183ZM3.2384 11.8118C3.30987 12.0785 3.15158 12.3527 2.88485 12.4242C2.61812 12.4956 2.34395 12.3373 2.27248 12.0706C2.20101 11.8039 2.3593 11.5297 2.62603 11.4582C2.89276 11.3868 3.16693 11.5451 3.2384 11.8118Z" fill="white"/>
<path d="M13.5283 3.95294L14.0331 3.08969L14.0035 3.0724L13.9728 3.05718L13.5283 3.95294ZM14.943 5.04349L15.6567 4.343L15.6491 4.33542L14.943 5.04349ZM13.5002 3.93784L13.0001 4.80386L13.0002 4.80387L13.5002 3.93784ZM13.4722 3.9205L14.0272 3.08863L13.9987 3.06962L13.969 3.05261L13.4722 3.9205ZM11.8518 3.24755L12.1157 2.283L12.0741 2.27162L12.0317 2.26387L11.8518 3.24755ZM11.8118 3.23854L11.553 4.20447L11.553 4.20447L11.8118 3.23854ZM11.7732 3.22655L12.1081 2.2843L12.0675 2.26986L12.0258 2.25898L11.7732 3.22655ZM16.7738 8.22814L17.7414 7.97574L17.7302 7.93265L17.7152 7.89074L16.7738 8.22814ZM16.7614 8.18832L17.7273 7.92952L17.7273 7.92949L16.7614 8.18832ZM16.7521 8.14703L17.7363 7.96969L17.7284 7.92588L17.7166 7.88295L16.7521 8.14703ZM16.0802 6.529L16.9482 6.03242L16.9305 6.00149L16.9107 5.97191L16.0802 6.529ZM16.0622 6.50003L16.9282 6.00003L16.9282 6.00002L16.0622 6.50003ZM16.0465 6.4707L16.9434 6.02845L16.9276 5.99652L16.9097 5.96579L16.0465 6.4707ZM14.9565 5.05698L15.6646 4.35079L15.6569 4.3433L14.9565 5.05698ZM14.9497 5.0503L14.236 5.75075L14.2425 5.75742L14.2492 5.76397L14.9497 5.0503ZM10.5 9.5H9.5V10.5H10.5V9.5ZM5.05016 15.6569L5.75727 16.364L5.75727 16.364L5.05016 15.6569ZM5.05016 14.9498L5.75727 14.2427L5.75727 14.2427L5.05016 14.9498ZM4.34306 15.6569L3.63595 16.364L3.63595 16.364L4.34306 15.6569ZM4.34306 14.9498L3.63595 14.2427L3.63595 14.2427L4.34306 14.9498ZM6.50015 16.0622L6.00015 16.9282L6.00015 16.9282L6.50015 16.0622ZM5.81714 16.2452L6.68316 16.7452H6.68316L5.81714 16.2452ZM6.00015 16.9282L5.50015 17.7942L5.50015 17.7942L6.00015 16.9282ZM8.54187 17.3739L9.50779 17.6327L9.50779 17.6327L8.54187 17.3739ZM8.18832 16.7615L8.44714 15.7956H8.44714L8.18832 16.7615ZM7.9295 17.7274L7.67068 18.6934L7.67068 18.6934L7.9295 17.7274ZM7.57594 17.1151L6.61002 16.8562L6.61002 16.8562L7.57594 17.1151ZM3.9378 13.5L4.80383 13H4.80383L3.9378 13.5ZM3.75479 14.183L3.25479 13.317L3.25479 13.317L3.75479 14.183ZM3.25479 13.317L3.75479 14.183H3.75479L3.25479 13.317ZM3.2384 11.8118L4.20433 11.553V11.553L3.2384 11.8118ZM2.27248 12.0706L3.2384 11.8118L2.27248 12.0706ZM2.62603 11.4582L2.36721 10.4923L2.36721 10.4923L2.62603 11.4582ZM13.0235 4.81619C13.4672 5.0756 13.8748 5.39052 14.2368 5.75156L15.6491 4.33542C15.1674 3.85505 14.6246 3.43559 14.0331 3.08969L13.0235 4.81619ZM13.0002 4.80387C13.0276 4.81974 13.0555 4.83469 13.0838 4.8487L13.9728 3.05718C13.9821 3.06179 13.9912 3.06667 14.0001 3.07181L13.0002 4.80387ZM12.9173 4.75237C12.9443 4.77037 12.9719 4.78755 13.0001 4.80386L14.0002 3.07182C14.0093 3.0771 14.0183 3.08271 14.0272 3.08863L12.9173 4.75237ZM11.5879 4.2121C12.0781 4.34623 12.5435 4.54112 12.9755 4.78839L13.969 3.05261C13.3927 2.72274 12.7711 2.46232 12.1157 2.283L11.5879 4.2121ZM11.553 4.20447C11.5924 4.21503 11.632 4.22394 11.6718 4.23123L12.0317 2.26387C12.0449 2.26628 12.0578 2.2692 12.0706 2.27262L11.553 4.20447ZM11.4383 4.16879C11.4759 4.18216 11.5141 4.19407 11.553 4.20447L12.0706 2.27262C12.0832 2.27599 12.0957 2.27988 12.1081 2.2843L11.4383 4.16879ZM10 4C10.5267 4 11.0361 4.06762 11.5206 4.19412L12.0258 2.25898C11.3777 2.08979 10.6986 2 10 2V4ZM4 10C4 6.68629 6.68629 4 10 4V2C5.58172 2 2 5.58172 2 10H4ZM2.5 11.5C3.32843 11.5 4 10.8284 4 10H2C2 9.72386 2.22386 9.5 2.5 9.5V11.5ZM1 10C1 10.8284 1.67157 11.5 2.5 11.5V9.5C2.77614 9.5 3 9.72386 3 10H1ZM10 1C5.02944 1 1 5.02944 1 10H3C3 6.13401 6.13401 3 10 3V1ZM19 10C19 5.02944 14.9706 1 10 1V3C13.866 3 17 6.13401 17 10H19ZM10 19C14.9706 19 19 14.9706 19 10H17C17 13.866 13.866 17 10 17V19ZM8.5 17.5C8.5 18.3284 9.17157 19 10 19V17C10.2761 17 10.5 17.2239 10.5 17.5H8.5ZM10 16C9.17157 16 8.5 16.6716 8.5 17.5H10.5C10.5 17.7761 10.2761 18 10 18V16ZM16 10C16 13.3137 13.3137 16 10 16V18C14.4183 18 18 14.4183 18 10H16ZM15.8062 8.48055C15.9325 8.96475 16 9.47375 16 10H18C18 9.30195 17.9104 8.62335 17.7414 7.97574L15.8062 8.48055ZM15.7954 8.44712C15.8062 8.48726 15.8185 8.52676 15.8324 8.56554L17.7152 7.89074C17.7198 7.90356 17.7238 7.9165 17.7273 7.92952L15.7954 8.44712ZM15.768 8.32437C15.7754 8.3655 15.7845 8.40646 15.7954 8.44716L17.7273 7.92949C17.7308 7.94268 17.7338 7.95609 17.7363 7.96969L15.768 8.32437ZM15.2122 7.02558C15.459 7.45699 15.6536 7.92165 15.7876 8.41111L17.7166 7.88295C17.5375 7.22861 17.2775 6.60794 16.9482 6.03242L15.2122 7.02558ZM15.1961 7.00002C15.2131 7.02937 15.231 7.05807 15.2498 7.08609L16.9107 5.97191C16.9169 5.98116 16.9227 5.99055 16.9282 6.00003L15.1961 7.00002ZM15.1496 6.91296C15.1641 6.94236 15.1796 6.97141 15.1961 7.00003L16.9282 6.00002C16.9335 6.00931 16.9386 6.01879 16.9434 6.02845L15.1496 6.91296ZM14.2484 5.76313C14.6092 6.12493 14.924 6.53231 15.1833 6.97562L16.9097 5.96579C16.5639 5.37467 16.1446 4.83221 15.6645 4.35083L14.2484 5.76313ZM14.2492 5.76397L14.256 5.77065L15.6569 4.3433L15.6501 4.33662L14.2492 5.76397ZM14.2293 5.74394L14.236 5.75075L15.6634 4.34985L15.6567 4.34304L14.2293 5.74394ZM10 6C9.72386 6 9.5 5.77614 9.5 5.5H11.5C11.5 4.67157 10.8284 4 10 4V6ZM10.5 5.5C10.5 5.77614 10.2761 6 10 6V4C9.17157 4 8.5 4.67157 8.5 5.5H10.5ZM10.5 10V5.5H8.5V10H10.5ZM10 9.5C10.2761 9.5 10.5 9.72386 10.5 10H8.5C8.5 10.8284 9.17157 11.5 10 11.5V9.5ZM12.5 9.5H10V11.5H12.5V9.5ZM12 10C12 9.72386 12.2239 9.5 12.5 9.5V11.5C13.3284 11.5 14 10.8284 14 10H12ZM12.5 10.5C12.2239 10.5 12 10.2761 12 10H14C14 9.17157 13.3284 8.5 12.5 8.5V10.5ZM10.5 10.5H12.5V8.5H10.5V10.5ZM9.5 5.5V9.5H11.5V5.5H9.5ZM5.75727 16.364C6.34305 15.7782 6.34305 14.8285 5.75727 14.2427L4.34305 15.6569C4.14779 15.4616 4.14779 15.1451 4.34305 14.9498L5.75727 16.364ZM3.63595 16.364C4.22174 16.9498 5.17148 16.9498 5.75727 16.364L4.34306 14.9498C4.53832 14.7545 4.8549 14.7545 5.05016 14.9498L3.63595 16.364ZM3.63595 14.2427C3.05016 14.8285 3.05016 15.7782 3.63595 16.364L5.05016 14.9498C5.24542 15.1451 5.24542 15.4616 5.05016 15.6569L3.63595 14.2427ZM5.75727 14.2427C5.17148 13.6569 4.22174 13.6569 3.63595 14.2427L5.05016 15.6569C4.8549 15.8522 4.53832 15.8522 4.34306 15.6569L5.75727 14.2427ZM6.00015 16.9282C5.761 16.7902 5.67907 16.4844 5.81714 16.2452L7.54919 17.2452C7.9634 16.5278 7.71759 15.6104 7.00015 15.1962L6.00015 16.9282ZM6.68316 16.7452C6.54509 16.9844 6.2393 17.0663 6.00015 16.9282L7.00015 15.1962C6.28271 14.782 5.36533 15.0278 4.95111 15.7452L6.68316 16.7452ZM6.50015 16.0622C6.7393 16.2003 6.82124 16.5061 6.68316 16.7452L4.95111 15.7452C4.5369 16.4626 4.78271 17.38 5.50015 17.7942L6.50015 16.0622ZM5.81714 16.2452C5.95521 16.0061 6.261 15.9241 6.50015 16.0622L5.50015 17.7942C6.21759 18.2085 7.13498 17.9626 7.54919 17.2452L5.81714 16.2452ZM9.50779 17.6327C9.72221 16.8325 9.24733 16.01 8.44714 15.7956L7.92949 17.7274C7.66276 17.656 7.50447 17.3818 7.57594 17.1151L9.50779 17.6327ZM7.67068 18.6934C8.47088 18.9078 9.29338 18.4329 9.50779 17.6327L7.57594 17.1151C7.64741 16.8483 7.92158 16.69 8.18831 16.7615L7.67068 18.6934ZM6.61002 16.8562C6.3956 17.6564 6.87048 18.4789 7.67068 18.6934L8.18832 16.7615C8.45505 16.833 8.61334 17.1071 8.54187 17.3739L6.61002 16.8562ZM8.44714 15.7956C7.64693 15.5812 6.82443 16.056 6.61002 16.8562L8.54187 17.3739C8.4704 17.6406 8.19623 17.7989 7.9295 17.7274L8.44714 15.7956ZM3.07178 14C2.93371 13.7609 3.01564 13.4551 3.25479 13.317L4.25479 15.0491C4.97223 14.6349 5.21804 13.7175 4.80383 13L3.07178 14ZM3.75479 14.183C3.51564 14.3211 3.20985 14.2392 3.07178 14L4.80383 13C4.38961 12.2826 3.47223 12.0368 2.75479 12.451L3.75479 14.183ZM3.9378 13.5C4.07587 13.7392 3.99394 14.045 3.75479 14.183L2.75479 12.451C2.03735 12.8652 1.79154 13.7826 2.20575 14.5L3.9378 13.5ZM3.25479 13.317C3.49394 13.1789 3.79973 13.2609 3.9378 13.5L2.20575 14.5C2.61997 15.2175 3.53735 15.4633 4.25479 15.0491L3.25479 13.317ZM3.14367 13.3901C3.94387 13.1757 4.41874 12.3532 4.20433 11.553L2.27248 12.0706C2.201 11.8039 2.3593 11.5297 2.62603 11.4582L3.14367 13.3901ZM1.30655 12.3294C1.52096 13.1296 2.34347 13.6045 3.14367 13.3901L2.62603 11.4582C2.89276 11.3868 3.16693 11.5451 3.2384 11.8118L1.30655 12.3294ZM2.36721 10.4923C1.56701 10.7067 1.09214 11.5292 1.30655 12.3294L3.2384 11.8118C3.30987 12.0785 3.15158 12.3527 2.88485 12.4242L2.36721 10.4923ZM4.20433 11.553C3.98991 10.7528 3.16741 10.2779 2.36721 10.4923L2.88485 12.4242C2.61812 12.4956 2.34395 12.3373 2.27248 12.0706L4.20433 11.553Z" fill="white" mask="url(#path-1-inside-1_573_6701)"/>
</svg>
