<svg xmlns="http://www.w3.org/2000/svg" width="32" height="32" fill="none" viewBox="0 0 32 32"><path stroke="#2F3237" stroke-width="2" d="M7.572 10.712a.5.5 0 01.856 0l1.109 1.841a.5.5 0 00.315.23l2.094.485a.5.5 0 01.265.814l-1.41 1.623a.5.5 0 00-.12.371l.186 2.141a.5.5 0 01-.693.504l-1.979-.838a.5.5 0 00-.39 0l-1.979.838a.5.5 0 01-.693-.504l.186-2.14a.5.5 0 00-.12-.372l-1.41-1.623a.5.5 0 01.265-.815l2.094-.484a.5.5 0 00.315-.23l1.109-1.841zM21.572 15.712a.5.5 0 01.856 0l2.096 3.482a.5.5 0 00.316.23l3.959.916a.5.5 0 01.265.815l-2.664 3.07a.5.5 0 00-.121.37l.351 4.05a.5.5 0 01-.693.503l-3.742-1.585a.5.5 0 00-.39 0l-3.742 1.585a.5.5 0 01-.693-.504l.351-4.049a.5.5 0 00-.12-.37l-2.665-3.07a.5.5 0 01.265-.815l3.96-.917a.5.5 0 00.315-.229l2.096-3.482zM20.572 2.712a.5.5 0 01.856 0l1.109 1.841a.5.5 0 00.315.23l2.094.484a.5.5 0 01.265.815L23.8 7.705a.5.5 0 00-.12.371l.186 2.141a.5.5 0 01-.693.504l-1.979-.838a.5.5 0 00-.39 0l-1.979.838a.5.5 0 01-.693-.504l.186-2.14a.5.5 0 00-.12-.372l-1.41-1.623a.5.5 0 01.265-.815l2.094-.484a.5.5 0 00.315-.23l1.109-1.841z"/></svg>