<svg width="20" height="20" viewBox="0 0 20 20" fill="none" xmlns="http://www.w3.org/2000/svg">
<path d="M10 4C9.44772 4 9 4.44772 9 5C9 5.55228 9.44772 6 10 6C12.0612 6 13.7582 7.55897 13.9763 9.56209L13.7071 9.29289C13.3166 8.90237 12.6834 8.90237 12.2929 9.29289C11.9024 9.68342 11.9024 10.3166 12.2929 10.7071L14.2929 12.7071C14.6834 13.0976 15.3166 13.0976 15.7071 12.7071L17.7071 10.7071C18.0976 10.3166 18.0976 9.68342 17.7071 9.29289C17.3166 8.90237 16.6834 8.90237 16.2929 9.29289L15.9868 9.59898C15.7805 6.47225 13.179 4 10 4Z" fill="#1976F0"/>
<path d="M6.29289 10.7071C6.68342 11.0976 7.31658 11.0976 7.70711 10.7071C8.09763 10.3166 8.09763 9.68342 7.70711 9.29289L5.70711 7.29289C5.51957 7.10536 5.26522 7 5 7C4.73478 7 4.48043 7.10536 4.29289 7.29289L2.29289 9.29289C1.90237 9.68342 1.90237 10.3166 2.29289 10.7071C2.68342 11.0976 3.31658 11.0976 3.70711 10.7071L4.01319 10.401C4.21952 13.5278 6.82105 16 10 16C10.5523 16 11 15.5523 11 15C11 14.4477 10.5523 14 10 14C7.93885 14 6.24181 12.441 6.0237 10.4379L6.29289 10.7071Z" fill="#1976F0"/>
</svg>
