<svg fill="none" height="20" viewBox="0 0 21 20" width="21" xmlns="http://www.w3.org/2000/svg"><path d="m4.5 6.5v-2c0-1.38071 2.68629-2.5 6-2.5 3.3137 0 6 1.11929 6 2.5v2c0 1.38071-2.6863 2.5-6 2.5-3.31371 0-6-1.11929-6-2.5z" fill="#1d1e20"/><g clip-rule="evenodd" fill-rule="evenodd"><path d="m4.5 8.5v2c0 1.3807 2.68629 2.5 6 2.5 3.3137 0 6-1.1193 6-2.5v-2c0 1.38071-2.6863 2.5-6 2.5-3.31371 0-6-1.11929-6-2.5z" fill="#e21616"/><path d="m4.5 12.5v2c0 1.3807 2.68629 2.5 6 2.5 3.3137 0 6-1.1193 6-2.5v-2c0 1.3807-2.6863 2.5-6 2.5-3.31371 0-6-1.1193-6-2.5z" fill="#f3b513"/></g></svg>