<svg width="20" height="20" viewBox="0 0 20 20" fill="none" xmlns="http://www.w3.org/2000/svg">
<path fill-rule="evenodd" clip-rule="evenodd" d="M17 10C17 6.13401 13.866 3 10 3C6.13401 3 3 6.13401 3 10C3 13.866 6.13401 17 10 17C13.866 17 17 13.866 17 10ZM13.7809 8.62469C14.1259 8.19343 14.056 7.56414 13.6247 7.21913C13.1934 6.87412 12.5641 6.94404 12.2191 7.37531L8.91708 11.5029L7.70711 10.2929C7.31658 9.90237 6.68342 9.90237 6.29289 10.2929C5.90237 10.6834 5.90237 11.3166 6.29289 11.7071L8.29289 13.7071C8.49403 13.9082 8.77129 14.0142 9.0553 13.9985C9.33931 13.9827 9.60318 13.8468 9.78087 13.6247L13.7809 8.62469Z" fill="#1976F0"/>
</svg>
