<svg fill="none" height="20" viewBox="0 0 20 20" width="20" xmlns="http://www.w3.org/2000/svg"><path d="m17 10c0-.55228-.4477-1-1-1s-1 .44772-1 1zm-14 0c0 .5523.44772 1 1 1s1-.4477 1-1zm10 2c-.4771 0-.8412-.1979-1.1734-.5869-.3571-.4182-.6434-1.0258-.8779-1.72933l-1.89738.63243c.26548.7965.65078 1.6889 1.25448 2.3957.6285.736 1.5144 1.2881 2.6942 1.2881zm2-2c0 1.1046-.8954 2-2 2v2c2.2091 0 4-1.7909 4-4zm-8-2c.47709 0 .84118.19793 1.1734.58693.35712.41816.6434 1.02575.87792 1.72927l1.89738-.63243c-.2655-.79645-.6508-1.68886-1.25446-2.3957-.62857-.736-1.51448-1.28807-2.69424-1.28807zm-2 2c0-1.10457.89543-2 2-2v-2c-2.20914 0-4 1.79086-4 4z" fill="#1976f0"/></svg>