<svg xmlns="http://www.w3.org/2000/svg" width="32" height="32" fill="none" viewBox="0 0 32 32"><path fill="#18181a" fill-rule="evenodd" d="M23 2.5a1 1 0 1 1 0 2c-.776 0-1.787.299-2.591 1.003-.711.621-1.304 1.596-1.396 3.084a8.029 8.029 0 0 1 4.276 4.11c.751-.343 1.637-.563 2.582-.508 1.367.08 2.747.732 3.91 2.186a1 1 0 0 1-1.562 1.25c-.837-1.046-1.707-1.395-2.465-1.44-.66-.038-1.315.15-1.87.45.076.443.116.9.116 1.365v1.042c2.078.176 4.903 1.004 5.949 4.142a1 1 0 0 1-1.898.632c-.644-1.931-2.364-2.6-4.051-2.768V20c0 .714-.094 1.406-.269 2.064C26.137 22.491 28 25.014 28 28.5a1 1 0 1 1-2 0c0-3.167-1.749-4.5-3-4.5-.023 0-.046 0-.069-.002A8.003 8.003 0 0 1 17 27.938V28h-2v-.062a8.003 8.003 0 0 1-5.931-3.94A1.048 1.048 0 0 1 9 24c-1.251 0-3 1.333-3 4.5a1 1 0 1 1-2 0c0-3.486 1.863-6.009 4.269-6.436A8.011 8.011 0 0 1 8 20v-.952c-1.687.169-3.407.837-4.051 2.768a1 1 0 0 1-1.898-.632C3.097 18.046 5.922 17.218 8 17.04V16c0-.466.04-.922.116-1.366-.555-.299-1.21-.487-1.87-.448-.758.044-1.628.393-2.465 1.439a1 1 0 0 1-1.562-1.25c1.163-1.454 2.543-2.105 3.91-2.186.945-.055 1.831.165 2.582.509a8.029 8.029 0 0 1 4.281-4.113c-.077-2.006-.712-2.938-1.342-3.41C10.92 4.628 9.95 4.5 9 4.5a1 1 0 0 1 0-2c1.05 0 2.58.122 3.85 1.075 1.169.876 1.945 2.316 2.115 4.491a8.077 8.077 0 0 1 2.086.002c.202-1.802.989-3.15 2.04-4.07C20.288 2.95 21.776 2.5 23 2.5zM22 18v2a6.002 6.002 0 0 1-5 5.917v-8.982c2.155-.285 3.773-1.443 4.824-2.382.115.464.176.948.176 1.447v1.993zm-12-.007V16c0-.499.06-.983.176-1.447 1.051.94 2.669 2.097 4.824 2.382v8.982A6.002 6.002 0 0 1 10 20v-2zm10.96-5.37C19.916 13.634 18.285 15 16 15s-3.916-1.364-4.96-2.378C12.12 11.04 13.94 10 16 10s3.88 1.04 4.96 2.622z" clip-rule="evenodd"/></svg>