<svg fill="none" height="20" viewBox="0 0 20 20" width="20" xmlns="http://www.w3.org/2000/svg"><path clip-rule="evenodd" d="m16 6c1.1046 0 2 .89543 2 2v8c0 1.1046-.8954 2-2 2h-12c-1.10457 0-2-.8954-2-2v-8c0-1.10457.89543-2 2-2h.76389c-.47504-.53076-.76389-1.23165-.76389-2 0-1.65685 1.34315-3 3-3s3 1.34315 3 3c0-1.65685 1.3431-3 3-3s3 1.34315 3 3c0 .76835-.2889 1.46924-.7639 2zm-11-2c0 1.10457.89543 2 2 2h1.61897l-1.93906-1.61589c-.21214-.17678-.2408-.49206-.06402-.7042s.49206-.2408.7042-.06402l1.67991 1.39992v-1.01581c0-1.10457-.89543-2-2-2s-2 .89543-2 2zm-1 3h3v2h-4v-1c0-.55228.44772-1 1-1zm3 10v-7h-4v6c0 .5523.44772 1 1 1zm1-7v7h4v-7zm5 0v7h3c.5523 0 1-.4477 1-1v-6zm3-3h-3v2h4v-1c0-.55228-.4477-1-1-1zm-1-3c0 1.10457-.8954 2-2 2h-1.619l1.9391-1.61589c.2121-.17678.2408-.49206.064-.7042s-.4921-.2408-.7042-.06402l-1.6799 1.39992v-1.01581c0-1.10457.8954-2 2-2s2 .89543 2 2zm-7 3v2h4v-2z" fill="#2f3237" fill-rule="evenodd"/></svg>