<svg xmlns="http://www.w3.org/2000/svg" width="40" height="40" fill="none" viewBox="0 0 40 40"><path fill="#5E636E" d="M3 11a1 1 0 1 0 0 2v-2zm34 2a1 1 0 1 0 0-2v2zM5 8h30V6H5v2zm31 1v22h2V9h-2zm-1 23H5v2h30v-2zM4 31V9H2v22h2zm1 1a1 1 0 0 1-1-1H2a3 3 0 0 0 3 3v-2zm31-1a1 1 0 0 1-1 1v2a3 3 0 0 0 3-3h-2zM35 8a1 1 0 0 1 1 1h2a3 3 0 0 0-3-3v2zM5 6a3 3 0 0 0-3 3h2a1 1 0 0 1 1-1V6zm-2 7h34v-2H3v2z"/><path fill="#DEE3ED" d="M11 17a1 1 0 1 0 0 2v-2zm18 2a1 1 0 1 0 0-2v2zm-18 2a1 1 0 1 0 0 2v-2zm18 2a1 1 0 1 0 0-2v2zm-18 2a1 1 0 1 0 0 2v-2zm18 2a1 1 0 1 0 0-2v2zm-18-8h18v-2H11v2zm0 4h18v-2H11v2zm0 4h18v-2H11v2z"/><circle cx="29" cy="29" r="11" fill="#fff"/><path fill="#45A1FC" d="M20 29a9 9 0 1 1 18 0 9 9 0 0 1-18 0z"/><path stroke="#fff" stroke-linecap="round" stroke-linejoin="round" stroke-width="2" d="M33 30l-4 4-4-4m4-6v10"/></svg>