<svg xmlns="http://www.w3.org/2000/svg" width="20" height="20" fill="none" viewBox="0 0 20 20"><clipPath id="a"><path d="M2 2h16v16H2z"/></clipPath><g fill="#fff" clip-path="url(#a)"><path d="M11.472 11.354c.019-.02.036-.035.047-.05.317-.411.488-.909.488-1.245l-.001-.076a289.78 289.78 0 0 0-.004-.093 1.993 1.993 0 0 0-.394-1.073 2.022 2.022 0 0 0-1.605-.812c-.427-.008-.75.146-.949.24l-.023.01a1.968 1.968 0 0 0-1.027 1.707c0 2.61 2.577 4.645 5.534 4.645a6.366 6.366 0 0 0 2.244-.404c.225-.084.445-.183.659-.294a.25.25 0 0 1 .332.352 8.02 8.02 0 0 1-4.162 3.3l-.082.028a6.123 6.123 0 0 1-.547.14c.187-.034.372-.08.554-.138a8 8 0 0 1-10.53-7.694c0-.171.012-.344.037-.517a3.466 3.466 0 0 0-.044.496 8 8 0 0 1 8-7.876c3.109 0 5.967 1.49 7.292 4.08.01.022.022.045.035.069.226.442.689 1.348.673 2.676a3.836 3.836 0 0 1-1.901 3.305c-.573.34-1.226.52-1.892.522h-.002c-.058.002-1.712.072-2.596-.543-.189-.132-.295-.288-.295-.452 0-.152.093-.24.159-.304z"/><g fill-rule="evenodd" clip-rule="evenodd"><path d="M9.254 17.966a8 8 0 0 1-7.248-8.07c0-2.283 2.256-4.887 5-4.887 4.41 0 5.144 2.265 5.155 3.738.005.657-.133 1.157-.153 1.228a1.992 1.992 0 0 0-.4-1.158 2.022 2.022 0 0 0-1.605-.812c-.427-.008-.75.146-.949.24a5.045 5.045 0 0 0-1.869 7.51c.381.534.864.988 1.422 1.334l.006.002a4.717 4.717 0 0 0 3.923.5 7.999 7.999 0 0 1-3.282.375zM6.78 16.047a5.545 5.545 0 0 1 2.03-8.24l.004-.002.004-.002.029-.014c.203-.096.618-.293 1.162-.284a2.522 2.522 0 0 1 1.588.58 3.053 3.053 0 0 0-.115-.429c-.182-.521-.533-1.043-1.198-1.443-.674-.405-1.706-.704-3.278-.704-1.211 0-2.338.576-3.17 1.435-.837.864-1.33 1.967-1.33 2.953V9.9a7.634 7.634 0 0 0 .71 3.285 7.5 7.5 0 0 0 4.669 4.01 5.45 5.45 0 0 1-1.105-1.148z"/><path d="M11.915 11.609a.758.758 0 0 1-.055.064c.01.008.02.017.034.026.341.237.883.363 1.402.419.455.049.813.037.894.034h.015a3.222 3.222 0 0 0 1.637-.452h.002l.001-.002A3.336 3.336 0 0 0 17.5 8.824v-.005c.014-1.203-.401-2.017-.62-2.446l-.034-.066C15.622 3.916 12.958 2.5 9.999 2.5A7.5 7.5 0 0 0 3.42 6.395C4.403 5.68 5.668 5.259 7 5.259c.24 0 1.588.021 2.857.687 1.118.587 1.718 1.308 2.129 2.018.451.78.522 1.726.522 2.095 0 .469-.223 1.07-.591 1.55zM2.912 7.542c-.561.662-.899 1.466-.913 2.334a7.998 7.998 0 0 1 8-7.876c3.108 0 5.967 1.49 7.292 4.08.01.022.022.045.035.069.226.442.689 1.348.673 2.676a3.836 3.836 0 0 1-1.901 3.305c-.573.34-1.226.52-1.892.522h-.002c-.058.002-1.712.072-2.596-.543-.189-.132-.295-.288-.295-.452 0-.152.093-.24.159-.304a.495.495 0 0 0 .047-.05c.317-.41.488-.908.488-1.244 0-.335-.069-1.178-.455-1.845-.372-.641-.907-1.289-1.928-1.825-1.159-.608-2.406-.63-2.625-.63-1.67 0-3.174.705-4.087 1.783zM2 9.876v0z"/></g></g></svg>