<svg width="20" height="20" viewBox="0 0 20 20" fill="none" xmlns="http://www.w3.org/2000/svg">
<path d="M13 9C14.6569 9 16 7.65685 16 6C16 4.34315 14.6569 3 13 3C11.9334 3 10.9968 3.5566 10.4649 4.39519C10.2236 4.16326 9.95917 3.95531 9.67531 3.77519C10.3931 2.70465 11.6143 2 13 2C15.2091 2 17 3.79086 17 6C17 7.42739 16.2523 8.68015 15.1273 9.38804C17.3909 10.2466 19 12.4354 19 15V18H18V15C18 12.2386 15.7614 10 13 10C12.4673 10 11.9541 10.0833 11.4726 10.2376C11.695 9.79391 11.8533 9.31255 11.9354 8.80563C12.2663 8.93123 12.6251 9 13 9Z" fill="#FFF"/>
<path fill-rule="evenodd" clip-rule="evenodd" d="M4.87271 11.388C2.60905 12.2466 1 14.4354 1 17V18H2V17C2 14.2386 4.23858 12 7 12C9.76142 12 12 14.2386 12 17V18H13V17C13 14.4354 11.3909 12.2466 9.12729 11.388C10.2523 10.6802 11 9.42739 11 8C11 5.79086 9.20914 4 7 4C4.79086 4 3 5.79086 3 8C3 9.42739 3.74765 10.6802 4.87271 11.388ZM10 8C10 9.65685 8.65685 11 7 11C5.34315 11 4 9.65685 4 8C4 6.34315 5.34315 5 7 5C8.65685 5 10 6.34315 10 8Z" fill="#FFF"/>
</svg>
