<svg xmlns="http://www.w3.org/2000/svg" width="120" height="28" fill="none" viewBox="0 0 120 28"><path fill="#fff" fill-rule="evenodd" d="M14.54 2a5.493 5.493 0 0 1-1.23 3.901c-.429.54-.973.975-1.59 1.271a4.473 4.473 0 0 1-1.98.44A5.227 5.227 0 0 1 11 3.855 5.446 5.446 0 0 1 14.54 2Zm2.495 10.283a5.586 5.586 0 0 0-.71 2.659c0 1.048.305 2.073.88 2.95a5.292 5.292 0 0 0 2.34 1.966c-.376 1.235-.94 2.4-1.676 3.456-.986 1.495-2.02 2.956-3.663 2.983-.78.019-1.308-.209-1.857-.446-.573-.247-1.17-.505-2.104-.505-.99 0-1.615.266-2.216.523-.52.221-1.024.436-1.733.466-1.564.058-2.759-1.596-3.78-3.077C.47 20.233-1.12 14.733 1.012 10.99a5.906 5.906 0 0 1 2.07-2.183 5.809 5.809 0 0 1 2.864-.866c.887-.018 1.738.328 2.484.632.571.232 1.08.44 1.497.44.367 0 .862-.2 1.44-.432.907-.365 2.02-.812 3.153-.692.868.028 1.718.26 2.482.679a5.613 5.613 0 0 1 1.92 1.733 5.501 5.501 0 0 0-1.888 1.981v.001Zm54.567 10.783c-1.804 0-3.124-.904-3.275-2.28h-2.099c.132 2.51 2.184 4.098 5.222 4.098 3.247 0 5.288-1.626 5.288-4.222 0-2.03-1.168-3.174-3.978-3.847l-1.51-.376c-1.765-.442-2.487-1.02-2.487-2 0-1.231 1.13-2.077 2.781-2.077 1.652 0 2.782.836 2.906 2.22h2.07c-.067-2.394-2.052-4.038-4.946-4.038-2.925 0-4.985 1.644-4.985 4.039 0 1.934 1.168 3.126 3.683 3.741l1.776.433c1.775.442 2.525 1.087 2.525 2.165 0 1.24-1.243 2.144-2.97 2.144Zm-35.715-2.164h-5.222l-1.254 3.75H27.2l4.946-13.877h2.298l4.946 13.878h-2.25l-1.252-3.751Zm-4.68-1.731h4.138l-2.04-6.088h-.058l-2.04 6.088ZM45.9 24.759c2.507 0 4.168-2.02 4.168-5.165 0-3.135-1.67-5.165-4.205-5.165a3.506 3.506 0 0 0-1.834.45 3.565 3.565 0 0 0-1.347 1.339h-.037v-1.683H40.66V28h2.05v-5.012h.048a3.41 3.41 0 0 0 1.32 1.343 3.35 3.35 0 0 0 1.822.428Zm-.578-8.56c1.594 0 2.64 1.347 2.64 3.395 0 2.067-1.046 3.404-2.64 3.404-1.567 0-2.62-1.365-2.62-3.404 0-2.02 1.053-3.395 2.62-3.395Zm15.74 3.395c0 3.144-1.662 5.165-4.169 5.165a3.35 3.35 0 0 1-1.822-.428 3.41 3.41 0 0 1-1.32-1.343h-.048V28h-2.05V14.535h1.984v1.683h.038c.32-.56.785-1.023 1.346-1.34a3.506 3.506 0 0 1 1.834-.45c2.535 0 4.206 2.03 4.206 5.166Zm-2.108 0c0-2.048-1.045-3.395-2.64-3.395-1.566 0-2.62 1.375-2.62 3.395 0 2.039 1.054 3.404 2.62 3.404 1.595 0 2.64-1.337 2.64-3.404Zm22.21-7.454v2.395h1.898v1.644h-1.899v5.578c0 .867.38 1.27 1.215 1.27.225-.003.45-.02.674-.047v1.635a5.555 5.555 0 0 1-1.138.096c-2.023 0-2.81-.77-2.81-2.732v-5.8H77.65v-1.644h1.452V12.14h2.06Zm7.733 2.27c-2.886 0-4.737 2-4.737 5.184 0 3.193 1.832 5.184 4.737 5.184 2.905 0 4.738-1.991 4.738-5.184 0-3.183-1.843-5.184-4.738-5.184Zm0 1.712c1.661 0 2.65 1.288 2.65 3.472 0 2.193-.989 3.472-2.65 3.472-1.662 0-2.649-1.28-2.649-3.472 0-2.174.987-3.472 2.65-3.472Zm6.43-1.587h1.955v1.722h.048a2.412 2.412 0 0 1 .881-1.346 2.358 2.358 0 0 1 1.521-.482c.237-.001.472.025.703.077v1.943a2.836 2.836 0 0 0-.92-.126 2.046 2.046 0 0 0-1.598.667 2.11 2.11 0 0 0-.54 1.661v6.002h-2.05V14.535Zm10.257 10.243c2.259 0 4.025-1.26 4.301-3.097h-1.947a2.285 2.285 0 0 1-.92 1.1c-.416.256-.902.37-1.386.323a2.589 2.589 0 0 1-1.982-.819 2.658 2.658 0 0 1-.705-2.047v-.125H110V19.4c0-3.068-1.738-4.99-4.501-4.99-2.81 0-4.623 2.058-4.623 5.231 0 3.164 1.804 5.136 4.709 5.136l-.001.001Zm2.364-6.117h-4.994a2.6 2.6 0 0 1 .744-1.82 2.506 2.506 0 0 1 1.8-.747 2.375 2.375 0 0 1 1.779.741 2.437 2.437 0 0 1 .671 1.826ZM58.546 0h-1.104v7.877h1.104V0ZM31.03.37a3.24 3.24 0 0 1 1.422.217c.453.178.86.455 1.194.812a3.362 3.362 0 0 1 .872 2.701c0 2.399-1.28 3.777-3.488 3.777h-2.676V.37h2.676Zm-1.525 6.446H30.9a2.303 2.303 0 0 0 1.856-.761 2.39 2.39 0 0 0 .588-1.94 2.397 2.397 0 0 0-.597-1.926A2.308 2.308 0 0 0 30.9 1.43h-1.397l.001 5.386Zm6.313-1.774a2.716 2.716 0 0 1 .677-2.061 2.62 2.62 0 0 1 3.921 0 2.716 2.716 0 0 1 .677 2.06 2.718 2.718 0 0 1-.675 2.065 2.62 2.62 0 0 1-3.925 0 2.693 2.693 0 0 1-.675-2.064Zm4.14 0c0-1.228-.545-1.946-1.5-1.946-.96 0-1.5.718-1.5 1.946 0 1.238.54 1.95 1.5 1.95.955 0 1.5-.717 1.5-1.95Zm7.001 2.835h1.145l1.536-5.665h-1.104l-.997 4.323h-.087l-1.15-4.323h-1.06l-1.15 4.323h-.082l-1.002-4.323h-1.12l1.542 5.665h1.134l1.15-4.173h.088l1.157 4.173Zm3.976-5.665h1.062v.9h.083a1.69 1.69 0 0 1 .675-.775 1.66 1.66 0 0 1 .994-.235 1.798 1.798 0 0 1 1.468.582 1.846 1.846 0 0 1 .468 1.526v3.667H54.58V4.49c0-.91-.39-1.363-1.207-1.363a1.268 1.268 0 0 0-.993.407 1.304 1.304 0 0 0-.342 1.029v3.314h-1.104V2.212Zm9.148 2.83a2.719 2.719 0 0 1 .676-2.061 2.62 2.62 0 0 1 3.921 0 2.695 2.695 0 0 1 .677 2.06 2.72 2.72 0 0 1-.675 2.065 2.65 2.65 0 0 1-.889.65 2.62 2.62 0 0 1-3.035-.65 2.693 2.693 0 0 1-.675-2.064Zm4.14 0c0-1.228-.546-1.946-1.5-1.946-.96 0-1.5.718-1.5 1.946 0 1.238.54 1.95 1.5 1.95.954 0 1.5-.717 1.5-1.95Zm4.377-.458c-1.33.083-2.08.671-2.08 1.69a1.731 1.731 0 0 0 .56 1.268 1.684 1.684 0 0 0 1.304.428 1.86 1.86 0 0 0 .96-.214 1.89 1.89 0 0 0 .72-.675h.087v.796h1.063v-3.87c0-1.198-.79-1.905-2.193-1.905-1.269 0-2.172.624-2.285 1.598h1.07c.121-.401.548-.63 1.164-.63.755 0 1.145.338 1.145.936v.49l-1.515.088Zm1.515.733v.474a1.349 1.349 0 0 1-.465.93 1.313 1.313 0 0 1-.983.308c-.6 0-1.037-.296-1.037-.806 0-.5.35-.765 1.12-.817l1.365-.089Zm2.547-.275c0-1.79.908-2.924 2.321-2.924.35-.017.697.068 1 .244.304.176.552.436.715.75h.083V0h1.103v7.877h-1.057v-.895h-.087c-.175.31-.432.567-.743.742-.309.175-.66.26-1.014.247-1.422 0-2.32-1.134-2.32-2.929Zm1.14 0c0 1.202.56 1.925 1.494 1.925.93 0 1.505-.734 1.505-1.92 0-1.18-.58-1.925-1.505-1.925-.929 0-1.494.728-1.494 1.92Zm8.774-1.103a2.72 2.72 0 0 0-.124 1.103 2.717 2.717 0 0 0 .676 2.064 2.64 2.64 0 0 0 2.514.823 2.621 2.621 0 0 0 1.411-.823 2.695 2.695 0 0 0 .675-2.064 2.72 2.72 0 0 0-.677-2.061 2.62 2.62 0 0 0-3.92 0 2.692 2.692 0 0 0-.555.958Zm2.516-.843c.956 0 1.5.718 1.5 1.946 0 1.233-.545 1.95-1.5 1.95-.96 0-1.5-.712-1.5-1.95 0-1.228.54-1.946 1.5-1.946Zm4.116-.884h1.062v.9h.083a1.69 1.69 0 0 1 .675-.775c.3-.181.647-.263.994-.235a1.798 1.798 0 0 1 1.468.582 1.846 1.846 0 0 1 .467 1.526v3.667h-1.103V4.49c0-.91-.39-1.363-1.207-1.363a1.268 1.268 0 0 0-.993.407 1.302 1.302 0 0 0-.343 1.029v3.314h-1.103V2.212Zm10.987.025V.801H99.09v1.436h-.888v.942h.888v3.2c0 1.092.49 1.53 1.716 1.53.202-.003.403-.022.601-.058V6.92c-.14.017-.28.025-.421.026-.549 0-.791-.26-.791-.853V3.179h1.212v-.942h-1.212ZM102.912 0h1.094v3.122h.087a1.74 1.74 0 0 1 .695-.78 1.703 1.703 0 0 1 1.011-.235 1.819 1.819 0 0 1 1.453.597 1.894 1.894 0 0 1 .473 1.515v3.658h-1.105V4.495c0-.905-.416-1.363-1.196-1.363a1.288 1.288 0 0 0-1.034.386 1.345 1.345 0 0 0-.374 1.05v3.31h-1.104V0Zm10.33 7.613a2.3 2.3 0 0 0 .918-1.266h-1.063a1.34 1.34 0 0 1-1.331.687 1.461 1.461 0 0 1-1.098-.478 1.513 1.513 0 0 1-.391-1.145V5.35h3.949v-.39c0-1.78-.939-2.857-2.495-2.857a2.57 2.57 0 0 0-1.955.884 2.631 2.631 0 0 0-.623 2.076 2.599 2.599 0 0 0 .624 2.068 2.524 2.524 0 0 0 1.959.856 2.25 2.25 0 0 0 1.506-.374Zm-.14-3.091h-2.825c-.004-.39.147-.765.419-1.044a1.433 1.433 0 0 1 1.03-.424 1.346 1.346 0 0 1 1.301.907c.063.18.089.371.075.561Z" clip-rule="evenodd"/></svg>