<svg xmlns="http://www.w3.org/2000/svg" width="400" height="400" fill="none" viewBox="0 0 400 400"><rect width="340" height="340" x="30" y="30" fill="url(#paint0_linear)" rx="170"/><rect width="339.336" height="339.336" x="30.332" y="30.332" stroke="#fff" stroke-opacity=".2" stroke-width=".664" rx="169.668"/><g filter="url(#filter0_ii)"><circle cx="200" cy="200" r="150" fill="url(#paint1_linear)"/></g><g fill="#fff" filter="url(#filter1_d)"><path d="M202.048 61.024a1.024 1.024 0 1 0-2.049 0v23.903a1.025 1.025 0 0 0 2.049 0V61.024zm0 254.049a1.023 1.023 0 1 0-2.049 0v23.903a1.025 1.025 0 0 0 2.049 0v-23.903zM176.429 61.995c.557-.1 1.09.271 1.189.828l4.196 23.531a1.025 1.025 0 0 1-2.017.36l-4.196-23.531a1.025 1.025 0 0 1 .828-1.188zm45.79 250.931a1.024 1.024 0 0 0-2.017.36l4.196 23.531a1.024 1.024 0 1 0 2.017-.36l-4.196-23.531zm-68.697-244.99a1.024 1.024 0 0 1 1.311.616l8.1 22.489a1.024 1.024 0 1 1-1.928.694l-8.099-22.488a1.024 1.024 0 0 1 .616-1.311zm87.399 239.635a1.024 1.024 0 1 0-1.928.694l8.1 22.488a1.024 1.024 0 1 0 1.928-.694l-8.1-22.488zM131.133 78.105a1.025 1.025 0 0 1 1.399.377l11.909 20.725a1.024 1.024 0 1 1-1.776 1.02l-11.91-20.724a1.025 1.025 0 0 1 .378-1.398zM259.11 298.752a1.023 1.023 0 1 0-1.776 1.021l11.909 20.724a1.024 1.024 0 1 0 1.777-1.021l-11.91-20.724zM110.864 92.037a1.024 1.024 0 0 1 1.443.127l15.353 18.321a1.024 1.024 0 0 1-1.571 1.316l-15.352-18.32a1.025 1.025 0 0 1 .127-1.444zM275.48 286.883a1.025 1.025 0 0 0-1.571 1.316l15.353 18.321a1.025 1.025 0 0 0 1.57-1.316l-15.352-18.321zM93.007 109.703a1.024 1.024 0 0 1 1.442-.133l18.379 15.282a1.025 1.025 0 1 1-1.31 1.575l-18.379-15.282a1.024 1.024 0 0 1-.132-1.442zM289.79 271.997a1.024 1.024 0 0 0-1.31 1.576l18.379 15.282a1.026 1.026 0 0 0 1.31-1.576l-18.379-15.282zM78.933 129.687c.28-.491.906-.662 1.397-.382l20.757 11.853a1.025 1.025 0 1 1-1.016 1.779l-20.757-11.852a1.025 1.025 0 0 1-.381-1.398zm222.011 125.597a1.025 1.025 0 1 0-1.016 1.779l20.756 11.852a1.025 1.025 0 1 0 1.016-1.779l-20.756-11.852zM68.349 152.364a1.023 1.023 0 0 1 1.307-.624l22.535 7.968a1.024 1.024 0 1 1-.683 1.931l-22.535-7.968a1.024 1.024 0 0 1-.624-1.307zm240.824 84.065a1.025 1.025 0 0 0-.683 1.932l22.536 7.968a1.025 1.025 0 0 0 .683-1.932l-22.536-7.968zm-247.075-60.6a1.024 1.024 0 0 1 1.18-.84l23.573 3.954a1.024 1.024 0 1 1-.34 2.02l-23.572-3.954a1.025 1.025 0 0 1-.841-1.18zm251.728 41.187a1.025 1.025 0 0 0-.339 2.021l23.573 3.954a1.025 1.025 0 0 0 .339-2.021l-23.573-3.954zM60 198.89c0-.566.46-1.025 1.025-1.024l23.902.015a1.024 1.024 0 1 1 0 2.048l-23.903-.014A1.025 1.025 0 0 1 60 198.89zm255.074-.868a1.024 1.024 0 1 0-.001 2.049l23.902.014a1.023 1.023 0 1 0 .001-2.048l-23.902-.015zM62.026 223.758c-.1-.557.27-1.089.827-1.189l23.526-4.229a1.025 1.025 0 0 1 .362 2.017l-23.525 4.228c-.557.1-1.09-.27-1.19-.827zm250.869-46.131a1.024 1.024 0 1 0 .363 2.016l23.525-4.228a1.025 1.025 0 0 0-.362-2.017l-23.526 4.229zM68.398 247.773c-.196-.53.074-1.12.604-1.317l22.408-8.32a1.024 1.024 0 1 1 .713 1.92l-22.408 8.321a1.025 1.025 0 0 1-1.317-.604zm238.765-89.75a1.024 1.024 0 1 0 .713 1.921l22.407-8.321a1.024 1.024 0 1 0-.713-1.92l-22.407 8.32zM78.151 268.95a1.025 1.025 0 0 1 .377-1.399l20.716-11.923a1.024 1.024 0 1 1 1.022 1.775L79.55 269.327a1.025 1.025 0 0 1-1.399-.377zm220.56-128.129a1.023 1.023 0 1 0 1.022 1.776l20.716-11.924a1.024 1.024 0 1 0-1.022-1.775l-20.716 11.923zM92.176 289.304a1.025 1.025 0 0 1 .125-1.444l18.296-15.381a1.024 1.024 0 1 1 1.318 1.569l-18.296 15.38a1.023 1.023 0 0 1-1.443-.124zm194.589-164.92a1.024 1.024 0 1 0 1.318 1.568l18.297-15.38a1.025 1.025 0 0 0-1.319-1.569l-18.296 15.381zM109.433 306.765a1.024 1.024 0 0 1-.129-1.443l15.329-18.34a1.025 1.025 0 0 1 1.572 1.314l-15.329 18.34a1.024 1.024 0 0 1-1.443.129zM272.222 110.39a1.024 1.024 0 1 0 1.572 1.314l15.328-18.34a1.024 1.024 0 1 0-1.572-1.314l-15.328 18.34zM129.605 321.02a1.024 1.024 0 0 1-.38-1.398l11.866-20.749a1.025 1.025 0 0 1 1.779 1.017l-11.867 20.749a1.026 1.026 0 0 1-1.398.381zM255.35 99.093a1.026 1.026 0 0 0 1.779 1.017l11.867-20.749a1.025 1.025 0 0 0-1.779-1.017L255.35 99.093zM150.57 330.988a1.025 1.025 0 0 1-.606-1.316l8.275-22.424a1.026 1.026 0 0 1 1.922.709l-8.275 22.424a1.025 1.025 0 0 1-1.316.607zm87.345-239.654a1.025 1.025 0 0 0 1.923.709l8.275-22.425a1.025 1.025 0 0 0-1.923-.709l-8.275 22.425zM174.708 337.7a1.024 1.024 0 0 1-.831-1.186l4.146-23.54a1.024 1.024 0 0 1 2.018.355l-4.146 23.54c-.098.557-.629.93-1.187.831zM217.94 86.316a1.024 1.024 0 0 0 2.018.355l4.146-23.54a1.025 1.025 0 0 0-2.018-.356l-4.146 23.54zm-28.999-25.882a1.024 1.024 0 0 1 1.109.932l.943 10.886a1.025 1.025 0 0 1-2.041.177l-.943-10.886a1.024 1.024 0 0 1 .932-1.11zm24.147 266.961a1.025 1.025 0 1 0-2.041.176l.943 10.886a1.025 1.025 0 0 0 2.041-.176l-.943-10.886zm-47.8-263.027a1.024 1.024 0 0 1 1.251.729l2.787 10.566a1.024 1.024 0 1 1-1.981.522l-2.787-10.566a1.025 1.025 0 0 1 .73-1.251zm69.347 258.925a1.025 1.025 0 0 0-1.981.522l2.786 10.566a1.025 1.025 0 0 0 1.982-.523l-2.787-10.565zM142.303 72.438a1.024 1.024 0 0 1 1.359.5l4.576 9.924a1.025 1.025 0 0 1-1.861.857l-4.575-9.922a1.024 1.024 0 0 1 .501-1.36zm113.179 242.985a1.024 1.024 0 1 0-1.861.858l4.576 9.922a1.024 1.024 0 1 0 1.861-.858l-4.576-9.922zM121.084 84.356a1.025 1.025 0 0 1 1.426.259l6.225 8.98a1.025 1.025 0 0 1-1.684 1.167l-6.225-8.98a1.025 1.025 0 0 1 .258-1.426zm153.548 219.715a1.025 1.025 0 0 0-1.684 1.167l6.225 8.98a1.024 1.024 0 1 0 1.684-1.167l-6.225-8.98zm-173.268-203.43a1.025 1.025 0 0 1 1.449-.005l7.755 7.698a1.026 1.026 0 0 1-1.444 1.454l-7.754-7.698a1.025 1.025 0 0 1-.006-1.449zm190.954 188.117a1.025 1.025 0 0 0-1.444 1.454l7.755 7.698a1.025 1.025 0 0 0 1.444-1.454l-7.755-7.698zM85.921 118.838a1.025 1.025 0 0 1 1.427-.252l8.95 6.27a1.023 1.023 0 1 1-1.176 1.678l-8.95-6.27a1.024 1.024 0 0 1-.25-1.426zm220.131 152.95a1.025 1.025 0 0 0-1.176 1.678l8.95 6.27a1.025 1.025 0 0 0 1.175-1.679l-8.949-6.269zM73.38 140.264a1.024 1.024 0 0 1 1.36-.499l9.915 4.589a1.025 1.025 0 0 1-.86 1.86l-9.916-4.59a1.024 1.024 0 0 1-.5-1.36zm243.685 111.663a1.024 1.024 0 1 0-.861 1.859l9.916 4.59a1.024 1.024 0 1 0 .861-1.859l-9.916-4.59zM64.884 163.329a1.025 1.025 0 0 1 1.251-.73l10.566 2.785a1.025 1.025 0 0 1-.522 1.981l-10.566-2.785a1.024 1.024 0 0 1-.73-1.251zm259.458 67.325a1.025 1.025 0 1 0-.522 1.981l10.566 2.785a1.024 1.024 0 0 0 .522-1.981l-10.566-2.785zM60.588 187.131a1.025 1.025 0 0 1 1.108-.934l10.887.925a1.024 1.024 0 0 1-.173 2.041l-10.888-.924a1.025 1.025 0 0 1-.934-1.108zm267.174 21.664a1.024 1.024 0 1 0-.173 2.042l10.887.924a1.025 1.025 0 1 0 .174-2.041l-10.888-.925zm-267.321 2.364c-.05-.563.368-1.06.931-1.109l10.886-.951a1.025 1.025 0 0 1 .178 2.041l-10.885.951a1.025 1.025 0 0 1-1.11-.932zm266.943-24.34a1.025 1.025 0 0 0 .179 2.041l10.885-.951a1.024 1.024 0 0 0-.178-2.041l-10.886.951zM64.493 235.202a1.025 1.025 0 0 1 .725-1.255l10.555-2.824a1.024 1.024 0 1 1 .53 1.979l-10.555 2.825a1.025 1.025 0 0 1-1.255-.725zm258.673-70.283a1.024 1.024 0 1 0 .53 1.979l10.555-2.825a1.024 1.024 0 1 0-.53-1.979l-10.555 2.825zM72.843 258.587a1.025 1.025 0 0 1 .492-1.363l9.89-4.645a1.025 1.025 0 0 1 .872 1.855l-9.89 4.645c-.513.24-1.123.02-1.364-.492zm242.188-114.875a1.024 1.024 0 1 0 .871 1.854l9.891-4.645a1.023 1.023 0 1 0-.871-1.854l-9.891 4.645zM84.803 279.567a1.024 1.024 0 0 1 .25-1.427L94 271.864a1.025 1.025 0 0 1 1.176 1.678l-8.945 6.275a1.024 1.024 0 0 1-1.427-.25zm218.844-154.786a1.025 1.025 0 0 0 1.177 1.677l8.945-6.275a1.025 1.025 0 0 0-1.177-1.677l-8.945 6.275zM100.511 298.505a1.025 1.025 0 0 1-.003-1.449l7.708-7.745a1.025 1.025 0 0 1 1.452 1.446l-7.708 7.744a1.025 1.025 0 0 1-1.449.004zm188.367-190.707a1.025 1.025 0 0 0 1.453 1.445l7.708-7.744a1.025 1.025 0 0 0-1.452-1.446l-7.709 7.745zM119.385 314.466a1.025 1.025 0 0 1-.258-1.426l6.226-8.979a1.024 1.024 0 0 1 1.684 1.167l-6.226 8.98c-.323.465-.961.58-1.426.258zM271.278 93.604a1.025 1.025 0 0 0 1.684 1.168l6.226-8.98a1.025 1.025 0 0 0-1.684-1.167l-6.226 8.98zM139.859 326.429a1.026 1.026 0 0 1-.495-1.362l4.622-9.901a1.024 1.024 0 1 1 1.856.866l-4.621 9.902c-.24.512-.849.734-1.362.495zM252.3 83.101a1.024 1.024 0 1 0 1.857.867l4.621-9.902a1.024 1.024 0 0 0-1.856-.866l-4.622 9.9zm-89.352 251.911a1.024 1.024 0 0 1-.725-1.253l2.814-10.559a1.026 1.026 0 0 1 1.98.528l-2.815 10.558a1.024 1.024 0 0 1-1.254.726zm68.054-259.268a1.026 1.026 0 0 0 1.98.528l2.815-10.558a1.025 1.025 0 0 0-1.98-.528l-2.815 10.558zm-44.498 263.608a1.026 1.026 0 0 1-.93-1.112l.974-10.883a1.024 1.024 0 1 1 2.041.182l-.974 10.884c-.05.563-.548.979-1.111.929zm22.865-267.074a1.025 1.025 0 0 0 2.041.183l.974-10.884a1.025 1.025 0 0 0-2.041-.182l-.974 10.883z"/></g><mask id="a" width="182" height="216" x="109" y="92" maskUnits="userSpaceOnUse"><path fill="#F7FCFE" d="M290.168 95.63c1.283-1.978-1.316-4.16-3.041-2.552l-101.682 94.709-75.614 116.584c-1.283 1.978 1.316 4.158 3.041 2.551l101.682-94.709L290.168 95.63z"/></mask><g mask="url(#a)"><path fill="#EF4C33" d="M283.149 71.349a2 2 0 0 1 2.818-.247l27.577 23.14-98.989 117.971-29.11-24.426 97.704-116.439z"/><path fill="#F7FCFE" d="M87.988 307.043a2 2 0 0 1-.247-2.817l97.704-116.439 29.11 24.426-98.99 117.971-27.577-23.141z"/><path fill="#C6301A" d="M289.99 92.754l14.555 12.213-89.99 107.246L200 200z"/><path fill="#EBEBEB" d="M200 200l14.555 12.213-89.99 107.246-14.555-12.213z"/></g><defs><filter id="filter0_ii" width="300" height="305.493" x="50" y="47.253" color-interpolation-filters="sRGB" filterUnits="userSpaceOnUse"><feFlood flood-opacity="0" result="BackgroundImageFix"/><feBlend in="SourceGraphic" in2="BackgroundImageFix" result="shape"/><feColorMatrix in="SourceAlpha" result="hardAlpha" values="0 0 0 0 0 0 0 0 0 0 0 0 0 0 0 0 0 0 127 0"/><feOffset dy="2.747"/><feGaussianBlur stdDeviation="4.12"/><feComposite in2="hardAlpha" k2="-1" k3="1" operator="arithmetic"/><feColorMatrix values="0 0 0 0 0 0 0 0 0 0 0 0 0 0 0 0 0 0 0.25 0"/><feBlend in2="shape" result="effect1_innerShadow"/><feColorMatrix in="SourceAlpha" result="hardAlpha" values="0 0 0 0 0 0 0 0 0 0 0 0 0 0 0 0 0 0 127 0"/><feOffset dy="-2.747"/><feGaussianBlur stdDeviation="2.747"/><feComposite in2="hardAlpha" k2="-1" k3="1" operator="arithmetic"/><feColorMatrix values="0 0 0 0 1 0 0 0 0 1 0 0 0 0 1 0 0 0 0.25 0"/><feBlend in2="effect1_innerShadow" result="effect2_innerShadow"/></filter><filter id="filter1_d" width="285.493" height="285.493" x="57.253" y="60" color-interpolation-filters="sRGB" filterUnits="userSpaceOnUse"><feFlood flood-opacity="0" result="BackgroundImageFix"/><feColorMatrix in="SourceAlpha" result="hardAlpha" values="0 0 0 0 0 0 0 0 0 0 0 0 0 0 0 0 0 0 127 0"/><feOffset dy="2.747"/><feGaussianBlur stdDeviation="1.373"/><feColorMatrix values="0 0 0 0 0 0 0 0 0 0 0 0 0 0 0 0 0 0 0.25 0"/><feBlend in2="BackgroundImageFix" result="effect1_dropShadow"/><feBlend in="SourceGraphic" in2="effect1_dropShadow" result="shape"/></filter><linearGradient id="paint0_linear" x1="200" x2="200" y1="30" y2="370" gradientUnits="userSpaceOnUse"><stop stop-color="#FEFEFF"/><stop offset="1" stop-color="#D5D5D5"/></linearGradient><linearGradient id="paint1_linear" x1="134.5" x2="258.5" y1="68" y2="336" gradientUnits="userSpaceOnUse"><stop offset=".392" stop-color="#249AFA"/><stop offset="1" stop-color="#0356DD"/></linearGradient></defs></svg>