<svg xmlns="http://www.w3.org/2000/svg" width="344" height="140" fill="none" viewBox="0 0 344 140"><path fill="#000" fill-rule="evenodd" d="M109.218 54.932h-9.911v53.675h9.911V83.133h.109l.218.314.436.42.217.21.436.418.327.105.218.21.544.314.545.315.653.314.545.315 1.307.42.654.104.653.21 1.307.21h2.287l1.743-.21.871-.105.872-.21.762-.314.763-.21.762-.315.762-.314 1.307-.839.654-.524.544-.419.654-.525.544-.524.545-.524.436-.629.435-.629.436-.629.435-.629.436-.733.327-.63.327-.733.218-.734.217-.63.218-.733.218-.839.218-1.467.109-.734.109-.839v-1.573l-.109-.733v-.839l-.218-.734-.109-.734-.218-.838-.218-.734-.217-.734-.218-.734-.327-.734-.327-.628-.436-.734-.435-.63-.327-.628-.544-.63-.436-.628-.545-.524-.544-.63-.654-.419-.544-.524-.654-.524-.653-.42-.763-.314-.653-.42-.762-.314-.763-.314-.871-.21-.763-.21-.871-.105-.98-.104-.872-.105h-2.287l-.653.105-.654.104-.653.105-1.961.63-.544.314-.545.314-.327.105-.327.21-.218.105-.217.21-.327.21-.218.209-.218.105-.218.21-.217.209-.218.315-.218.209-.218.21h-.109v-2.936Zm7.189 6.814.435.105h.436l.436.105h.435l.436.105.436.21.436.105.326.21.436.209.326.21.327.21.327.209.327.314.327.21.217.315.327.314.218.314.218.315.327.314.108.42.218.314.218.42.109.314.218.42.109.314.109.42.109.419.109.419v.314l.108.42v1.572l-.108.42v.419l-.109.314-.109.42-.109.42-.109.314-.218.419-.109.42-.218.314-.218.314-.108.42-.327.314-.436.63-.327.314-.217.314-.327.21-.327.314-.327.21-.653.42-.436.209-.326.21-.436.105-.872.21-.435.104-.436.105h-1.851l-.436-.105-.436-.105-.436-.105-.326-.105-.436-.104-.436-.21-.326-.21-.327-.21-.436-.209-.326-.21-.327-.314-.218-.21-.327-.314-.218-.315-.326-.314-.218-.315-.218-.314-.218-.42-.218-.314-.109-.315-.217-.42-.109-.418-.109-.315-.109-.42-.109-.419-.109-.314-.109-.42v-2.41l.109-.315.218-.839.109-.419.109-.314.109-.42.217-.314.109-.42.218-.314.218-.42.218-.314.218-.315.326-.314.218-.314.327-.315.218-.21.327-.314.326-.21.436-.21.327-.21.326-.209.436-.21.436-.104.326-.21.436-.105h.436l.436-.105h.435l.545-.105Zm56.959-6.814h-9.802v2.936l-.654-.63-.327-.209-.435-.42-.545-.419-.545-.314-.653-.315-.545-.314-.653-.315-1.307-.419-.654-.105-.653-.21-.653-.104h-.654l-.654-.105h-1.633l-.872.105-.871.104-.871.105-.763.21-.871.315-.762.21-.763.314-.653.419-.763.315-.653.419-.654.524-.544.42-.545.523-.653.525-.436.629-.545.524-.435.629-.436.629-.436.629-.326.734-.327.629-.327.733-.327.734-.218.63-.217.838-.218.734-.109.734-.109.734-.109.733-.109.839v1.572l.109.734.109.839.109.734.109.734.218.838.217.734.218.734.327.734.327.734.327.629.326.734.436.629.436.629.435.628.545.63.436.524.544.629.654.524.544.42.654.523.653.42.763.314.762.42.654.314.871.314.762.21.872.21.871.21.871.104h3.159l1.96-.314 1.961-.63.544-.314.654-.21.544-.314.545-.42.218-.104.327-.21.218-.21.435-.419.218-.21.436-.419h.109v2.83h9.802V54.933Zm-17.1 24.322h-.436l-.435-.105h-.436l-.435-.105-.436-.105-.436-.21-.327-.104-.435-.21-.327-.21-.436-.21-.326-.209-.327-.21-.327-.314-.218-.21-.327-.314-.326-.315-.218-.314-.218-.315-.218-.314-.218-.42-.217-.314-.218-.42-.109-.314-.109-.42-.218-.314-.218-.839v-.419l-.109-.314v-.42l-.109-.42v-.733l.109-.42v-.419l.109-.419v-.314l.218-.839.218-.314.218-.84.218-.314.217-.314.218-.42.218-.314.218-.315.218-.314.326-.314.327-.315.218-.21.327-.314.327-.21.326-.21.436-.21.327-.209.435-.21.327-.104.436-.105.436-.105.435-.105.436-.105h1.851l.436.105.436.105.435.105.436.105.327.105.871.419.327.21.327.21.327.209.326.314.327.21.218.315.327.314.217.314.327.315.218.314.218.42.218.314.109.315.217.42.109.419.109.314.109.42.109.419.109.314.109.42v2.41l-.109.315-.109.42-.109.419-.109.42-.109.314-.109.419-.217.314-.109.42-.218.314-.218.42-.218.314-.327.315-.217.314-.327.315-.218.314-.327.21-.326.314-.327.21-.654.42-.871.419-.327.105-.436.21-.435.104-.436.105h-.436l-.435.105h-.545Zm-72.71 6.814h9.912V32.393h-9.911v25.475h-.11l-.217-.315-.218-.21-.218-.21-.435-.419-.327-.21-.218-.104-.218-.21-.544-.314-.654-.315-.544-.314-.654-.315-.544-.21-.654-.209-.653-.105-.654-.21-.653-.104h-.654l-.762-.105H73.1l-.871.105-.98.104-.763.105-.872.21-.762.315-.762.21-.763.314-.762.419-.654.315-.653.419-.653.524-.545.42-.654.523-.544.525-.545.629-.435.524-.436.629-.545.629-.326.629-.436.734-.327.629-.327.733-.217.734-.218.63-.218.838-.218.734-.218.734-.109.734v.733l-.109.839v1.572l.11.734v.839l.108.734.218.734.218.838.218.734.218.734.217.734.327.734.327.629.436.734.326.629.436.629.544.628.436.63.545.524.544.629.654.524.544.42.654.523.653.42.763.314.653.42.763.314.762.314.872.21.762.21.871.21.872.104h3.267l1.307-.21.653-.104 1.96-.63.546-.314.544-.314.327-.105.327-.105.218-.21.217-.21.327-.209.218-.21.218-.104.435-.42.218-.21.218-.314.218-.21h.109v2.936Zm-7.188-6.814h-.435l-.436-.105h-.544l-.327-.105-.436-.105-.436-.21-.435-.104-.327-.21-.436-.21-.326-.21-.327-.209-.327-.21-.327-.314-.326-.21-.218-.314-.327-.315-.218-.314-.218-.315-.327-.314-.108-.42-.218-.314-.218-.42-.109-.314-.218-.42-.109-.314-.109-.42-.218-.838v-.314l-.108-.42v-1.572l.108-.42v-.419l.11-.314.108-.42.11-.419.108-.314.218-.42.11-.42.217-.314.218-.314.108-.42.327-.314.218-.315.218-.314.327-.314.218-.315.326-.21.327-.314.327-.21.327-.21.326-.21.436-.209.327-.21.435-.104.436-.105.436-.105.326-.105.545-.105h1.852l.435.105.436.105.436.105.326.105.436.105.436.21.326.209.327.21.327.21.327.209.326.314.327.21.327.315.218.314.327.314.217.315.218.314.218.42.218.314.109.315.218.42.108.419.11.314.108.42.11.419.108.314.109.42v2.41l-.109.315-.109.42-.109.419-.109.42-.109.314-.109.419-.217.314-.11.42-.217.314-.218.42-.218.314-.218.315-.326.314-.218.315-.327.314-.327.21-.326.314-.327.21-.327.21-.327.21-.326.209-.436.21-.436.105-.326.21-.436.104-.436.105h-.435l-.436.105h-.545Z" clip-rule="evenodd"/><path fill="#94C472" d="M210.853 69.985a9.669 9.669 0 0 1-2.804 6.813 9.541 9.541 0 0 1-6.769 2.822 9.54 9.54 0 0 1-6.768-2.822 9.669 9.669 0 0 1-2.804-6.813 9.668 9.668 0 0 1 2.804-6.813 9.54 9.54 0 0 1 6.768-2.822 9.54 9.54 0 0 1 6.769 2.822 9.668 9.668 0 0 1 2.804 6.813ZM249.5 69.985c0 5.318-4.289 9.635-9.572 9.635-5.284 0-9.573-4.317-9.573-9.635 0-5.319 4.289-9.636 9.573-9.636 5.283 0 9.572 4.317 9.572 9.636ZM286.821 69.985c0 5.318-4.289 9.635-9.573 9.635-5.284 0-9.572-4.317-9.572-9.635 0-5.319 4.288-9.636 9.572-9.636 5.284 0 9.573 4.317 9.573 9.636Z"/></svg>