<svg xmlns="http://www.w3.org/2000/svg" width="400" height="400" fill="none" viewBox="0 0 400 400"><path fill="url(#a)" d="M244.5 75.5 148 150l108.5 226 18.5-36.5L311.5 118l-67-42.5Z"/><path fill="url(#b)" d="m148 150 108.5 226-98.5-36-10-190Z"/><path fill="url(#c)" d="m148 150-13-62-44 96 67 156-10-190Z"/><path fill="url(#d)" d="m246 26-1.5 49.5L148 150l-13-61 111-63Z"/><path fill="#AF9FF4" d="M244.5 75.5 246 26l65.5 92-67-42.5Z"/><defs><linearGradient id="a" x1="229.75" x2="257.5" y1="75.5" y2="376" gradientUnits="userSpaceOnUse"><stop stop-color="#8F7CE0"/><stop offset="1" stop-color="#6C56CC"/></linearGradient><linearGradient id="b" x1="156" x2="225.73" y1="154" y2="374.398" gradientUnits="userSpaceOnUse"><stop stop-color="#4A37A0"/><stop offset="1" stop-color="#4A37A0"/></linearGradient><linearGradient id="c" x1="124.5" x2="170.873" y1="88" y2="333.385" gradientUnits="userSpaceOnUse"><stop stop-color="#34208C"/><stop offset="1" stop-color="#34208C"/></linearGradient><linearGradient id="d" x1="240.5" x2="166.885" y1="26" y2="143.007" gradientUnits="userSpaceOnUse"><stop stop-color="#4A37A0"/><stop offset="1" stop-color="#4A37A0"/></linearGradient></defs></svg>