<svg width="38" height="38" viewBox="0 0 38 38" fill="none" xmlns="http://www.w3.org/2000/svg">
<path d="M30.9865 4.88501H13.6399C12.8574 4.88501 12.2231 5.51662 12.2231 6.29537V7.89893L22.0006 10.9128L32.4033 7.89893V6.29537C32.4033 5.92135 32.2539 5.56267 31.9884 5.29797C31.7226 5.03365 31.3624 4.88501 30.9865 4.88501Z" fill="#0364B8"/>
<path d="M34.0715 20.4413C34.2198 19.9767 34.3381 19.5031 34.4253 19.0235C34.4249 18.7831 34.2965 18.5614 34.0887 18.4416L34.0764 18.433L34.0715 18.4315L23.1323 12.2019C23.0855 12.1716 23.0368 12.1439 22.987 12.1188C22.5628 11.908 22.0641 11.908 21.6399 12.1188C21.5901 12.1439 21.5415 12.1716 21.4947 12.2019L10.5555 18.4315L10.5506 18.433L10.5382 18.4416C10.3305 18.5614 10.202 18.7831 10.2017 19.0235C10.2893 19.5031 10.4072 19.9767 10.5555 20.4413L22.1536 28.9215L34.0715 20.4413Z" fill="#0A2767"/>
<path d="M26.3847 7.91766H19.3172L17.2778 10.9409L19.3172 13.9642L26.3847 20.0108H32.441V13.9642L26.3847 7.91766Z" fill="#28A8EA"/>
<path d="M12.2231 13.9455H19.2619V7.91766H12.2231V13.9455Z" fill="#0078D4"/>
<path d="M26.3755 13.9455H32.4033V7.91766H26.3755V13.9455Z" fill="#50D9FF"/>
<path d="M26.3616 20.0362L19.2933 13.9829H12.2231V20.0362L19.2933 26.0895L30.2318 27.8731L26.3616 20.0362Z" fill="#0364B8"/>
<path d="M19.2993 20.0107H26.338V13.9829H19.2993V20.0107Z" fill="#0078D4"/>
<path d="M12.2231 26.076H19.2619V20.0482H12.2231V26.076Z" fill="#064A8C"/>
<path d="M26.3755 26.076H32.4033V20.0482H26.3755V26.076Z" fill="#0078D4"/>
<path d="M22.5196 28.3599L10.6133 19.6828L11.1135 18.806C11.1135 18.806 21.9587 24.9802 22.1253 25.0734C22.2627 25.1281 22.4162 25.1236 22.5503 25.0607C22.7053 24.9738 33.5879 18.7753 33.5879 18.7753L34.0881 19.6521L22.5196 28.3599Z" fill="#0A2767" fill-opacity="0.5"/>
<path d="M34.1259 19.6207L34.1131 19.6274L34.109 19.6304L23.1706 25.8668C22.728 26.1517 22.1698 26.1861 21.6958 25.9581L25.5053 31.0698L33.8372 32.886V32.8901C34.2307 32.6052 34.4632 32.1488 34.4628 31.6629V19.0374C34.4628 19.2781 34.3344 19.5005 34.1259 19.6207" fill="#1490DF"/>
<path d="M34.4628 31.664V30.9189L24.3859 25.1775L23.1706 25.8709C22.7284 26.1558 22.1698 26.1906 21.6958 25.9626L25.5053 31.0717L33.8372 32.8856V32.8901C34.2303 32.6056 34.4632 32.1492 34.4628 31.664" fill="black" fill-opacity="0.05"/>
<path d="M34.4254 32.0537L23.3686 25.7765L23.1713 25.8881C22.7291 26.173 22.1702 26.2074 21.6958 25.9798L25.5094 31.0761L33.8499 32.886V32.8901C34.1326 32.6853 34.3359 32.3899 34.4254 32.0537" fill="black" fill-opacity="0.1"/>
<path d="M10.5555 19.6315V19.6218H10.5439L10.5154 19.6019C10.3185 19.4821 10.1994 19.2676 10.2017 19.0374V31.6404C10.2013 32.0417 10.3608 32.4266 10.645 32.71C10.9288 32.9938 11.3144 33.153 11.7161 33.1522H32.9019C33.0277 33.1507 33.1531 33.1339 33.2748 33.1013C33.3381 33.0904 33.3991 33.0702 33.4564 33.0406C33.4782 33.0391 33.4993 33.0323 33.5178 33.0208C33.5998 32.9871 33.6773 32.9429 33.7488 32.8898C33.7675 32.8797 33.7795 32.8797 33.7889 32.8602L10.5555 19.6315Z" fill="#28A8EA"/>
<path d="M20.273 27.7631V11.285C20.2708 10.5429 19.671 9.94164 18.9304 9.93939H12.247V17.4615L10.554 18.4274L10.5502 18.4293L10.5379 18.4371C10.3305 18.5573 10.2024 18.7793 10.2017 19.0197V19.0238V19.0197V29.1086H18.9304C19.671 29.1064 20.2708 28.5051 20.273 27.7631Z" fill="black" fill-opacity="0.1"/>
<path d="M19.2621 28.774V12.2959C19.2599 11.5535 18.6601 10.9522 17.9195 10.9503H12.2466V17.4641L10.554 18.4301L10.5506 18.4319L10.5379 18.4398C10.3301 18.5596 10.2017 18.782 10.2017 19.0224V19.0265V19.0224V30.1196H17.9195C18.6601 30.1177 19.2599 29.5164 19.2621 28.774Z" fill="black" fill-opacity="0.2"/>
<path d="M19.2621 26.7533V12.2948C19.2591 11.5527 18.6597 10.9522 17.9195 10.9503H12.2466V17.463L10.554 18.4282L10.5506 18.4301L10.5379 18.4387C10.3301 18.5581 10.2017 18.7798 10.2017 19.0197V19.025V19.0197V28.0978H17.9195C18.6597 28.0959 19.2591 27.4954 19.2621 26.7533Z" fill="black" fill-opacity="0.2"/>
<path d="M18.2512 26.7533V12.2948C18.2483 11.5531 17.6492 10.9526 16.9094 10.9503H12.2455V17.463L10.5543 18.4282L10.5502 18.4301L10.5375 18.4387C10.3297 18.5581 10.2017 18.7798 10.2017 19.0197V19.025V19.0197V28.0978H16.9094C17.6492 28.0956 18.2483 27.495 18.2512 26.7533Z" fill="black" fill-opacity="0.2"/>
<path d="M3.49595 10.9503H16.9444C17.3008 10.9503 17.6426 11.0918 17.8946 11.3442C18.1469 11.5962 18.2885 11.938 18.2885 12.2944V25.7428C18.2885 26.0993 18.1469 26.4411 17.8946 26.6931C17.6426 26.9454 17.3008 27.0869 16.9444 27.0869H3.49595C3.13952 27.0869 2.79769 26.9454 2.54572 26.6931C2.29338 26.4411 2.15186 26.0993 2.15186 25.7428V12.2944C2.15186 11.938 2.29338 11.5962 2.54572 11.3442C2.79769 11.0918 3.13952 10.9503 3.49595 10.9503Z" fill="#0078D4"/>
<path d="M6.04557 16.4686C6.4035 15.7082 6.9812 15.072 7.70416 14.6415C8.505 14.1843 9.41704 13.9563 10.3396 13.9829C11.1943 13.9642 12.0378 14.1802 12.7776 14.6074C13.4733 15.0211 14.0338 15.6277 14.3909 16.3529C14.7796 17.1518 14.9735 18.0317 14.9563 18.9198C14.9754 19.8483 14.7758 20.7682 14.3737 21.6061C14.009 22.3575 13.4314 22.9857 12.7121 23.4125C11.9435 23.8532 11.0685 24.0752 10.1823 24.0543C9.30921 24.0749 8.44735 23.8566 7.68994 23.4227C6.98831 23.0086 6.4211 22.4017 6.05606 21.6746C5.66481 20.8865 5.46862 20.0164 5.48397 19.1373C5.46675 18.217 5.65882 17.3046 6.04557 16.4686V16.4686ZM7.81311 20.7569C8.00368 21.2377 8.32716 21.6547 8.74612 21.9595C9.17255 22.2572 9.68301 22.4107 10.2029 22.3975C10.7574 22.4189 11.3033 22.2601 11.7593 21.9453C12.173 21.6405 12.4879 21.2212 12.665 20.7397C12.8638 20.2032 12.9615 19.6349 12.954 19.0628C12.9604 18.4854 12.8686 17.9115 12.6818 17.3649C12.5171 16.8729 12.2134 16.4386 11.8068 16.1151C11.3628 15.7845 10.818 15.6168 10.2647 15.6396C9.73303 15.6265 9.21075 15.7812 8.7727 16.0818C8.34626 16.3873 8.01566 16.8074 7.81985 17.2934C7.3863 18.4068 7.38405 19.6416 7.81311 20.7569" fill="white"/>
</svg>
