<svg xmlns="http://www.w3.org/2000/svg" width="344" height="140" fill="none" viewBox="0 0 344 140"><path fill="#E64415" d="M44.798 87.18v-5.617h2.695V58.026h-2.695l.013-5.668 19.71-.048s.868.01 1.69.469c.713.397 1.052.787 1.491 1.553.439.766.474 1.56.474 1.56l.004 27.435c-.008 2.088-1.771 3.843-3.749 3.856l-19.633-.003zm16.969-5.617c-.015-7.543 0-15.41 0-23.537l-7.796.05c-.008 8.077-.008 16.978-.008 23.487h7.804zm10.205 0h2.514V58.026h-2.514v-5.722l23.457.054.028 5.215.027 5.216H89.13l-.003-4.763-8.099.002v8.13l10.431-.007v5.624c-4.653 0-3.356.01-10.46.01l.03 9.778h8.098l.003-6.472h6.353v12.088h-23.51v-5.616zm26.71 5.617v-5.617h3.104V58.026c-3.101-.002-3.105 0-3.105 0v-5.722s14.192.011 20.315.012c2.477.001 3.84 1.964 3.879 3.838l-.092 4.257c.027 4.537.071 4.2.071 4.867 0 1.832-1.296 3.163-2.331 3.572-.908.358-2.01.299-1.078.299 1.152 0 3.391 1.316 3.391 3.812l.021 8.602h2.653l-.006 5.563-11.913.054v-5.617h2.454v-9.797c-2.454 0-5.286.016-7.888 0v9.797h2.523v5.617H98.681zm17.371-21.038.079-8.163c-5.452.047-5.452.047-7.975.047 0 0-.117 7.95 0 8.127 2.523 0 5.921.107 7.896-.011zm25.43 21.037c-2.433 0-3.834-2.218-3.834-3.83 0-2.946.011-8.29.011-8.29l6.356-.01c-.009-.037.064 6.514.064 6.514h7.686c-.046 0-.046-6.51-.046-9.797h-14.061l.002-15.638c-.006-2.317 2.145-3.8 3.817-3.812 4.611-.032 13.122 0 13.122 0 2.306-.005 3.858 1.858 3.864 3.854l-.021 6.564h-6.723l.046-4.706c-2.562-.005-7.686-.002-7.686-.002s-.061 7.887.151 8.065l14.212.062c.017 5.773.009 11.44-.005 17.19 0 2.326-2.07 3.862-3.924 3.862-1.121 0-3.663-.03-6.447-.03-2.548 0-5.284.004-6.583.004h-.001zm20.485-5.616h2.637l.002-11.74-.027-11.795-2.612-.002.017-5.726 19.951.006a3.83 3.83 0 0 1 3.823 3.864v11.736c0 2.203-1.791 3.841-3.897 3.841l-1.812-.026c-9.427.045-6.259.045-8.692.045v9.797h2.433v5.617h-11.823v-5.617zm17.257-15.41v-8.127h-7.867c.054.026 0 4.708 0 8.127 0 0 7.75.073 7.867 0zm8.163 15.41h2.501V58.028l-2.501-.002.012-5.721 11.538-.001v5.722h-2.501v23.537h2.501l.005 5.616h-11.555v-5.616zm14.62 0h2.389l-.025-23.537h-2.364v-5.722h23.464v10.43h-6.321v-4.708l-8.083.002c-.011-.002-.011 4.706-.011 8.125h10.459v5.613h-10.459v9.797h8.094l.018-6.475 6.301.056v11.981l-23.46.055-.002-5.617zm30.795 5.637c-2.993 0-4.024-2.593-4.024-3.865 0-1.264.021 2.192.052-13.813l.028-13.59c0-1.483 1.437-3.574 3.765-3.574 4.639 0 9.13-.041 13.32-.041 2.109 0 3.735 1.841 3.735 3.898l-.002 6.577-6.805-.058v-4.708l-7.66.002-.019 23.535h7.679c.025-3.266.011-6.532 0-9.797h-5.283v-5.613h12.077l.002 21.026-8.922-.007c-3.274 0-4.947.028-7.943.028zm20.371-.02v-5.617h2.416V58.026h-2.416v-5.722h23.497l-.03 10.43h-6.332v-4.708h-7.943v8.127l10.281.059-.033 5.554h-10.248v9.797h7.943l.008-6.472h6.354v12.088h-23.498.001zm27.203-5.557 2.652-.06V58.026h-2.666l.014-5.721 12.067-.001v5.722h-2.805v23.537h7.942v-6.51h6.333V87.18h-23.551l.014-5.557z"/></svg>