<svg xmlns="http://www.w3.org/2000/svg" width="400" height="400" fill="none" viewBox="0 0 400 400"><linearGradient id="b" x1="113.375" x2="336.3" y1="261.312" y2="261.312" gradientUnits="userSpaceOnUse"><stop offset="0" stop-color="#0c59a4"/><stop offset="1" stop-color="#114a8b"/></linearGradient><radialGradient id="c" cx="0" cy="0" r="1" gradientTransform="matrix(119.225 0 0 113.264 236.5 263.069)" gradientUnits="userSpaceOnUse"><stop offset=".72" stop-opacity="0"/><stop offset=".95" stop-opacity=".53"/><stop offset="1"/></radialGradient><linearGradient id="d" x1="230.9" x2="91.663" y1="164.612" y2="316.275" gradientUnits="userSpaceOnUse"><stop offset="0" stop-color="#1b9de2"/><stop offset=".16" stop-color="#1595df"/><stop offset=".67" stop-color="#0680d7"/><stop offset="1" stop-color="#0078d4"/></linearGradient><radialGradient id="e" cx="0" cy="0" r="1" gradientTransform="matrix(26.8574 -177.2599 143.20755 21.69799 128.218 288.76)" gradientUnits="userSpaceOnUse"><stop offset=".76" stop-opacity="0"/><stop offset=".95" stop-opacity=".5"/><stop offset="1"/></radialGradient><radialGradient id="f" cx="0" cy="0" r="1" gradientTransform="matrix(-10.12146 253.03765 -538.91704 -21.55659 72.302 99.221)" gradientUnits="userSpaceOnUse"><stop offset="0" stop-color="#35c1f1"/><stop offset=".11" stop-color="#34c1ed"/><stop offset=".23" stop-color="#2fc2df"/><stop offset=".31" stop-color="#2bc3d2"/><stop offset=".67" stop-color="#36c752"/></radialGradient><radialGradient id="g" cx="0" cy="0" r="1" gradientTransform="matrix(34.06899 116.808 -94.98826 27.7049 340.065 136.758)" gradientUnits="userSpaceOnUse"><stop offset="0" stop-color="#66eb6e"/><stop offset="1" stop-color="#66eb6e" stop-opacity="0"/></radialGradient><clipPath id="a"><path d="M40 40h320v320H40z"/></clipPath><g clip-path="url(#a)"><path fill="url(#b)" d="M328.812 278.175a116.971 116.971 0 0 1-13.175 5.887 127.303 127.303 0 0 1-44.874 8.075c-59.15 0-110.676-40.687-110.676-92.9a39.356 39.356 0 0 1 20.538-34.137c-53.5 2.25-67.25 58-67.25 90.662 0 92.35 85.112 101.713 103.45 101.713 9.887 0 24.8-2.875 33.75-5.7l1.637-.55a160.417 160.417 0 0 0 83.25-66 4.998 4.998 0 0 0-3.455-7.62 4.997 4.997 0 0 0-3.195.57z"/><path fill="url(#c)" d="M328.812 278.175a116.971 116.971 0 0 1-13.175 5.887 127.303 127.303 0 0 1-44.874 8.075c-59.15 0-110.676-40.687-110.676-92.9a39.356 39.356 0 0 1 20.538-34.137c-53.5 2.25-67.25 58-67.25 90.662 0 92.35 85.112 101.713 103.45 101.713 9.887 0 24.8-2.875 33.75-5.7l1.637-.55a160.417 160.417 0 0 0 83.25-66 4.998 4.998 0 0 0-3.455-7.62 4.997 4.997 0 0 0-3.195.57z" opacity=".35"/><path fill="url(#d)" d="M172.138 341.775a98.978 98.978 0 0 1-28.425-26.675 100.893 100.893 0 0 1-16.478-83.597 100.912 100.912 0 0 1 53.39-66.403c3.9-1.838 10.563-5.163 19.425-5a40.437 40.437 0 0 1 32.113 16.25 39.861 39.861 0 0 1 7.95 23.325c0-.263 30.575-99.5-100-99.5-54.875 0-100 52.075-100 97.762a162.682 162.682 0 0 0 15.137 70 159.999 159.999 0 0 0 195.475 83.888 94.427 94.427 0 0 1-78.475-10z"/><path fill="url(#e)" d="M172.138 341.775a98.978 98.978 0 0 1-28.425-26.675 100.893 100.893 0 0 1-16.478-83.597 100.912 100.912 0 0 1 53.39-66.403c3.9-1.838 10.563-5.163 19.425-5a40.437 40.437 0 0 1 32.113 16.25 39.861 39.861 0 0 1 7.95 23.325c0-.263 30.575-99.5-100-99.5-54.875 0-100 52.075-100 97.762a162.682 162.682 0 0 0 15.137 70 159.999 159.999 0 0 0 195.475 83.888 94.427 94.427 0 0 1-78.475-10z" opacity=".41"/><path fill="url(#f)" d="M230.387 226.075c-1.013 1.312-4.125 3.125-4.125 7.075 0 3.263 2.125 6.4 5.9 9.038 17.975 12.5 51.862 10.85 51.95 10.85a74.448 74.448 0 0 0 37.837-10.438 76.714 76.714 0 0 0 27.813-27.989 76.715 76.715 0 0 0 10.225-38.111c.325-28.012-10-46.637-14.175-54.887C319.324 69.8 262.149 40 199.974 40a160 160 0 0 0-160 157.75c.6-45.675 46-82.562 100-82.562 4.375 0 29.325.425 52.5 12.587 20.425 10.725 31.125 23.675 38.563 36.512 7.725 13.338 9.1 30.188 9.1 36.901 0 6.712-3.425 16.662-9.75 24.887z"/><path fill="url(#g)" d="M230.387 226.075c-1.013 1.312-4.125 3.125-4.125 7.075 0 3.263 2.125 6.4 5.9 9.038 17.975 12.5 51.862 10.85 51.95 10.85a74.448 74.448 0 0 0 37.837-10.438 76.714 76.714 0 0 0 27.813-27.989 76.715 76.715 0 0 0 10.225-38.111c.325-28.012-10-46.637-14.175-54.887C319.324 69.8 262.149 40 199.974 40a160 160 0 0 0-160 157.75c.6-45.675 46-82.562 100-82.562 4.375 0 29.325.425 52.5 12.587 20.425 10.725 31.125 23.675 38.563 36.512 7.725 13.338 9.1 30.188 9.1 36.901 0 6.712-3.425 16.662-9.75 24.887z"/></g></svg>