<svg xmlns="http://www.w3.org/2000/svg" width="100" height="100" fill="none" viewBox="0 0 100 100"><path fill="#fff" fill-rule="evenodd" d="M31.447 12.148h57.506a3.596 3.596 0 0 1 3.597 3.594v15.274l-.11.032h.11v18.868l-.111.033h.11v18.868l-.109.032h.11v15.219a3.59 3.59 0 0 1-3.597 3.58H31.447a3.59 3.59 0 0 1-3.597-3.58V71.448H9.94a3.59 3.59 0 0 1-3.59-3.59v-35.92a3.59 3.59 0 0 1 3.59-3.59h17.91V15.743a3.596 3.596 0 0 1 3.597-3.594Z" clip-rule="evenodd"/><path fill="#41A5EE" d="M88.953 12.148H31.447a3.596 3.596 0 0 0-3.597 3.594v15.274l32.35 9.432 32.35-9.432V15.742a3.596 3.596 0 0 0-3.597-3.594Z"/><path fill="#2B7CD3" d="M92.55 31.049h-64.7v18.868l32.35 9.432 32.35-9.432V31.049Z"/><path fill="#185ABD" d="M92.55 49.95h-64.7v18.867L60.2 78.25l32.35-9.432V49.95Z"/><path fill="#103F91" d="M92.55 68.848h-64.7v15.219a3.59 3.59 0 0 0 3.597 3.58h57.506a3.59 3.59 0 0 0 3.597-3.58v-15.22Z"/><path fill="#000" fill-opacity=".1" d="M51.164 25.648H27.85v51.2h23.314a3.601 3.601 0 0 0 3.586-3.594V29.242a3.601 3.601 0 0 0-3.586-3.594Z"/><path fill="#000" fill-opacity=".2" d="M48.466 28.348H27.85v51.2h20.614a3.6 3.6 0 0 0 3.586-3.594V31.942a3.6 3.6 0 0 0-3.586-3.594h.002"/><path fill="#000" fill-opacity=".2" d="M48.466 28.348H27.85v45.8h20.614a3.6 3.6 0 0 0 3.586-3.591V31.939a3.6 3.6 0 0 0-3.586-3.591h.002"/><path fill="#000" fill-opacity=".2" d="M45.766 28.348H27.85v45.8h17.916a3.6 3.6 0 0 0 3.584-3.591V31.939a3.6 3.6 0 0 0-3.584-3.591"/><path fill="#185ABD" d="M9.94 28.348h35.92a3.59 3.59 0 0 1 3.59 3.59v35.92a3.59 3.59 0 0 1-3.59 3.59H9.94a3.59 3.59 0 0 1-3.59-3.59v-35.92a3.59 3.59 0 0 1 3.59-3.59Z"/><path fill="#fff" d="M38.554 63.35H33.7l-5.665-18.562L22.1 63.35h-4.854l-5.396-26.9h4.857l3.775 18.83 5.665-18.292h4.045l5.396 18.292 3.775-18.83h4.587l-5.396 26.9Z"/></svg>