<svg xmlns="http://www.w3.org/2000/svg" width="400" height="400" fill="none" viewBox="0 0 400 400"><path fill="#F5BA16" fill-rule="evenodd" d="M110 50h120l80 80v200c0 11.046-8.954 20-20 20H110c-11.046 0-20-8.954-20-20V70c0-11.046 8.954-20 20-20z" clip-rule="evenodd"/><mask id="a" width="220" height="300" x="90" y="50" maskUnits="userSpaceOnUse"><path fill="#fff" fill-rule="evenodd" d="M110 50h120l80 80v200c0 11.046-8.954 20-20 20H110c-11.046 0-20-8.954-20-20V70c0-11.046 8.954-20 20-20z" clip-rule="evenodd"/></mask><g mask="url(#a)"><path fill="url(#paint0_linear)" fill-rule="evenodd" d="M230 50l80 80v85l-75-92-5-73z" clip-rule="evenodd"/><g filter="url(#filter0_d)"><path fill="#FADC86" fill-rule="evenodd" d="M230 50l80 80h-60c-11.046 0-20-8.954-20-20V50z" clip-rule="evenodd"/></g><path fill="#fff" fill-rule="evenodd" d="M155 188c-5.523 0-10 4.477-10 10v90c0 5.523 4.477 10 10 10h90c5.523 0 10-4.477 10-10v-90c0-5.523-4.477-10-10-10h-90zm86 31h-82v48h82v-48z" clip-rule="evenodd"/></g><defs><filter id="filter0_d" width="90" height="90" x="225" y="45" color-interpolation-filters="sRGB" filterUnits="userSpaceOnUse"><feFlood flood-opacity="0" result="BackgroundImageFix"/><feColorMatrix in="SourceAlpha" values="0 0 0 0 0 0 0 0 0 0 0 0 0 0 0 0 0 0 127 0"/><feOffset/><feGaussianBlur stdDeviation="2.5"/><feColorMatrix values="0 0 0 0 0 0 0 0 0 0 0 0 0 0 0 0 0 0 0.144503 0"/><feBlend in2="BackgroundImageFix" result="effect1_dropShadow"/><feBlend in="SourceGraphic" in2="effect1_dropShadow" result="shape"/></filter><linearGradient id="paint0_linear" x1="336.966" x2="251.74" y1="149.437" y2="105.283" gradientUnits="userSpaceOnUse"><stop stop-color="#F4B70A"/><stop offset="1" stop-color="#EBA216"/></linearGradient></defs></svg>