<svg width="172" height="71" fill="none" xmlns="http://www.w3.org/2000/svg"><g clip-path="url(#a)"><path d="M22.4 44.15v-2.808h1.347V29.574H22.4l.007-2.834 9.855-.024s.434.005.845.234c.356.199.526.393.745.777.22.382.237.78.237.78l.002 13.717c-.003 1.044-.885 1.922-1.874 1.928l-9.817-.002zm8.484-2.808c-.007-3.771 0-7.705 0-11.768l-3.898.025c-.004 4.038-.004 8.488-.004 11.743h3.902zm5.102 0h1.257V29.574h-1.257v-2.862l11.73.028.013 2.607.014 2.608h-3.178l-.002-2.381h-4.049v4.066l5.216-.004v2.812c-2.327 0-1.678.005-5.23.005l.014 4.89 4.05-.001v-3.236h3.178v6.044H35.987v-2.808zm13.355 2.808v-2.808h1.553V29.574c-1.551-.002-1.553 0-1.553 0v-2.862s7.096.006 10.157.007c1.239 0 1.92.982 1.94 1.919l-.046 2.128c.014 2.269.035 2.1.035 2.433 0 .916-.648 1.582-1.165 1.786-.454.18-1.005.15-.54.15.577 0 1.697.658 1.697 1.906l.01 4.301h1.326l-.003 2.782-5.956.026v-2.808h1.227v-4.899c-1.227 0-2.643.009-3.944 0v4.899h1.261v2.808h-5.999zm8.686-10.519.04-4.081c-2.727.024-2.727.024-3.988.024 0 0-.059 3.975 0 4.063 1.261 0 2.96.054 3.948-.006zM70.742 44.15c-1.217 0-1.917-1.11-1.917-1.915 0-1.473.005-4.145.005-4.145l3.178-.005c-.004-.019.032 3.257.032 3.257h3.843c-.022 0-.022-3.255-.022-4.899H68.83l.001-7.818c-.003-1.159 1.072-1.9 1.909-1.906 2.305-.017 6.56 0 6.56 0 1.154-.003 1.93.928 1.932 1.927l-.01 3.281h-3.361l.022-2.352c-1.28-.003-3.843-.001-3.843-.001s-.03 3.943.076 4.032l7.106.031c.009 2.886.004 5.72-.002 8.595 0 1.163-1.035 1.931-1.962 1.931-.561 0-1.832-.014-3.224-.014l-3.292.001zm10.242-2.808h1.319v-5.87l-.013-5.897-1.306-.001.009-2.864 9.975.003c1.008 0 1.912.807 1.912 1.933v5.868c0 1.101-.896 1.92-1.949 1.92l-.906-.013c-4.713.022-3.13.022-4.346.022v4.899h1.217v2.808h-5.912v-2.808zm8.629-7.705v-4.063h-3.934c.027.013 0 2.353 0 4.063 0 0 3.875.037 3.934 0zm4.081 7.705h1.25V29.575l-1.25-.001.007-2.861h5.768v2.86h-1.25v11.769h1.25l.003 2.808h-5.778v-2.808zm7.31 0h1.195l-.012-11.768h-1.183v-2.862h11.733v5.215h-3.161v-2.353h-4.042c-.005 0-.005 2.353-.005 4.063h5.229v2.806h-5.229v4.899h4.047l.009-3.238 3.15.029v5.99l-11.729.028-.002-2.809zm15.398 2.819c-1.497 0-2.012-1.297-2.012-1.933 0-.632.01 1.096.026-6.906l.014-6.795c0-.742.718-1.787 1.882-1.787 2.32 0 4.565-.021 6.661-.021 1.054 0 1.867.92 1.867 1.949l-.001 3.288-3.403-.029v-2.353h-3.829l-.01 11.768h3.839c.013-1.633.006-3.266 0-4.899h-2.641v-2.806h6.039V44.15l-4.461-.003c-1.636 0-2.473.014-3.971.014zm10.185-.01v-2.809h1.208V29.574h-1.208v-2.862l11.749.001-.015 5.214h-3.166v-2.353h-3.972v4.063l5.141.03-.017 2.776h-5.124v4.899h3.972l.004-3.236h3.177v6.044h-11.749zm13.602-2.779 1.326-.03V29.574h-1.333l.007-2.861h6.033v2.86h-1.402v11.769h3.971v-3.255h3.166v6.063h-11.775l.007-2.778z" fill="#fff"/></g><defs><clipPath id="a"><path fill="#fff" transform="translate(0 .56)" d="M0 0h172v70H0z"/></clipPath></defs></svg>