<svg xmlns="http://www.w3.org/2000/svg" width="400" height="400" fill="none" viewBox="0 0 400 400"><linearGradient id="a" x1="59.77" x2="341.688" y1="305.572" y2="305.572" gradientUnits="userSpaceOnUse"><stop offset="0" stop-opacity=".1"/><stop offset="1" stop-opacity=".2"/></linearGradient><path fill="#e3e3e3" d="M323.889 305.549H75.984c-9.612 0-17.707-7.842-17.707-17.709V108.722c0-9.614 7.842-17.71 17.707-17.71H323.89c9.613 0 17.708 7.843 17.708 17.71V287.84c0 9.867-7.842 17.709-17.708 17.709z"/><path fill="#231f20" d="M93.692 305.549l105.992-85.258.759-4.554-109.28-78.68-.254 164.697z" opacity=".1"/><path fill="#d54b3d" d="M75.984 305.549c-9.865 0-17.707-7.843-17.707-17.71V108.468c0-9.867 7.842-11.637 17.707-11.637s17.708 2.023 17.708 11.637v197.081z"/><path fill="#d72b27" fill-rule="evenodd" d="M58.277 108.468c0-9.614 7.842-11.637 17.707-11.637s17.708 1.77 17.708 11.637v197.081H75.984c-9.865 0-17.707-7.843-17.707-17.71zm32.885 0c0-5.313-2.53-9.107-15.178-9.107-12.648 0-15.178 3.541-15.178 9.107v179.371c0 8.349 6.83 15.18 15.178 15.18h15.178z" clip-rule="evenodd"/><path fill="#d54b3d" d="M323.889 305.549h-17.707V107.962c0-9.867 7.842-11.131 17.707-11.131 9.866 0 17.708 1.264 17.708 11.131v180.13c0 9.614-7.842 17.457-17.708 17.457z"/><path fill="#d72b27" fill-rule="evenodd" d="M306.182 107.962c0-9.867 7.842-11.131 17.707-11.131 9.866 0 17.708 1.265 17.708 11.131v180.13c0 9.867-7.842 17.71-17.708 17.71h-17.707zm32.885 0c0-6.325-3.794-8.601-15.178-8.601-11.383 0-15.178 2.023-15.178 8.601v195.31h15.178c8.348 0 15.178-6.831 15.178-15.18z" clip-rule="evenodd"/><path fill="url(#a)" d="M248 305.549L59.759 115.825l9.901 4.028 131.036 94.366 140.901-103.331v177.204c0 9.614-7.842 17.457-17.708 17.457z"/><path fill="#d54b3d" d="M199.684 220.291L65.866 123.142c-7.842-5.819-10.119-16.951-4.3-24.793 5.817-7.843 17.2-9.614 25.296-3.795l113.075 82.222 113.834-83.234c7.842-5.819 18.972-4.048 24.79 4.048 5.818 7.842 4.048 18.974-4.047 24.793z"/><path fill="#d72b27" fill-rule="evenodd" d="M313.518 93.289c3.035-2.277 6.83-3.289 10.371-3.289 5.566 0 10.878 2.53 14.419 7.59 5.566 8.095 3.795 18.974-4.047 24.793l-134.577 98.161-133.818-97.402c-7.842-5.819-10.119-16.951-4.554-24.793 3.542-4.807 9.107-7.337 14.672-7.337 3.795 0 7.59 1.012 10.625 3.289l113.075 82.222zm22.767 5.566c-3.036-4.048-7.589-6.325-12.396-6.325-3.288 0-6.324 1.012-9.106 2.783l-113.581 83.234-1.518 1.012-1.518-1.012-112.822-81.97c-2.53-2.023-5.818-3.035-9.107-3.035-5.059 0-9.865 2.53-12.648 6.325-4.806 6.577-3.036 16.191 3.794 21.251l132.301 96.137 133.312-97.149c6.577-5.06 8.095-14.421 3.289-21.251z" clip-rule="evenodd"/></svg>