<svg xmlns="http://www.w3.org/2000/svg" width="344" height="140" fill="none" viewBox="0 0 344 140"><path fill="#0066B1" d="M279.956 52.208v17.788h-17.787c0-9.83 7.957-17.788 17.787-17.788Zm17.789 17.788c0 9.83-7.957 17.788-17.788 17.788l-.001-17.788h17.789Z"/><path fill="#6F6F6F" d="M308.018 69.996c0 15.489-12.556 28.045-28.045 28.045-15.489 0-28.045-12.556-28.045-28.045 0-15.489 12.556-28.045 28.045-28.045 15.489 0 28.045 12.556 28.045 28.045ZM279.973 40c-16.566 0-29.996 13.43-29.996 29.996s13.43 29.996 29.996 29.996 29.996-13.43 29.996-29.996S296.539 40 279.973 40Z"/><path fill="#6F6F6F" d="M279.974 86.808c-9.27 0-16.812-7.542-16.812-16.812h-.975c0 9.824 7.964 17.788 17.787 17.788v-.976Zm0-34.6v.975c9.271 0 16.813 7.542 16.813 16.813h.975c0-9.824-7.964-17.788-17.788-17.788Z"/><path fill="#6F6F6F" d="M294.51 57.27c.407.438.994 1.144 1.324 1.572l6.074-3.856c-.303-.397-.786-1-1.148-1.425l-3.846 2.544 1.632-3.45-1.2-1.2-3.391 1.698 2.487-3.913c-.448-.38-.878-.73-1.427-1.154l-3.857 6.07c.489.376 1.132.928 1.542 1.303l3.63-1.883-1.82 3.694Zm-13.781-7.69 1.66-3.718.25 4.982c.582.056 1.183.136 1.777.234l-.27-7.358a36.79 36.79 0 0 0-2.481-.192l-1.634 4.058-1.75-4.058c-.825.035-1.65.1-2.48.192l-.27 7.358a26.108 26.108 0 0 1 1.777-.234l.174-4.967 1.735 3.702h1.512Zm-18.158 6.585s1.972-2.084 2.615-2.751c.255-.265.419-.425.596-.512.227-.112.475-.134.698.015.218.145.32.399.264.648-.066.298-.308.582-.51.799l-2.613 2.797-1.05-.996Zm-2.029-1.925c1.044-1.277 2.154-2.435 2.657-2.894.159-.145.332-.288.541-.346.341-.094.692.148.772.497.079.351-.142.684-.386.96-.552.621-2.576 2.74-2.576 2.74l-1.008-.957Zm6.763 1.202c.958-1.01 1.503-2.178.542-3.293-.522-.606-1.398-.738-2.126-.439.108-.287.128-1.238-.654-1.872-.381-.309-.858-.423-1.342-.374-.901.092-1.595.707-3.483 2.813a45.656 45.656 0 0 0-1.896 2.286l5.183 4.917c1.722-1.904 2.422-2.611 3.776-4.038ZM120.742 40.008l-4.017 19.2-4.549-19.2h-5.689l-4.706 19.2-3.913-19.2h-6l6.103 26.61h6.292l4.946-18.785 4.69 18.784h6.239l6.465-26.609h-5.861Zm-39.026.02-6.412 19.767-6.499-19.767H61.1v26.61h5.413v-18.96l6.309 18.958h4.706l6.274-18.958v18.958h5.447v-26.61h-7.533ZM47.498 66.637c7.32 0 10.98-2.666 10.98-7.996 0-2.965-1.425-5.016-4.275-6.153 2.286-1.102 3.43-3.004 3.43-5.705 0-2.366-.936-4.142-2.81-5.324-1.493-.954-3.522-1.431-6.084-1.431h-12.79v26.61h11.549Zm-5.895-11.65h5.999c1.585 0 2.769.201 3.55.603 1.022.529 1.534 1.51 1.534 2.947 0 1.196-.322 2.063-.965 2.603-.782.654-2.155.981-4.119.981h-5.999v-7.135Zm0-10.443h6.067c1.184 0 2.086.137 2.706.413 1.023.448 1.535 1.298 1.535 2.55 0 1.035-.334 1.793-1 2.274-.644.484-1.724.726-3.241.726h-6.067v-5.963Zm71.559 44.444c0 3.355.885 5.99 2.655 7.91 1.907 2.068 4.752 3.102 8.532 3.102 3.676 0 6.459-.955 8.343-2.862 1.931-1.94 2.895-4.658 2.895-8.15V72.754h-5.757v16.613c0 3.904-1.81 5.858-5.43 5.858-3.653 0-5.482-1.953-5.482-5.858V72.754h-5.756v16.234ZM88.582 75.84c-2.276 2.456-3.414 5.876-3.414 10.251 0 4.78 1.363 8.394 4.086 10.841 2.263 2.046 5.222 3.068 8.877 3.068 4.068 0 7.252-1.242 9.55-3.723 2.287-2.458 3.431-5.852 3.431-10.186 0-4.353-1.144-7.771-3.431-10.251-2.288-2.484-5.435-3.725-9.446-3.725-4.137 0-7.356 1.241-9.653 3.725Zm14.542 3.565c1.242 1.632 1.862 3.856 1.862 6.671 0 3.077-.747 5.439-2.241 7.083-1.24 1.379-2.867 2.066-4.878 2.066-2.253 0-4.011-.839-5.276-2.514-1.218-1.62-1.827-3.833-1.827-6.635 0-2.815.61-5.039 1.827-6.67 1.277-1.69 3.011-2.534 5.207-2.534 2.262 0 4.039.844 5.326 2.533ZM67.849 99.364V88.987h5.723l4.842 10.376h6.447L79.156 88.04c3.125-1.448 4.688-3.826 4.688-7.136 0-2.32-.597-4.158-1.791-5.513-1.53-1.758-3.92-2.637-7.172-2.637H62.117v26.61h5.732Zm-.132-22.096h5.55c1.528 0 2.665.27 3.412.81.758.552 1.138 1.46 1.138 2.723 0 2.47-1.517 3.706-4.55 3.706h-5.55v-7.239ZM56.77 75.425c-1.906-2.206-4.848-3.31-8.824-3.31-4.069 0-7.251 1.276-9.55 3.827C36.132 78.446 35 81.904 35 86.317c0 4.895 1.363 8.54 4.085 10.943 2.058 1.827 4.719 2.74 7.982 2.74 3.55 0 6.222-1.109 8.014-3.327l.604 2.69h3.672v-14.08H49.48v4.17h4.275v1.223c0 1.369-.58 2.483-1.742 3.344-1.102.805-2.504 1.205-4.205 1.205-2.218 0-3.924-.756-5.12-2.275-1.218-1.526-1.827-3.733-1.827-6.617 0-2.964.58-5.267 1.741-6.91 1.207-1.7 2.919-2.55 5.137-2.55 3.09 0 5.142 1.612 6.154 4.843l5.395-1.311c-.574-2.057-1.414-3.717-2.517-4.98Zm87.355 23.925v-9.602h6.101c2.908 0 5.241-.752 6.999-2.257 1.839-1.574 2.758-3.682 2.758-6.325 0-2.608-.799-4.67-2.396-6.187-1.598-1.493-3.817-2.24-6.654-2.24h-12.498v26.61h5.69Zm0-22.097h5.583c1.357 0 2.425.341 3.207 1.018.781.676 1.172 1.637 1.172 2.876 0 1.254-.424 2.26-1.276 3.018-.815.71-1.873 1.067-3.171 1.067h-5.515v-7.979Z"/></svg>