<svg xmlns="http://www.w3.org/2000/svg" width="344" height="140" fill="none" viewBox="0 0 344 140"><clipPath id="a"><path d="M65.135 49h215.73v42.105H65.135z"/></clipPath><g fill-rule="evenodd" clip-path="url(#a)" clip-rule="evenodd"><path fill="#002f54" d="M139.104 70.134c1.138-1.3 1.788-3.089 1.788-5.202 0-5.365-4.552-9.104-10.404-9.104h-11.055v30.726h14.469c5.852 0 10.404-3.74 10.404-9.104 0-3.577-2.113-6.178-5.202-7.316zm-11.867-7.478h2.926c1.951 0 3.089 1.138 3.089 2.764s-1.138 2.763-3.089 2.763h-2.926zm6.177 17.232h-6.177v-5.364h6.177c1.788 0 3.089.812 3.089 2.763 0 1.951-1.301 2.601-3.089 2.601zm14.794-28.287h7.966v34.953h-7.966zm13.168 11.705h7.966v23.248h-7.966zm3.902-13.005c-2.764 0-4.877 2.113-4.877 4.714s2.113 4.715 4.877 4.715 4.877-2.114 4.877-4.715c.162-2.6-2.113-4.714-4.877-4.714zm23.247 12.518c-2.763 0-5.039.975-6.503 2.438v-1.95h-7.315v23.247h7.966V73.386c0-2.114 1.463-3.414 3.414-3.414s3.414 1.3 3.414 3.414v13.168h7.966V72.248c-.163-5.69-3.577-9.43-8.942-9.43zm38.367.487h-9.267l-7.153 9.43V51.6h-8.128v34.953h8.128V74.36l8.291 12.193h8.779l-8.616-12.843zm3.251 0h7.966v23.248h-7.966zm3.902-13.005c-2.764 0-4.877 2.113-4.877 4.714s2.113 4.715 4.877 4.715c2.763 0 4.877-2.114 4.877-4.715s-2.114-4.714-4.877-4.714zm19.996 21.784-2.276-.975c-1.138-.488-1.626-.65-1.626-1.3s.65-.814 1.626-.814c1.788 0 3.414.65 4.877 1.951l3.739-4.877c-2.276-2.438-5.365-3.414-8.779-3.414-5.365 0-9.104 2.764-9.104 7.316 0 3.901 2.439 5.69 6.828 7.478l2.601 1.138c.813.325 1.301.65 1.301 1.138 0 .813-.975.975-2.113.975-2.276 0-4.552-.975-6.503-2.926l-3.739 4.715c2.113 2.926 5.852 4.389 10.079 4.389 5.527 0 9.592-2.764 9.592-7.803.325-3.577-2.276-5.365-6.503-6.99zm23.897 7.803c-2.926 0-4.064-.812-4.064-3.088v-6.828h6.178v-6.666h-6.178V57.78h-7.966v5.527h-3.576v6.666h3.576v7.64c0 6.34 3.739 9.43 10.242 9.43 1.788 0 3.414-.163 4.715-.488v-6.666z"/><path fill="#2cde80" d="m96.674 49-9.592 9.754L77.49 49c-7.315 3.576-12.355 11.217-12.355 19.996 0 12.193 9.754 22.272 21.947 22.272 12.03 0 21.947-9.917 21.947-22.272 0-8.779-5.04-16.42-12.355-19.996z"/><path fill="#002f54" d="m92.934 64.606-5.69-5.852-5.852 5.852c-3.251 3.252-3.251 8.617 0 11.868s8.454 3.251 11.705 0c3.089-3.251 3.089-8.616-.162-11.868z"/></g></svg>