<svg width="172" height="71" fill="none" xmlns="http://www.w3.org/2000/svg"><path d="M139.978 26.665v8.893h-8.894a8.89 8.89 0 0 1 8.894-8.893zM148.872 35.558a8.89 8.89 0 0 1-8.894 8.894v-8.894h8.894z" fill="#fff"/><path d="M154.009 35.559c0 7.744-6.278 14.022-14.023 14.022-7.744 0-14.022-6.278-14.022-14.023 0-7.744 6.278-14.022 14.022-14.022 7.745 0 14.023 6.278 14.023 14.023zM139.986 20.56c-8.283 0-14.998 6.714-14.998 14.998 0 8.283 6.715 14.997 14.998 14.997s14.998-6.714 14.998-14.997c0-8.284-6.715-14.998-14.998-14.998z" fill="#fff"/><path d="M139.987 43.965c-4.635 0-8.406-3.771-8.406-8.407h-.488a8.894 8.894 0 0 0 8.894 8.894v-.487zm0-17.3v.487c4.635 0 8.406 3.771 8.406 8.407h.488a8.894 8.894 0 0 0-8.894-8.894z" fill="#fff"/><path d="M147.255 29.196c.203.219.497.571.662.785l3.037-1.928c-.152-.198-.393-.5-.574-.712l-1.923 1.272.816-1.725-.6-.6-1.696.85 1.244-1.957c-.224-.19-.439-.366-.714-.577l-1.928 3.034c.244.189.566.464.771.652l1.815-.941-.91 1.847zM140.364 25.35l.83-1.858.125 2.49c.291.028.592.069.889.118l-.135-3.68a18.475 18.475 0 0 0-1.241-.095l-.817 2.029-.875-2.03c-.412.018-.825.051-1.24.097l-.135 3.679c.297-.05.597-.09.888-.117l.088-2.484.867 1.851h.756zM131.285 28.643s.986-1.042 1.307-1.376c.128-.132.21-.212.299-.255.113-.056.237-.067.349.007.109.073.16.2.132.324-.033.149-.154.291-.255.4l-1.307 1.398-.525-.498zm-1.014-.962a16.199 16.199 0 0 1 1.328-1.448.697.697 0 0 1 .271-.173c.17-.047.346.075.385.25.04.175-.07.34-.192.479-.276.31-1.288 1.37-1.288 1.37l-.504-.478zm3.381.6c.479-.505.752-1.089.271-1.646-.261-.303-.699-.37-1.063-.22.054-.143.064-.618-.327-.935a.903.903 0 0 0-.671-.187c-.45.045-.797.353-1.741 1.406-.285.317-.699.818-.948 1.143l2.591 2.459c.861-.952 1.211-1.306 1.888-2.02zM60.37 20.564l-2.007 9.6-2.275-9.6h-2.845l-2.352 9.6-1.957-9.6h-3l3.051 13.305h3.146l2.474-9.392 2.345 9.392h3.12l3.232-13.305H60.37zM40.858 20.574l-3.206 9.884-3.25-9.884H30.55V33.88h2.707v-9.48l3.154 9.48h2.353l3.137-9.48v9.48h2.724V20.574h-3.767zM23.749 33.879c3.66 0 5.49-1.333 5.49-3.998 0-1.483-.712-2.508-2.137-3.077 1.143-.55 1.714-1.502 1.714-2.852 0-1.183-.467-2.071-1.404-2.662-.747-.477-1.761-.716-3.043-.716h-6.395V33.88h5.775zm-2.947-5.825H23.8c.792 0 1.384.1 1.775.301.511.265.767.756.767 1.474 0 .598-.161 1.031-.483 1.301-.39.327-1.077.491-2.059.491h-3v-3.567zm0-5.222h3.033c.592 0 1.043.069 1.353.207.512.224.768.649.768 1.275 0 .517-.167.896-.5 1.137-.322.242-.863.363-1.621.363h-3.034v-2.982zM56.581 45.054c0 1.678.442 2.996 1.327 3.955.954 1.034 2.376 1.551 4.267 1.551 1.838 0 3.229-.477 4.171-1.43.965-.97 1.447-2.33 1.447-4.076v-8.117h-2.878v8.307c0 1.952-.905 2.929-2.715 2.929-1.826 0-2.74-.977-2.74-2.93v-8.306H56.58v8.117zM44.29 38.48c-1.137 1.228-1.706 2.938-1.706 5.126 0 2.39.681 4.197 2.043 5.42 1.132 1.023 2.611 1.534 4.439 1.534 2.033 0 3.625-.62 4.775-1.861 1.143-1.23 1.715-2.926 1.715-5.093 0-2.177-.572-3.886-1.715-5.126-1.144-1.242-2.718-1.862-4.724-1.862-2.068 0-3.677.62-4.826 1.862zm7.272 1.783c.621.816.93 1.928.93 3.335 0 1.539-.372 2.72-1.12 3.542-.62.69-1.433 1.033-2.439 1.033-1.126 0-2.005-.42-2.637-1.257-.61-.81-.914-1.917-.914-3.318 0-1.407.305-2.52.914-3.335.638-.845 1.505-1.267 2.603-1.267 1.131 0 2.02.422 2.663 1.267zM33.925 50.242v-5.188h2.86l2.422 5.188h3.224l-2.853-5.662c1.563-.724 2.344-1.913 2.344-3.567 0-1.16-.298-2.08-.896-2.758-.765-.878-1.96-1.318-3.585-1.318h-6.382v13.305h2.866zm-.067-11.048h2.775c.764 0 1.333.135 1.707.405.379.276.568.73.568 1.362 0 1.235-.758 1.853-2.275 1.853h-2.775v-3.62zM28.386 38.273c-.954-1.103-2.425-1.655-4.413-1.655-2.034 0-3.625.638-4.775 1.913-1.132 1.252-1.698 2.981-1.698 5.188 0 2.447.681 4.27 2.043 5.471 1.029.914 2.359 1.37 3.99 1.37 1.776 0 3.111-.554 4.008-1.663l.302 1.345h1.835v-7.04H24.74v2.085h2.138v.611c0 .685-.29 1.242-.871 1.672-.552.403-1.253.603-2.103.603-1.109 0-1.962-.378-2.56-1.138-.609-.762-.913-1.866-.913-3.308 0-1.482.29-2.634.87-3.455.603-.85 1.46-1.276 2.568-1.276 1.546 0 2.572.807 3.078 2.422l2.697-.655c-.287-1.029-.707-1.859-1.258-2.49zM72.063 50.235v-4.8h3.05c1.454 0 2.62-.377 3.5-1.13.919-.786 1.378-1.84 1.378-3.162 0-1.304-.4-2.335-1.198-3.093-.798-.747-1.908-1.12-3.326-1.12h-6.25v13.305h2.846zm0-11.048h2.791c.679 0 1.213.17 1.603.509.391.338.587.818.587 1.438 0 .627-.213 1.13-.638 1.509-.408.355-.937.533-1.586.533h-2.757v-3.99z" fill="#fff"/></svg>