<svg xmlns="http://www.w3.org/2000/svg" width="344" height="140" fill="none" viewBox="0 0 344 140"><clipPath id="a"><path d="M57.587 39h229.826v62.51H57.587z"/></clipPath><g clip-path="url(#a)"><path fill="#ae001d" d="M57.999 101.099h93.928V39.411H57.999z"/><path fill="#fff" d="M80.2 55.327c-7.5 0-11.133 3.266-11.133 8.446 0 4.684 2.535 7.467 6.942 8.6l3.368.862c2.775.724 3.96 1.54 3.96 3.265 0 2.549-1.731 3.009-5.914 3.009-1.907 0-5.228-.28-6.363-.373-1.184-.087-1.504.058-1.684 1.054l-.54 3.497c-.094.685.23.953.822 1.041 1.316.18 4.632.411 7.855.411 7.23 0 12.509-2.363 12.509-9.088 0-3.958-1.74-6.914-7.74-8.46l-3.355-.86c-2.27-.586-3.316-1.318-3.316-2.996 0-2.367 2.178-2.816 4.268-2.816 2.822 0 5.677.233 6.813.322 1.185.088 1.502-.056 1.684-1.054l.553-3.407c.09-.68-.234-.951-.823-1.041-1.32-.184-4.225-.412-7.906-.412zm14.887.309c-.911 0-1.183.323-1.183 1.234v26.778c0 .905.272 1.222 1.183 1.222h4.178c.91 0 1.183-.317 1.183-1.222v-22.6h4.319c2.727 0 4.037 1 4.037 3.548 0 2.317-1.035 3.044-2.083 3.497-1.316.547-1.777-.042-2.185 1.684l-.45 1.915c-.138.544-.193.807-.193.99 0 .453.143.817.463 1.363l5.412 9.732c.456.772.813 1.093 1.903 1.093h4.962c.634 0 1.411-.41.681-1.543l-6.646-11.005c2.229-1.41 4.731-3.406 4.731-7.816 0-5.682-3.179-8.87-10.182-8.87zm27.562 0c-.909 0-1.182.323-1.182 1.234v26.778c0 .906.273 1.222 1.182 1.222h4.191c.907 0 1.17-.316 1.17-1.222V73.094h10.825c.908 0 1.182-.315 1.182-1.222v-3.188c0-.91-.274-1.221-1.182-1.221H128.01v-6.184h11.917c.91 0 1.183-.324 1.183-1.234V56.87c0-.911-.273-1.234-1.183-1.234z"/><path fill="#58585a" d="M180.654 55.648v13.138h1.607v-7.238a1.89 1.89 0 0 0 .258-.128 5.028 5.028 0 0 1 1.259-.424c.292-.061.616-.09.952-.09.655 0 1.086.154 1.311.475.225.323.334.754.334 1.311v6.094h1.607V62.19c0-.967-.244-1.679-.745-2.121-.499-.438-1.22-.656-2.147-.656a5.99 5.99 0 0 0-1.929.309c-.249.083-.447.159-.604.231s-.258.13-.296.154v-4.46zm90.106 0v4.075a1.685 1.685 0 0 0-.219-.065 7.815 7.815 0 0 0-.475-.102 7.223 7.223 0 0 0-.63-.103 7.042 7.042 0 0 0-.72-.039c-1.38 0-2.404.393-3.086 1.17-.681.782-1.028 1.996-1.028 3.664 0 1.655.331 2.873.99 3.625.659.756 1.596 1.131 2.815 1.131.339 0 .654-.04.939-.115a5.89 5.89 0 0 0 .758-.245c.215-.086.39-.176.527-.27.138-.086.232-.158.283-.192l.141.604h1.325V55.647zm-57.311.514v1.825h1.8v-1.825zm61.45 0v1.825h1.787v-1.825zm-108 .154c-1.45 0-2.504.304-3.163.926-.658.622-.989 1.483-.989 2.558 0 .965.235 1.718.707 2.275.47.556 1.165.941 2.069 1.144l1.389.322c.35.072.65.157.913.257.26.093.481.224.655.373.176.154.302.342.386.565.085.225.128.498.128.836 0 .385-.049.707-.154.964a1.288 1.288 0 0 1-.488.63c-.231.16-.533.274-.9.334-.369.063-.832.09-1.376.09-.255 0-.543-.017-.887-.051a35.51 35.51 0 0 1-1.003-.129c-.321-.04-.607-.079-.861-.128a6.874 6.874 0 0 1-.501-.116l-.27 1.401c.023.01.136.04.334.09.2.05.461.096.797.155.339.064.738.123 1.196.167.46.049.96.077 1.504.077.654 0 1.249-.076 1.787-.206.536-.134 1-.333 1.375-.617.374-.282.655-.653.862-1.105.206-.454.308-1.008.308-1.659 0-.908-.22-1.649-.656-2.224-.434-.572-1.188-.983-2.275-1.234l-1.543-.347c-.59-.134-1.054-.337-1.375-.617-.318-.279-.476-.738-.476-1.363 0-.4.063-.715.193-.964a1.4 1.4 0 0 1 .527-.578c.223-.137.483-.234.784-.283.3-.051.627-.077.977-.077.351 0 .704.013 1.054.05.351.039.668.079.952.117.283.046.529.089.732.128l.399.09.244-1.362c-.072-.025-.225-.062-.437-.116a9.987 9.987 0 0 0-.771-.167c-.3-.054-.631-.097-1.003-.142a11.459 11.459 0 0 0-1.144-.064zm78.805.27v12.2h1.684V58h2.134c.918 0 1.554.156 1.903.463.349.311.527.812.527 1.53 0 .432-.072.782-.231 1.041a1.62 1.62 0 0 1-.669.617 3.39 3.39 0 0 1-1.067.321c-.419.058-.88.102-1.401.142l-.27 1.195 4.126 5.477h2.083l-4.268-5.605c.413-.06.815-.154 1.221-.283a3.61 3.61 0 0 0 1.093-.54 2.61 2.61 0 0 0 .797-.938c.198-.387.296-.873.296-1.466 0-1.05-.29-1.872-.862-2.468-.576-.6-1.523-.9-2.854-.9zm-38.13 2.828c-1.314 0-2.307.385-2.969 1.157-.666.764-.99 1.97-.99 3.638 0 .884.083 1.634.257 2.237.175.608.432 1.1.784 1.479.349.382.785.652 1.311.822.528.167 1.15.257 1.864.257.4 0 .776-.03 1.119-.064.346-.036.653-.073.925-.116s.487-.076.656-.115c.17-.044.286-.078.347-.103l.129-1.401a2.154 2.154 0 0 1-.335.077c-.188.037-.422.071-.681.115a15.39 15.39 0 0 1-.836.103 8.706 8.706 0 0 1-.887.052 6.68 6.68 0 0 1-1.247-.103 2.194 2.194 0 0 1-.925-.411 1.875 1.875 0 0 1-.566-.823c-.134-.35-.219-.82-.257-1.389h6.171v-.99c0-1.597-.33-2.73-.977-3.406-.648-.675-1.611-1.016-2.893-1.016zm22.112 0c-1.321 0-2.301.385-2.97 1.157-.66.764-1.002 1.97-1.002 3.638 0 .884.093 1.634.27 2.237.172.608.431 1.1.784 1.479.349.382.785.652 1.311.822.524.167 1.153.257 1.864.257.4 0 .76-.03 1.106-.064.342-.036.653-.073.925-.116s.498-.076.669-.115c.17-.044.277-.078.334-.103l.129-1.401a2.154 2.154 0 0 1-.335.077c-.185.037-.409.071-.668.115a15.39 15.39 0 0 1-.836.103 8.706 8.706 0 0 1-.887.052 6.83 6.83 0 0 1-1.26-.103 2.145 2.145 0 0 1-.912-.411 1.921 1.921 0 0 1-.579-.823c-.131-.35-.21-.82-.244-1.389h6.158v-.99c0-1.597-.319-2.73-.965-3.406-.647-.675-1.612-1.016-2.892-1.016zm29.594 0a9.77 9.77 0 0 0-1.132.064c-.363.045-.687.096-.977.155a8.5 8.5 0 0 0-.707.167c-.188.059-.312.088-.347.103l-.09 1.337c.049-.009.167-.04.334-.078a7.94 7.94 0 0 1 .618-.128c.247-.05.522-.094.822-.129a8.21 8.21 0 0 1 .926-.064c.474 0 .852.05 1.144.129.292.073.519.19.681.347.164.154.274.347.335.565.06.217.09.455.09.733v.707c-.027 0-.102 0-.245-.025a15.305 15.305 0 0 0-.552-.09 9.322 9.322 0 0 0-.72-.065 9.163 9.163 0 0 0-.759-.038c-1.122 0-1.969.243-2.532.707-.562.465-.836 1.241-.836 2.34 0 .567.074 1.043.244 1.4.167.366.39.647.669.862.275.218.592.381.951.463a5.252 5.252 0 0 0 2.186.026c.311-.068.593-.15.822-.245.228-.088.421-.18.579-.27.157-.088.273-.156.347-.205l.141.604h1.286v-6.48c0-1.038-.282-1.774-.849-2.223-.568-.448-1.38-.669-2.429-.669zm23.603 0c-.643 0-1.212.082-1.723.244a3.034 3.034 0 0 0-1.311.797c-.356.379-.628.873-.81 1.479-.189.611-.283 1.38-.283 2.288 0 .893.094 1.637.283 2.25.182.61.454 1.101.81 1.478.355.372.795.646 1.311.81.511.162 1.08.244 1.723.244.64 0 1.218-.082 1.722-.244a3.08 3.08 0 0 0 1.299-.81c.355-.377.624-.868.81-1.478.19-.613.282-1.357.282-2.25 0-.908-.092-1.677-.282-2.288-.186-.606-.455-1.1-.81-1.478a3.04 3.04 0 0 0-1.299-.798 5.632 5.632 0 0 0-1.722-.244zm-43.504.039c-.265 0-.522.027-.771.103a4.66 4.66 0 0 0-.694.27 3.9 3.9 0 0 0-.54.32c-.158.117-.286.211-.373.297l-.09-.81h-1.324v9.153h1.62V61.6a1.64 1.64 0 0 1 .218-.155c.12-.078.276-.154.463-.231.188-.079.4-.155.643-.219.244-.065.492-.09.771-.09.303 0 .545.008.72.052.174.042.299.076.36.103l.283-1.427a2.482 2.482 0 0 0-.399-.116c-.211-.05-.513-.064-.887-.064zm-62.8.038c-.726 0-1.359.073-1.89.245a2.91 2.91 0 0 0-1.311.835c-.344.377-.602.866-.771 1.466-.171.598-.257 1.317-.257 2.172 0 .86.086 1.59.257 2.186.169.601.427 1.093.771 1.465.346.379.765.641 1.286.81.519.169 1.137.257 1.838.257.749 0 1.295-.04 1.646-.115.35-.07.568-.117.655-.142l.142-1.388c-.025 0-.106.009-.232.038a3.293 3.293 0 0 1-.45.078c-.182.027-.386.05-.604.077a5.553 5.553 0 0 1-.617.038c-.508 0-.957-.04-1.337-.115a1.878 1.878 0 0 1-.938-.45c-.254-.231-.446-.556-.566-.99-.123-.435-.18-1.023-.18-1.749 0-.72.054-1.3.18-1.735.128-.434.303-.767.527-1.003.225-.238.495-.389.81-.463a4.504 4.504 0 0 1 1.041-.103c.264 0 .513.01.759.039.247.031.469.071.655.116.189.042.342.076.463.115.121.045.197.077.232.09l.347-1.324c-.035-.01-.118-.044-.245-.09a4.118 4.118 0 0 0-.501-.154 6.907 6.907 0 0 0-.758-.141 6.287 6.287 0 0 0-.952-.065zm12.766.142 2.867 9.153h1.774l1.98-7.006 1.928 7.006h1.787l2.841-9.153h-1.671l-2.006 7.469-2.044-7.47h-1.62l-2.044 7.316-2.018-7.315zm24.194 0v9.153h1.607v-9.153zm3.703 0v1.298h5.373l-5.566 6.62v1.235h7.469l.206-1.311h-5.785l5.54-6.608-.141-1.234zm57.747 0v9.153h1.607v-9.153zm-67.415 1.105c.4 0 .736.04 1.016.129.275.097.512.245.694.463.18.216.315.508.399.874.082.36.128.81.128 1.337h-4.538c.013-.518.07-.96.167-1.311.099-.358.23-.639.412-.862.18-.226.421-.387.707-.488a3.191 3.191 0 0 1 1.015-.142zm22.112 0c.397 0 .737.04 1.016.129.278.097.499.245.681.463.18.216.313.508.398.874.084.36.129.81.129 1.337h-4.525c.01-.518.067-.96.167-1.311.095-.358.229-.639.411-.862a1.53 1.53 0 0 1 .695-.488c.281-.095.628-.142 1.028-.142zm53.197.052c.419 0 .796.052 1.105.154.318.105.573.289.772.553.198.265.35.616.45 1.054.095.444.141 1.008.141 1.671s-.046 1.214-.141 1.659c-.1.437-.252.782-.45 1.04a1.613 1.613 0 0 1-.772.554c-.309.11-.686.167-1.105.167-.438 0-.796-.057-1.106-.167a1.633 1.633 0 0 1-.758-.553c-.202-.26-.357-.604-.45-1.041-.089-.445-.129-.995-.129-1.659s.04-1.227.129-1.671c.093-.438.248-.789.45-1.054.198-.264.453-.448.758-.553.31-.102.668-.154 1.106-.154zm-14.116.038c.523 0 .976.026 1.363.09.388.07.592.119.63.129v6.016c-.038.025-.099.06-.219.116a5.383 5.383 0 0 1-1.067.334 3.64 3.64 0 0 1-.758.077c-.426 0-.779-.052-1.08-.154a1.603 1.603 0 0 1-.759-.54c-.198-.25-.342-.586-.437-1.015a7.644 7.644 0 0 1-.154-1.633c0-.665.058-1.21.154-1.646.095-.436.239-.788.437-1.054.199-.264.454-.441.772-.553a3.37 3.37 0 0 1 1.118-.167zm-9.847 3.536c.252 0 .497.007.733.025.234.022.441.03.629.052.186.015.348.032.476.051.121.018.192.039.219.039v2.635a1.5 1.5 0 0 1-.245.116c-.127.05-.29.105-.488.167a7.3 7.3 0 0 1-.656.154 4.44 4.44 0 0 1-.745.052c-.292 0-.555-.017-.797-.052a1.737 1.737 0 0 1-.63-.218 1.114 1.114 0 0 1-.412-.476c-.096-.205-.141-.461-.141-.784 0-.702.162-1.178.488-1.414.326-.238.856-.347 1.569-.347zm-70.681 7.366v4.088a1.047 1.047 0 0 0-.231-.077c-.123-.031-.271-.05-.463-.09-.183-.033-.392-.075-.63-.103a5.804 5.804 0 0 0-.72-.039c-1.376 0-2.415.379-3.098 1.157-.68.785-1.016 2.007-1.016 3.677 0 1.652.333 2.855.99 3.613.659.755 1.596 1.13 2.816 1.13.339 0 .653-.032.938-.102.284-.072.525-.154.746-.244.218-.095.399-.193.54-.283.137-.089.222-.146.27-.18l.154.591h1.324V71.73zm60.023 0v13.138h1.607v-7.224c.04-.014.12-.057.257-.13.13-.07.303-.15.515-.23.214-.078.454-.147.745-.206.292-.06.616-.09.952-.09.657 0 1.086.16 1.311.476.224.324.334.773.334 1.324v6.08h1.62v-6.595c0-.963-.259-1.662-.759-2.108-.501-.44-1.219-.655-2.146-.655a6.024 6.024 0 0 0-1.929.308 7.175 7.175 0 0 0-.604.231c-.157.077-.256.119-.296.142V71.73zm-52.026.951v12.187h1.684v-5.617h4.949v-1.466h-4.949V74.16h5.438v-1.48zm-19.104 2.829a4.87 4.87 0 0 0-1.093.115c-.345.079-.655.16-.925.257a4.66 4.66 0 0 0-.682.296c-.182.1-.3.177-.372.218l-.09-.668h-1.325v9.14h1.607v-7.224c.035-.014.123-.057.257-.13.133-.07.303-.15.515-.23a5.31 5.31 0 0 1 .758-.206c.289-.06.599-.09.939-.09.652 0 1.086.16 1.311.476.221.324.334.773.334 1.324v6.08h1.62v-6.595c0-.963-.252-1.662-.746-2.108-.496-.44-1.203-.655-2.108-.655zm31.278 0c-1.315 0-2.304.377-2.97 1.144-.662.768-1.003 1.986-1.003 3.65 0 .884.097 1.625.27 2.225.176.606.436 1.096.785 1.478.352.38.785.667 1.311.836.524.168 1.153.244 1.864.244.397 0 .76-.019 1.106-.052.345-.039.653-.074.925-.115s.498-.086.669-.129a3.67 3.67 0 0 0 .347-.103l.115-1.388c-.031.01-.145.025-.334.064-.185.038-.409.075-.668.116a9.026 9.026 0 0 1-1.723.154c-.47 0-.901-.034-1.26-.103-.364-.077-.667-.203-.913-.398-.249-.203-.431-.488-.565-.836-.135-.355-.226-.808-.257-1.375h6.158v-1.003c0-1.595-.319-2.717-.965-3.394-.647-.677-1.611-1.016-2.892-1.016zm16.879 0c-.386 0-.756.036-1.105.115-.339.079-.654.16-.926.257-.272.1-.499.193-.681.296-.177.1-.303.177-.373.218l-.103-.668h-1.311v9.14h1.607v-7.224c.036-.014.123-.057.257-.13.133-.07.303-.15.514-.23.212-.078.47-.147.759-.206.288-.06.602-.09.938-.09.654 0 1.087.16 1.311.476.225.324.335.773.335 1.324v6.08h1.619v-6.595c0-.963-.252-1.662-.745-2.108-.498-.44-1.189-.655-2.096-.655zm7.971 0c-1.004.054-1.742.3-2.224.732-.551.497-.823 1.143-.823 1.941 0 .76.195 1.358.604 1.787.4.428.942.703 1.607.823l1.067.219c.662.12 1.123.279 1.389.475.265.192.411.517.411.977 0 .53-.181.871-.527 1.029-.343.157-.915.244-1.723.244-.278 0-.559-.017-.861-.039a42.426 42.426 0 0 1-.849-.09c-.265-.029-.484-.052-.681-.077-.192-.024-.325-.04-.386-.051l-.192 1.26c.047.016.157.04.334.077.182.034.412.066.681.116.272.037.59.084.939.115.352.036.734.039 1.144.039 1.145 0 2.041-.212 2.7-.643.658-.44.989-1.15.989-2.134 0-.72-.178-1.298-.527-1.735-.352-.443-.983-.754-1.902-.926l-1.144-.231c-.289-.05-.537-.095-.733-.168a1.212 1.212 0 0 1-.463-.257.882.882 0 0 1-.257-.373 1.524 1.524 0 0 1-.077-.527c0-.252.046-.46.141-.63a.959.959 0 0 1 .412-.372 1.9 1.9 0 0 1 .604-.18c.228-.028.48-.052.758-.052.241 0 .496.02.772.039.281.023.544.05.784.077.244.031.458.057.63.09.177.028.286.062.347.077l.244-1.273c-.051-.011-.164-.049-.334-.09a9.575 9.575 0 0 0-.617-.128 12.57 12.57 0 0 0-.836-.103 9.836 9.836 0 0 0-.951-.039c-.154 0-.307-.007-.45 0zm9.089 0c-1.318 0-2.305.377-2.97 1.144-.665.768-1.003 1.986-1.003 3.65 0 .884.097 1.625.27 2.225.176.606.435 1.096.785 1.478.349.38.785.667 1.311.836.528.168 1.149.244 1.864.244.396 0 .773-.019 1.118-.052.346-.039.641-.074.913-.115s.498-.086.669-.129c.17-.04.289-.081.347-.103l.115-1.388c-.034.01-.136.025-.321.064-.188.038-.419.075-.681.116a9.08 9.08 0 0 1-1.723.154c-.474 0-.898-.034-1.26-.103-.36-.077-.667-.203-.913-.398-.247-.203-.431-.488-.565-.836-.131-.355-.223-.808-.257-1.375h6.157v-1.003c0-1.595-.318-2.717-.964-3.394-.647-.677-1.614-1.016-2.892-1.016zm19.322 0c-1.318 0-2.304.377-2.97 1.144-.665.768-1.003 1.986-1.003 3.65 0 .884.081 1.625.258 2.225.175.606.444 1.096.797 1.478.349.38.782.667 1.311.836.521.168 1.146.244 1.864.244.397 0 .763-.019 1.106-.052.342-.039.653-.074.925-.115s.5-.086.669-.129c.17-.04.273-.081.334-.103l.128-1.388c-.037.01-.149.025-.334.064a17.37 17.37 0 0 1-.668.116c-.259.043-.547.086-.849.116a8.91 8.91 0 0 1-.887.038 6.72 6.72 0 0 1-1.247-.103c-.362-.077-.663-.203-.913-.398-.249-.203-.434-.488-.565-.836-.135-.355-.22-.808-.257-1.375h6.158v-1.003c0-1.595-.324-2.717-.965-3.394-.65-.677-1.614-1.016-2.892-1.016zm10.4 0a4.89 4.89 0 0 0-1.093.115c-.342.079-.653.16-.925.257-.272.1-.503.193-.682.296-.183.1-.312.177-.385.218l-.09-.668h-1.324v9.14h1.619v-7.224c.04-.014.121-.057.258-.13a4.33 4.33 0 0 1 .514-.23c.211-.078.457-.147.745-.206.292-.06.612-.09.952-.09.65 0 1.086.16 1.311.476.224.324.334.773.334 1.324v6.08h1.607v-6.595c0-.963-.252-1.662-.745-2.108-.495-.44-1.19-.655-2.096-.655zm-53.968.025c-.27 0-.526.045-.771.116-.248.077-.47.15-.682.257a3.203 3.203 0 0 0-.552.334 2.5 2.5 0 0 0-.36.296l-.09-.81h-1.337v9.14h1.619v-7.173a2.39 2.39 0 0 1 .219-.154 2.95 2.95 0 0 1 .463-.232 5.71 5.71 0 0 1 .643-.218c.242-.064.505-.103.784-.103.3 0 .535.023.707.064.177.046.29.077.347.103l.296-1.427a2.505 2.505 0 0 0-.399-.116 4.048 4.048 0 0 0-.887-.077zm-55.356.193v6.518c0 1.003.249 1.725.745 2.172.493.448 1.189.669 2.096.669.398 0 .776-.037 1.118-.116a7.19 7.19 0 0 0 .926-.27 4.585 4.585 0 0 0 1.015-.501l.116.668h1.324v-9.14h-1.607v7.225c-.038.026-.126.063-.257.128a5.07 5.07 0 0 1-.514.219 4.97 4.97 0 0 1-.759.218c-.288.061-.601.09-.938.09-.664 0-1.105-.154-1.324-.462-.217-.31-.334-.757-.334-1.337v-6.081zm45.663 1.106c.396 0 .74.038 1.015.128.279.09.516.247.695.463.183.216.315.512.398.874.082.364.116.806.116 1.337h-4.525c.01-.518.07-.955.167-1.311.092-.357.229-.653.411-.874.184-.226.409-.378.694-.476a3.327 3.327 0 0 1 1.029-.141zm33.939 0c.396 0 .737.038 1.015.128.279.09.519.247.695.463.183.216.316.512.398.874.084.364.129.806.129 1.337h-4.538c.009-.518.07-.955.167-1.311.095-.357.232-.653.411-.874.184-.226.409-.378.694-.476a3.327 3.327 0 0 1 1.029-.141zm19.322 0c.396 0 .738.038 1.015.128.282.09.503.247.682.463.183.216.315.512.398.874.082.364.129.806.129 1.337h-4.525c.013-.518.057-.955.154-1.311.098-.357.244-.653.424-.874.182-.226.406-.378.694-.476a3.3 3.3 0 0 1 1.029-.141zm-75.733.09c.102-.007.199 0 .309 0 .518 0 .979.022 1.362.09.392.065.596.102.63.115v6.017a1.223 1.223 0 0 1-.231.128 5.228 5.228 0 0 1-1.067.334 3.51 3.51 0 0 1-.746.065 3.48 3.48 0 0 1-1.092-.154 1.578 1.578 0 0 1-.746-.527c-.198-.256-.355-.6-.45-1.029-.1-.428-.141-.97-.141-1.62 0-.665.041-1.211.141-1.645.095-.435.252-.789.45-1.054a1.63 1.63 0 0 1 .771-.566 3.06 3.06 0 0 1 .81-.154z"/></g></svg>