<svg width="172" height="71" fill="none" xmlns="http://www.w3.org/2000/svg"><path fill-rule="evenodd" clip-rule="evenodd" d="M41.684 49.555c1.521 1.683 3.317 3.082 5.387 4.2 3.159 1.706 6.678 2.574 10.558 2.605 2.883-.03 5.69-.692 8.42-1.984 2.556-1.211 4.725-2.819 6.504-4.821h-2.456c-.025.02-.05.039-.075.056-1.905 1.3-3.9 2.288-5.985 2.966-2.084.679-4.292 1.02-6.62 1.024-2.981-.036-5.615-.767-7.904-2.193a15.433 15.433 0 0 1-2.41-1.853h-5.419zm40.338 0c.13.136.27.265.423.386.967.761 2.13 1.147 3.49 1.157 1.36-.01 2.515-.396 3.47-1.157.15-.12.29-.25.418-.386h-7.8zm45.276 0c.121.145.254.278.398.401.877.754 2.009 1.134 3.396 1.142.962 0 1.837-.236 2.625-.712.368-.222.679-.5.932-.83h-7.351zM36.867 39.35c.398 2.691 1.28 5.13 2.646 7.32a20.17 20.17 0 0 0 2.172 2.885h5.418a15.308 15.308 0 0 1-2.974-3.877c-1.052-1.932-1.687-4.042-1.905-6.328h-5.357zm13.416 0-1.057 2.41a31.53 31.53 0 0 0-.53 1.247 3.87 3.87 0 0 0-.276 1.342c.012.605.21 1.093.594 1.464s.879.563 1.485.573c.796-.035 1.432-.336 1.905-.902a6.758 6.758 0 0 0 1.108-1.857l1.876-4.277h-5.105zm9.328 0-1.09 2.453c-.202.402-.384.816-.547 1.24-.163.425-.25.86-.26 1.306.01.605.202 1.093.572 1.464.372.371.86.563 1.465.573.796-.034 1.432-.327 1.91-.88a6.991 6.991 0 0 0 1.145-1.836l1.93-4.32H59.61zm11.1 0a12.518 12.518 0 0 1-1.411 2.155l1.485 1.274a15.196 15.196 0 0 0 2.718-3.429H70.71zm33.728 11.492h2.928V37.474h-2.928v13.369zm5.527-11.492c.072.292.219.55.442.77.315.317.702.48 1.161.494a1.65 1.65 0 0 0 1.162-.493c.221-.222.368-.478.441-.77h-3.206zM72.553 49.555c.12-.136.238-.272.354-.41l-.848-1.273c-.615.621-1.27 1.18-1.962 1.683h2.456zm17.27 0c.683-.728 1.042-1.685 1.078-2.872-.042-1.409-.54-2.495-1.496-3.257-.955-.763-2.11-1.148-3.47-1.157-1.36.006-2.523.387-3.49 1.141-.967.754-1.473 1.845-1.517 3.273.037 1.187.401 2.144 1.094 2.872h7.801zm6.044 1.288v-4.287c-.01-.525.095-.971.318-1.337.223-.367.626-.557 1.21-.573.576.017.951.205 1.124.567.173.362.252.795.233 1.3v4.33h2.928l.001-5.136c.005-1.051-.248-1.877-.759-2.478-.51-.6-1.304-.905-2.382-.918-.57-.006-1.073.092-1.506.292-.434.2-.809.542-1.125 1.024h-.042v-1.06h-2.929v8.276h2.93zm14.26 0h2.885v-8.277h-2.886l.001 8.276zm8.403 0-.001-4.287c-.01-.525.096-.971.318-1.337.223-.367.627-.557 1.21-.573.538.014.894.188 1.072.52.176.332.257.74.243 1.22v4.456h2.929v-5.135c.004-1.051-.248-1.877-.758-2.478-.511-.6-1.305-.905-2.383-.918-.459.02-.93.172-1.411.451-.481.28-.888.57-1.22.865v-1.06h-2.97l-.001 8.276h2.972zm16.119-1.288c.289-.377.503-.825.644-1.344h-2.802a1.491 1.491 0 0 1-.588.573c-.241.127-.512.19-.811.19-.583 0-1.042-.147-1.38-.445-.338-.297-.5-.742-.488-1.337h6.153c.009-1.505-.348-2.696-1.071-3.575-.724-.879-1.866-1.329-3.427-1.348-1.359.014-2.45.41-3.273 1.189-.823.777-1.246 1.852-1.268 3.225.024 1.194.344 2.15.96 2.872h7.351zm-1.945-4.06h-3.395c.093-.428.299-.761.615-.997a1.846 1.846 0 0 1 1.124-.361c.396.008.751.139 1.066.392.316.253.513.575.59.966zm-44.9 1.188c-.01.561-.183 1.01-.52 1.348-.339.338-.788.51-1.348.52-.562-.01-1.019-.182-1.37-.52-.349-.338-.53-.787-.54-1.348.01-.56.191-1.01.54-1.347.351-.338.808-.511 1.37-.52.56.009 1.01.182 1.347.52.338.337.511.786.52 1.347zm-45.58-7.333c-.052-.545-.08-1.1-.086-1.665-.02-3.33.455-6.402 1.427-9.217.97-2.815 2.562-5.082 4.773-6.803 2.212-1.72 5.166-2.605 8.866-2.654 2.805.016 5.34.608 7.603 1.773 2.265 1.165 4.066 2.808 5.406 4.93 1.34 2.123 2.026 4.627 2.057 7.515-.01 1.451-.277 2.91-.801 4.377-.218.61-.47 1.19-.758 1.744h2.792c.283-.487.547-.993.789-1.522.89-1.939 1.348-3.895 1.374-5.872-.04-3.507-.88-6.509-2.516-9.005-1.635-2.497-3.826-4.41-6.57-5.742-2.744-1.332-5.798-2.004-9.163-2.017-4.051.037-7.634.963-10.748 2.778-3.115 1.815-5.559 4.296-7.335 7.446-1.775 3.149-2.68 6.744-2.712 10.784.012 1.087.094 2.135.245 3.15h5.357zm13.164 0 4.787-10.916c.246-.511.466-1.04.663-1.587a5.225 5.225 0 0 0 .313-1.681c-.01-.605-.2-1.093-.572-1.464-.372-.372-.86-.563-1.465-.573-.707.013-1.265.22-1.67.62-.406.4-.74.916-1.003 1.544L50.282 39.35h5.106zm9.349 0 .744-1.665c.244-.51.465-1.038.662-1.586a5.223 5.223 0 0 0 .313-1.68c-.01-.605-.201-1.094-.573-1.465-.37-.372-.859-.563-1.463-.574-.71.017-1.266.229-1.672.637-.406.408-.74.918-1.003 1.528l-2.134 4.805h5.126zm48.435 0c.031-.124.049-.255.052-.39a1.579 1.579 0 0 0-.493-1.141 1.682 1.682 0 0 0-1.162-.473c-.459.012-.846.17-1.161.473-.316.302-.48.683-.494 1.14.004.136.022.268.052.391h3.206zm14.694-9.6c.009-1.487-.339-2.673-1.045-3.56s-1.83-1.342-3.369-1.364c-1.36.016-2.458.42-3.294 1.21-.836.79-1.265 1.872-1.29 3.246.03 1.427.49 2.51 1.38 3.253.89.741 2.028 1.114 3.416 1.119.96 0 1.82-.234 2.584-.705.762-.472 1.273-1.185 1.533-2.139h-2.716a1.499 1.499 0 0 1-.589.574c-.241.127-.512.19-.812.19-.582-.001-1.041-.158-1.379-.466-.337-.31-.5-.763-.488-1.359h6.069zM107.538 21.6a1.584 1.584 0 0 0-.494-1.14 1.677 1.677 0 0 0-1.161-.473 1.68 1.68 0 0 0-1.163.473c-.316.302-.48.683-.492 1.14.012.459.176.846.492 1.162.316.315.704.48 1.163.493a1.65 1.65 0 0 0 1.161-.494c.316-.316.48-.702.494-1.161zm9.506 8.955c-.046-.968-.369-1.604-.968-1.908a5.968 5.968 0 0 0-1.799-.598c-.599-.093-.922-.304-.967-.635.016-.209.13-.353.339-.435.209-.08.407-.12.594-.117.278 0 .55.032.817.096.266.064.518.16.753.286l.976-1.867a6.433 6.433 0 0 0-2.673-.552c-.934 0-1.773.245-2.515.738-.742.492-1.136 1.236-1.177 2.233.045.923.364 1.524.956 1.803a6.842 6.842 0 0 0 1.778.567c.593.1.912.343.958.728-.014.23-.115.386-.303.472a1.333 1.333 0 0 1-.589.123 3.49 3.49 0 0 1-1.23-.25 4.732 4.732 0 0 1-1.104-.6l-1.061 2.08c.511.3 1.048.529 1.613.69.564.16 1.144.242 1.74.244.996.006 1.879-.24 2.647-.737.768-.499 1.174-1.285 1.215-2.361zm-12.605 2.886h2.928v-8.234h-2.928v8.234zm-2.334-3.693c.004-1.505-.365-2.696-1.108-3.575-.745-.88-1.888-1.329-3.433-1.348-1.36.016-2.45.42-3.273 1.21s-1.246 1.872-1.268 3.246c.028 1.427.481 2.51 1.358 3.253.878.741 2.01 1.114 3.396 1.119a5.15 5.15 0 0 0 2.647-.69c.799-.463 1.332-1.181 1.596-2.154h-2.843c-.151.255-.347.446-.59.574-.24.127-.511.19-.81.19-.583-.001-1.042-.158-1.38-.466-.338-.31-.5-.763-.488-1.359h6.196zm-11.204 3.693v-5.093c.004-1.018-.248-1.847-.753-2.489-.506-.64-1.287-.971-2.345-.992-1.11.007-1.987.46-2.63 1.359h-.044v-6.62h-2.928v13.835h2.928v-4.244c-.008-.51.104-.965.335-1.364.23-.399.628-.61 1.193-.631.575.025.943.24 1.103.647.162.407.232.856.213 1.348v4.244H90.9zm34.376-5.39h-3.395c.094-.426.299-.752.616-.976.316-.225.691-.338 1.124-.34.395.007.75.13 1.066.372.315.24.512.555.589.944zm-25.888 0h-3.395c.094-.426.3-.752.615-.976.317-.225.691-.338 1.125-.34.395.007.75.13 1.066.372.316.24.513.555.59.944z" fill="#fff"/></svg>