<svg xmlns="http://www.w3.org/2000/svg" width="344" height="140" fill="none" viewBox="0 0 344 140"><clipPath id="a"><path d="M28.193 52h288.614v36.296H28.193z"/></clipPath><g fill="#004684" clip-path="url(#a)"><path fill-rule="evenodd" d="M46.336 60.654v19.904h4.172c1.608 0 2.31-.085 3.072-.31 1.297-.395 3.694-1.664 3.694-5.244 0-1.775-.592-2.735-1.128-3.355-.705-.817-1.55-1.157-2.508-1.522.592-.197 2.227-.817 2.904-2.65.28-.761.309-1.55.309-1.834 0-2.48-1.297-4.284-3.749-4.82-.789-.197-1.494-.197-2.283-.169zm2.481 2.058h1.719c.31 0 1.805-.112 2.819.761.902.789.96 2.086.96 2.425 0 1.466-.735 2.763-2.229 3.157-.45.142-.789.17-1.69.17h-1.579zm0 8.6h2.115c.62.028 1.126.028 1.718.224 1.946.705 2.058 2.82 2.058 3.356 0 .224-.028.817-.225 1.409a3.418 3.418 0 0 1-.732 1.157c-.904.901-2.03.957-3.215 1.013h-1.719zm23.04 6.369c-1.662.958-2.678 1.157-3.608 1.157-1.184 0-1.861-.424-2.255-.733-1.608-1.269-1.608-3.75-1.608-4.144l8.317-.028v-.593c0-1.889-.113-3.666-1.127-5.3-.903-1.466-2.313-2.283-4.031-2.283-2.735 0-5.669 2.028-5.669 7.64 0 3.27 1.129 5.017 2.2 5.975 1.1 1.016 2.34 1.44 3.806 1.44 1.552 0 2.961-.452 3.44-.649.17-.084.339-.17.507-.283zm-7.47-5.525c.168-2.17.648-3.327 1.493-4.004a2.696 2.696 0 0 1 1.608-.536c.845 0 1.606.396 2.058 1.128.48.705.649 1.663.733 3.412z" clip-rule="evenodd"/><path d="M77.399 65.983c.056.76.112 1.522.14 2.283.057.987.057 1.973.057 2.961v9.33h2.397V71.96c.028-.536.028-1.072.197-1.578.253-.707.958-1.637 1.662-1.976.34-.169 1.241-.365 1.665-.365.253 0 .31.028.45.084v-2.367c-.818-.028-2.311 0-3.496 1.719a7.64 7.64 0 0 0-.677 1.128c-.028-.873-.028-1.749-.14-2.594zm17.894-.003h-3.044v-3.692l-2.454.702v2.99h-2.31v1.974h2.31v8.541c.028 1.128-.028 2.058.677 3.046.536.705 1.381 1.185 3.186 1.185.79 0 1.27-.171 1.607-.284l.028-1.973c-.62.255-.986.283-1.297.283-.817 0-1.241-.311-1.438-.592-.31-.452-.31-1.354-.31-1.89v-8.316h3.045z"/><path fill-rule="evenodd" d="M109.382 77.681c-1.663.958-2.679 1.157-3.608 1.157-1.185 0-1.862-.424-2.255-.733-1.609-1.269-1.609-3.75-1.609-4.144l8.317-.028v-.593c0-1.889-.113-3.666-1.127-5.3-.903-1.466-2.313-2.283-4.031-2.283-2.735 0-5.668 2.028-5.668 7.64 0 3.27 1.128 5.017 2.2 5.975 1.099 1.016 2.339 1.44 3.805 1.44 1.55 0 2.962-.452 3.439-.649.169-.084.34-.17.508-.283zm-7.472-5.525c.169-2.17.649-3.327 1.494-4.004a2.698 2.698 0 0 1 1.609-.536c.845 0 1.606.396 2.058 1.128.479.705.648 1.663.732 3.412z" clip-rule="evenodd"/><path d="M115.12 80.558h2.424v-21.54h-2.424zm15.097-14.351c-.337-.085-1.662-.452-2.931-.452-2.791 0-3.948 1.636-4.287 2.706-.197.62-.197 1.185-.197 1.41 0 .96.085 2.257 1.89 3.411.536.34.985.564 1.184.649 1.155.536 2.763 1.072 2.763 2.65 0 .79-.536 2.229-2.538 2.229-1.213 0-2.482-.593-2.763-.733-.168-.086-.339-.199-.508-.283l-.225 2.283c1.551.536 2.143.735 3.777.735.227 0 1.072 0 1.805-.227 1.805-.593 2.791-2.34 2.791-4.173 0-1.69-.705-2.678-2.086-3.58-.424-.255-.873-.48-1.297-.704-.986-.48-2.424-1.016-2.424-2.398 0-.676.422-2.001 2.199-2.001 1.014 0 2.536.592 2.622.648zm22.928 4.398c0-1.1-.085-1.466-.227-2.03-.506-1.749-1.944-2.82-3.777-2.82-.958 0-2.086.226-3.299 1.832-.141.17-.281.367-.393.536-.312-.562-.396-.705-.649-1.014-.677-.903-1.552-1.381-2.707-1.381-1.889 0-2.877 1.014-3.891 2.395 0-.705 0-1.437-.028-2.114l-2.17-.028c.028.62.028 1.24.056 1.861v12.716h2.423V71.14c.028-.536.057-.932.255-1.41.253-.734.958-1.411 1.663-1.692.395-.169.705-.169.873-.169.763 0 1.185.31 1.438.536.707.677.735 1.663.763 2.594v9.558h2.395v-9.192c0-.48.028-1.044.141-1.522.198-.677.763-1.438 1.467-1.777.169-.084.535-.225 1.071-.253 2.114 0 2.17 2.142 2.198 2.622v10.122h2.398z"/><path fill-rule="evenodd" d="M168.884 71.168c-.028-.845-.028-1.693-.281-2.538-.649-2.058-2.566-2.903-4.568-2.903-2.114 0-3.496.76-4.229 1.156l.225 2.199c1.578-1.185 2.819-1.41 3.693-1.41 1.889 0 2.51 1.127 2.734 1.89.227.789.171 1.945.171 2.114-.367 0-.705-.028-1.072-.028-3.524 0-5.273.845-6.259 2.283-.704.988-.761 2.002-.761 2.453 0 1.607.733 2.707 1.127 3.128.48.509 1.468 1.298 3.186 1.298 1.749 0 2.962-.874 3.891-2.283 0 .168-.028.337-.028.536 0 .506.085 1.014.085 1.494h2.255c-.057-.536-.085-1.073-.113-1.609-.028-.618-.056-1.21-.056-1.83zm-2.255 3.608c0 .255 0 1.016-.255 1.805a3.686 3.686 0 0 1-.901 1.494c-.621.592-1.298.845-2.171.845-.705 0-1.241-.197-1.721-.705a2.64 2.64 0 0 1-.704-1.803c0-.676.283-1.493.732-2.001.818-.932 2.426-1.27 5.02-1.129z" clip-rule="evenodd"/><path d="M175.074 65.983c.056 1.41.028 2.79.028 4.172v10.403h2.424v-8.542c.058-1.072.086-2.114.735-3.046a2.856 2.856 0 0 1 2.226-1.098c1.606 0 2.058 1.325 2.143 1.803.112.424.112.904.14 1.325v9.558h2.397V70.523c0-.565.057-2.876-1.776-4.117a4.062 4.062 0 0 0-2.227-.648c-2.086 0-3.158 1.41-3.552 2.002-.114.14-.227.309-.339.506 0-.761.028-1.522 0-2.255zm16.302 0c.056 1.41.028 2.79.028 4.172v10.403h2.423v-8.542c.059-1.072.087-2.114.735-3.046a2.86 2.86 0 0 1 2.227-1.098c1.606 0 2.058 1.325 2.142 1.803.113.424.113.904.141 1.325v9.558h2.397V70.523c0-.565.056-2.876-1.777-4.117a4.055 4.055 0 0 0-2.226-.648c-2.087 0-3.159 1.41-3.552 2.002a3.89 3.89 0 0 0-.34.506c0-.761.028-1.522 0-2.255zm27.465-4.909c-1.861-.564-3.552-.733-4.257-.733-2.313 0-4.764 1.014-5.752 3.27-.394.93-.422 1.832-.422 2.2 0 2.085.93 3.326 1.494 3.919.789.817 1.662 1.182 3.608 2.254.875.48 1.693.902 2.201 1.805.309.535.337 1.127.337 1.354 0 1.182-.733 2.255-1.889 2.62a4.12 4.12 0 0 1-1.127.143c-1.749 0-3.186-.677-3.694-.96-.141-.085-.309-.169-.452-.253l-.225 3.27c2.171.79 3.751.874 4.709.874 3.692 0 5.216-1.833 5.893-3.299a6.243 6.243 0 0 0 .592-2.622 5.922 5.922 0 0 0-1.637-4.116c-.367-.366-.873-.761-1.861-1.353-.478-.254-.929-.509-1.409-.762-.902-.536-1.354-.732-1.775-1.042-.621-.508-.988-1.184-.988-1.973 0-.255.028-.761.367-1.297.733-1.185 2.199-1.157 2.538-1.157 1.323 0 2.564.452 2.96.62.197.085.395.197.62.282zm13.115 4.793h-2.932V61.75l-3.439 1.07v3.046h-2.454v2.566h2.398l-.03 7.752c-.028 1.438.142 2.875 1.411 3.807 1.098.789 2.311.76 2.735.76a9.334 9.334 0 0 0 2.395-.31l-.084-2.592c-.396.196-.649.252-1.129.252-.337 0-1.353 0-1.69-1.072-.113-.393-.113-.705-.113-1.07v-7.527h2.932z"/><path fill-rule="evenodd" d="M240.337 65.868h-3.524v14.689h3.524zm.112-6.23h-3.721v3.468h3.721z" clip-rule="evenodd"/><path d="M244.627 65.868v2.566h2.454v12.124h3.496V68.434h2.65v-2.566h-2.65v-2.001c.028-.761.056-1.522.789-2.002a1.934 1.934 0 0 1 1.042-.281c.564 0 1.016.196 1.213.253l.056-2.623c-.338-.056-1.269-.253-2.311-.253-1.55 0-2.51.48-3.016.93-.114.084-.367.367-.592.761-.677 1.128-.649 2.37-.677 2.79v2.426zm20.454-.001h-2.931V61.75l-3.44 1.07v3.046h-2.453v2.566h2.397l-.03 7.752c-.028 1.438.142 2.875 1.411 3.807 1.099.789 2.311.76 2.735.76a9.34 9.34 0 0 0 2.395-.31l-.084-2.592c-.395.196-.648.252-1.128.252-.338 0-1.354 0-1.691-1.072-.112-.393-.112-.705-.112-1.07v-7.527h2.931zm16.613 0h-3.524v8.6c-.028.76-.084 1.098-.168 1.437-.143.478-.792 2.03-2.482 2.03-.536 0-.902-.17-1.072-.283-.902-.506-.958-1.55-.986-2.451v-9.333h-3.524v9.473c.028 1.382.056 2.791.958 3.948 1.072 1.41 2.847 1.522 3.355 1.522a4.615 4.615 0 0 0 3.751-1.862c.168-.196.309-.45.421-.676.028.789.056 1.524.085 2.285h3.355c-.113-1.297-.113-2.623-.169-3.948zm5.602.001c.112 1.241.14 2.452.169 3.693v10.997h3.523v-8.6c.028-.817.028-1.606.536-2.341a2.487 2.487 0 0 1 2.058-1.07c.227 0 .621 0 1.101.28.845.48.986 1.525.986 2.398v9.333h3.523v-9.981c0-.255 0-1.325-.309-2.227-.62-1.749-2.227-2.735-4.06-2.735a4.528 4.528 0 0 0-3.748 1.916 4.142 4.142 0 0 0-.396.704c0-.788-.056-1.55-.084-2.367z"/><path fill-rule="evenodd" d="M316.695 67.812c.028-.648.084-1.297.112-1.945h-3.327c-.084.76-.084 1.493-.084 2.256-.085-.114-.253-.451-.508-.763a6.437 6.437 0 0 0-.731-.76c-.424-.338-1.241-.987-2.594-.987-.649 0-1.805.113-2.962 1.183-1.182 1.072-2.198 2.877-2.198 6.317 0 2.002.339 4.284 1.718 5.893.904 1.042 2.002 1.55 3.414 1.55.761 0 1.295-.169 1.55-.283 1.297-.563 2.086-1.918 2.283-2.227-.113 2.227-.057 3.321-.593 4.327-.196.363-.449.699-.789.952-.901.67-2.198.726-2.479.726-1.581 0-3.187-.698-3.554-.867-.225-.112-.48-.25-.705-.363l-.169 3.12c.93.309 2.482.845 4.821.845 1.044 0 1.691-.112 2.114-.197a6.14 6.14 0 0 0 2.538-1.24c1.833-1.577 2.002-3.9 2.086-4.627.029-.477.057-.985.057-1.491zm-6.146.508c1.297.056 1.917 1.042 2.114 1.382.648 1.268.592 3.326.592 3.523 0 2.255-.337 3.3-1.156 4.116-.197.197-.649.649-1.466.649-.93 0-1.438-.48-1.662-.761a2.663 2.663 0 0 1-.396-.705c-.536-1.297-.508-2.847-.508-3.214 0-2.396.339-3.92 1.269-4.625.48-.365.988-.365 1.213-.365z" clip-rule="evenodd"/><path d="M28.193 88.297h2.425V52h-2.425z"/></g></svg>