<svg xmlns="http://www.w3.org/2000/svg" width="400" height="400" fill="none" viewBox="0 0 400 400"><path fill="#41A5EE" d="M355.812 48.6H125.788c-7.944 0-14.388 6.437-14.388 14.377v61.096l129.4 37.728 129.4-37.728V62.977c0-7.94-6.444-14.376-14.388-14.376z"/><path fill="#2B7CD3" d="M370.2 124.2H111.4v75.472L240.8 237.4l129.4-37.728V124.2z"/><path fill="#185ABD" d="M370.2 199.801H111.4v75.472l129.4 37.728 129.4-37.728v-75.472z"/><path fill="#103F91" d="M370.2 275.4H111.4v60.876c0 7.912 6.444 14.324 14.388 14.324h230.024c7.944 0 14.388-6.412 14.388-14.324V275.4z"/><path fill="#000" fill-opacity=".1" d="M204.656 102.601H111.4v204.8h93.256c7.912-.024 14.32-6.448 14.344-14.376V116.977c-.024-7.928-6.432-14.352-14.344-14.376z"/><path fill="#000" fill-opacity=".2" d="M193.864 113.4H111.4v204.8h82.456c7.912-.02 14.32-6.444 14.344-14.376V127.776c-.024-7.932-6.432-14.356-14.344-14.376h.008z"/><path fill="#000" fill-opacity=".2" d="M193.864 113.4H111.4v183.2h82.456c7.908-.02 14.312-6.436 14.344-14.364V127.764c-.032-7.928-6.436-14.344-14.344-14.364h.008z"/><path fill="#000" fill-opacity=".2" d="M183.064 113.4H111.4v183.2h71.664c7.904-.024 14.304-6.44 14.336-14.364V127.764c-.032-7.924-6.432-14.34-14.336-14.364z"/><path fill="#185ABD" d="M39.76 113.4h143.68c7.932 0 14.36 6.428 14.36 14.36v143.68c0 7.932-6.428 14.36-14.36 14.36H39.76c-7.932 0-14.36-6.428-14.36-14.36V127.76c0-7.932 6.428-14.36 14.36-14.36z"/><path fill="#fff" d="M154.216 253.401H134.8l-22.66-74.244-23.74 74.244H68.984L47.4 145.801h19.428l15.1 75.32 22.66-73.168h16.18l21.584 73.168 15.1-75.32H175.8l-21.584 107.6z"/></svg>