<svg xmlns="http://www.w3.org/2000/svg" xmlns:xlink="http://www.w3.org/1999/xlink" width="344" height="140" fill="none" viewBox="0 0 344 140"><linearGradient id="b" x1="137.151" x2="157.825" y1="42.391" y2="42.391" gradientUnits="userSpaceOnUse"><stop offset=".004" stop-color="#40841b"/><stop offset="1" stop-color="#5d9c38"/></linearGradient><linearGradient id="a"><stop offset=".004" stop-color="#f46300"/><stop offset="1" stop-color="#e90369"/></linearGradient><linearGradient xlink:href="#a" id="c" x1="183.754" x2="183.754" y1="42.651" y2="84.118" gradientUnits="userSpaceOnUse"/><linearGradient xlink:href="#a" id="d" x1="138.104" x2="138.104" y1="42.651" y2="84.118" gradientUnits="userSpaceOnUse"/><linearGradient xlink:href="#a" id="e" x1="210.536" x2="210.536" y1="42.65" y2="84.118" gradientUnits="userSpaceOnUse"/><linearGradient xlink:href="#a" id="f" x1="167.895" x2="167.895" y1="42.651" y2="84.118" gradientUnits="userSpaceOnUse"/><linearGradient xlink:href="#a" id="g" x1="226.606" x2="226.606" y1="42.651" y2="84.118" gradientUnits="userSpaceOnUse"/><linearGradient xlink:href="#a" id="h" x1="189.43" x2="189.43" y1="42.651" y2="84.118" gradientUnits="userSpaceOnUse"/><linearGradient xlink:href="#a" id="i" x1="192.701" x2="192.701" y1="42.65" y2="84.117" gradientUnits="userSpaceOnUse"/><linearGradient xlink:href="#a" id="j" x1="194.906" x2="194.906" y1="42.651" y2="84.118" gradientUnits="userSpaceOnUse"/><path fill="#a8be12" d="M113.736 59.214c-.873-2.022-.932-4.104-.496-6.265 1.15-6.205 6.483-11.518 12.827-12.608 3.172-.575 6.205.079 9 1.586.436.218.357.495.298.872-.496 2.082-1.864 3.45-3.747 4.401-1.586.793-3.311.932-4.976 1.23-3.668.713-6.999 2.16-9.734 4.757-1.725 1.626-2.954 3.588-3.172 6.027z"/><path fill="#b0c422" d="M112.943 91.627v-.793h118.81v.793h-118.81z"/><path fill="url(#b)" d="M157.846 45.593c-1.864-.713-3.886-.931-5.908-.713-1.863.218-3.747.575-5.61.793-1.864.218-3.826.218-5.69-.357-1.447-.436-2.656-1.23-3.39-2.657-.218-.436-.139-.654.218-.931 4.619-3.172 9.437-3.668 14.472-1.012 2.379 1.21 4.243 2.875 5.908 4.877z"/><path fill="#42821a" d="M143.275 93.65c1.15-.08 2.299-.358 3.172.713.495.654.436 1.725 0 2.458-.496.793-1.864 1.09-3.172.714v-3.886zm.951.653V96.9c.575.08 1.15 0 1.448-.575a1.523 1.523 0 0 0 0-1.585c-.377-.437-.873-.516-1.448-.437zm24.484 3.232h-.872V94.72s0-.08.079-.08c.575 0 1.09.08 1.665-.079.218-.079.496.218.793.298 0 0 .139-.08.218-.139.714-.436 1.507-.139 1.586.714.08.654 0 1.288 0 2.022h-.872c0-.496.079-1.011 0-1.507 0-.218-.218-.654-.357-.654-.436-.08-.436.357-.436.654v1.447h-.932c0-.495.08-1.09 0-1.586 0-.218-.297-.436-.357-.575-.138.218-.436.357-.436.575-.079.655-.079 1.23-.079 1.725zm-52.219-2.221v1.805c0 .138-.218.356-.297.356-.436.08-.932.14-1.368.14-1.229-.08-1.863-.794-1.863-1.864 0-1.09.575-1.943 1.724-2.082.496-.08 1.091 0 1.725 0a6.04 6.04 0 0 1-.218.793c-1.725-.139-2.3.218-2.24 1.23 0 .872.575 1.288 1.665 1.228 0-.218 0-.495.079-.793-.575-.079-.931-.218-.575-.793.357-.02.793-.02 1.368-.02zm16.495-.574c0 .932.079 1.863 0 2.815-.08 1.15-1.23 1.665-2.657 1.09.079-.218.079-.357.139-.495.495-.08.932-.08 1.368-.14.139 0 .218-.297.357-.653-.793.297-1.368.436-1.804-.14-.437-.495-.437-1.149-.139-1.724.218-.357.654-.654 1.011-.714.495-.198 1.07-.04 1.725-.04zm-.655 1.368c-.356-.357-.495-.714-.793-.714-.436-.08-.575.357-.575.714s.139.793.575.713c.218 0 .437-.356.793-.713zm71.608-1.308v-1.368h.872v4.242c-.297-.08-.496-.139-.793-.139h-.297c-.575.298-1.091.219-1.507-.218-.436-.436-.496-1.368-.139-1.942.298-.575.793-.714 1.368-.655.139-.06.297.02.496.08zm.218 1.368c-.357-.357-.496-.714-.793-.714-.496-.08-.575.357-.575.793 0 .357.139.793.575.714.297-.14.515-.496.793-.793zm-50.712 1.367v1.23h-.872V94.66c.297.079.574.138 1.011.218.575-.357 1.09-.357 1.506.079.496.436.575 1.447.218 2.082-.356.574-.852.713-1.863.495zm-.218-1.368c.357.357.495.714.793.793.495.08.654-.357.654-.713 0-.437-.139-.873-.575-.794-.377 0-.575.357-.872.714zm44.665-2.519h2.458v.714h-1.506c0 .298 0 .496-.08.793.496 0 .932.08 1.448.08v.713h-1.368v.932h1.506c0 .297 0 .496.08.714h-2.518c-.02-1.348-.02-2.637-.02-3.946zm28.171 4.045c-.932 0-1.507-.575-1.507-1.506 0-.932.575-1.586 1.507-1.586.872 0 1.507.575 1.507 1.447 0 .991-.635 1.645-1.507 1.645zm.793-1.526c-.357-.357-.496-.793-.793-.873-.496-.079-.575.357-.575.793 0 .357.079.873.496.873.218 0 .515-.417.872-.793zm-101.582 0c0 .932-.654 1.506-1.586 1.506-.872 0-1.447-.654-1.447-1.506 0-.932.654-1.507 1.586-1.507.872 0 1.447.575 1.447 1.507zm-.714 0c-.357-.357-.575-.793-.793-.793-.496-.08-.575.436-.575.793 0 .436.079.872.575.793.218 0 .416-.416.793-.793zm107.272 1.368h-.932c0-.575.08-1.09 0-1.586 0-.218-.297-.357-.436-.575-.139.218-.436.357-.436.575-.079.495 0 1.01 0 1.586h-.872V94.66c.297.08.575.08.793.139 1.229-.496 1.863-.08 1.943 1.288-.06.516-.06.952-.06 1.448zm-40.998-1.427c0 .931-.654 1.585-1.586 1.506-.872 0-1.447-.575-1.506-1.507 0-.931.575-1.585 1.506-1.585 1.011.059 1.586.713 1.586 1.585zm-.654.059c-.357-.357-.575-.793-.793-.793-.436-.08-.575.436-.575.793 0 .436.08.872.575.793.218 0 .436-.416.793-.793zm-31.541-.793h-1.229c-.298-.357-.218-.575.218-.713 1.229-.357 1.943.138 1.943 1.506v1.289c-.575.08-1.15.218-1.725.139-.297 0-.654-.357-.793-.655-.218-.436 0-.872.436-1.09.357-.139.714-.218 1.15-.357v-.119zm-.079.793c-.218.14-.437.357-.655.496.139.08.218.297.357.297.377 0 .516-.277.298-.793zm-21.193-.793c-.297-.357-.218-.575.218-.714 1.229-.357 1.943.139 2.022 1.448v1.367c-.654.08-1.229.14-1.804.14-.297 0-.654-.358-.793-.655-.139-.436.079-.872.496-1.09.357-.14.713-.218 1.15-.357-.417-.417-.853-.14-1.289-.14zm1.388 1.09c-.08-.079-.139-.218-.298-.297a4.738 4.738 0 0 0-.654.496l.357.356c.218-.198.377-.337.595-.555zm77.376-.872c-.357-.357-.357-.357-1.289-.139-.079-.139-.079-.297-.139-.496.139-.079.298-.138.496-.218 1.289-.357 1.943.14 1.943 1.448v1.368a12.69 12.69 0 0 1-1.725.138c-.436 0-.793-.218-.872-.713-.079-.437.079-.873.495-1.09.298-.14.714-.219 1.091-.298zm.218.872-.297-.297-.575.575c.138.079.297.297.297.297.198-.218.357-.357.575-.575zm-65.581.496c.08.139.08.298.139.436-.139.298-1.229.436-1.725.14-.654-.298-1.011-1.091-.713-1.865.218-.793.932-1.229 1.725-1.01.713.138 1.011.792.872 1.803h-1.864c.417.714.992.437 1.566.496zm-.634-1.21c0-.079.079-.138.079-.217-.218-.08-.357-.298-.575-.298-.138 0-.297.218-.495.357 0 .08.079.08.079.139.337.02.615.02.912.02zm58.067-1.01h.872v2.814l-.079.08c-.496 0-1.09-.08-1.586.079-.496.139-.932-.218-.932-.793-.079-.714 0-1.447 0-2.16h.872c0 .495-.079 1.09 0 1.585 0 .218.298.436.437.654.138-.218.436-.436.436-.654.039-.595-.02-1.11-.02-1.606zm-30.193-.08c.297 0 .436 0 .654.08.139 0 .357.079.496 0 .793-.357 1.506 0 1.586.872.079.654 0 1.23 0 1.943h-.932c0-.496.079-1.011 0-1.507 0-.218-.298-.436-.436-.654-.139.218-.437.436-.437.654-.079.496 0 1.011 0 1.507h-.872c-.059-.952-.059-1.884-.059-2.895zm-57.353 1.805h-1.864c.436.713 1.09.436 1.586.495.297.436.139.654-.357.714-1.229.218-2.081-.357-2.081-1.447 0-1.011.713-1.666 1.586-1.507.852.02 1.288.654 1.13 1.745zm-.853-.714c0-.08.079-.139.079-.218-.218-.08-.356-.298-.574-.298-.139 0-.357.218-.496.357 0 .08.079.08.079.139.337.02.615.02.912.02zm56.62.713h-1.804c.436.714 1.09.436 1.665.436 0 .14.079.357.079.496-1.011.357-1.863.218-2.299-.357-.357-.495-.357-1.447.079-1.943.357-.495 1.09-.654 1.665-.436.476.298.754.872.615 1.804zm-.853-.713c0-.08.08-.14.08-.219-.218-.079-.357-.297-.575-.297-.139 0-.357.218-.496.357 0 .08.079.08.079.139.337.02.615.02.912.02zm17.862 1.784h-.931v-1.15c-.08-.357.218-.872-.357-1.15-.079 0-.079-.357 0-.495.139-.298.357-.575.495-.873.298-.495.714-.713 1.507-.495v.436c-.297.218-.495.436-.714.495.219.298.437.496.496.714 0 .08-.297.297-.496.496zm-9.952-3.528c0 .218.08.357.08.575.218.079.357.079.575.138v.575c-.218 0-.357.08-.655.08 0 .297-.079.654 0 .872.08.218.298.357.357.575.08.139.218.297.218.357 0 .139-.138.297-.297.357-.575.218-1.15-.14-1.229-.793v-.873c0-.218-.218-.436-.298-.575-.079-.138-.138-.436-.079-.436.476-.277.476-1.05 1.328-.852zm-17.782 1.446c0 .357-.08.654 0 .873.079.218.297.436.356.575.08.138.218.218.218.356 0 .14-.138.298-.297.357-.575.218-1.15-.139-1.229-.793v-.872c0-.218-.218-.436-.297-.575-.08-.139-.139-.436-.08-.436.357-.298.436-1.09 1.229-.932 0 .139.08.357.08.575.138.08.357.08.575.139v.575c-.119.079-.278.079-.555.158zm54.815-.713v.574c-.218.08-.357.08-.575.08-.297.495 0 1.368.496 1.586v.575c-1.011.297-1.447 0-1.507-1.012 0-.436.298-1.01-.357-1.288-.079 0-.079-.297 0-.357.436-.297.436-1.09 1.229-.872 0 .139.08.357.08.654.277-.02.416-.02.634.06zm-7.553.06c0 .138-.079.356-.079.495-1.011.079-1.289.297-1.289.872s.357.793 1.289.793c0 .139.079.357.079.496-.714.356-1.507.218-2.022-.298-.436-.495-.436-1.368-.079-1.863.436-.635 1.229-.853 2.101-.496zm-86.179-.219c.357.08.575.139.932.297.139-.079.436-.218.793-.356v.872c-1.447.138-.575 1.368-.932 2.16h-.793v-2.973zm35.229 2.954h-.793v-2.874c.298.079.575.138.793.138 0 .08 0 .08-.079.14.297-.14.575-.298.932-.437 0 .357 0 .575.079.872-1.507.218-.634 1.448-.932 2.161zm60.089-2.795h.872v2.874h-.872v-2.875zm-87.526 0h.872v2.814h-.872V94.74z"/><path fill="url(#c)" d="M190.537 67.719h-4.104c.793-3.252 1.804-6.344 3.172-9.437 1.507.793 2.875 1.665 3.668 3.172.872 1.507.872 3.093.436 4.758.297-.139.575-.297.714-.575 2.081-4.243 1.506-8.505-2.875-11.32-2.022-1.289-4.183-1.943-6.483-2.379-1.863-.357-3.826-.575-5.689-1.09-2.241-.575-4.243-1.666-5.611-3.668-.654-.932-.495-1.586.575-2.022 1.011-.436 2.082-.872 3.093-1.289.139-.079.297-.138.495-.297-.356-.714-.713-1.447-1.09-2.16-1.289.93-2.597 1.803-3.886 2.735a14.482 14.482 0 0 0-.872-1.15l-.079.08c.139.436.357.872.495 1.288-1.665.575-3.251 1.15-4.817 1.804.218.793.436 1.507.654 2.24a218.106 218.106 0 0 0 3.826-2.16c.139.217.218.356.298.495.079.139.218.357.297.496.714 3.033 2.597 5.114 5.254 6.621 1.447.793 2.874 1.368 4.401 2.022.357.139.654.298.575.714 0 .932.079 1.943-.139 2.815-.496 1.864-1.864 2.3-3.529 1.368-1.011-.575-2.081-1.09-3.251-1.368-2.597-.654-4.679.654-5.254 3.251a5.094 5.094 0 0 0-.138 1.15c-.357 2.657.654 5.115 2.24 7.276.079.139.218.218.357.357-.357-1.23-.714-2.3-.932-3.45-.139-1.09-.218-2.16-.079-3.172.297-1.665 1.665-2.3 3.172-1.506.574.297 1.09.713 1.506 1.229.932 1.01 1.586 2.24 1.943 3.529s.654 2.656 1.09 3.965c1.091 3.826 2.518 7.493 5.036 10.586.139.139.139.436.139.654v2.815c2.081 0 4.183.08 6.205 0 5.253-.297 9.159-5.194 8.366-10.368-.674-4.778-4.342-8.01-9.179-8.01zm4.044 12.093c-1.011 1.804-2.954 2.815-5.115 2.518V71.664c1.448-.436 3.609.357 4.679 1.725 1.368 1.823 1.527 4.42.436 6.423z"/><path fill="url(#d)" d="M161.375 64.051c-.139 0-.218 0-.298.08-2.874.495-5.828 1.15-8.723 1.506-4.103.496-8.286 1.011-12.311-.713a2.09 2.09 0 0 0 .714 1.804c.654.575 1.288 1.15 2.022 1.506 3.093 1.586 6.403 1.725 9.793 1.09a42.599 42.599 0 0 0 3.034-.792c-.08.297-.218.495-.298.714-.654 1.506-1.586 2.815-2.736 3.965-1.724 1.863-3.826 3.449-5.828 4.976-1.725 1.288-3.39 2.597-4.619 4.4-1.368 2.023-2.815 2.023-4.243 0-.357-.495-.872-.931-1.368-1.288-.575-.436-1.229-.714-1.863-1.09-2.379-1.368-4.897-2.518-7.197-4.045-4.044-2.656-6.839-6.126-7.137-11.24-.297-4.104 1.012-7.573 4.322-10.15 1.586-1.23 3.45-2.023 5.333-2.816 1.368-.575 2.657-1.15 3.886-2.022 2.161-1.507 3.172-4.401 2.518-6.7-.218.574-.437 1.15-.793 1.724-1.368 2.38-3.529 3.45-6.126 3.965-4.243.793-7.851 2.736-10.725 5.987-3.529 3.965-4.758 8.564-3.391 13.759.793 3.092 2.816 5.471 5.195 7.632 3.449 3.093 7.414 5.333 11.597 7.197 2.379 1.09 4.461 2.378 6.265 4.242 1.15 1.23 1.943 1.23 3.251.08.139-.08.218-.219.297-.298 2.082-2.3 4.54-4.104 7.137-5.69 2.597-1.665 5.036-3.39 7.058-5.769 2.3-2.656 4.183-5.55 5.035-9.08.199-.931.337-1.942.199-2.934z"/><path fill="url(#e)" d="M216.488 69.582c-3.965-3.39-10.012-2.736-13.184 1.447-3.311 4.243-2.458 10.884 1.804 13.838 3.093 2.16 6.404 2.379 9.734.654 3.39-1.725 4.818-4.758 4.976-8.148-.02-3.31-1.031-5.908-3.33-7.791zm-2.022 10.666c-.873 1.586-2.241 2.24-4.045 2.24-1.724 0-3.172-.714-3.885-2.3-1.011-2.022-1.011-4.103 0-6.205.793-1.665 2.24-2.458 4.044-2.458 1.863 0 3.251.872 4.044 2.517.991 2.043.932 4.124-.158 6.206z"/><path fill="url(#f)" d="M171.307 73.27c-.139-.139-.297-.218-.357-.297-2.954-2.3-7.355-1.725-9.655 1.288-1.447 1.864-1.804 4.044-1.447 6.344.654 3.965 4.322 6.562 8.148 5.77 1.229-.219 2.3-.873 3.311-1.864v1.586h4.758V72.04h-4.818c.139.436.139.793.06 1.229zm-3.093 9.08c-1.943 0-3.251-1.368-3.251-3.311 0-1.864 1.368-3.251 3.251-3.251 1.884 0 3.311 1.447 3.252 3.31-.02 1.884-1.388 3.252-3.252 3.252z"/><path fill="url(#g)" d="M231.832 71.386V67.72h-10.448v18.298h10.448V82.35h-6.265v-3.668h5.988v-3.747h-5.988v-3.608c2.082.06 4.104.06 6.265.06z"/><path fill="url(#h)" d="M189.387 51.363c1.586 0 2.815-1.229 2.815-2.736s-1.229-2.735-2.736-2.735c-1.506 0-2.815 1.229-2.815 2.735s1.229 2.657 2.736 2.736z"/><path fill="url(#i)" d="M190.259 45.018c1.507.357 2.518 1.507 2.816 3.093.297-.139.574-.357.793-.357.931.218 1.863.496 2.874.793-.436.873-.872 1.666-1.288 2.518-.08.139 0 .357 0 .575h.297c.357-.793.714-1.665 1.09-2.458.218-.357.139-.655-.079-1.09a95.922 95.922 0 0 1-2.458-4.045c-.298-.575-.714-.872-1.368-.932-1.447-.218-2.875-.495-4.461-.793.575.714 1.091 1.289 1.507 1.864.139.178.198.476.277.832z"/><path fill="url(#j)" d="M194.363 52.375c.357.218.654.436.932.654.079-.08.139-.08.139-.139-.08-.357-.08-.713-.139-1.229-.357.278-.575.417-.932.714z"/><path fill="#42821a" d="M135.008 93.213c.218.357.436.575.357.714 0 .138-.298.436-.437.356-.218-.079-.436-.297-.436-.436 0-.119.298-.337.516-.634zm87.447 0c.218.357.496.496.496.714 0 .138-.298.436-.437.436-.138 0-.436-.218-.436-.436.02-.199.179-.337.377-.714z"/></svg>