<svg xmlns="http://www.w3.org/2000/svg" width="100" height="100" fill="none" viewBox="0 0 100 100"><path fill="#0E85CD" fill-rule="evenodd" d="M38.4 28C26.027 28 16 38.027 16 50.398c0 1.576.165 3.113.474 4.597a23.505 23.505 0 0 1 6.177-.821c3.426 0 6.68.733 9.616 2.052A23.4 23.4 0 0 1 45.9 51.872c3.181 0 6.215.634 8.981 1.78l.043.017a.348.348 0 0 1-.155.66c-.007 0-.34-.026-.5-.036-.55-.04-1.11-.06-1.67-.06-7.854 0-14.911 2.885-19.191 8.738-.068.093-.202.282-.204.282a.342.342 0 0 1-.524.014c-4.061-3.82-9.41-5.331-15.414-5.437C20.33 66.549 28.632 72.8 38.398 72.8 50.77 72.8 60.8 62.77 60.8 50.4 60.8 38.027 50.77 28 38.398 28h.001zm17.537 13.405c-.078-.008-.212-.03-.3-.041a12.46 12.46 0 0 0-.754-.096c-4.569-.43-8.82.838-11.594 4.053-.116.119-.218.125-.332.006-2.206-2.502-5.346-3.612-8.95-3.953a13.52 13.52 0 0 0-3.754.166c-.005 0-.01 0-.016.002-.012 0-.025.004-.038.004a.233.233 0 0 1-.142-.416c.022-.013.044-.027.066-.037a13.497 13.497 0 0 1 7.56-1.484 13.51 13.51 0 0 1 5.412 1.7 13.502 13.502 0 0 1 8.068-1.76c1.652.156 3.207.604 4.62 1.284.086.044.176.087.262.134a.217.217 0 0 1 .126.207c0 .128-.083.25-.234.231z" clip-rule="evenodd"/><path fill="#71A752" fill-rule="evenodd" d="M60.734 64.939a27.31 27.31 0 0 1-2.42 3.148h22.427a.872.872 0 0 0 .625-.261.894.894 0 0 0 .258-.633V47.681a.902.902 0 0 0-.256-.634L66.58 32.05a.883.883 0 0 0-.626-.275h-7.762c.891.987 1.711 2.04 2.452 3.15h3.987l13.866 14.07v15.944H60.734zM73.32 31.776a.894.894 0 0 0-.824.53.892.892 0 0 0 .19.96l7.447 7.564c.24.243.631.324.948.196a.892.892 0 0 0 .544-.8v-7.579c0-.456-.415-.872-.873-.871H73.32z" clip-rule="evenodd"/></svg>