<svg xmlns="http://www.w3.org/2000/svg" width="400" height="400" fill="none" viewBox="0 0 400 400"><path fill="#47A141" d="M332.935 64.242c-39.904-15.557-184.548-21.308-184.79 64.997C105.944 156.258 78 200.323 78 247.424c0 56.946 46.158 103.082 103.122 103.082 56.963 0 103.121-46.158 103.121-103.082a103.087 103.087 0 0 0-66.407-96.366c-7.466-2.887-23.683-7.977-36.635-6.884-18.478 11.749-41.011 35.903-51.667 59.961 15.839-19.007 40.597-27.323 62.526-23.758a67.94 67.94 0 0 1 56.941 67.029c0 37.525-30.544 67.919-68.069 67.919a67.722 67.722 0 0 1-51.666-23.797c-18.289-21.532-23.005-44.875-19.232-67.69 13.031-79.985 107.881-125.487 178.391-142.964-23.004 12.18-64.486 32.17-93.523 53.984 84.666 32.695 98.371-38.693 138.033-70.616z"/></svg>