<svg xmlns="http://www.w3.org/2000/svg" width="344" height="140" fill="none" viewBox="0 0 344 140"><path fill="#000" d="M221 24.419h-98v91.163h98z"/><g fill="#fff"><path d="M168.157 98.422h-36.702v5.72h36.702zM131.07 48.37l2.883-2.502a3.18 3.18 0 0 0 1.067.99c.434.248.923.398 1.431.44 1.153 0 1.729-.716 1.729-2.146V35.68h4.42v9.473a4.67 4.67 0 0 1-.262 2.22 4.97 4.97 0 0 1-1.275 1.892 5.45 5.45 0 0 1-2.034 1.186 5.75 5.75 0 0 1-2.386.244c-1.069.131-2.157-.016-3.141-.427s-1.826-1.067-2.432-1.897zm12.491-12.513h12.874v3.397h-8.455v2.323h7.687v3.218h-7.687v2.324h8.647v3.575h-12.874zm18.639 3.575h-4.804v-3.575h14.027v3.575h-4.804v11.262H162.2zm-30.745 14.659h8.262a7.496 7.496 0 0 1 4.42 1.251 3.393 3.393 0 0 1 .961 2.503 3.323 3.323 0 0 1-.655 2.076 3.735 3.735 0 0 1-1.843 1.32c.89.15 1.692.594 2.258 1.251.565.658.855 1.483.816 2.324 0 2.503-2.306 4.111-5.957 4.111h-8.262zm9.223 4.647c0-.893-.768-1.25-1.921-1.25h-2.883v2.68h2.69c1.346-.178 2.114-.536 2.114-1.43zm-1.537 4.29h-3.459v2.682h3.459c1.345 0 2.114-.536 2.114-1.43 0-.894-.769-1.251-2.114-1.251zm7.302-8.938h7.494a7.232 7.232 0 0 1 2.777.295 6.881 6.881 0 0 1 2.411 1.315c.468.446.829.98 1.061 1.565.231.585.328 1.209.284 1.83a4.683 4.683 0 0 1-.864 2.793 5.232 5.232 0 0 1-2.403 1.855l3.844 5.184h-4.996l-3.267-4.469h-1.922v4.47h-4.419zm7.302 7.15c1.537 0 2.306-.714 2.306-1.787 0-1.25-.961-1.787-2.306-1.787h-2.883v3.575z"/><path d="M165.658 54.09h4.228l6.725 15.016h-4.804l-1.153-2.681h-6.149l-1.153 2.68h-4.611zm3.843 8.938-1.729-4.11-1.729 4.11zm7.687-8.938h4.42v14.837h-4.42zm5.572 0h4.036l6.533 7.866V54.09h4.42v14.836h-3.843l-6.726-8.044v8.223h-4.42zm15.373 12.692 2.498-2.681c1.426 1.183 3.279 1.821 5.189 1.788 1.153 0 1.921-.358 1.921-1.073s-.576-.894-2.69-1.43c-3.459-.715-5.957-1.609-5.957-4.648 0-2.68 2.306-4.826 6.149-4.826 2.356-.063 4.664.631 6.533 1.966l-2.305 2.86a9.19 9.19 0 0 0-4.42-1.43c-1.153 0-1.537.358-1.537.894 0 .715.576.894 2.69 1.43 3.651.715 5.957 1.788 5.957 4.648 0 3.038-2.498 4.826-6.534 4.826-1.352.097-2.712-.058-3.999-.458s-2.475-1.033-3.495-1.866z"/></g></svg>