<svg xmlns="http://www.w3.org/2000/svg" width="400" height="400" fill="none" viewBox="0 0 400 400"><g clip-path="url(#clip0)"><path fill="#000" d="M332.216 291.357c-4.956 11.448-10.821 21.985-17.617 31.674-9.263 13.207-16.848 22.349-22.693 27.426-9.061 8.333-18.77 12.6-29.166 12.843-7.463 0-16.464-2.124-26.94-6.432-10.512-4.288-20.172-6.411-29.004-6.411-9.263 0-19.198 2.123-29.825 6.411-10.643 4.308-19.216 6.553-25.772 6.776-9.969.425-19.906-3.964-29.824-13.187-6.331-5.522-14.249-14.988-23.735-28.397-10.178-14.32-18.545-30.925-25.1-49.857C65.52 251.755 62 231.954 62 212.784c0-21.959 4.745-40.898 14.249-56.769 7.47-12.749 17.406-22.805 29.843-30.187 12.437-7.383 25.875-11.145 40.346-11.385 7.919 0 18.303 2.449 31.207 7.263 12.867 4.83 21.129 7.279 24.752 7.279 2.708 0 11.886-2.864 27.446-8.574 14.714-5.295 27.133-7.487 37.306-6.624 27.568 2.225 48.279 13.093 62.053 32.671-24.655 14.939-36.851 35.862-36.609 62.704.223 20.907 7.807 38.305 22.714 52.119 6.755 6.412 14.299 11.367 22.693 14.887a245.73 245.73 0 0 1-5.784 15.189zM268.99 42.561c0 16.387-5.987 31.687-17.92 45.85-14.401 16.835-31.819 26.564-50.708 25.029a50.956 50.956 0 0 1-.38-6.21c0-15.731 6.848-32.567 19.01-46.333 6.072-6.97 13.794-12.765 23.158-17.388 9.345-4.554 18.183-7.072 26.496-7.504a59.45 59.45 0 0 1 .344 6.555z"/></g><defs><clipPath id="clip0"><path fill="#fff" d="M0 0h276v327.667H0z" transform="translate(62 36.005)"/></clipPath></defs></svg>