<svg xmlns="http://www.w3.org/2000/svg" width="400" height="400" fill="none" viewBox="0 0 400 400"><path fill="#E01E5A" fill-rule="evenodd" d="M81.463 270.732c17.318 0 31.464-14.147 31.464-31.464v-31.463H81.463C64.146 207.805 50 221.951 50 239.268s14.146 31.464 31.463 31.464Zm78.781-62.927c-17.317 0-31.464 14.146-31.464 31.463v78.781c0 17.317 14.147 31.463 31.464 31.463s31.463-14.146 31.463-31.463v-78.781c0-17.317-14.146-31.463-31.463-31.463Z" clip-rule="evenodd"/><path fill="#36C5F0" fill-rule="evenodd" d="M128.78 81.463c0 17.318 14.147 31.464 31.464 31.464h31.463V81.463c0-17.317-14.146-31.463-31.463-31.463S128.78 64.146 128.78 81.463Zm62.927 78.781c0-17.317-14.146-31.464-31.463-31.464h-78.78C64.145 128.78 50 142.927 50 160.244s14.146 31.463 31.463 31.463h78.781c17.317 0 31.463-14.146 31.463-31.463Z" clip-rule="evenodd"/><path fill="#2EB67D" fill-rule="evenodd" d="M239.268 191.707c17.317 0 31.464-14.146 31.464-31.463v-78.78c0-17.318-14.147-31.464-31.464-31.464s-31.463 14.146-31.463 31.463v78.781c0 17.317 14.146 31.463 31.463 31.463Zm78.781-62.927c-17.317 0-31.464 14.147-31.464 31.464v31.463h31.464c17.317 0 31.463-14.146 31.463-31.463s-14.146-31.464-31.463-31.464Z" clip-rule="evenodd"/><path fill="#ECB22E" fill-rule="evenodd" d="M207.805 239.268c0 17.317 14.146 31.464 31.463 31.464h78.781c17.317 0 31.463-14.147 31.463-31.464s-14.146-31.463-31.463-31.463h-78.781c-17.317 0-31.463 14.146-31.463 31.463Zm62.927 78.781c0-17.317-14.147-31.464-31.464-31.464h-31.463v31.464c0 17.317 14.146 31.463 31.463 31.463s31.464-14.146 31.464-31.463Z" clip-rule="evenodd"/></svg>