<svg xmlns="http://www.w3.org/2000/svg" width="400" height="400" fill="none" viewBox="0 0 400 400"><path fill="#FF6122" d="M97.6 324c50.353 0 57.384-61.731 91.776-116.814-1.33 19.754-.19 37.039 3.61 49.195 15.012 47.295 66.505 50.904 89.877 2.849 33.062-67.619 42.563-83.574 75.815-132.389 22.042-32.1-3.42-52.994-33.062-37.988-15.201 7.597-39.713 26.971-70.495 67.619 5.32-30.961 3.99-83.385-40.853-80.346-23.562 1.52-54.154 28.112-95.957 96.491 3.42-38.368 4.75-65.53-11.971-79.776-11.4-9.687-38.383-13.485-54.534 7.408-16.34 21.084-20.141 62.301-18.43 105.607C36.985 296.648 69.097 324 97.6 324z"/></svg>