<svg xmlns="http://www.w3.org/2000/svg" width="400" height="400" fill="none" viewBox="0 0 400 400"><path fill="#464646" fill-rule="evenodd" d="M90.298 151.117l57.295 156.963c-40.063-19.46-67.69-60.55-67.69-108.08a119.67 119.67 0 0 1 10.395-48.883zm190.774 42.816c0-14.84-5.332-25.118-9.905-33.121-6.079-9.905-11.795-18.27-11.795-28.175 0-11.41 8.715-21.934 21.723-21.222C259.733 91.85 231.267 79.903 200 79.903c-41.953 0-78.867 21.525-100.345 54.134 7.292.233 17.372.373 39.737-1.377 6.475-.397 7.233 9.123.77 9.882 0 0-6.51.758-13.744 1.143l43.739 130.083 26.285-78.82-18.714-51.263a225.676 225.676 0 0 1-12.6-1.143c-6.475-.385-5.716-10.279.759-9.894 25.806 1.984 38.161 1.995 63.641 0 6.475-.385 7.245 9.135.77 9.894 0 0-6.521.758-13.743 1.143l43.4 129.092 11.982-40.029c5.18-16.601 9.135-28.536 9.135-38.815zm-78.96 16.567l-36.039 104.708A120.146 120.146 0 0 0 200 320.097a119.95 119.95 0 0 0 39.877-6.802c-1.004-1.622-37.112-100.998-37.765-102.795zm103.273-68.122c2.613 19.262-1.155 37.427-8.318 55.37L260.375 303.81c35.712-20.813 59.722-59.5 59.722-103.81 0-20.883-5.332-40.518-14.712-57.622zM340 200c0 77.198-62.813 140-140 140S60 277.198 60 200c0-77.198 62.802-140 140-140 77.198 0 140 62.802 140 140zm-6.417 0c0-73.652-59.931-133.583-133.583-133.583S66.417 126.348 66.417 200 126.348 333.583 200 333.583 333.583 273.652 333.583 200z" clip-rule="evenodd"/></svg>