<svg xmlns="http://www.w3.org/2000/svg" width="344" height="140" fill="none" viewBox="0 0 344 140"><path fill="#074ea2" d="M239 25.133H105.7V114H239z"/><path fill="#fef106" d="m161.092 49.66-2.775-2.017-2.776 2.016 1.06-3.262-2.776-2.017h3.432l1.06-3.26 1.059 3.26h3.43l-2.774 2.017zm-10.37 10.319-2.776-2.017-2.775 2.017 1.062-3.263-2.776-2.015 3.43-.002 1.059-3.26 1.06 3.26 3.43.002-2.774 2.015zM146.911 74.1l-2.776-2.016-2.774 2.017 1.06-3.263-2.775-2.016h3.429l1.06-3.261 1.06 3.26h3.43l-2.774 2.017zm14.181 24.561-2.775-2.014-2.776 2.014 1.06-3.26-2.776-2.017h3.432l1.06-3.263 1.059 3.263h3.43l-2.774 2.016zm-10.37-10.318-2.776-2.016-2.775 2.016 1.062-3.263-2.776-2.016h3.43l1.059-3.261 1.06 3.26h3.43l-2.774 2.017zm32.894-38.683 2.776-2.017 2.775 2.016-1.06-3.262 2.776-2.017h-3.431l-1.06-3.26-1.06 3.26h-3.431l2.775 2.017zm10.369 10.319 2.775-2.017 2.774 2.017-1.06-3.263 2.776-2.015-3.43-.002-1.06-3.26-1.06 3.26-3.431.002 2.776 2.015zm3.809 14.121 2.776-2.016 2.775 2.017-1.06-3.263 2.776-2.016h-3.43l-1.061-3.261-1.06 3.26h-3.43l2.774 2.017zm-14.178 24.561 2.776-2.014 2.775 2.014-1.06-3.26 2.776-2.017h-3.431l-1.06-3.263-1.06 3.263h-3.431l2.775 2.016zm10.369-10.318 2.775-2.016 2.774 2.016-1.06-3.263 2.776-2.016h-3.43l-1.06-3.261-1.06 3.26h-3.431l2.776 2.017zm-24.406-42.53 2.775-2.017 2.776 2.017-1.06-3.263 2.774-2.016h-3.43l-1.06-3.261-1.06 3.26h-3.431l2.776 2.017zm0 56.655 2.775-2.014 2.776 2.014-1.06-3.26 2.774-2.017h-3.43l-1.06-3.261-1.06 3.26h-3.431l2.776 2.017z"/></svg>