<svg xmlns="http://www.w3.org/2000/svg" width="400" height="400" fill="none" viewBox="0 0 400 400"><path fill="#0e85cd" fill-rule="evenodd" d="M199.996 60C122.672 60 60 122.667 60 199.991c0 9.848 1.028 19.454 2.963 28.731a146.927 146.927 0 0 1 38.605-5.135c21.415 0 41.751 4.581 60.101 12.824 24.018-17.132 53.444-27.21 85.203-27.21 19.884 0 38.85 3.959 56.136 11.123.091.034.176.07.266.107a2.17 2.17 0 0 1 1.218 1.951 2.18 2.18 0 0 1-2.184 2.175c-.043 0-2.126-.161-3.123-.226a145.645 145.645 0 0 0-10.441-.379c-49.086 0-93.194 18.034-119.944 54.617-.427.579-1.265 1.76-1.275 1.76-.39.492-.999.809-1.673.809a2.066 2.066 0 0 1-1.418-.55 1.008 1.008 0 0 1-.187-.166c-25.379-23.874-58.81-33.323-96.335-33.981C87.071 300.924 138.951 340 199.987 340 277.31 340 340 277.314 340 199.999c.002-77.328-62.688-139.995-140.011-139.995zm109.61 83.782c-.489-.05-1.327-.187-1.869-.26a78.516 78.516 0 0 0-4.721-.596c-28.553-2.693-55.12 5.238-72.457 25.331-.726.743-1.364.778-2.079.038-13.783-15.636-33.412-22.575-55.941-24.71a84.459 84.459 0 0 0-23.461 1.04c-.029 0-.064 0-.098.016-.073 0-.152.019-.239.019a1.453 1.453 0 0 1-1.451-1.461c0-.468.231-.88.566-1.139.139-.078.277-.166.412-.23 14.054-7.357 30.3-10.879 47.256-9.271 12.297 1.165 23.738 4.896 33.822 10.623 14.73-8.538 32.178-12.729 50.42-11.005a84.908 84.908 0 0 1 28.874 8.03c.54.276 1.101.541 1.644.836.539.268.782.732.782 1.292 0 .802-.516 1.561-1.46 1.447z" clip-rule="evenodd"/></svg>