<svg xmlns="http://www.w3.org/2000/svg" width="344" height="140" fill="none" viewBox="0 0 344 140"><clipPath id="a"><path d="M77 27h189v98.051H77z"/></clipPath><g clip-path="url(#a)"><path fill="#000" d="M230.023 111.513c0 1.636 1.183 2.842 2.827 2.842s2.828-1.206 2.828-2.842-1.184-2.843-2.828-2.843-2.827 1.207-2.827 2.843zm2.827-2.247c1.269 0 2.139 1.002 2.139 2.247 0 1.247-.87 2.245-2.139 2.245-1.27 0-2.139-.998-2.139-2.245 0-1.245.869-2.247 2.139-2.247zm-.023-32.547v5.409h1.19v-2.162h.59l1.131 2.162h1.427l-1.373-2.285c.762-.138 1.167-.725 1.167-1.482 0-1.26-.931-1.642-2.039-1.642zm2.896 1.635c0 .59-.567.604-1.001.604h-.705v-1.231h.781c.437 0 .925.084.925.627zm-16.602 19.76h-.642v5.407h.642zm-.138-15.986h1.191V76.72h-1.191zm15.669 17.474c0-1.338-1.107-1.489-2.152-1.489h-1.384v5.408h.641v-2.43h.826l1.467 2.43h.785l-1.536-2.492c.841-.129 1.353-.641 1.353-1.427zm-2.321.894h-.574v-1.789h.902c.627 0 1.306.115 1.306.895 0 .894-.925.894-1.634.894zm2.865-13.08-1.72 4.445h-.016l-1.663-4.445h-.726l2.07 5.408h.616l2.118-5.408zm3.66-18.323h2.313v2.338h1.194v-5.408h-1.194v2.016h-2.313v-2.016h-1.193v5.408h1.193zm-1.918 23.73h.64v-5.407h-.64zm-2.337-21.255c.739 0 1.502-.297 1.953-.939l-.992-.74c-.245.366-.634.58-1.116.58-.863 0-1.529-.733-1.529-1.742 0-1.01.666-1.742 1.567-1.742.444 0 .787.16 1.024.442l.916-.749c-.457-.587-1.22-.793-1.823-.793-1.69 0-2.92 1.107-2.92 2.842 0 1.734 1.23 2.84 2.92 2.84zm5.117 9.596c-.399 0-.794-.19-1.038-.511l-.848.932c.509.474 1.122.68 1.817.68 1.117 0 2.084-.572 2.084-1.78 0-1.894-2.489-1.26-2.489-2.247 0-.403.467-.557.803-.557.29 0 .672.115.864.36l.817-.894c-.459-.406-1.048-.567-1.658-.567-1.062 0-2.063.605-2.063 1.759 0 1.802 2.538 1.268 2.538 2.263 0 .381-.437.562-.827.562zm-8.443-3.346v-1.1h-3.674v5.41h3.812v-1.1h-2.622v-1.11h2.347V78.82h-2.347v-1.002zM220.87 91.725h-2.621v-1.11h2.345v-1.097h-2.345v-1.004h2.482v-1.098h-3.673v5.408h3.812zm16.657 11.933c.978 0 1.9-.503 1.9-1.581 0-1.062-.777-1.337-1.618-1.604-.863-.276-1.14-.498-1.14-.994 0-.641.589-.91 1.153-.91.391 0 .774.154.986.497l.528-.459c-.397-.465-.909-.633-1.514-.633-.946 0-1.839.519-1.839 1.558 0 .902.58 1.238 1.345 1.492.961.319 1.412.434 1.412 1.099 0 .619-.626.938-1.177.938-.465 0-.925-.204-1.152-.602l-.551.451c.367.542 1.04.748 1.667.748zm6.729-26.94h-1.192v5.408h1.192zm4.715 10.698h-.643v4.491h-.015l-3.133-4.491h-.808v5.408h.64v-4.492h.015l3.135 4.492h.809zm1.183 16.105v-2.33l2.017-3.078h-.771l-1.565 2.443-1.522-2.443h-.817l2.017 3.078v2.33zm.544-21.393.451-1.146h2.099l.466 1.146h1.346l-2.352-5.41h-.988l-2.337 5.41zm1.482-3.835.665 1.682h-1.323zm-.107-2.575c0-.367-.314-.625-.664-.625a.637.637 0 0 0-.62.625c0 .35.275.657.634.657.373 0 .65-.292.65-.657zm6.86 11.698-2.384 5.408h.727l.559-1.33h2.703l.55 1.33h.748l-2.3-5.408zm-.846 3.483 1.122-2.657h.014l1.07 2.657zm3.268-20.43c-.398 0-.794-.19-1.038-.512l-.85.932c.513.473 1.124.679 1.82.679 1.114 0 2.084-.571 2.084-1.78 0-1.895-2.49-1.26-2.49-2.246 0-.405.467-.557.804-.557.291 0 .673.114.864.358l.815-.893c-.457-.405-1.045-.565-1.657-.565-1.063 0-2.063.604-2.063 1.756 0 1.804 2.537 1.269 2.537 2.262 0 .384-.436.566-.826.566zm-7.694 5.249c0-.367-.312-.625-.662-.625a.637.637 0 0 0-.621.625c0 .35.275.657.634.657a.643.643 0 0 0 .649-.657zm1.201 2.054h1.544v4.356h1.189v-4.356h1.545V76.72h-4.278zm1.214-6.341h1.192v-4.355h1.541v-1.053h-4.275v1.053h1.542zm-33.127 32.09 2.114-5.408h-.68l-1.719 4.444h-.014l-1.665-4.444h-.727l2.071 5.408zm22.179-33.236h2.101l.465 1.146h1.345l-2.353-5.408h-.985l-2.337 5.408h1.313zm1.031-2.69.666 1.682h-1.323zm-3.377 20.415v-.594h-3.4v5.408h3.537v-.595h-2.897V90.3h2.576v-.592h-2.576v-1.7zm8.495-18.688h2.255v-1.1h-2.255v-1.1h2.437v-1.1h-3.628v5.409h1.191zm-9.687 28.791h-.64v5.408h.64zm13.782-5.29v-5.407h-.64v4.491h-.015l-3.134-4.491h-.81v5.408h.642v-4.492h.016l3.132 4.492zm-10.069-15.05h1.544v4.355h1.189v-4.356h1.545V76.72h-4.278zm-15.584 44.299v-.015c.579-.176.946-.595.946-1.222 0-.995-.902-1.329-1.795-1.329h-1.651v5.408h1.612c1.001 0 2.108-.321 2.108-1.511 0-.713-.528-1.27-1.22-1.331zm-1.859-1.971h.955c.582 0 1.163.151 1.163.818 0 .749-.627.879-1.231.879h-.887zm1.085 4.217h-1.085v-1.925h1.101c.649 0 1.292.228 1.292.984 0 .689-.682.941-1.308.941zm13.937.596h.641v-5.408h-.641zm4.14-26.8h-4.216v.593h1.787v4.814h.641v-4.814h1.788zm-7.319 23.752c-.864-.276-1.137-.498-1.137-.993 0-.643.587-.91 1.152-.91.39 0 .773.153.987.496l.527-.458c-.397-.466-.909-.634-1.514-.634-.948 0-1.84.52-1.84 1.558 0 .902.579 1.238 1.343 1.492.964.319 1.415.434 1.415 1.099 0 .619-.626.938-1.178.938-.464 0-.925-.204-1.153-.602l-.549.451c.366.542 1.039.748 1.664.748.978 0 1.902-.503 1.902-1.581 0-1.062-.777-1.337-1.619-1.604zm4.699-7.649h.643v-5.408h-.643zm-4.662-1.169h-.014l-1.834-4.239h-.954v5.408h.64v-4.538h.016l1.942 4.538h.388l1.941-4.538h.017v4.538h.64v-5.408h-.931zm-19.245 6.458h-2.077v5.408h2.077c1.062 0 2.651-.711 2.651-2.704 0-1.995-1.589-2.704-2.651-2.704zm-.214 4.812h-1.222v-4.217h1.222c1.239 0 2.179.626 2.179 2.109 0 1.482-.94 2.108-2.179 2.108zm2.124-12.805c0-1.636-1.183-2.843-2.826-2.843s-2.827 1.207-2.827 2.843 1.184 2.842 2.827 2.842 2.826-1.206 2.826-2.842zm-4.966 0c0-1.245.871-2.247 2.14-2.247s2.14 1.002 2.14 2.247c0 1.247-.871 2.245-2.14 2.245s-2.14-.998-2.14-2.245zm11.055 2.704v-5.408h-.641v4.491h-.014l-3.134-4.491h-.809v5.408h.642v-4.492h.014l3.135 4.492zm7.221 8.543c0 .87-.32 1.694-1.399 1.694-1.078 0-1.399-.824-1.399-1.694v-3.254h-.64v3.345c0 1.178.55 2.2 2.039 2.2 1.491 0 2.04-1.022 2.04-2.2v-3.345h-.641zM266 98.707v-.594h-3.353v5.408h.641v-2.43h2.522v-.595h-2.522v-1.789zm-38.59-5.883v-5.408h-1.191v3.757h-.017l-2.298-3.757h-1.62v5.408h1.191v-3.85h.015l2.362 3.85zm30.919 5.15c-1.642 0-2.826 1.207-2.826 2.842 0 1.636 1.184 2.842 2.826 2.842 1.643 0 2.827-1.206 2.827-2.842 0-1.635-1.184-2.842-2.827-2.842zm0 5.087c-1.268 0-2.139-.998-2.139-2.245 0-1.245.871-2.246 2.139-2.246 1.269 0 2.141 1 2.141 2.246 0 1.247-.872 2.245-2.141 2.245zm-.008 18.805c-.862-.276-1.137-.498-1.137-.993 0-.643.59-.91 1.155-.91.39 0 .771.153.985.496l.526-.458c-.397-.466-.909-.634-1.511-.634-.949 0-1.842.52-1.842 1.558 0 .902.581 1.238 1.344 1.492.964.319 1.414.434 1.414 1.099 0 .619-.627.938-1.177.938-.465 0-.925-.204-1.154-.602l-.548.451c.364.542 1.036.748 1.665.748.977 0 1.9-.503 1.9-1.581 0-1.062-.777-1.337-1.62-1.604zm-42.211 2.132h-.014l-3.134-4.492h-.809v5.408h.64v-4.492h.015l3.133 4.492h.81v-5.408h-.641zm38.063-12.828c-.861-.277-1.137-.499-1.137-.993 0-.643.587-.911 1.152-.911.39 0 .774.153.987.497l.527-.458c-.397-.466-.91-.635-1.514-.635-.947 0-1.839.52-1.839 1.558 0 .902.58 1.238 1.345 1.492.962.32 1.413.435 1.413 1.101 0 .617-.627.937-1.179.937-.464 0-.923-.205-1.152-.602l-.55.451c.366.541 1.039.748 1.667.748.978 0 1.9-.503 1.9-1.581 0-1.062-.778-1.337-1.62-1.604zm-4.889 12.828h-.014l-3.134-4.492h-.809v5.408h.641v-4.492h.015l3.134 4.492h.809v-5.408h-.642zm-.077-10.24c-1.214 0-2.062-.99-2.062-2.245 0-1.184.855-2.247 2.062-2.247.519 0 1.032.222 1.352.658l.559-.405c-.458-.597-1.176-.849-1.911-.849-1.604 0-2.749 1.254-2.749 2.843 0 1.643 1.199 2.842 2.749 2.842.865 0 1.566-.297 2.048-.947l-.482-.405c-.381.489-.91.755-1.566.755zm3.161 8.635h2.578v-.595h-2.578v-1.697h2.761v-.595h-3.4v5.408h3.537v-.596h-2.898zm10.661-.527c-.865-.276-1.139-.498-1.139-.993 0-.643.589-.91 1.154-.91.391 0 .773.153.986.496l.527-.458c-.397-.466-.909-.634-1.513-.634-.948 0-1.84.52-1.84 1.558 0 .902.58 1.238 1.345 1.492.962.319 1.412.434 1.412 1.099 0 .619-.626.938-1.178.938-.464 0-.925-.204-1.153-.602l-.549.451c.366.542 1.037.748 1.665.748.978 0 1.903-.503 1.903-1.581 0-1.062-.779-1.337-1.62-1.604zm-44.825-52.597h.587l1.133 2.162h1.428l-1.374-2.284c.762-.138 1.165-.725 1.165-1.483 0-1.26-.931-1.641-2.038-1.641h-2.093v5.408h1.192zm0-2.24h.778c.436 0 .925.085.925.629 0 .588-.564.603-1.001.603h-.702zm-2.453 46.379-.483-.405c-.381.489-.908.755-1.566.755-1.215 0-2.063-.99-2.063-2.245 0-1.184.857-2.247 2.063-2.247.521 0 1.032.222 1.353.658l.557-.405c-.458-.597-1.176-.849-1.91-.849-1.605 0-2.748 1.254-2.748 2.843 0 1.643 1.198 2.842 2.748 2.842.865 0 1.566-.297 2.049-.947zm-3.438-36.69v5.41h1.19v-3.85h.017l2.361 3.85h1.558v-5.41h-1.192v3.759h-.015l-2.3-3.758zm-.276 21.395v5.408h.642v-4.493h.016l3.132 4.493h.81v-5.408h-.641v4.491h-.015l-3.134-4.49zm16.572-27.644c-.398 0-.795-.19-1.04-.512l-.847.932c.514.473 1.123.679 1.819.679 1.116 0 2.084-.571 2.084-1.78 0-1.895-2.489-1.26-2.489-2.246 0-.405.464-.558.803-.558.29 0 .671.115.862.36l.818-.894c-.458-.405-1.048-.565-1.658-.565-1.063 0-2.063.604-2.063 1.756 0 1.804 2.537 1.269 2.537 2.262 0 .384-.436.566-.826.566zm-4.713 9.795h-.017l-1.337-3.545h-1.359l2.162 5.409h.955l2.232-5.41h-1.277zm5.769 22.661h-2.896V101h2.574v-.595h-2.574v-1.698h2.757v-.594h-3.399v5.408h3.538zm-15.388-10.101h1.192v-5.408h-1.192zm9.054-21.393h1.19v-4.356h1.545v-1.052h-4.279v1.052h1.544zm-17.138 5.288v3.324c0 1.276.779 2.222 2.283 2.222 1.498 0 2.278-.946 2.278-2.222v-3.324h-1.192v3.277c0 .666-.458 1.168-1.086 1.168-.635 0-1.092-.502-1.092-1.168V76.72zm3.521 32.684v-.594h-3.399v5.408h3.537v-.595h-2.895v-1.928h2.574v-.593h-2.574v-1.698zm-1.642 10.103-2.383 5.408h.726l.557-1.33h2.704l.55 1.33h.75l-2.3-5.408zm-.848 3.483 1.121-2.658h.018l1.068 2.658zm1.031-30.165 1.194-3.742h.014l1.191 3.742h1.061l1.583-5.408h-1.207l-.909 3.56h-.015l-1.124-3.56h-1.107l-1.132 3.467h-.014l-.863-3.467h-1.299l1.603 5.408zm2.116 8.634v-3.345h-.64v3.254c0 .87-.32 1.694-1.399 1.694-1.078 0-1.398-.824-1.398-1.694v-3.254h-.64v3.345c0 1.178.547 2.2 2.038 2.2 1.49 0 2.039-1.022 2.039-2.2zm5.097-35.435h-1.193v5.408h1.193zm-2.17 0h-1.207l-.909 3.558h-.015l-1.124-3.558h-1.107l-1.132 3.467h-.014l-.863-3.467h-1.299l1.603 5.408h1.024l1.194-3.743h.014l1.191 3.743h1.061zm.085-36.883.601-2.14h-14.469l-.59 2.14h5.288s-9.943 29.2-13.52 39.544c-4.512 13.04-12.147 15.445-17.901 15.445-6.684 0-10.463-3.351-10.463-9.099 0-3.844 1.51-8.108 2.495-11.083 4.355-13.159 11.947-34.807 11.947-34.807h4.698l.613-2.14h-25.655l-.603 2.14h5.3l-11.158 31.553c-1.623 4.612-2.093 6.933-2.028 9.934L134.497 29.14h5.299l-.59-2.14h-25.763l.613 2.14h4.689l5.11 15.556-8.792 25.756L98.45 29.14h5.311l-.589-2.14H77l.591 2.14h4.677l23.651 57.855h8l12.188-35.442 11.639 35.442h7.999l3.553-9.359c2.916 7.135 10.331 10.87 20.645 10.87 17.323 0 21.808-9.74 26.006-21.835 3.707-10.68 12.748-37.53 12.748-37.53z"/></g></svg>