<svg xmlns="http://www.w3.org/2000/svg" width="400" height="400" fill="none" viewBox="0 0 400 400"><filter id="c" width="90" height="90" x="225" y="45" color-interpolation-filters="sRGB" filterUnits="userSpaceOnUse"><feFlood flood-opacity="0" result="BackgroundImageFix"/><feColorMatrix in="SourceAlpha" values="0 0 0 0 0 0 0 0 0 0 0 0 0 0 0 0 0 0 127 0"/><feOffset/><feGaussianBlur stdDeviation="2.5"/><feColorMatrix values="0 0 0 0 0 0 0 0 0 0 0 0 0 0 0 0 0 0 0.144503 0"/><feBlend in2="BackgroundImageFix" result="effect1_dropShadow"/><feBlend in="SourceGraphic" in2="effect1_dropShadow" result="shape"/></filter><linearGradient id="b" x1="336.966" x2="251.74" y1="149.437" y2="105.283" gradientUnits="userSpaceOnUse"><stop offset="0" stop-color="#4c89ef"/><stop offset="1" stop-color="#3b6cc3"/></linearGradient><mask id="a" width="220" height="300" x="90" y="50" maskUnits="userSpaceOnUse"><path fill="#fff" fill-rule="evenodd" d="M110 50h120l80 80v200c0 11.046-8.954 20-20 20H110c-11.046 0-20-8.954-20-20V70c0-11.046 8.954-20 20-20z" clip-rule="evenodd"/></mask><path fill="#4c89ef" fill-rule="evenodd" d="M110 50h120l80 80v200c0 11.046-8.954 20-20 20H110c-11.046 0-20-8.954-20-20V70c0-11.046 8.954-20 20-20z" clip-rule="evenodd"/><g mask="url(#a)"><path fill="url(#b)" fill-rule="evenodd" d="M230 50l80 80v85l-80-99.853z" clip-rule="evenodd"/><g filter="url(#c)"><path fill="#9cb7ed" fill-rule="evenodd" d="M230 50l80 80h-60c-11.046 0-20-8.954-20-20z" clip-rule="evenodd"/></g><path fill="#fff" fill-rule="evenodd" d="M260 190H140v10h120zm0 20H140v10h120zm-120 20h120v10H140zm70 20h-70v10h70z" clip-rule="evenodd"/></g></svg>