<svg xmlns="http://www.w3.org/2000/svg" width="400" height="400" fill="none" viewBox="0 0 400 400"><path fill="#20C4CB" d="M200 370c93.888 0 170-76.112 170-170S293.888 30 200 30 30 106.112 30 200s76.112 170 170 170z"/><path fill="#fff" d="M244.06 228.449c-6.938 7.633-16.653 11.449-21.163 11.449-5.204 0-7.979-3.122-8.673-7.979-.347-1.735 0-3.817.347-5.551 1.734-10.756 5.551-17.694 5.551-19.429 0-.694-.347-1.041-.694-1.041-3.47 0-15.266 12.143-17 20.123l-1.388 6.591c-1.041 4.511-5.204 7.286-8.326 7.286-1.388 0-2.429-.694-2.776-2.428v-2.082l.694-3.469c-6.245 4.857-13.184 7.979-16.306 7.979-4.51 0-6.939-2.428-7.633-5.898-2.775 3.817-6.592 5.898-10.755 5.898-5.204 0-10.061-3.469-12.49-8.673-3.469 3.816-7.632 7.632-12.49 10.755-7.285 4.51-15.265 8.326-24.632 8.326-8.674 0-16.306-4.51-20.123-8.326-6.245-5.551-9.367-14.225-10.408-21.857-3.122-24.286 11.796-56.551 35.041-70.429 5.204-3.122 11.102-4.857 16.653-4.857 11.102 0 19.429 7.98 20.469 17.347 1.041 8.673-2.428 15.959-11.796 20.469-4.857 2.429-7.285 2.429-7.979 1.041-.347-.694-.347-2.082.694-2.775 9.02-7.286 9.02-13.531 7.979-22.205-.694-5.551-4.163-9.02-8.326-9.02-18.041 0-43.02 39.204-39.551 67.653 1.388 11.102 8.326 23.939 22.204 23.939 4.51 0 9.714-1.388 13.877-3.469 7.633-3.817 12.143-6.939 16.307-12.143-1.041-13.184 10.408-29.837 27.061-29.837 7.286 0 13.183 2.775 13.877 8.673 1.041 7.286-5.204 8.674-7.632 8.674-2.082 0-5.204-.694-5.551-2.429-.347-2.081 4.51-1.041 3.816-5.551-.347-2.775-3.469-3.816-6.245-3.816-10.408 0-16.306 14.571-15.265 23.592.347 4.163 2.775 8.326 6.245 8.326 3.122 0 7.632-4.51 9.02-10.755 1.041-4.51 5.204-7.286 8.327-7.286 1.734 0 2.775.694 2.775 2.429v2.082c-.347 1.734-1.735 8.326-1.735 9.367 0 1.041.694 2.776 2.776 2.776 1.735 0 7.286-3.123 12.837-7.98 1.734-8.674 3.816-19.429 3.816-20.122.694-3.47 2.082-7.286 9.02-7.286 1.388 0 2.429.694 2.776 2.428v2.082l-1.735 9.367c6.245-8.326 15.959-14.571 21.857-14.571 2.429 0 4.511 1.388 4.858 3.816.346 1.388-.347 3.817-1.041 6.592-2.082 5.551-4.51 14.225-5.898 21.51-.347 1.735.347 3.817 3.122 3.817 2.429 0 9.714-2.776 15.612-10.755v-3.47c0-6.245.347-11.102 1.735-14.918 1.041-3.817 5.898-7.286 9.021-7.286 1.734 0 2.775 1.041 2.775 2.776 0 .693 0 1.387-.347 2.081-2.082 6.592-3.469 12.49-3.469 18.388 0 3.469.694 8.673 1.388 11.449 0 .694.346 1.041 1.04 1.041 1.041 0 7.98-6.592 12.837-14.919-4.51-2.775-6.939-7.979-6.939-14.224 0-10.408 6.245-15.959 12.49-15.959 4.857 0 9.02 3.469 9.02 10.408 0 4.51-1.734 9.367-4.163 14.224h1.388c3.816 0 6.592-1.734 8.326-3.816.694-.694 1.388-1.388 2.082-1.735 4.857-5.898 12.143-10.061 20.47-10.061 7.285 0 13.183 2.776 13.877 8.674 1.041 7.285-5.551 9.02-7.633 9.02-2.081 0-5.551-.694-5.551-2.429-.347-1.734 4.511-1.04 4.164-5.551-.347-2.775-3.47-4.163-6.245-4.163-9.715 0-16.306 12.837-15.266 23.592.347 4.163 2.429 8.326 6.245 8.326 3.123 0 7.633-4.51 9.368-10.755 1.041-4.163 5.204-7.285 8.326-7.285 1.388 0 2.776.694 2.776 2.428 0 1.041-.347 2.776-1.735 9.715-.694 2.775-.694 5.551-.694 7.285.694 4.164 2.429 6.939 4.163 8.674.694.694 1.041 1.387 1.041 1.734 0 1.041-.694 2.082-2.081 2.082-.347 0-1.041 0-1.388-.347-7.633-3.122-10.755-8.326-11.449-12.837-2.776 3.817-6.592 5.551-10.755 5.551-6.592 0-13.184-5.898-14.225-13.53-.347-3.123 0-6.592 1.041-9.715-2.775 1.735-5.551 2.776-8.326 2.776h-2.429c-6.592 9.367-13.531 15.959-18.735 19.082-2.081 1.04-4.163 1.734-5.551 1.734-1.041 0-2.428-.347-3.122-1.387-2.082-1.388-3.123-4.858-3.47-9.021zm23.592-31.224c0 4.163 2.082 8.326 4.511 11.102 1.04-2.776 1.734-5.551 1.734-8.327 0-5.204-2.081-7.632-3.469-7.632-2.082 0-2.776 2.775-2.776 4.857z"/></svg>