<svg xmlns="http://www.w3.org/2000/svg" width="400" height="400" fill="none" viewBox="0 0 400 400"><path fill="#005A5F" d="M83.847 98.869c-2.897 0-5.335 1.016-6.56 3.006-1.267 2.055-1.07 4.701.274 7.38l32.524 56.302c.055.109.055.175 0 .273l-51.11 90.193c-1.333 2.657-1.267 5.324 0 7.379 1.225 1.979 3.39 3.28 6.287 3.28h48.103c7.194 0 10.659-4.854 13.119-9.292 0 0 49.983-88.4 51.929-91.833-.197-.317-33.071-57.669-33.071-57.669-2.394-4.264-6.012-9.02-13.392-9.02H83.847z"/><path fill="#D4D600" d="M285.931 33c-7.183 0-10.298 4.526-12.878 9.162 0 0-103.629 183.774-107.04 189.809.175.328 68.349 125.396 68.349 125.396 2.384 4.263 6.068 9.161 13.436 9.161h48.049c2.897 0 5.16-1.093 6.384-3.072 1.279-2.055 1.247-4.767-.098-7.434l-67.814-123.898a.279.279 0 0 1 0-.317L340.823 43.495c1.334-2.656 1.367-5.368.098-7.423-1.224-1.979-3.498-3.072-6.395-3.072h-48.595z"/></svg>