<svg xmlns="http://www.w3.org/2000/svg" width="400" height="400" fill="none" viewBox="0 0 400 400"><g clip-path="url(#clip0)"><path fill="url(#paint0_linear)" d="M285.047 89.044c-18.812-12.288-42.871-16.266-56.149-17.655-14.211-1.486-26.554-1.223-37.41.37-.92-.012-1.834-.048-2.759-.048-.706 0-1.401.03-2.111.037.292-.357.494-.577.494-.577s-.571.09-1.692.597c-3.524.057-7.032.179-10.488.415 4.814-5.278 8.758-8.044 8.758-8.044s-4.681.686-13.222 8.428c-4.064.374-8.071.87-12.011 1.485 8.975-12.145 18.364-17.26 18.364-17.26s-11.381-2.316-29.199 15.59c-1.491 1.498-2.874 3.056-4.211 4.633-51.933 12.568-89.102 46.105-89.102 85.519 0 7.729-2.372 16.23.186 24.719-1.023 13.561 1.154 50.563 1.154 50.563s14.06 76.086 68.123 89.315c.859.205-11.296-18.967-16.672-42.088 10.468 10.649 22.943 19.07 36.945 20.529 1.719.178-7.998-11.209-16.508-24.952l122.853 41.392c64.255-27.599 56.775-25.112 70.571-40.055 30.393-32.9 34.649-51.568 26.992-106.685-5.18-37.206-32.641-74.055-62.906-86.228z"/><path fill="#FBFBFB" d="M69.432 123.792l-18.345 104.31 10.172 31.517 203.062 67.514 37.659-160.121-232.548-43.22z"/><path fill="#999" d="M70.005 127.339c1.018 2.191.719 2.71.084 2.71-.285 0-.638-.105-.969-.209-.33-.105-.64-.209-.84-.209-.562 0-.246.829 2.935 4.826 4.5 5.716 70.573 105.463 74.184 105.463a.161.161 0 0 0 .051-.007c30.76-10.96 161.573-55.86 161.573-55.86l-13.383-19.498-223.635-37.216z"/><path fill="#F8F8F8" d="M71.923 124.888s.986 5.101 5.554 10.747c4.54 5.698 65.527 98.04 68.588 97.227 39.951-10.607 184.9-67.038 184.9-67.038L71.923 124.888z"/><path fill="#999" d="M257.069 324.727l-192.98-64.163.682 4.509 194.445 64.65-2.147-4.996z"/><path fill="url(#paint1_linear)" d="M114.86 120.573s-70.213 20.563-37.996 92.153c0 0-14.772-13.526-23.568-30.821-.396-.774 14.66-54.265 14.66-54.265l46.904-7.067z"/><path fill="url(#paint2_radial)" d="M76.865 212.726c-6.107-.105-15.917-5.143-19.1-11.241-3.977 66.29 23.07 105.003 66.008 125.649C109.743 325.525 40 288.722 40 200.157c0-75.305 59.755-142.617 153.268-145.7.574 4.221-46.361 14.807-47.862 19.785-2.33 7.748-7.685 16.181-12.203 22.942-6.12 9.16 8.507 16.993-2.243 19.461-16.175 3.712-37.75 1.657-53.658 22.339-23.915 31.09-7.957 66.655-.437 73.742z"/><path fill="url(#paint3_linear)" d="M217.795 56.88c-60.561-4.647-91.729 19.585-111.738 47.763-7.287 10.257-6.49 19.675-3.98 31.054 1.078 4.857 2.168 7.185.855 12.137-.724 2.732-.604 5.282-1.503 6.894-1.244 2.227-2.828 4.662-3.358 8.662-1.326 9.988 2.209 13.169 4.418 16.529 3.148-3.125 9.296-10.481 20.381-14.875 11.086-4.394 18.379-10.998 32.272-18.086 18.983-9.682 41.232 5.006 83.418-8.817 12.981-4.254 42.814-48.447 49.896-50.144-19.723-21.81-53.277-29.785-70.661-31.117z"/><path fill="#3F6499" d="M177.785 43.041s-10.814 5.224-15.523 14.662c10.873-5.482 17.184-8.476 20.168-8.833 0 0-2.858 1.385-6.402 8.913 6.266-2.007 8.424-3.272 10.144-3.291 0 0-.5.791-.956 8.305-9.623-3.119-28.143.515-37.995 6.685-3.342-17.819 30.564-26.44 30.564-26.44z"/><path fill="url(#paint4_linear)" d="M220.82 54.196c-18.563-2.405-34.081-1.932-47.273.61 4.149-3.977 8.949-5.936 8.949-5.936-6.221.55-13.987 4.61-20.65 8.91a93.148 93.148 0 0 0-9.587 3.631c1.855-2.445 4.014-5.058 6.123-7.064 7.835-7.45 19.468-11.306 19.468-11.306-9.93-.729-43.159 7.778-63.155 48.278-3.277 3.991-6.335 8.088-9.248 12.192-7.522 10.591-6.697 20.313-4.103 32.063 1.106 5.017 1.309 13.025.218 18.2-.218 1.037-3.065 3.714-3.796 10.934-.78 7.661 1.953 11.422 4.647 14.534 9.575-14.001 19.02-16.776 19.02-16.776 13.402-5.49 18.98-11.354 33.326-18.672 19.6-10.001 88.139 22.638 131.694 8.365 13.404-4.39-5.16-61.44 2.157-63.191-20.367-22.522-49.939-32.46-67.79-34.772z"/><path fill="url(#paint5_linear)" d="M356.775 176.998c-10.736-56.093-62.396-107.123-103.937-109.95-18.436-1.257-12.775 8.197-24.311 11.797-49.713 15.515-50.473 24.573-50.473 24.573 105.41 4.954 107.008 109.058 78.778 135.396 7.944-1.853 16.557-11.565 24.466-26.811-.949 6.397-1.764 14.245-2.95 23.001-3.617 26.718 1.068 82.527-75.706 119.879 0 0 41.997-3.433 62.823-26.877-8.469 19.475-31.708 29.995-31.708 29.995 17.101-2.501 62.025-15.757 90.641-51.545 32.389-40.509 42.129-78.512 32.377-129.458z"/><path fill="url(#paint6_linear)" d="M254.049 279.399s34.244-9.574 45.281-28.065c-1.339 21.56-20.896 43.671-20.896 43.671s28.59-5.786 40.782-25.905c-1.588 18.154-23.599 42.691-23.599 42.691 22.503-4.039 79.045-39.757 61.159-134.793-10.563-56.125-62.396-107.123-103.937-109.95-18.436-1.257-12.775 8.197-24.311 11.797-49.713 15.515-50.473 24.573-50.473 24.573 105.41 4.954 133.421 60.123 78.778 133.923 7.944-1.854 11.129-6.219 17.096-13.363-.002 0 2.704 28.255-19.88 55.421z"/><path fill="url(#paint7_linear)" d="M118.629 154.008s-6.122 4.282-10.555 3.191c-5.247-1.288-6.136-6.374-6.136-6.374-.116 1.042-.249 2.047-.443 2.949-.217 1.037-3.065 3.714-3.796 10.934-.78 7.661 2.096 12.097 4.79 15.21 9.576-14.001 18.879-17.452 18.879-17.452-3.644-1.274-2.739-8.458-2.739-8.458z"/><mask id="a" width="131" height="122" x="158" y="33" maskUnits="userSpaceOnUse"><path fill="url(#paint8_radial)" d="M288.191 33.636H158.439v121.09h129.752V33.636z"/></mask><g mask="url(#a)" opacity=".6"><path fill="url(#paint9_linear)" d="M252.129 66.915c1.435-.373 7.292.264 11.136 1.988 3.846 1.724 10.474 4.773 5.171 6.099-5.303 1.326-8.352-.795-11.003-3.05-2.652-2.255-8.883-4.11-5.304-5.037z" opacity=".2"/></g><path fill="url(#paint10_linear)" d="M119.203 153.17s33.585-55.347 63.948-70.283c2.819-1.418-42.04 11.924-60.092 31.85-10.73 11.843-5.048 35.03-3.856 38.433z"/><path fill="#F2F2F2" d="M119.203 153.17l.097-.059c8.685-5.366 23.568-8.456 28.365-18.182 18.47-37.452 35.487-52.042 35.487-52.042-30.364 14.936-63.949 70.283-63.949 70.283z" opacity=".1"/><path fill="#2F4282" d="M122.396 143.046s-6.054-9.287 2.663-17.756c4.6-4.463 11.571-1.984 12.377-1.181 3.43 3.402 1.274 10.581-1.814 14.645-1.745 2.288-6.823 5.851-13.226 4.292z"/><path fill="url(#paint11_linear)" d="M125.866 142.471s-4.183-6.421 1.845-12.272c3.173-3.082 7.993-1.369 8.552-.817 2.369 2.351.877 7.313-1.256 10.119-1.205 1.587-4.716 4.047-9.141 2.97z"/><path fill="#000" d="M134.215 135.619c-.093 2.566-2.265 4.569-4.849 4.481-2.59-.089-4.616-2.239-4.524-4.805.092-2.565 2.262-4.568 4.853-4.48 2.584.09 4.61 2.241 4.52 4.804z"/><path fill="#fff" d="M126.564 135.658a1.472 1.472 0 1 0 0-2.947 1.474 1.474 0 0 0 0 2.947z"/><path fill="url(#paint12_linear)" d="M336.445 127.339c-22.99-34.997-41.205-43.89-41.205-43.89s.837 25.493 13.601 37.789c1.459 1.405-15.274-10.939-15.274-10.939s-3.578 11.774 4.621 25.31c-2.382-3.164-3.958-4.363-3.958-4.363s-15.449 7.124-20.009 17.007c-2.355-4.445-4.12-7.063-4.12-7.063s-10.685 21.324-9.342 46.049c2.185 40.201-7.529 55.011-7.529 55.011s26.021-9.982 38.5-42.121c5.155 13.665-.157 28.047-.157 28.047s21.024-15.709 25.545-44.343c5.012 8.083 3.538 24.214 3.538 24.214s13.42-18.684 13.747-39.032c6.219 4.337 6.791 21.275 6.791 21.275s19.896-25.435-4.749-62.951z"/><path fill="url(#paint13_linear)" d="M314.101 102.882c-6.008-11.196-16.61-18.332-25.928-24.107-23.234-14.407-38.177-16.43-38.177-16.43s-21.442 3.987-17.759 9.952c.19.306.632.694 1.256 1.138-18.808-8.663-29.477 11.257-29.477 11.257-10.747-.653-23.834 4.638-27.649 18.81-.396 1.471 4.814.643 7.495 1.226 15.67 3.406 30.422 10.793 37.2 14.444 15.768 8.495 25.123 22.64 30.524 33.249 6.534 12.836 9.203 35.422 9.203 35.422s17.193-23.618 13.085-35.744c6.809 4.23 8.153 19.319 8.153 19.319s11.462-17.952 8.074-33.589c8.841 5.388 9.135 16.347 9.135 16.347s9.002-12.494 4.934-32.987c8.897 7.075 10.759 16.239 10.759 16.239s7.273-19.451-.828-34.546z"/></g><defs><linearGradient id="paint0_linear" x1="298.858" x2="91.476" y1="304.938" y2="97.555" gradientUnits="userSpaceOnUse"><stop stop-color="#130036"/><stop offset=".23" stop-color="#18023B"/><stop offset=".512" stop-color="#26094A"/><stop offset=".821" stop-color="#3D1563"/><stop offset="1" stop-color="#4E1D75"/></linearGradient><linearGradient id="paint1_linear" x1="53.288" x2="114.86" y1="166.649" y2="166.649" gradientUnits="userSpaceOnUse"><stop stop-color="#3156A8"/><stop offset=".247" stop-color="#3351A4"/><stop offset=".536" stop-color="#3B4397"/><stop offset=".845" stop-color="#472C82"/><stop offset="1" stop-color="#4E1D75"/></linearGradient><radialGradient id="paint2_radial" cx="0" cy="0" r="1" gradientTransform="matrix(110.592 0 0 160.359 116.637 190.795)" gradientUnits="userSpaceOnUse"><stop offset=".165" stop-color="#14CDDA"/><stop offset=".548" stop-color="#2061BD"/><stop offset=".655" stop-color="#2658AC"/><stop offset=".864" stop-color="#373F81"/><stop offset="1" stop-color="#432D62"/></radialGradient><linearGradient id="paint3_linear" x1="97.781" x2="288.456" y1="118.111" y2="118.111" gradientUnits="userSpaceOnUse"><stop stop-color="#2061BD"/><stop offset=".185" stop-color="#2B51AC"/><stop offset=".683" stop-color="#442C84"/><stop offset=".941" stop-color="#4E1D75"/></linearGradient><linearGradient id="paint4_linear" x1="125.849" x2="256.996" y1="73.105" y2="187.109" gradientUnits="userSpaceOnUse"><stop offset=".02" stop-color="#48A8E0"/><stop offset=".388" stop-color="#2061BD"/><stop offset=".497" stop-color="#2B51AC"/><stop offset=".789" stop-color="#442C84"/><stop offset=".941" stop-color="#4E1D75"/></linearGradient><linearGradient id="paint5_linear" x1="65.527" x2="322.603" y1="480.734" y2="99.603" gradientUnits="userSpaceOnUse"><stop offset=".379" stop-color="#3156A8"/><stop offset="1" stop-color="#4E1D75"/></linearGradient><linearGradient id="paint6_linear" x1="165.51" x2="307.66" y1="404.493" y2="85.218" gradientUnits="userSpaceOnUse"><stop stop-color="#29ABE2"/><stop offset=".773" stop-color="#385AA6"/><stop offset=".858" stop-color="#414293"/><stop offset="1" stop-color="#4E1D75"/></linearGradient><linearGradient id="paint7_linear" x1="102.62" x2="110.368" y1="162.397" y2="166.853" gradientUnits="userSpaceOnUse"><stop stop-color="#B0DCD6"/><stop offset="1" stop-color="#53ACE0"/></linearGradient><radialGradient id="paint8_radial" cx="0" cy="0" r="1" gradientTransform="translate(240.286 131.216) scale(67.4185)" gradientUnits="userSpaceOnUse"><stop offset=".868" stop-color="#fff"/><stop offset="1"/></radialGradient><linearGradient id="paint9_linear" x1="268.606" x2="253.073" y1="72.948" y2="69.667" gradientUnits="userSpaceOnUse"><stop stop-color="#3092B9"/><stop offset=".22" stop-color="#258DB6"/><stop offset=".656" stop-color="#1685B1"/><stop offset="1" stop-color="#1082AF"/></linearGradient><linearGradient id="paint10_linear" x1="144.803" x2="157.586" y1="92.331" y2="143.6" gradientUnits="userSpaceOnUse"><stop offset=".007" stop-color="#1398D1" stop-opacity="0"/><stop offset=".248" stop-color="#1187C2" stop-opacity=".62"/><stop offset=".642" stop-color="#3F6499" stop-opacity=".71"/><stop offset="1" stop-color="#2F4282" stop-opacity=".5"/></linearGradient><linearGradient id="paint11_linear" x1="134.443" x2="127.4" y1="137.945" y2="133.714" gradientUnits="userSpaceOnUse"><stop stop-color="#F9C21B"/><stop offset=".148" stop-color="#F3BA1B"/><stop offset=".379" stop-color="#E3A41B"/><stop offset=".663" stop-color="#C9801C"/><stop offset=".988" stop-color="#A44E1C"/><stop offset="1" stop-color="#A34C1C"/></linearGradient><linearGradient id="paint12_linear" x1="307.522" x2="259.805" y1="211.832" y2="104.657" gradientUnits="userSpaceOnUse"><stop stop-color="#409EC3"/><stop offset=".62" stop-color="#2061BD"/></linearGradient><linearGradient id="paint13_linear" x1="269.315" x2="235.126" y1="176.703" y2="71.481" gradientUnits="userSpaceOnUse"><stop stop-color="#14B2DA"/><stop offset=".403" stop-color="#297CCC"/><stop offset=".508" stop-color="#256FC5"/><stop offset=".649" stop-color="#2164BF"/><stop offset=".816" stop-color="#2061BD"/><stop offset=".984" stop-color="#2061BD"/></linearGradient><clipPath id="clip0"><path fill="#fff" d="M0 0h320.386v315H0z" transform="translate(40 43)"/></clipPath></defs></svg>