<svg xmlns="http://www.w3.org/2000/svg" width="400" height="400" fill="none" viewBox="0 0 400 400"><path fill="#2684FF" d="M361.046 190.047L214.23 43.231 199.999 29 89.481 139.517l-50.53 50.53a13.514 13.514 0 0 0 0 19.095l100.97 100.97 60.078 60.078 110.517-110.518 1.711-1.711 48.819-48.819a13.51 13.51 0 0 0 0-19.095zm-161.047 59.988l-50.44-50.44 50.44-50.44 50.439 50.44-50.439 50.44z"/><path fill="url(#paint0_linear)" d="M199.996 149.154a84.936 84.936 0 0 1-.36-119.75L89.254 139.743l60.077 60.077 50.665-50.665z"/><path fill="url(#paint1_linear)" d="M250.575 199.46L200 250.035a84.946 84.946 0 0 1 24.895 60.077A84.928 84.928 0 0 1 200 370.19l110.652-110.653-60.077-60.077z"/><defs><linearGradient id="paint0_linear" x1="190.989" x2="120.554" y1="98.129" y2="168.565" gradientUnits="userSpaceOnUse"><stop offset=".18" stop-color="#0052CC"/><stop offset="1" stop-color="#2684FF"/></linearGradient><linearGradient id="paint1_linear" x1="4491.1" x2="6923.81" y1="10491.1" y2="8914.39" gradientUnits="userSpaceOnUse"><stop offset=".18" stop-color="#0052CC"/><stop offset="1" stop-color="#2684FF"/></linearGradient></defs></svg>