<svg xmlns="http://www.w3.org/2000/svg" width="400" height="400" fill="none" viewBox="0 0 400 400"><path fill="#71a752" fill-rule="evenodd" d="M241.874 69.898c.997-2.346 3.511-3.961 6.062-3.896h54.647c3.361-.006 6.424 3.052 6.417 6.41v55.719c-.018 2.513-1.666 4.941-3.998 5.885-2.332.945-5.207.351-6.973-1.44L243.278 76.96c-1.819-1.788-2.401-4.716-1.404-7.062zM92.862 67.961A6.446 6.446 0 0 1 97.39 66h96.385a6.42 6.42 0 0 1 2.506.537 6.494 6.494 0 0 1 2.104 1.478l108.729 110.273a6.559 6.559 0 0 1 1.403 2.143 6.63 6.63 0 0 1 .483 2.524v143.468a6.64 6.64 0 0 1-.492 2.518 6.56 6.56 0 0 1-1.408 2.135c-.603.611-1.319 1.095-2.108 1.425s-1.634.499-2.487.498H97.39a6.445 6.445 0 0 1-4.528-1.96A6.609 6.609 0 0 1 91 326.424V72.577a6.608 6.608 0 0 1 1.862-4.616zm91.19 21.193h-70.167v220.693H286.01V192.609z" clip-rule="evenodd"/></svg>