<svg xmlns="http://www.w3.org/2000/svg" width="400" height="400" fill="none" viewBox="0 0 400 400"><path fill="#B92B27" d="M196.71 286.133c-10.651-20.963-23.146-42.137-47.519-42.137-4.659 0-9.312.772-13.583 2.721l-8.279-16.571c10.09-8.657 26.394-15.521 47.351-15.521 32.603 0 49.334 15.704 62.617 35.751 7.886-17.115 11.634-40.227 11.634-68.875 0-71.541-22.373-108.275-74.634-108.275-51.5 0-73.751 36.734-73.751 108.275 0 71.163 22.251 107.519 73.751 107.519 8.185 0 15.599-.899 22.413-2.887zm12.766 24.967c-11.289 3.026-23.284 4.698-35.179 4.698-68.575 0-135.718-54.721-135.718-134.297 0-80.332 67.143-135.064 135.718-135.064 69.725 0 136.224 54.338 136.224 135.064 0 44.902-20.952 81.392-51.405 104.976 9.84 14.744 19.969 24.534 34.074 24.534 15.393 0 21.601-11.895 22.64-21.224h20.047c1.171 12.422-5.043 64.05-61.068 64.05-33.935 0-51.878-19.67-65.333-42.737z"/></svg>