<svg xmlns="http://www.w3.org/2000/svg" width="344" height="140" fill="none" viewBox="0 0 344 140"><path fill="#000" fill-rule="evenodd" d="M83.37 97.99c3.04 3.364 6.631 6.163 10.773 8.399 6.317 3.412 13.355 5.147 21.115 5.209 5.767-.06 11.379-1.384 16.838-3.968 5.114-2.422 9.452-5.637 13.01-9.642l-4.913.002c-.049.04-.1.076-.15.111-3.809 2.599-7.798 4.576-11.968 5.932-4.169 1.357-8.584 2.038-13.241 2.047-5.962-.07-11.23-1.532-15.807-4.385a30.814 30.814 0 0 1-4.82-3.705zm80.675 0c.258.271.54.53.845.77 1.935 1.523 4.262 2.295 6.982 2.314 2.717-.019 5.029-.791 6.939-2.314.3-.24.58-.499.835-.77zm90.552 0c.241.288.508.555.796.802 1.754 1.507 4.017 2.268 6.79 2.282 1.924.002 3.676-.471 5.252-1.423a6.67 6.67 0 0 0 1.864-1.661h-14.702zM73.734 77.58c.796 5.382 2.559 10.259 5.292 14.64a40.336 40.336 0 0 0 4.343 5.77h10.837c-2.358-2.214-4.34-4.8-5.948-7.754-2.105-3.864-3.374-8.085-3.81-12.656zm26.831 0-2.113 4.82a63.42 63.42 0 0 0-1.061 2.492 7.739 7.739 0 0 0-.551 2.685c.025 1.21.42 2.186 1.188 2.929.768.741 1.758 1.124 2.971 1.145 1.592-.07 2.863-.672 3.809-1.804s1.684-2.369 2.217-3.714l3.752-8.553zm18.656 0-2.18 4.905a28.384 28.384 0 0 0-1.093 2.482 7.693 7.693 0 0 0-.52 2.61c.021 1.21.404 2.186 1.145 2.929.743.741 1.72 1.124 2.929 1.145 1.592-.069 2.865-.655 3.82-1.761s1.719-2.33 2.291-3.672l3.861-8.639zm22.201 0a25.048 25.048 0 0 1-2.823 4.31l2.971 2.547c2.108-1.98 3.919-4.264 5.436-6.857zm67.456 22.984h5.857V73.826h-5.857zm11.053-22.984c.145.584.44 1.097.885 1.54.63.632 1.405.96 2.323.987.918-.027 1.691-.355 2.323-.987.443-.443.737-.954.882-1.54zm-74.825 20.408c.24-.272.477-.543.708-.819l-1.696-2.547a31.697 31.697 0 0 1-3.925 3.368zm34.54.002c1.367-1.457 2.085-3.371 2.157-5.745-.085-2.818-1.082-4.99-2.992-6.514-1.91-1.525-4.222-2.297-6.939-2.314-2.72.012-5.047.773-6.982 2.282-1.934 1.508-2.946 3.69-3.034 6.546.074 2.374.803 4.288 2.189 5.745zm12.089 2.574-.001-8.574c-.021-1.05.191-1.941.635-2.674.447-.733 1.254-1.114 2.421-1.146 1.152.034 1.902.412 2.248 1.135s.504 1.59.466 2.6l.001 8.659h5.856V90.292c.011-2.102-.496-3.753-1.516-4.955-1.02-1.2-2.609-1.81-4.764-1.836-1.142-.012-2.147.184-3.013.585-.867.4-1.617 1.084-2.249 2.047h-.085v-2.121h-5.857v16.552zm28.518 0h5.772V84.012h-5.772zm16.807 0-.001-8.574c-.021-1.05.191-1.941.636-2.674.446-.733 1.253-1.114 2.42-1.146 1.075.029 1.788.376 2.143 1.04.353.666.515 1.48.487 2.441v8.913h5.858l-.001-10.272c.009-2.102-.496-3.753-1.516-4.955-1.023-1.2-2.609-1.81-4.765-1.836-.919.041-1.86.343-2.822.902-.962.562-1.776 1.139-2.44 1.73v-2.122h-5.942v16.553zm32.239-2.574c.578-.754 1.006-1.65 1.287-2.69h-5.603c-.302.51-.695.892-1.177 1.147a3.428 3.428 0 0 1-1.623.382c-1.165 0-2.083-.297-2.759-.892s-1.001-1.484-.976-2.674h12.307c.018-3.01-.697-5.393-2.143-7.15-1.447-1.757-3.731-2.658-6.854-2.696-2.718.028-4.9.82-6.545 2.377-1.647 1.556-2.493 3.706-2.537 6.45.048 2.389.687 4.3 1.921 5.746zm-3.891-8.121h-6.79c.187-.857.598-1.522 1.23-1.995.634-.475 1.382-.715 2.249-.722a3.44 3.44 0 0 1 2.132.785 3.188 3.188 0 0 1 1.179 1.932zm-89.801 2.376c-.018 1.122-.365 2.019-1.04 2.695-.676.676-1.574 1.022-2.695 1.04-1.125-.018-2.037-.364-2.738-1.04-.699-.676-1.061-1.573-1.082-2.695.021-1.121.383-2.02 1.082-2.694.701-.676 1.613-1.022 2.738-1.04 1.121.018 2.019.364 2.695 1.04.675.674 1.022 1.573 1.04 2.694zM84.448 77.58c-.104-1.091-.16-2.2-.171-3.33-.04-6.66.91-12.805 2.853-18.434 1.941-5.631 5.124-10.166 9.546-13.606 4.423-3.442 10.333-5.211 17.733-5.308 5.61.032 10.678 1.214 15.206 3.544 4.529 2.33 8.132 5.617 10.811 9.86 2.68 4.246 4.052 9.256 4.115 15.031-.019 2.902-.554 5.82-1.603 8.754a27.874 27.874 0 0 1-1.516 3.489h5.584a35.03 35.03 0 0 0 1.577-3.044c1.782-3.878 2.698-7.792 2.749-11.744-.081-7.015-1.758-13.018-5.031-18.012-3.271-4.992-7.652-8.82-13.14-11.483-5.488-2.663-11.598-4.009-18.327-4.033-8.102.074-15.269 1.926-21.496 5.555-6.23 3.629-11.117 8.593-14.67 14.891-3.549 6.298-5.358 13.488-5.424 21.57.025 2.172.188 4.27.49 6.3zm26.329 0 9.574-21.833c.49-1.022.932-2.08 1.325-3.174.396-1.094.604-2.215.627-3.362-.021-1.21-.402-2.186-1.146-2.929-.743-.743-1.719-1.124-2.928-1.146-1.416.027-2.531.44-3.342 1.241-.812.802-1.481 1.83-2.005 3.088L100.565 77.58zm18.697 0 1.487-3.33a34.2 34.2 0 0 0 1.326-3.172 10.43 10.43 0 0 0 .625-3.363c-.021-1.209-.402-2.187-1.146-2.928-.741-.743-1.717-1.126-2.926-1.148-1.418.034-2.532.458-3.344 1.275-.812.815-1.479 1.836-2.005 3.055l-4.27 9.61zm96.87 0c.062-.25.097-.511.105-.783-.027-.914-.355-1.675-.987-2.28-.632-.608-1.405-.922-2.323-.947-.918.025-1.693.34-2.323.947-.632.605-.961 1.366-.987 2.28.007.272.042.535.102.783zm29.388-19.203c.019-2.972-.678-5.345-2.09-7.119-1.413-1.774-3.66-2.683-6.738-2.727-2.72.032-4.916.838-6.588 2.42-1.672 1.58-2.53 3.744-2.579 6.492.06 2.853.98 5.02 2.759 6.505 1.779 1.483 4.057 2.23 6.833 2.239 1.919.001 3.64-.468 5.167-1.41 1.525-.943 2.547-2.37 3.066-4.278h-5.431a2.99 2.99 0 0 1-1.18 1.147 3.424 3.424 0 0 1-1.622.382c-1.165-.004-2.083-.316-2.759-.934-.674-.62-1.001-1.525-.976-2.717zm-40.657-16.296c-.026-.914-.355-1.675-.986-2.28-.632-.608-1.407-.924-2.323-.947-.918.023-1.693.339-2.325.946-.632.606-.961 1.367-.985 2.28.024.919.353 1.692.985 2.324.632.632 1.407.96 2.325.987.916-.027 1.691-.355 2.323-.987.631-.632.96-1.405.986-2.323zm19.013 17.91c-.091-1.935-.738-3.208-1.936-3.817-1.199-.61-2.399-1.01-3.598-1.195-1.198-.185-1.844-.609-1.934-1.27.033-.417.261-.707.678-.87a3.118 3.118 0 0 1 1.188-.234 6.94 6.94 0 0 1 1.634.192 6.153 6.153 0 0 1 1.506.572l1.952-3.735a12.866 12.866 0 0 0-5.347-1.103c-1.867-.002-3.544.49-5.029 1.476-1.484.985-2.272 2.473-2.354 4.466.09 1.846.729 3.048 1.913 3.606s2.371.936 3.555 1.135c1.186.2 1.824.685 1.915 1.455-.026.458-.229.773-.605.944a2.668 2.668 0 0 1-1.177.245 6.991 6.991 0 0 1-2.461-.5 9.504 9.504 0 0 1-2.208-1.198l-2.122 4.159a13.943 13.943 0 0 0 3.227 1.38c1.128.322 2.287.484 3.479.488 1.993.012 3.758-.479 5.294-1.474 1.537-.998 2.347-2.57 2.43-4.722zm-25.21 5.772h5.857V49.295h-5.857zm-4.668-7.386c.009-3.01-.73-5.392-2.217-7.15-1.488-1.759-3.775-2.657-6.865-2.696-2.718.032-4.9.838-6.545 2.42-1.647 1.58-2.492 3.744-2.537 6.492.057 2.853.963 5.02 2.717 6.505 1.755 1.483 4.018 2.23 6.791 2.239 1.929.007 3.693-.452 5.294-1.38 1.599-.926 2.665-2.363 3.193-4.308h-5.687c-.302.51-.694.891-1.178 1.147a3.427 3.427 0 0 1-1.622.382c-1.165-.004-2.083-.316-2.759-.934-.676-.62-1.001-1.525-.976-2.717zm-22.407 7.386V55.576c.007-2.035-.496-3.693-1.508-4.976-1.011-1.282-2.573-1.944-4.688-1.984-2.221.014-3.975.92-5.262 2.716h-.087v-13.24h-5.855v27.67h5.855v-8.488c-.015-1.02.209-1.93.669-2.727.463-.798 1.257-1.218 2.387-1.262 1.151.049 1.885.482 2.207 1.294.323.813.464 1.712.425 2.695v8.489zm68.751-10.78h-6.791c.189-.853.599-1.504 1.233-1.953.632-.45 1.382-.676 2.248-.68a3.535 3.535 0 0 1 2.133.744 3.04 3.04 0 0 1 1.177 1.889zm-51.775 0h-6.791c.187-.853.599-1.504 1.231-1.953.633-.45 1.382-.676 2.25-.68a3.53 3.53 0 0 1 2.131.744 3.038 3.038 0 0 1 1.179 1.889z" clip-rule="evenodd"/></svg>