<svg width="400" height="400" viewBox="0 0 400 400" fill="none" xmlns="http://www.w3.org/2000/svg">
<path fill-rule="evenodd" clip-rule="evenodd" d="M37.3819 68.7115C30 83.4849 30 102.757 30 141.3V258.7C30 297.243 30 316.515 37.3819 331.289C44.1574 344.848 55.1515 355.843 68.7115 362.618C83.4849 370 102.757 370 141.3 370H258.7C297.243 370 316.515 370 331.289 362.618C344.848 355.843 355.843 344.848 362.618 331.289C370 316.515 370 297.243 370 258.7V141.3C370 102.757 370 83.4849 362.618 68.7115C355.843 55.1515 344.848 44.1574 331.289 37.3819C316.515 30 297.243 30 258.7 30H141.3C102.757 30 83.4849 30 68.7115 37.3819C55.1515 44.1574 44.1574 55.1515 37.3819 68.7115ZM99.1016 263H75.9863V169.748H99.1016V263ZM78.2715 155.422C75.6934 153.137 74.4043 150.207 74.4043 146.633C74.4043 143 75.6934 140.07 78.2715 137.844C80.8496 135.559 83.9258 134.416 87.5 134.416C91.1328 134.416 94.209 135.559 96.7285 137.844C99.3066 140.07 100.596 143 100.596 146.633C100.596 150.207 99.3066 153.137 96.7285 155.422C94.209 157.648 91.1328 158.762 87.5 158.762C83.9258 158.762 80.8496 157.648 78.2715 155.422ZM198.242 211.232V195.588C198.242 187.854 197.07 181.408 194.727 176.252C192.383 171.037 189.16 167.111 185.059 164.475C180.957 161.838 176.24 160.52 170.908 160.52C165.635 160.52 160.947 161.838 156.846 164.475C152.744 167.111 149.521 171.037 147.178 176.252C144.834 181.408 143.662 187.854 143.662 195.588V211.232C143.662 218.908 144.834 225.295 147.178 230.393C149.521 235.49 152.744 239.299 156.846 241.818C160.947 244.279 165.635 245.51 170.908 245.51C176.24 245.51 180.957 244.279 185.059 241.818C189.16 239.299 192.383 235.49 194.727 230.393C197.07 225.295 198.242 218.908 198.242 211.232ZM222.324 195.764V211.145C222.324 222.395 220.244 232.092 216.084 240.236C211.982 248.322 206.094 254.533 198.418 258.869C190.742 263.146 181.543 265.285 170.82 265.285C160.156 265.285 150.986 263.146 143.311 258.869C135.635 254.533 129.746 248.322 125.645 240.236C121.543 232.092 119.492 222.395 119.492 211.145V195.764C119.492 184.396 121.543 174.611 125.645 166.408C129.805 158.146 135.723 151.818 143.398 147.424C151.133 142.971 160.332 140.744 170.996 140.744C181.719 140.744 190.889 142.971 198.506 147.424C206.182 151.877 212.07 158.234 216.172 166.496C220.273 174.699 222.324 184.455 222.324 195.764ZM237.969 241.643C236.328 237.365 235.479 233.117 235.42 228.898H258.359C258.535 231.242 259.18 233.469 260.293 235.578C261.465 237.688 263.076 239.562 265.127 241.203C267.236 242.844 269.785 244.133 272.773 245.07C275.82 246.008 279.307 246.477 283.232 246.477C288.096 246.477 292.197 245.803 295.537 244.455C298.877 243.049 301.426 241.115 303.184 238.654C304.941 236.135 305.82 233.205 305.82 229.865C305.82 225.646 304.297 222.365 301.25 220.021C298.203 217.619 293.574 215.715 287.363 214.309L268.818 210.002C263.369 208.771 258.33 206.867 253.701 204.289C249.072 201.652 245.352 198.107 242.539 193.654C239.785 189.143 238.408 183.547 238.408 176.867C238.408 169.074 240.4 162.482 244.385 157.092C248.428 151.643 253.848 147.541 260.645 144.787C267.441 141.975 274.941 140.568 283.145 140.568C291.758 140.568 299.375 142.033 305.996 144.963C312.676 147.893 317.92 152.023 321.729 157.355C325.596 162.688 327.588 168.957 327.705 176.164H305.381C305.146 173.176 304.18 170.393 302.48 167.814C300.781 165.236 298.32 163.156 295.098 161.574C291.875 159.992 287.861 159.201 283.057 159.201C276.67 159.201 271.572 160.607 267.764 163.42C264.014 166.232 262.139 170.1 262.139 175.021C262.139 178.654 263.516 181.701 266.27 184.162C269.082 186.564 273.184 188.352 278.574 189.523L297.207 193.83C303.125 195.119 308.516 197.053 313.379 199.631C318.242 202.209 322.139 205.754 325.068 210.266C327.998 214.719 329.463 220.52 329.463 227.668C329.463 235.52 327.5 242.258 323.574 247.883C319.648 253.508 314.141 257.814 307.051 260.803C299.961 263.791 291.582 265.285 281.914 265.285C273.242 265.285 265.947 264.201 260.029 262.033C254.111 259.865 249.365 256.994 245.791 253.42C242.217 249.846 239.609 245.92 237.969 241.643Z" fill="black"/>
</svg>
