<svg width="172" height="71" fill="none" xmlns="http://www.w3.org/2000/svg"><g clip-path="url(#a)" fill-rule="evenodd" clip-rule="evenodd" fill="#fff"><path d="M69.552 35.628c.57-.65.894-1.545.894-2.601 0-2.683-2.276-4.552-5.202-4.552h-5.527v15.362h7.234c2.926 0 5.202-1.87 5.202-4.552 0-1.788-1.056-3.088-2.6-3.657zm-5.934-3.74h1.464c.975 0 1.544.57 1.544 1.382 0 .813-.569 1.382-1.544 1.382h-1.463V31.89zm3.09 8.617h-3.09v-2.683h3.09c.893 0 1.544.407 1.544 1.382 0 .976-.65 1.3-1.545 1.3zm7.396-14.144h3.983v17.476h-3.983V26.361zm6.584 5.853h3.983v11.623h-3.983V32.214zm1.951-6.503c-1.382 0-2.438 1.057-2.438 2.357 0 1.3 1.056 2.357 2.438 2.357 1.382 0 2.439-1.056 2.439-2.357.08-1.3-1.057-2.357-2.439-2.357zm11.624 6.259c-1.382 0-2.52.488-3.252 1.22v-.976h-3.657v11.623h3.983v-6.584c0-1.056.731-1.707 1.706-1.707.976 0 1.707.65 1.707 1.707v6.584h3.984v-7.153c-.082-2.845-1.789-4.714-4.471-4.714zm19.183.244h-4.633l-3.577 4.714V26.361h-4.064v17.476h4.064v-6.096l4.146 6.096h4.389l-4.308-6.421 3.983-5.202zm1.626 0h3.983v11.623h-3.983V32.214zm1.951-6.503c-1.382 0-2.439 1.057-2.439 2.357 0 1.3 1.057 2.357 2.439 2.357 1.381 0 2.438-1.056 2.438-2.357 0-1.3-1.057-2.357-2.438-2.357zm9.998 10.892-1.138-.488c-.569-.244-.813-.325-.813-.65s.325-.406.813-.406c.894 0 1.707.325 2.438.975l1.87-2.438c-1.138-1.22-2.683-1.707-4.39-1.707-2.682 0-4.552 1.381-4.552 3.657 0 1.951 1.22 2.845 3.414 3.74l1.301.569c.406.162.65.325.65.569 0 .406-.488.487-1.057.487-1.138 0-2.276-.488-3.251-1.463l-1.87 2.357c1.057 1.463 2.927 2.195 5.04 2.195 2.764 0 4.796-1.382 4.796-3.902.163-1.788-1.138-2.682-3.251-3.495zm11.948 3.902c-1.463 0-2.032-.407-2.032-1.545v-3.414h3.089v-3.332h-3.089V29.45h-3.983v2.764h-1.788v3.332h1.788v3.82c0 3.17 1.87 4.715 5.121 4.715.894 0 1.707-.081 2.358-.244v-3.332h-1.464zM48.337 25.06l-4.796 4.878-4.796-4.877c-3.658 1.788-6.178 5.608-6.178 9.998 0 6.096 4.877 11.136 10.974 11.136 6.015 0 10.973-4.959 10.973-11.136 0-4.39-2.52-8.21-6.177-9.998z"/><path d="m46.467 32.864-2.845-2.926-2.926 2.926c-1.626 1.625-1.626 4.308 0 5.934a4.121 4.121 0 0 0 5.852 0c1.545-1.626 1.545-4.309-.08-5.934z"/></g><defs><clipPath id="a"><path fill="#fff" transform="translate(32.567 25.06)" d="M0 0h107.865v21.053H0z"/></clipPath></defs></svg>