<svg xmlns="http://www.w3.org/2000/svg" width="400" height="400" fill="none" viewBox="0 0 400 400"><path fill="#0A66C2" fill-rule="evenodd" d="M72.17 350h255.66c11.952 0 21.695-9.168 22.152-20.646l.017-.844V71.49c0-11.583-9.459-21.03-21.299-21.474l-.87-.016H72.169c-11.952 0-21.695 9.172-22.152 20.647L50 71.49v257.02c0 11.587 9.458 21.031 21.299 21.474l.87.016zm46.113-202.831h-.295c-15.207 0-25.04-10.403-25.04-23.403 0-13.292 10.135-23.406 25.635-23.406 15.501 0 25.042 10.114 25.336 23.406 0 13-9.835 23.403-25.636 23.403zm47.729 153.962h45.312v-75.65c0-4.049.294-8.094 1.491-10.988 3.276-8.089 10.731-16.467 23.249-16.467 16.396 0 22.955 12.422 22.955 30.634v72.471h45.308v-77.675c0-41.609-22.354-60.971-52.166-60.971l-1.48.017c-22.913.525-33.378 13.204-39.287 22.237l-.072.113.003.458h-.302l.299-.458.003-19.188h-45.313c.596 12.712 0 135.467 0 135.467zm-25.073 0H95.627V165.664h45.312v135.467z" clip-rule="evenodd"/></svg>