<svg xmlns="http://www.w3.org/2000/svg" width="400" height="400" fill="none" viewBox="0 0 400 400"><mask id="a" width="300" height="300" x="50" y="50" maskUnits="userSpaceOnUse"><path fill="#fff" fill-rule="evenodd" d="M200 350c82.843 0 150-67.157 150-150S282.843 50 200 50 50 117.157 50 200s67.157 150 150 150z" clip-rule="evenodd"/></mask><g fill-rule="evenodd" clip-rule="evenodd"><path fill="#d8d8d8" d="M200 350c82.843 0 150-67.157 150-150S282.843 50 200 50 50 117.157 50 200s67.157 150 150 150z"/><path fill="#d8d8d8" d="M200 350c82.843 0 150-67.157 150-150S282.843 50 200 50 50 117.157 50 200s67.157 150 150 150z"/><g mask="url(#a)"><path fill="#ffcd40" d="M200 131.818l59.063 102.273L192.79 350H350V131.818z"/><path fill="#db4437" d="M73.813 50v184.091h67.142L200 131.818h150V50z"/><path fill="#0f9d58" d="M50 350h142.79l66.272-115.909H140.955L50 78.091z"/><path fill="#f1f1f1" d="M200 131.818c37.631 0 68.182 30.551 68.182 68.182S237.631 268.182 200 268.182 131.818 237.631 131.818 200s30.551-68.182 68.182-68.182z"/><path fill="#4285f4" d="M200 145.455c30.104 0 54.545 24.441 54.545 54.545S230.104 254.545 200 254.545 145.455 230.104 145.455 200s24.441-54.545 54.545-54.545z"/></g></g></svg>