<svg fill="none" height="40" viewBox="0 0 40 40" width="40" xmlns="http://www.w3.org/2000/svg"><path d="m0 0h40v40h-40z" fill="#1976f0"/><path d="m10.2 20h1.4zm0-2.8.99-.99a1.4 1.4 0 0 0 -1.98 0zm1.81 3.79a1.4 1.4 0 0 0 1.98-1.98zm-5.6-1.98a1.4 1.4 0 1 0 1.98 1.98zm21.51 8.91a1.4 1.4 0 0 0 -1.98-1.98zm1.88-5.12-.99.99a1.4 1.4 0 0 0 1.98 0zm-1.81-3.79a1.4 1.4 0 1 0 -1.98 1.98zm5.6 1.98a1.4 1.4 0 0 0 -1.98-1.98zm-21.51-8.91a1.4 1.4 0 0 0 1.98 1.98zm5.12 4.42a1.4 1.4 0 1 0 0 2.8zm5.6 2.8a1.4 1.4 0 1 0 0-2.8zm-5.6 1.4a1.4 1.4 0 1 0 0 2.8zm5.6 2.8a1.4 1.4 0 1 0 0-2.8zm-11.2-3.5v-2.8h-2.8v2.8zm-2.39-1.81 2.8 2.8 1.98-1.98-2.8-2.8zm0-1.98-2.8 2.8 1.98 1.98 2.8-2.8zm10.79 12.19a8.4 8.4 0 0 1 -8.4-8.4h-2.8c0 6.186 5.014 11.2 11.2 11.2zm5.94-2.46a8.37 8.37 0 0 1 -5.94 2.46v2.8a11.17 11.17 0 0 0 7.92-3.28zm2.46-5.94v2.8h2.8v-2.8zm2.39 1.81-2.8-2.8-1.98 1.98 2.8 2.8zm0 1.98 2.8-2.8-1.98-1.98-2.8 2.8zm-10.79-12.19a8.4 8.4 0 0 1 8.4 8.4h2.8c0-6.186-5.014-11.2-11.2-11.2zm-5.94 2.46a8.37 8.37 0 0 1 5.94-2.46v-2.8a11.17 11.17 0 0 0 -7.92 3.28zm3.14 5.24h5.6v-2.8h-5.6zm0 4.2h5.6v-2.8h-5.6z" fill="#fff"/></svg>