<svg xmlns="http://www.w3.org/2000/svg" width="150" height="28" fill="none" viewBox="0 0 150 28"><g fill="#fff" fill-rule="evenodd" clip-path="url(#a)" clip-rule="evenodd"><path d="M14.539 2a5.493 5.493 0 0 1-1.23 3.901c-.428.54-.972.975-1.59 1.271a4.473 4.473 0 0 1-1.98.44 5.227 5.227 0 0 1 .262-2.006 5.199 5.199 0 0 1 1-1.751A5.446 5.446 0 0 1 14.539 2zm2.496 10.283a5.586 5.586 0 0 0-.711 2.659 5.394 5.394 0 0 0 .88 2.95 5.292 5.292 0 0 0 2.34 1.966c-.375 1.235-.94 2.4-1.675 3.456-.986 1.495-2.02 2.956-3.663 2.983-.78.019-1.308-.209-1.857-.446-.573-.247-1.17-.505-2.104-.505-.991 0-1.615.266-2.216.523-.52.221-1.024.436-1.733.466-1.564.058-2.759-1.596-3.781-3.077C.47 20.233-1.12 14.733 1.013 10.99a5.906 5.906 0 0 1 2.07-2.183 5.809 5.809 0 0 1 2.864-.866c.887-.018 1.738.328 2.484.632.571.232 1.08.44 1.497.44.367 0 .862-.2 1.439-.432.908-.365 2.02-.812 3.154-.692.868.028 1.718.26 2.482.679a5.613 5.613 0 0 1 1.92 1.733 5.501 5.501 0 0 0-1.888 1.981zm94.567 10.783c-1.804 0-3.124-.904-3.275-2.28h-2.099c.132 2.51 2.184 4.098 5.222 4.098 3.247 0 5.288-1.626 5.288-4.222 0-2.03-1.168-3.174-3.978-3.847l-1.51-.376c-1.765-.442-2.487-1.02-2.487-2 0-1.231 1.13-2.077 2.781-2.077 1.652 0 2.782.836 2.906 2.22h2.069c-.066-2.394-2.051-4.038-4.945-4.038-2.925 0-4.985 1.644-4.985 4.039 0 1.934 1.168 3.126 3.683 3.741l1.776.433c1.775.442 2.525 1.087 2.525 2.165 0 1.24-1.243 2.144-2.971 2.144zm-71.691 1.587V14.439h-.067l-4.13 10.108H34.14L30 14.439h-.066v10.214h-1.937V10.775h2.46l4.433 10.954h.075l4.424-10.954h2.468v13.878h-1.945zm3.58-2.876c0-1.769 1.339-2.837 3.713-2.982l2.734-.153v-.77c0-1.125-.731-1.76-1.975-1.76a1.89 1.89 0 0 0-1.315.31 1.934 1.934 0 0 0-.783 1.114h-1.917c.057-1.828 1.737-3.126 4.072-3.126 2.383 0 3.959 1.318 3.959 3.308v6.935h-1.965v-1.664h-.047a3.595 3.595 0 0 1-1.328 1.356 3.536 3.536 0 0 1-1.825.482 2.99 2.99 0 0 1-2.327-.78 3.066 3.066 0 0 1-.735-1.028 3.102 3.102 0 0 1-.26-1.242zm6.447-.913v-.78l-2.459.154c-1.225.078-1.918.616-1.918 1.481 0 .885.722 1.463 1.823 1.463a2.367 2.367 0 0 0 1.76-.614 2.423 2.423 0 0 0 .794-1.704zm9.833-4.246c.436.346.728.845.818 1.398h1.956a4.082 4.082 0 0 0-1.44-2.695 3.98 3.98 0 0 0-2.89-.91c-2.829 0-4.689 2.038-4.689 5.183 0 3.212 1.86 5.184 4.709 5.184a3.956 3.956 0 0 0 2.876-.883 4.058 4.058 0 0 0 1.453-2.666h-1.975a2.183 2.183 0 0 1-.813 1.378 2.13 2.13 0 0 1-1.523.44c-1.584 0-2.638-1.298-2.638-3.453 0-2.106 1.044-3.443 2.62-3.443.552-.045 1.1.122 1.536.467zm16.116 4.284h-5.222l-1.254 3.75h-2.212l4.946-13.877h2.298l4.946 13.878h-2.25l-1.252-3.751zm-4.681-1.731h4.139l-2.04-6.088h-.058l-2.041 6.088zM85.9 24.759c2.507 0 4.168-2.02 4.168-5.165 0-3.135-1.67-5.165-4.205-5.165a3.506 3.506 0 0 0-1.834.45 3.565 3.565 0 0 0-1.347 1.339h-.037v-1.683H80.66V28h2.05v-5.012h.048a3.41 3.41 0 0 0 1.32 1.343 3.35 3.35 0 0 0 1.822.428zm-.578-8.56c1.594 0 2.64 1.347 2.64 3.395 0 2.067-1.046 3.404-2.64 3.404-1.567 0-2.62-1.365-2.62-3.404 0-2.02 1.053-3.395 2.62-3.395zm15.739 3.395c0 3.144-1.661 5.165-4.168 5.165a3.35 3.35 0 0 1-1.822-.428 3.41 3.41 0 0 1-1.32-1.343h-.048V28h-2.05V14.535h1.984v1.683h.038a3.565 3.565 0 0 1 1.346-1.34 3.506 3.506 0 0 1 1.834-.45c2.535 0 4.206 2.03 4.206 5.166zm-2.107 0c0-2.048-1.045-3.395-2.64-3.395-1.566 0-2.62 1.375-2.62 3.395 0 2.039 1.054 3.404 2.62 3.404 1.595 0 2.64-1.337 2.64-3.404zm22.209-7.454v2.395h1.899v1.644h-1.899v5.578c0 .867.38 1.27 1.215 1.27.225-.003.45-.02.674-.047v1.635a5.558 5.558 0 0 1-1.138.096c-2.023 0-2.811-.77-2.811-2.732v-5.8h-1.452v-1.644h1.452V12.14h2.06zm7.734 2.27c-2.886 0-4.737 2-4.737 5.184 0 3.193 1.832 5.184 4.737 5.184 2.905 0 4.738-1.991 4.738-5.184 0-3.183-1.843-5.184-4.738-5.184zm0 1.712c1.661 0 2.649 1.288 2.649 3.472 0 2.193-.988 3.472-2.649 3.472-1.662 0-2.649-1.28-2.649-3.472 0-2.174.987-3.472 2.649-3.472zm6.43-1.587h1.955v1.722h.048a2.412 2.412 0 0 1 .881-1.346 2.358 2.358 0 0 1 1.521-.482c.237-.001.472.025.703.077v1.943a2.837 2.837 0 0 0-.921-.126 2.046 2.046 0 0 0-1.597.667 2.11 2.11 0 0 0-.54 1.661v6.002h-2.05V14.535zm10.257 10.243c2.259 0 4.025-1.26 4.301-3.097h-1.947a2.284 2.284 0 0 1-.92 1.1c-.416.256-.902.37-1.386.323a2.595 2.595 0 0 1-1.982-.819 2.652 2.652 0 0 1-.705-2.047v-.125H150V19.4c0-3.068-1.738-4.99-4.501-4.99-2.81 0-4.623 2.058-4.623 5.231 0 3.164 1.804 5.136 4.709 5.136zm2.364-6.117h-4.994a2.6 2.6 0 0 1 .744-1.82 2.502 2.502 0 0 1 1.8-.747 2.376 2.376 0 0 1 1.779.741 2.446 2.446 0 0 1 .671 1.826zM58.546 0h-1.104v7.877h1.104V0zM31.029.37a3.24 3.24 0 0 1 1.422.217c.453.178.86.455 1.194.812a3.362 3.362 0 0 1 .872 2.701c0 2.399-1.28 3.777-3.488 3.777h-2.676V.37h2.676zm-1.525 6.446H30.9a2.303 2.303 0 0 0 1.856-.761 2.39 2.39 0 0 0 .588-1.94 2.396 2.396 0 0 0-.597-1.926A2.309 2.309 0 0 0 30.9 1.43h-1.397v5.386zm6.313-1.774a2.717 2.717 0 0 1 .677-2.061 2.62 2.62 0 0 1 3.921 0 2.715 2.715 0 0 1 .677 2.06 2.717 2.717 0 0 1-.675 2.065 2.62 2.62 0 0 1-3.925 0 2.692 2.692 0 0 1-.675-2.064zm4.14 0c0-1.228-.545-1.946-1.5-1.946-.96 0-1.5.718-1.5 1.946 0 1.238.54 1.95 1.5 1.95.955 0 1.5-.717 1.5-1.95zm7.001 2.835h1.145l1.536-5.665h-1.104l-.997 4.323h-.087L46.3 2.212h-1.06l-1.149 4.323h-.082l-1.002-4.323h-1.12l1.542 5.665h1.134l1.15-4.173h.088l1.156 4.173zm3.976-5.665h1.062v.9h.083a1.69 1.69 0 0 1 .675-.775 1.66 1.66 0 0 1 .994-.235 1.798 1.798 0 0 1 1.468.582 1.846 1.846 0 0 1 .468 1.526v3.667H54.58V4.49c0-.91-.39-1.363-1.207-1.363a1.268 1.268 0 0 0-.993.407 1.304 1.304 0 0 0-.342 1.029v3.314h-1.104V2.212zm9.148 2.83a2.719 2.719 0 0 1 .676-2.061 2.62 2.62 0 0 1 3.921 0 2.695 2.695 0 0 1 .677 2.06 2.719 2.719 0 0 1-.675 2.065 2.65 2.65 0 0 1-.889.65 2.62 2.62 0 0 1-3.035-.65 2.693 2.693 0 0 1-.675-2.064zm4.139 0c0-1.228-.545-1.946-1.5-1.946-.96 0-1.5.718-1.5 1.946 0 1.238.54 1.95 1.5 1.95.955 0 1.5-.717 1.5-1.95zm4.378-.458c-1.33.083-2.08.671-2.08 1.69a1.731 1.731 0 0 0 .56 1.268 1.684 1.684 0 0 0 1.304.428 1.86 1.86 0 0 0 .959-.214 1.89 1.89 0 0 0 .721-.675h.087v.796h1.063v-3.87c0-1.198-.79-1.905-2.193-1.905-1.269 0-2.172.624-2.285 1.598h1.069c.122-.401.549-.63 1.165-.63.755 0 1.145.338 1.145.936v.49l-1.515.088zm1.515.733v.474a1.348 1.348 0 0 1-.465.93 1.313 1.313 0 0 1-.983.308c-.6 0-1.037-.296-1.037-.806 0-.5.35-.765 1.12-.817l1.365-.089zm2.547-.275c0-1.79.908-2.924 2.321-2.924.35-.017.697.068 1 .244.304.176.552.436.715.75h.083V0h1.103v7.877h-1.057v-.895h-.087a1.952 1.952 0 0 1-.743.742c-.309.175-.66.26-1.014.247-1.422 0-2.321-1.134-2.321-2.929zm1.14 0c0 1.202.56 1.925 1.494 1.925.93 0 1.505-.734 1.505-1.92 0-1.18-.58-1.925-1.505-1.925-.929 0-1.494.728-1.494 1.92zm8.774-1.103a2.72 2.72 0 0 0-.124 1.103 2.719 2.719 0 0 0 .676 2.064c.248.277.551.499.889.65a2.621 2.621 0 0 0 3.036-.65 2.693 2.693 0 0 0 .675-2.064 2.72 2.72 0 0 0-.677-2.061 2.62 2.62 0 0 0-3.921 0 2.693 2.693 0 0 0-.554.958zm2.516-.843c.956 0 1.5.718 1.5 1.946 0 1.233-.545 1.95-1.5 1.95-.96 0-1.5-.712-1.5-1.95 0-1.228.54-1.946 1.5-1.946zm4.116-.884h1.062v.9h.083a1.69 1.69 0 0 1 .675-.775c.299-.181.647-.263.994-.235a1.798 1.798 0 0 1 1.468.582 1.847 1.847 0 0 1 .467 1.526v3.667h-1.103V4.49c0-.91-.39-1.363-1.207-1.363a1.268 1.268 0 0 0-.993.407 1.302 1.302 0 0 0-.343 1.029v3.314h-1.103V2.212zm10.987.025V.801h-1.105v1.436h-.888v.942h.888v3.2c0 1.092.489 1.53 1.716 1.53.202-.003.403-.022.601-.058V6.92c-.14.017-.28.025-.421.026-.549 0-.791-.26-.791-.853V3.179h1.212v-.942h-1.212zM102.912 0h1.094v3.122h.087a1.74 1.74 0 0 1 .695-.78 1.703 1.703 0 0 1 1.011-.235 1.82 1.82 0 0 1 1.453.597 1.887 1.887 0 0 1 .473 1.515v3.658h-1.105V4.495c0-.905-.416-1.363-1.196-1.363a1.289 1.289 0 0 0-1.034.386 1.333 1.333 0 0 0-.374 1.05v3.31h-1.104V0zm10.33 7.613a2.3 2.3 0 0 0 .918-1.266h-1.063a1.345 1.345 0 0 1-.562.549 1.33 1.33 0 0 1-.769.138 1.462 1.462 0 0 1-1.098-.478 1.503 1.503 0 0 1-.391-1.145V5.35h3.949v-.39c0-1.78-.939-2.857-2.495-2.857a2.571 2.571 0 0 0-1.955.884 2.64 2.64 0 0 0-.623 2.076 2.606 2.606 0 0 0 .624 2.068 2.515 2.515 0 0 0 1.959.856 2.249 2.249 0 0 0 1.506-.373zm-.14-3.091h-2.825a1.473 1.473 0 0 1 .419-1.044 1.43 1.43 0 0 1 1.03-.424 1.344 1.344 0 0 1 1.301.907c.063.18.089.37.075.56z"/></g><defs><clipPath id="a"><path fill="#fff" d="M0 0h150v28H0z"/></clipPath></defs></svg>