<svg xmlns="http://www.w3.org/2000/svg" width="97" height="32" fill="none" viewBox="0 0 97 32"><g fill="#fff" clip-path="url(#a)"><path d="M82.715 6.1h-.94v-.935h.94V4.6c0-.555.144-.96.43-1.214.29-.258.768-.387 1.434-.387.136 0 .272.005.408.016.14.007.244.016.312.027v.892a2.254 2.254 0 0 0-.237-.017 8.536 8.536 0 0 0-.279-.005c-.315 0-.544.056-.687.167-.14.11-.21.316-.21.617v.468h1.295v.934h-1.279v4.705h-1.187V6.1ZM57.713 10.804V3.086h1.192v7.718h-1.192Z"/><path fill-rule="evenodd" d="M31.497 3.473h-2.53v7.331h2.53c.723 0 1.325-.141 1.804-.424a2.64 2.64 0 0 0 1.085-1.252c.24-.547.36-1.213.36-1.998 0-.787-.12-1.452-.36-1.992a2.585 2.585 0 0 0-1.08-1.241c-.48-.283-1.082-.424-1.81-.424Zm-1.311 6.305v-5.28h1.176c.484 0 .883.099 1.198.296.315.193.55.487.704.88.154.395.23.885.23 1.472 0 .44-.044.826-.134 1.155-.086.326-.216.6-.392.822a1.603 1.603 0 0 1-.66.494 2.536 2.536 0 0 1-.946.161h-1.176ZM39.913 5.336c-.38-.204-.816-.306-1.31-.306a2.68 2.68 0 0 0-1.316.317c-.38.211-.677.509-.892.892-.215.383-.322.834-.322 1.353v.736c0 .548.107 1.013.322 1.397.215.383.51.675.886.875.38.2.82.3 1.322.3.494 0 .93-.1 1.31-.3.38-.2.675-.492.886-.875.215-.387.323-.854.323-1.402v-.736c0-.53-.108-.987-.323-1.37a2.165 2.165 0 0 0-.886-.88Zm-2.03.876a1.18 1.18 0 0 1 .725-.22c.283 0 .52.073.714.22.197.143.346.34.446.59.104.248.156.53.156.85v.633c0 .319-.05.604-.15.854a1.296 1.296 0 0 1-.436.586c-.193.143-.437.214-.73.214-.294 0-.54-.071-.741-.214a1.317 1.317 0 0 1-.446-.586 2.36 2.36 0 0 1-.145-.854v-.634c0-.318.052-.601.156-.848a1.35 1.35 0 0 1 .45-.591Z" clip-rule="evenodd"/><path d="m49.877 5.127-1.494 5.677H47.17l-1.187-4.19h-.032l-1.165 4.19h-1.22l-1.557-5.677h1.283l.914 4.329h.053l1.144-4.329h1.123L47.7 9.456h.054l.93-4.329h1.191ZM51.058 5.127v5.677h1.193V7.651c0-.308.05-.582.15-.821.104-.24.254-.428.451-.564.2-.14.446-.21.736-.21.225 0 .422.047.59.14.169.09.3.227.393.413.096.183.145.42.145.71v3.485h1.192V6.97c0-.648-.177-1.131-.532-1.45-.35-.319-.81-.478-1.38-.478-.383 0-.691.06-.924.183-.233.121-.41.268-.532.44a1.97 1.97 0 0 0-.252.483h-.059v-1.02h-1.17Z"/><path fill-rule="evenodd" d="M64.309 5.336c-.38-.204-.817-.306-1.311-.306a2.68 2.68 0 0 0-1.316.317c-.38.211-.677.509-.892.892-.214.383-.322.834-.322 1.353v.736c0 .548.108 1.013.322 1.397.215.383.51.675.887.875.38.2.82.3 1.321.3.494 0 .931-.1 1.31-.3.38-.2.676-.492.887-.875.215-.387.322-.854.322-1.402v-.736c0-.53-.107-.987-.322-1.37a2.165 2.165 0 0 0-.886-.88Zm-2.03.876a1.18 1.18 0 0 1 .724-.22c.283 0 .521.073.715.22.197.143.345.34.446.59.103.248.155.53.155.85v.633c0 .319-.05.604-.15.854a1.296 1.296 0 0 1-.435.586c-.194.143-.437.214-.73.214-.294 0-.541-.071-.742-.214a1.317 1.317 0 0 1-.446-.586 2.36 2.36 0 0 1-.145-.854v-.634c0-.318.052-.601.156-.848a1.35 1.35 0 0 1 .451-.591ZM68.606 10.89c-.548 0-.996-.156-1.343-.467-.344-.315-.516-.738-.516-1.268 0-.501.17-.906.51-1.214.344-.311.844-.467 1.499-.467h1.434v-.532c0-.325-.097-.565-.29-.72-.194-.157-.453-.236-.779-.236-.215 0-.392.029-.532.086a.766.766 0 0 0-.494.559h-1.133c.018-.236.075-.451.172-.645.1-.197.24-.365.419-.505.182-.143.406-.252.671-.327a3.48 3.48 0 0 1 .935-.113c.404 0 .775.063 1.111.188.337.122.606.322.806.602.2.279.301.655.301 1.127v3.846h-1.133v-.736h-.054a1.64 1.64 0 0 1-.854.709 2.116 2.116 0 0 1-.73.113Zm.365-.924c.229 0 .435-.046.617-.14.183-.096.328-.225.435-.386a.952.952 0 0 0 .167-.553v-.613h-1.246c-.347 0-.602.077-.763.231a.79.79 0 0 0-.236.591c0 .297.104.518.311.66.212.14.45.21.715.21ZM75.781 5.165a2.234 2.234 0 0 0-.73-.113c-.433 0-.813.098-1.139.295-.326.197-.58.476-.763.838-.179.362-.268.793-.268 1.294v.973c0 .497.088.929.263 1.294.18.365.43.646.752.843.322.194.702.29 1.139.29.207 0 .403-.025.585-.075.183-.046.35-.113.5-.199a1.48 1.48 0 0 0 .381-.306c.104-.121.175-.256.215-.403h.059v.908h1.16V3.086h-1.192V5.98h-.06a1.229 1.229 0 0 0-.343-.5 1.526 1.526 0 0 0-.559-.316Zm-1.085 1.058a1.21 1.21 0 0 1 .688-.194c.265 0 .498.061.698.183.204.122.365.292.483.51.119.219.178.475.178.768v.86c0 .322-.056.6-.167.832-.11.23-.267.407-.467.532-.197.125-.43.188-.698.188-.273 0-.507-.063-.704-.188a1.249 1.249 0 0 1-.456-.559 2.24 2.24 0 0 1-.156-.88V7.65c0-.343.052-.635.156-.875a1.24 1.24 0 0 1 .445-.553ZM89.993 5.336c-.38-.204-.816-.306-1.31-.306a2.68 2.68 0 0 0-1.316.317 2.27 2.27 0 0 0-.892.892c-.215.383-.322.834-.322 1.353v.736c0 .548.107 1.013.322 1.397.215.383.51.675.886.875.38.2.82.3 1.322.3.494 0 .93-.1 1.31-.3.38-.2.675-.492.886-.875.215-.387.323-.854.323-1.402v-.736c0-.53-.108-.987-.323-1.37a2.165 2.165 0 0 0-.886-.88Zm-2.03.876c.197-.147.439-.22.725-.22.283 0 .521.073.714.22.197.143.346.34.446.59.104.248.156.53.156.85v.633c0 .319-.05.604-.15.854a1.297 1.297 0 0 1-.436.586c-.193.143-.436.214-.73.214s-.54-.071-.741-.214a1.315 1.315 0 0 1-.446-.586 2.36 2.36 0 0 1-.145-.854v-.634c0-.318.052-.601.156-.848a1.35 1.35 0 0 1 .45-.591Z" clip-rule="evenodd"/><path d="M92.813 10.804V5.127H94v.886h.064c.043-.129.12-.267.231-.413.115-.15.274-.28.478-.387.205-.111.464-.167.78-.167.078 0 .15.004.214.011.068.004.13.01.188.022V6.13a1.271 1.271 0 0 0-.22-.032 3.785 3.785 0 0 0-.29-.01c-.319 0-.584.058-.795.177a1.107 1.107 0 0 0-.473.478c-.104.2-.156.428-.156.682v3.378h-1.208ZM29.446 17.966v10.838h2.266v-6.706c0-.526.096-.96.287-1.302.191-.349.448-.608.77-.78a2.166 2.166 0 0 1 1.066-.266c.423 0 .792.089 1.107.267.314.17.557.43.728.779.178.342.267.783.267 1.323v6.685h2.214V22.12c0-.486.082-.903.246-1.251.171-.356.418-.63.739-.82.321-.199.707-.298 1.158-.298.445 0 .82.092 1.128.277.308.178.544.434.708.769.164.335.246.731.246 1.19v6.818h2.276v-7.393c0-1.094-.314-1.969-.943-2.625-.629-.656-1.51-.984-2.646-.984-.594 0-1.117.089-1.568.266-.451.171-.82.393-1.108.667a2.491 2.491 0 0 0-.625.871h-.093a2.613 2.613 0 0 0-.604-.953 2.737 2.737 0 0 0-1.026-.626c-.41-.15-.892-.225-1.446-.225-.512 0-.96.082-1.343.246a2.775 2.775 0 0 0-.933.615c-.24.246-.414.5-.523.759h-.113v-1.456h-2.235Z"/><path fill-rule="evenodd" d="M50.456 28.968c-1.053 0-1.907-.294-2.563-.882-.657-.587-.985-1.387-.985-2.399 0-.957.325-1.72.974-2.287.657-.574 1.607-.86 2.85-.86h2.749v-1.037c0-.615-.178-1.09-.533-1.425-.349-.335-.841-.502-1.477-.502-.41 0-.762.068-1.056.205a1.56 1.56 0 0 0-.687.564c-.164.239-.26.52-.287.84h-2.133c.027-.457.127-.891.297-1.302.171-.41.424-.769.76-1.076.341-.315.772-.56 1.291-.739.527-.177 1.149-.266 1.867-.266.806 0 1.524.133 2.153.4a3.308 3.308 0 0 1 1.497 1.2c.369.533.554 1.206.554 2.02v7.382h-2.164v-1.333h-.082c-.157.28-.373.533-.646.759a3.072 3.072 0 0 1-.995.543c-.39.13-.85.195-1.384.195Zm.687-1.733c.444 0 .84-.085 1.19-.256.355-.17.635-.407.84-.707.205-.301.308-.646.308-1.036v-1.2h-2.358c-.663 0-1.152.144-1.467.43-.307.281-.461.647-.461 1.098 0 .567.198.988.595 1.261.396.274.847.41 1.353.41Z" clip-rule="evenodd"/><path d="M58.085 22.847v.974c0 1.011.184 1.907.554 2.686.376.773.912 1.381 1.61 1.825.697.438 1.534.657 2.512.657.84 0 1.569-.137 2.184-.41a3.515 3.515 0 0 0 1.487-1.19c.376-.52.611-1.138.707-1.856h-2.153c-.055.28-.168.54-.339.78-.164.239-.393.43-.687.574-.287.143-.642.215-1.066.215-.772 0-1.388-.294-1.846-.882-.45-.595-.676-1.394-.676-2.4v-.922c0-1.005.218-1.794.656-2.369.444-.574 1.063-.861 1.856-.861.355 0 .673.079.953.236.287.157.523.369.708.636.191.26.318.54.38.84h2.153a3.42 3.42 0 0 0-.575-1.763c-.348-.547-.84-.988-1.476-1.323-.63-.342-1.384-.513-2.266-.513-.978 0-1.815.216-2.513.646a4.272 4.272 0 0 0-1.61 1.795c-.368.758-.553 1.633-.553 2.625Z"/><path fill-rule="evenodd" d="M80.613 22.826c0 1.313-.24 2.437-.718 3.374-.472.936-1.145 1.65-2.02 2.143-.875.492-1.907.738-3.097.738-1.196 0-2.228-.246-3.096-.738-.868-.492-1.538-1.207-2.01-2.143-.472-.937-.708-2.061-.708-3.374V20.91c0-1.326.236-2.465.708-3.415.478-.957 1.155-1.688 2.03-2.194.875-.513 1.907-.77 3.097-.77 1.196 0 2.228.257 3.096.77.869.506 1.539 1.237 2.01 2.194.472.95.708 2.088.708 3.415v1.917Zm-2.359-1.938c0-.964-.15-1.77-.45-2.42-.302-.65-.715-1.134-1.242-1.456-.519-.328-1.11-.492-1.773-.492-.663 0-1.258.164-1.785.492-.52.322-.933.807-1.24 1.456-.301.65-.451 1.456-.451 2.42v1.938c0 .964.15 1.764.45 2.4.308.629.722 1.1 1.241 1.415a3.47 3.47 0 0 0 1.785.461c.663 0 1.254-.154 1.773-.461.527-.315.94-.786 1.241-1.415.301-.636.451-1.436.451-2.4v-1.938Z" clip-rule="evenodd"/><path d="M84.52 24.918h-2.277c.007.479.103.96.287 1.446.192.485.489.933.892 1.343.404.41.94.742 1.61.995.67.253 1.49.38 2.461.38 1.06 0 1.993-.165 2.8-.493.806-.335 1.438-.82 1.896-1.456.465-.643.698-1.425.698-2.348 0-.793-.164-1.443-.493-1.949a3.454 3.454 0 0 0-1.322-1.22 7.52 7.52 0 0 0-1.887-.718l-2.287-.564c-.649-.15-1.134-.382-1.456-.697a1.592 1.592 0 0 1-.482-1.169c0-.65.247-1.155.739-1.517.499-.363 1.148-.544 1.948-.544.602 0 1.107.1 1.518.298.41.198.724.461.943.79a2.2 2.2 0 0 1 .37 1.086h2.234c-.02-.875-.26-1.613-.717-2.215-.458-.608-1.067-1.07-1.826-1.384-.751-.321-1.582-.482-2.491-.482-.91 0-1.747.16-2.513.482-.765.314-1.38.78-1.845 1.395-.465.615-.697 1.37-.697 2.266 0 .752.16 1.384.481 1.897.322.505.742.909 1.262 1.21.52.3 1.08.523 1.681.666l2.297.574c.752.178 1.31.424 1.672.739.362.307.543.727.543 1.26 0 .438-.116.821-.349 1.15-.232.327-.563.58-.994.758-.43.178-.947.267-1.548.267-.5 0-.94-.059-1.323-.175a3.063 3.063 0 0 1-.954-.492 2.36 2.36 0 0 1-.615-.718 2.06 2.06 0 0 1-.257-.861ZM13.31 8.705a5.493 5.493 0 0 0 1.23-3.9A5.446 5.446 0 0 0 11 6.658a5.227 5.227 0 0 0-1.262 3.757 4.473 4.473 0 0 0 1.98-.44 4.525 4.525 0 0 0 1.59-1.27ZM16.324 17.746a5.586 5.586 0 0 1 .711-2.659 5.501 5.501 0 0 1 1.888-1.982 5.612 5.612 0 0 0-1.92-1.733 5.531 5.531 0 0 0-2.482-.679c-1.134-.12-2.246.327-3.154.692l-.011.005c-.572.23-1.063.427-1.428.427-.414 0-.919-.205-1.485-.435l-.012-.005c-.746-.304-1.597-.65-2.484-.632a5.809 5.809 0 0 0-2.864.866 5.907 5.907 0 0 0-2.07 2.183C-1.12 17.537.47 23.037 2.515 26.062c1.022 1.481 2.217 3.135 3.781 3.077.707-.03 1.21-.244 1.729-.464l.004-.002c.601-.257 1.225-.523 2.216-.523.933 0 1.53.257 2.101.504l.003.001c.549.237 1.077.465 1.857.446 1.643-.027 2.677-1.488 3.663-2.983a12.305 12.305 0 0 0 1.675-3.456 5.292 5.292 0 0 1-2.34-1.966 5.394 5.394 0 0 1-.88-2.95Z"/></g><defs><clipPath id="a"><path fill="#fff" d="M0 0h97v32H0z"/></clipPath></defs></svg>