<svg xmlns="http://www.w3.org/2000/svg" width="80" height="80" fill="none" viewBox="0 0 80 80"><path stroke="#F1F3F9" stroke-linecap="round" stroke-width="6" d="M3 12h30M45 36h16M23 24h48M43 12h8M3 24h8M3 36h31M63 12h14"/><path stroke="#B9B3FF" stroke-linecap="round" stroke-width="6" d="M3 56h14M33 68h20"/><path stroke="#5C4CFF" stroke-linecap="round" stroke-width="6" d="M29 56h48"/><path stroke="#B9B3FF" stroke-linecap="round" stroke-width="6" d="M3 68h20"/><path fill="#fff" fill-rule="evenodd" d="m68.84 64.516 4.647-1.651L61 56l3.64 13.776 2.726-4.108 3.264 4.177 1.474-1.151-3.263-4.178Z" clip-rule="evenodd"/><path stroke="#000" stroke-opacity=".8" d="m69.662 64.755 3.992-1.419 1.05-.373-.977-.536-12.486-6.865L60.218 55l.299 1.128 3.64 13.776.284 1.077.616-.928 2.342-3.53 2.837 3.63.308.394.394-.308 1.474-1.151.394-.308-.308-.394-2.836-3.631Z"/></svg>