<svg xmlns="http://www.w3.org/2000/svg" width="120" height="152" fill="none" viewBox="0 0 120 152"><g fill="#000" fill-opacity=".1" clip-path="url(#a)"><path fill-rule="evenodd" d="M79.38-7.788c.724-4.205 6.043-5.63 8.772-2.35l1.66 1.994a1 1 0 0 0 .911.35l2.568-.372c4.223-.611 7.222 4.007 4.946 7.616l-1.384 2.194a1 1 0 0 0-.051.976l1.147 2.327c1.886 3.827-1.58 8.106-5.715 7.057l-2.515-.638a1 1 0 0 0-.943.253l-1.859 1.81c-3.057 2.976-8.198 1.003-8.478-3.255l-.17-2.588a1 1 0 0 0-.532-.82l-2.295-1.208c-3.776-1.987-3.488-7.486.475-9.068l2.41-.962a1 1 0 0 0 .614-.76l.44-2.556Zm5.697.208a1 1 0 0 0-1.754.47l-.44 2.557A5 5 0 0 1 79.81-.757L77.4.205a1 1 0 0 0-.094 1.813L79.6 3.227a5 5 0 0 1 2.66 4.096l.17 2.59a1 1 0 0 0 1.696.65l1.86-1.81a5 5 0 0 1 4.717-1.264l2.515.638a1 1 0 0 0 1.143-1.412l-1.147-2.327a5 5 0 0 1 .255-4.877l1.384-2.195a1 1 0 0 0-.989-1.523l-2.567.372a5 5 0 0 1-4.56-1.75l-1.66-1.995ZM19.152 135.862c-2.729-3.28-8.048-1.855-8.771 2.35l-.44 2.557c-.059.342-.292.63-.615.759l-2.41.962c-3.962 1.582-4.25 7.08-.475 9.068l2.296 1.208c.308.162.51.473.532.82l.17 2.588c.28 4.258 5.421 6.231 8.478 3.255l1.859-1.81a.998.998 0 0 1 .943-.253l2.515.638c4.136 1.049 7.6-3.23 5.715-7.057l-1.147-2.327a1 1 0 0 1 .05-.976l1.385-2.194c2.276-3.609-.723-8.227-4.946-7.616l-2.567.372a1 1 0 0 1-.913-.35l-1.659-1.994Zm-4.829 3.028a1 1 0 0 1 1.754-.47l1.66 1.994a5 5 0 0 0 4.56 1.751l2.567-.372a1 1 0 0 1 .99 1.523l-1.385 2.195a4.999 4.999 0 0 0-.255 4.877l1.147 2.327c.377.766-.316 1.622-1.143 1.412l-2.515-.638a5 5 0 0 0-4.718 1.264l-1.859 1.81a1 1 0 0 1-1.695-.651l-.17-2.589a5 5 0 0 0-2.66-4.096l-2.296-1.209a1 1 0 0 1 .095-1.813l2.41-.962a5 5 0 0 0 3.073-3.796l.44-2.557ZM61.38 166.212c.724-4.205 6.043-5.63 8.772-2.35l1.66 1.994a1 1 0 0 0 .911.35l2.568-.372c4.223-.611 7.222 4.007 4.946 7.616l-1.384 2.194a1 1 0 0 0-.051.976l1.147 2.327c1.886 3.827-1.58 8.106-5.715 7.057l-2.515-.638a.998.998 0 0 0-.943.253l-1.859 1.81c-3.057 2.976-8.198 1.003-8.477-3.255l-.17-2.588a1.001 1.001 0 0 0-.533-.82l-2.296-1.208c-3.775-1.988-3.487-7.486.476-9.068l2.41-.962a1 1 0 0 0 .614-.759l.44-2.557Zm5.697.208a1 1 0 0 0-1.754.47l-.44 2.557a5 5 0 0 1-3.074 3.796l-2.41.962a1 1 0 0 0-.094 1.813l2.295 1.209a5 5 0 0 1 2.66 4.096l.17 2.589a1 1 0 0 0 1.696.651l1.86-1.81a5 5 0 0 1 4.717-1.264l2.515.638c.827.21 1.52-.646 1.143-1.412l-1.147-2.327a4.999 4.999 0 0 1 .255-4.877l1.384-2.195a1 1 0 0 0-.989-1.523l-2.567.372a5 5 0 0 1-4.56-1.751l-1.66-1.994ZM60.778 40.159c-1.474-2.513-5.322-1.482-5.343 1.432a.87.87 0 0 1-.682.842c-2.846.627-3.054 4.604-.29 5.525a.87.87 0 0 1 .59.909c-.283 2.9 3.436 4.327 5.165 1.982a.87.87 0 0 1 1.047-.28c2.67 1.166 5.177-1.93 3.482-4.3a.87.87 0 0 1 .056-1.082c1.934-2.18-.235-5.52-3.012-4.64a.87.87 0 0 1-1.013-.388Zm-3.343 1.446c.006-.883 1.172-1.195 1.619-.434a2.87 2.87 0 0 0 3.341 1.283c.841-.267 1.498.745.913 1.405a2.87 2.87 0 0 0-.188 3.575c.514.717-.245 1.655-1.054 1.302a2.87 2.87 0 0 0-3.457.926c-.524.71-1.65.278-1.565-.6a2.87 2.87 0 0 0-1.95-3.002c-.837-.279-.773-1.484.088-1.674a2.869 2.869 0 0 0 2.253-2.78Z" clip-rule="evenodd"/><path d="M110 50a2 2 0 1 1-4 0 2 2 0 0 1 4 0ZM120 156a2 2 0 1 1-4.001-.001A2 2 0 0 1 120 156ZM31 109a2 2 0 1 1-4 0 2 2 0 0 1 4 0Z"/><path fill-rule="evenodd" d="M79.734 98.16a13.982 13.982 0 0 0-.61-12.82C75.258 78.644 66.696 76.35 60 80.216c-6.696 3.865-8.99 12.428-5.124 19.124a13.983 13.983 0 0 0 10.798 6.938c-6.356 7.512-7.662 18.495-2.459 27.507a2 2 0 0 0 3.464-2c-5.522-9.566-2.245-21.798 7.32-27.321 9.567-5.523 21.799-2.245 27.321 7.321a2.001 2.001 0 0 0 3.465-2c-5.203-9.012-15.368-13.373-25.051-11.625ZM75.66 87.34C78.422 92.123 76.783 98.239 72 101c-4.783 2.761-10.899 1.123-13.66-3.66-2.762-4.783-1.123-10.899 3.66-13.66 4.783-2.762 10.899-1.123 13.66 3.66Z" clip-rule="evenodd"/><path d="M59.292 108.607a17.983 17.983 0 0 1-4.06-2.64 6 6 0 1 1-5.918-10.25 17.928 17.928 0 0 1-.302-4.088c-.891.221-1.766.569-2.6 1.05-4.783 2.762-6.422 8.878-3.66 13.661a9.98 9.98 0 0 0 6.828 4.831c-2.69 4.257-2.985 9.826-.293 14.489a2 2 0 1 0 3.464-2c-2.761-4.783-1.122-10.899 3.66-13.66.87-.502 1.785-.859 2.715-1.078l.166-.315ZM85.297 93.812A9.998 9.998 0 0 1 87.588 92c4.783-2.761 10.9-1.123 13.661 3.66a2 2 0 1 0 3.464-2 14 14 0 0 0-12.695-6.99 9.977 9.977 0 0 0-.77-8.33c-2.76-4.783-8.877-6.422-13.66-3.66a10.002 10.002 0 0 0-2.21 1.726 17.925 17.925 0 0 1 3.39 2.306 6 6 0 1 1 5.917 10.25 17.95 17.95 0 0 1 .257 4.836l.112.004.124.005.12.005Z"/></g><defs><clipPath id="a"><path fill="#fff" d="M0 0h120v152H0z"/></clipPath></defs></svg>