<svg xmlns="http://www.w3.org/2000/svg" width="120" height="152" fill="none" viewBox="0 0 120 152"><g fill="#000" fill-opacity=".05" clip-path="url(#a)"><path fill-rule="evenodd" d="M79.381-7.788c.724-4.205 6.042-5.63 8.771-2.35l1.66 1.994a1 1 0 0 0 .912.35l2.567-.372c4.223-.611 7.222 4.007 4.946 7.616l-1.384 2.194a1 1 0 0 0-.051.976l1.147 2.327c1.886 3.827-1.58 8.106-5.715 7.057l-2.514-.638a1 1 0 0 0-.944.253l-1.859 1.81c-3.057 2.976-8.197 1.003-8.477-3.255l-.17-2.588a1 1 0 0 0-.533-.82l-2.295-1.208c-3.776-1.988-3.488-7.486.475-9.068l2.41-.962a1 1 0 0 0 .614-.76l.44-2.556zm5.696.208a1 1 0 0 0-1.754.47l-.44 2.557A5 5 0 0 1 79.81-.757L77.4.205a1 1 0 0 0-.094 1.813L79.6 3.227a5 5 0 0 1 2.66 4.096l.17 2.589a1 1 0 0 0 1.695.65l1.86-1.81a5 5 0 0 1 4.717-1.263l2.515.638a1 1 0 0 0 1.143-1.412l-1.147-2.327a5 5 0 0 1 .255-4.877l1.385-2.195a1 1 0 0 0-.99-1.523l-2.567.372a5 5 0 0 1-4.56-1.75l-1.66-1.995zM19.152 135.861c-2.729-3.279-8.048-1.854-8.771 2.351l-.44 2.557c-.059.342-.292.63-.615.759l-2.41.962c-3.962 1.581-4.25 7.08-.474 9.068l2.295 1.208a1 1 0 0 1 .532.82l.17 2.588c.28 4.258 5.421 6.231 8.478 3.255l1.859-1.81a.998.998 0 0 1 .944-.253l2.514.638c4.136 1.049 7.601-3.23 5.715-7.057l-1.147-2.327a1 1 0 0 1 .05-.976l1.385-2.194c2.276-3.609-.723-8.227-4.946-7.616l-2.567.372a1 1 0 0 1-.912-.35l-1.66-1.995zm-4.829 3.029a1 1 0 0 1 1.754-.47l1.66 1.994a5 5 0 0 0 4.56 1.751l2.567-.372a1 1 0 0 1 .99 1.523l-1.384 2.194a5 5 0 0 0-.256 4.878l1.147 2.327c.377.766-.316 1.622-1.143 1.412l-2.515-.638a5 5 0 0 0-4.718 1.264l-1.858 1.81a1 1 0 0 1-1.696-.651l-.17-2.589a5 5 0 0 0-2.66-4.096l-2.296-1.209a1 1 0 0 1 .095-1.813l2.41-.962a5 5 0 0 0 3.073-3.796l.44-2.557zm55.829 24.971c-2.729-3.279-8.047-1.854-8.771 2.351l-.44 2.557a1 1 0 0 1-.615.759l-2.41.962c-3.962 1.581-4.25 7.08-.474 9.068l2.295 1.208a1 1 0 0 1 .532.82l.17 2.588c.28 4.258 5.421 6.231 8.478 3.255l1.859-1.81a.998.998 0 0 1 .944-.253l2.514.638c4.136 1.049 7.601-3.23 5.715-7.057l-1.147-2.327a1 1 0 0 1 .05-.976l1.385-2.194c2.276-3.609-.723-8.227-4.946-7.616l-2.567.372a1 1 0 0 1-.912-.35l-1.66-1.995zm-4.829 3.029a1 1 0 0 1 1.754-.47l1.66 1.994a5 5 0 0 0 4.56 1.751l2.567-.372a1 1 0 0 1 .99 1.523l-1.385 2.194a5 5 0 0 0-.255 4.878l1.147 2.327c.377.766-.316 1.622-1.143 1.412l-2.515-.638a5 5 0 0 0-4.718 1.264l-1.859 1.81a1 1 0 0 1-1.695-.651l-.17-2.589a5 5 0 0 0-2.66-4.096l-2.296-1.209a1 1 0 0 1 .095-1.813l2.41-.962a5 5 0 0 0 3.073-3.796l.44-2.557zM60.779 40.159c-1.475-2.513-5.323-1.482-5.344 1.432a.87.87 0 0 1-.682.842c-2.846.627-3.054 4.604-.29 5.525a.87.87 0 0 1 .59.909c-.283 2.9 3.436 4.327 5.165 1.982a.87.87 0 0 1 1.048-.28c2.67 1.166 5.176-1.93 3.48-4.3a.87.87 0 0 1 .058-1.082c1.934-2.18-.236-5.52-3.013-4.64a.869.869 0 0 1-1.012-.388zm-3.344 1.446c.006-.883 1.172-1.195 1.619-.434a2.87 2.87 0 0 0 3.341 1.283c.841-.267 1.499.745.913 1.405a2.87 2.87 0 0 0-.188 3.575c.514.717-.245 1.655-1.054 1.302a2.87 2.87 0 0 0-3.457.926c-.524.71-1.65.278-1.565-.6a2.87 2.87 0 0 0-1.949-3.002c-.837-.279-.774-1.484.088-1.674a2.87 2.87 0 0 0 2.252-2.781zM61 82.214a9.985 9.985 0 0 0-8.928.537c-4.783 2.762-6.422 8.877-3.66 13.66a9.957 9.957 0 0 0 4.731 4.197l-1.731 1a8 8 0 0 0-2.929 10.928l12 20.784a8 8 0 0 0 10.929 2.929l31.177-18a8.001 8.001 0 0 0 2.928-10.929l-12-20.784a8 8 0 0 0-10.928-2.928l-1.732 1a9.955 9.955 0 0 0-1.269-6.197c-2.76-4.782-8.877-6.421-13.66-3.66A9.985 9.985 0 0 0 61 82.214zm-6.928 4.001a6 6 0 1 0 6 10.393l1.726-.997.006-.003 1.015-.586-6.265-1.679a2 2 0 0 1 1.035-3.863l6.265 1.678-1.586-2.747a6 6 0 0 0-8.196-2.196zm21.856 5.857 4 6.928 12.125-7-2-3.464a4 4 0 0 0-5.465-1.464l-8.66 5zm18.125 3.392-12.125 7 10 17.32 8.661-5a4 4 0 0 0 1.464-5.464l-8-13.856zm-5.589 26.32-10-17.32-6.928 4 10 17.32 6.928-4zm-10.392 6-10-17.32-12.125 7 8 13.856a3.999 3.999 0 0 0 5.465 1.464l8.66-5zM53.947 114l12.125-7-4-6.928-8.66 5a4 4 0 0 0-1.465 5.464l2 3.464zm11.589-15.928 4 6.928 6.928-4-4-6.928-6.928 4zm8.392-9.464a6 6 0 1 0-8.196-2.197l1.586 2.747 1.678-6.264a2 2 0 0 1 3.864 1.035l-1.678 6.264 2.746-1.585z" clip-rule="evenodd"/><path d="M108 52a2 2 0 1 0 0-4 2 2 0 0 0 0 4zm12 104a2 2 0 1 1-4 0 2 2 0 0 1 4 0zm-91-45a2 2 0 1 0 0-4 2 2 0 0 0 0 4z"/></g><defs><clipPath id="a"><path fill="#fff" d="M0 0h120v152H0z"/></clipPath></defs></svg>