<svg xmlns="http://www.w3.org/2000/svg" width="120" height="152" fill="none" viewBox="0 0 120 152"><g fill="#000" fill-opacity=".05" clip-path="url(#a)"><path fill-rule="evenodd" d="M81.536-4.392a8 8 0 0 0-2.928 10.928l4 6.928a8 8 0 0 0 10.928 2.928l6.928-4a8 8 0 0 0 2.928-10.928l-4-6.928a8 8 0 0 0-10.928-2.928l-6.928 4Zm.536 8.928a4 4 0 0 1 1.464-5.464l6.928-4a4 4 0 0 1 5.464 1.464l4 6.928a4 4 0 0 1-1.464 5.464l-6.928 4a4 4 0 0 1-5.464-1.464l-4-6.928ZM79.66 94.804l6 10.392 5.196-3c4.783-2.761 10.899-1.123 13.661 3.66 2.761 4.783 1.122 10.899-3.661 13.661-4.783 2.761-10.898 1.122-13.66-3.661l-3-5.196-10.392 6 3 5.196c2.761 4.783 1.123 10.899-3.66 13.661-4.783 2.761-10.9 1.122-13.66-3.661-2.762-4.783-1.123-10.898 3.66-13.66l5.196-3-6-10.392-5.052 2.916-.144.084c-4.783 2.761-10.9 1.123-13.66-3.66-2.762-4.783-1.123-10.9 3.66-13.66 4.782-2.762 10.898-1.123 13.66 3.66l3 5.196 10.392-6-3-5.196c-2.761-4.783-1.123-10.9 3.66-13.66 4.783-2.762 10.9-1.123 13.66 3.66 2.762 4.782 1.123 10.898-3.66 13.66l-5.196 3Zm-5-8.66a6 6 0 1 1 8.196 2.196l-5.196 3-3-5.196Zm-8.856 16.66 10.392-6 6 10.392-10.392 6-6-10.392Zm21.856 5.856 5.196-3a6.001 6.001 0 1 1-2.196 8.196l-3-5.196Zm-17.32 10 3 5.196a6 6 0 1 1-8.197-2.196l5.197-3Zm-10-17.32-3-5.196a6 6 0 1 0-2.197 8.196l.45-.26 4.747-2.74ZM7.268 154.196a8 8 0 0 1 2.928-10.928l6.928-4a8 8 0 0 1 10.929 2.928l4 6.928a8.001 8.001 0 0 1-2.929 10.929l-6.928 4a8 8 0 0 1-10.928-2.929l-4-6.928Zm4.928-7.464a4 4 0 0 0-1.464 5.464l4 6.928a3.999 3.999 0 0 0 5.464 1.464l6.928-4a4 4 0 0 0 1.465-5.464l-4-6.928a4 4 0 0 0-5.465-1.464l-6.928 4ZM58.148 33.565a1 1 0 0 0-1.34.774l-2.295 14.026A1 1 0 0 0 56 49.392l3.464-2 4 6.928a1 1 0 0 0 1.366.367l6.928-4a1 1 0 0 0 .366-1.366l-4-6.929 3.465-2a1 1 0 0 0-.147-1.801l-13.294-5.026Zm-1.32 13.04 1.756-10.737 10.177 3.847-3.369 1.945 4.5 7.795-5.196 3-4.5-7.795-3.368 1.945Z" clip-rule="evenodd"/><path d="M24 110a2 2 0 1 1-4 0 2 2 0 0 1 4 0Zm88-47a2 2 0 1 0 0-4 2 2 0 0 0 0 4Z"/></g><defs><clipPath id="a"><path fill="#fff" d="M0 0h120v152H0z"/></clipPath></defs></svg>