<svg xmlns="http://www.w3.org/2000/svg" width="100" height="31" fill="none" viewBox="0 0 100 31"><g fill="#fff" clip-path="url(#a)"><path d="M-.2 7.957 8.884 6.72l.004 8.762-9.08.052L-.2 7.957zm9.08 8.535.007 8.77-9.08-1.249v-7.58l9.073.059zm1.1-9.934L22.027 4.8v10.57l-12.045.096V6.558zm12.048 10.016-.003 10.523-12.044-1.7-.017-8.843 12.064.02z"/><path fill-rule="evenodd" d="M63.244 18.375c.72 0 1.324.152 1.81.457.282.176.601.483.959.923V15h1.52v12.955H66.11v-1.31c-.369.58-.805 1-1.31 1.257-.503.258-1.08.387-1.73.387-1.05 0-1.958-.44-2.725-1.318-.768-.885-1.152-2.06-1.152-3.525 0-1.37.349-2.557 1.046-3.56.703-1.007 1.705-1.511 3.006-1.511zm-2.382 4.983c0 1.008.214 1.852.642 2.532.428.68 1.113 1.02 2.056 1.02.733 0 1.334-.314 1.802-.941.475-.633.712-1.538.712-2.716 0-1.19-.243-2.068-.73-2.637-.486-.574-1.086-.861-1.801-.861-.797 0-1.444.305-1.942.914-.493.61-.739 1.506-.739 2.69z" clip-rule="evenodd"/><path d="m29.898 15.044 2.435 10.503 2.918-10.503h1.898l2.918 10.503 2.435-10.503h1.916l-3.393 12.911h-1.837L36.21 17.25l-2.997 10.705h-1.837L28 15.044h1.898zm15.935 3.542h1.608v9.37h-1.608v-9.37zm0-3.542h1.608v1.793h-1.608v-1.793zm5.511 3.498H49.84v9.413h1.582v-4.93c0-.616.038-1.087.114-1.416a2.37 2.37 0 0 1 .519-.966c.328-.387.709-.645 1.142-.774.24-.076.548-.114.923-.114.738 0 1.248.293 1.53.879.17.351.254.814.254 1.389v5.932h1.609v-6.038c0-.95-.13-1.679-.387-2.189-.469-.931-1.371-1.397-2.707-1.397-.61 0-1.163.12-1.661.36s-.97.636-1.415 1.187v-1.336z"/><path fill-rule="evenodd" d="M76.753 19.482c-.838-.808-1.863-1.212-3.076-1.212-1.354 0-2.432.468-3.235 1.406-.802.937-1.204 2.197-1.204 3.78 0 1.476.381 2.653 1.143 3.532.762.873 1.79 1.31 3.085 1.31 1.553 0 2.698-.495 3.436-1.485.739-.99 1.108-2.245 1.108-3.762 0-1.57-.42-2.76-1.257-3.569zm-.984 6.267c-.387.791-1.105 1.187-2.154 1.187-.955 0-1.652-.334-2.092-1.002-.439-.668-.659-1.503-.659-2.505 0-1.043.22-1.934.66-2.672.439-.738 1.142-1.108 2.109-1.108 1.09 0 1.857.434 2.303 1.301.28.551.421 1.266.421 2.145 0 .972-.196 1.857-.588 2.654z" clip-rule="evenodd"/><path d="m80.629 18.542 1.81 7.418 1.837-7.418h1.776l1.845 7.374 1.925-7.374h1.582l-2.733 9.413h-1.644l-1.916-7.286-1.854 7.286h-1.644l-2.716-9.413h1.732zm13.614 7.673c-.217-.281-.349-.686-.395-1.213h-1.52c.04.938.35 1.726.93 2.364.587.633 1.58.95 2.98.95 1.301 0 2.268-.305 2.9-.915.64-.609.959-1.333.959-2.17 0-.868-.308-1.504-.923-1.908-.387-.258-1.149-.524-2.285-.8l-1.046-.254c-.457-.112-.803-.24-1.037-.387-.405-.246-.607-.574-.607-.985 0-.374.153-.676.457-.905.31-.228.765-.343 1.363-.343.896 0 1.526.208 1.89.624.222.293.348.619.377.976h1.494c.012-.61-.178-1.178-.571-1.705-.627-.832-1.65-1.248-3.067-1.248-1.084 0-1.949.275-2.593.826-.639.55-.958 1.272-.958 2.162 0 .756.34 1.348 1.02 1.776.38.246.972.468 1.775.668l1.257.316c.673.17 1.125.32 1.353.448.358.211.536.519.536.923 0 .533-.222.929-.668 1.187-.445.252-.96.378-1.547.378-.984 0-1.675-.255-2.074-.765zM78.467 3.34c.014-.391.082-.677.204-.859.22-.32.643-.481 1.271-.481a3.83 3.83 0 0 1 .398.021v.858a3.364 3.364 0 0 0-.215-.01 1.452 1.452 0 0 0-.12-.006c-.286 0-.457.075-.513.225-.056.147-.084.524-.084 1.13h.932v.743h-.942v4.835h-.931V4.96h-.78v-.743h.78V3.34z"/><path fill-rule="evenodd" d="M72.376 4.365c-.289-.181-.648-.272-1.077-.272-.775 0-1.371.3-1.79.9-.415.596-.622 1.303-.622 2.119 0 .872.228 1.571.685 2.098.457.523.998.785 1.622.785.387 0 .73-.077 1.03-.23.3-.154.56-.403.78-.749v.78h.848V2.084h-.905v2.83c-.213-.261-.403-.444-.57-.55zm-2.113 4.201c-.255-.404-.382-.907-.382-1.506 0-.705.146-1.239.44-1.602a1.423 1.423 0 0 1 1.156-.544c.425 0 .783.171 1.072.513.29.338.434.862.434 1.57 0 .7-.14 1.24-.423 1.616-.28.374-.637.56-1.073.56-.562 0-.97-.202-1.224-.607zM30.838 2.11h-3.113v7.686h3.103c1.318 0 2.248-.583 2.789-1.748.306-.659.46-1.397.46-2.213 0-1.057-.26-1.924-.78-2.6-.582-.75-1.402-1.125-2.459-1.125zm.66 6.687c-.227.073-.517.11-.869.11h-1.858V3.004h1.848c.84 0 1.449.263 1.825.79.38.526.57 1.266.57 2.218 0 .248-.025.516-.078.806-.09.485-.239.882-.444 1.193a1.91 1.91 0 0 1-.994.785zm7.89-4.045c-.5-.481-1.11-.722-1.832-.722-.805 0-1.447.28-1.925.837-.478.558-.717 1.308-.717 2.25 0 .88.227 1.58.68 2.103.454.52 1.066.78 1.837.78.924 0 1.606-.295 2.046-.884.44-.59.659-1.336.659-2.24 0-.934-.25-1.643-.748-2.124zm-.586 3.73c-.23.472-.658.707-1.282.707-.569 0-.984-.199-1.245-.596-.262-.398-.393-.895-.393-1.492 0-.62.13-1.15.393-1.59.261-.44.68-.66 1.255-.66.649 0 1.106.259 1.371.775.167.328.251.753.251 1.277 0 .579-.117 1.105-.35 1.58z" clip-rule="evenodd"/><path d="m41.695 4.192 1.078 4.416 1.093-4.416h1.057l1.099 4.39 1.146-4.39h.942l-1.627 5.604h-.979l-1.14-4.338-1.105 4.338h-.978l-1.617-5.604h1.031zm8.205 0h-.896v5.604h.942V6.86c0-.367.023-.647.068-.843.049-.199.152-.39.309-.575.195-.23.422-.384.68-.46a1.83 1.83 0 0 1 .55-.069c.439 0 .742.175.91.524.101.209.152.484.152.826v3.532h.957V6.2c0-.565-.077-.999-.23-1.302-.28-.555-.816-.832-1.612-.832a2.25 2.25 0 0 0-.989.214c-.296.143-.577.379-.842.707v-.796zm5.095-2.082h.942v7.686h-.942V2.11z"/><path fill-rule="evenodd" d="M61.447 4.752c-.5-.481-1.11-.722-1.832-.722-.806 0-1.447.28-1.925.837-.478.558-.717 1.308-.717 2.25 0 .88.227 1.58.68 2.103.454.52 1.066.78 1.837.78.924 0 1.606-.295 2.045-.884.44-.59.66-1.336.66-2.24 0-.934-.25-1.643-.748-2.124zm-.587 3.73c-.23.472-.657.707-1.281.707-.569 0-.984-.199-1.246-.596-.261-.398-.392-.895-.392-1.492 0-.62.13-1.15.392-1.59.262-.44.68-.66 1.256-.66.649 0 1.106.259 1.37.775.168.328.252.753.252 1.277 0 .579-.117 1.105-.35 1.58zM66.323 6.4c.216-.028.36-.118.434-.272a.827.827 0 0 0 .063-.36c0-.322-.115-.554-.345-.697-.227-.146-.553-.22-.979-.22-.492 0-.84.133-1.046.398-.115.147-.19.365-.225.654h-.88c.018-.69.241-1.17.67-1.439.433-.272.934-.408 1.502-.408.66 0 1.195.126 1.606.377.408.251.613.642.613 1.172v3.228c0 .098.019.176.057.236.042.059.127.089.256.089.042 0 .09-.002.142-.006.052-.007.108-.015.167-.026v.696a2.623 2.623 0 0 1-.335.079c-.076.01-.181.015-.314.015-.324 0-.56-.115-.706-.345a1.33 1.33 0 0 1-.162-.518c-.192.251-.468.47-.827.654-.36.185-.755.277-1.188.277-.52 0-.945-.157-1.276-.47a1.585 1.585 0 0 1-.492-1.188c0-.52.162-.923.487-1.209.324-.286.75-.462 1.276-.528l1.502-.189zm-2.281 1.905c0 .272.1.486.298.643.199.157.434.236.706.236.332 0 .652-.077.963-.23.523-.255.785-.672.785-1.25v-.76a1.611 1.611 0 0 1-.445.184c-.181.048-.36.083-.534.104l-.57.073c-.342.046-.598.117-.77.215-.289.164-.433.426-.433.785zm21.263-3.553c-.499-.481-1.109-.722-1.831-.722-.806 0-1.448.28-1.925.837-.478.558-.717 1.308-.717 2.25 0 .88.226 1.58.68 2.103.453.52 1.066.78 1.836.78.925 0 1.607-.295 2.046-.884.44-.59.66-1.336.66-2.24 0-.934-.25-1.643-.749-2.124zm-.586 3.73c-.23.472-.657.707-1.282.707-.568 0-.983-.199-1.245-.596-.261-.398-.392-.895-.392-1.492 0-.62.13-1.15.392-1.59.262-.44.68-.66 1.256-.66.649 0 1.106.259 1.37.775.168.328.252.753.252 1.277 0 .579-.117 1.105-.35 1.58z" clip-rule="evenodd"/><path d="M87.204 4.192h.895v.968c.073-.188.253-.417.54-.685a1.393 1.393 0 0 1 1.077-.403l.215.02v.995a1.397 1.397 0 0 0-.31-.026c-.474 0-.838.153-1.093.46a1.588 1.588 0 0 0-.382 1.052v3.223h-.942V4.192z"/></g><defs><clipPath id="a"><path fill="#fff" d="M0 0h100v31H0z"/></clipPath></defs></svg>